G75*
%MOIN*%
%OFA0B0*%
%FSLAX24Y24*%
%IPPOS*%
%LPD*%
%AMOC8*
5,1,8,0,0,1.08239X$1,22.5*
%
%ADD10OC8,0.0660*%
%ADD11R,0.0394X0.0433*%
%ADD12C,0.0800*%
%ADD13C,0.0740*%
%ADD14C,0.0100*%
%ADD15C,0.0400*%
%ADD16C,0.0320*%
%ADD17C,0.0436*%
D10*
X013752Y001500D03*
X014752Y001500D03*
X015752Y001500D03*
X016752Y001500D03*
X017752Y001500D03*
X018752Y001500D03*
X019752Y001500D03*
X020752Y001500D03*
X022752Y001500D03*
X023752Y001500D03*
X024752Y001500D03*
X025752Y001500D03*
X026752Y001500D03*
X027752Y001500D03*
X027752Y020500D03*
X026752Y020500D03*
X025752Y020500D03*
X024752Y020500D03*
X023752Y020500D03*
X022752Y020500D03*
X021752Y020500D03*
X020752Y020500D03*
X019252Y020500D03*
X018252Y020500D03*
X017252Y020500D03*
X016252Y020500D03*
X015252Y020500D03*
X014252Y020500D03*
X013252Y020500D03*
X012252Y020500D03*
X011252Y020500D03*
X010252Y020500D03*
D11*
X011252Y017835D03*
X011252Y017165D03*
X014752Y017165D03*
X014752Y017835D03*
X018252Y017835D03*
X018252Y017165D03*
X021752Y017165D03*
X021752Y017835D03*
X025252Y017835D03*
X025252Y017165D03*
X028752Y017165D03*
X028752Y017835D03*
X028752Y014585D03*
X028752Y013915D03*
X025252Y013915D03*
X025252Y014585D03*
X021752Y014585D03*
X021752Y013915D03*
X018252Y013915D03*
X018252Y014585D03*
X014752Y014585D03*
X014752Y013915D03*
X011252Y013915D03*
X011252Y014585D03*
X007752Y014585D03*
X007752Y013915D03*
X007752Y011335D03*
X007752Y010665D03*
X007752Y008085D03*
X007752Y007415D03*
X007752Y004935D03*
X007752Y004265D03*
X004252Y004265D03*
X004252Y004935D03*
X004252Y007415D03*
X004252Y008085D03*
X004252Y010665D03*
X004252Y011335D03*
X004252Y013915D03*
X004252Y014585D03*
X004252Y017165D03*
X004252Y017835D03*
X007752Y017835D03*
X007752Y017165D03*
X011252Y011335D03*
X011252Y010665D03*
X014752Y010665D03*
X014752Y011335D03*
X018252Y011335D03*
X018252Y010665D03*
X021752Y010665D03*
X021752Y011335D03*
X025252Y011335D03*
X025252Y010665D03*
X028752Y010665D03*
X028752Y011335D03*
X028752Y008085D03*
X028752Y007415D03*
X025252Y007415D03*
X025252Y008085D03*
X021752Y008085D03*
X021752Y007415D03*
X018252Y007415D03*
X018252Y008085D03*
X014752Y008085D03*
X014752Y007415D03*
X011252Y007415D03*
X011252Y008085D03*
X011252Y004935D03*
X011252Y004265D03*
X014752Y004265D03*
X014752Y004935D03*
X018252Y004935D03*
X018252Y004265D03*
X021752Y004265D03*
X021752Y004935D03*
X025252Y004935D03*
X025252Y004265D03*
X028752Y004265D03*
X028752Y004935D03*
D12*
X007941Y002000D03*
X006563Y002000D03*
D13*
X010052Y002500D03*
X011052Y002500D03*
X012052Y002500D03*
X013752Y002500D03*
X014752Y002500D03*
X015752Y002500D03*
X016752Y002500D03*
X017752Y002500D03*
X018752Y002500D03*
X019752Y002500D03*
X020752Y002500D03*
X022752Y002500D03*
X023752Y002500D03*
X024752Y002500D03*
X025752Y002500D03*
X026752Y002500D03*
X027752Y002500D03*
X029402Y003000D03*
X027752Y019500D03*
X026752Y019500D03*
X025752Y019500D03*
X024752Y019500D03*
X023752Y019500D03*
X022752Y019500D03*
X021752Y019500D03*
X020752Y019500D03*
X019252Y019500D03*
X018252Y019500D03*
X017252Y019500D03*
X016252Y019500D03*
X015252Y019500D03*
X014252Y019500D03*
X013252Y019500D03*
X012252Y019500D03*
X011252Y019500D03*
X010252Y019500D03*
D14*
X002907Y021345D02*
X002907Y000655D01*
X003624Y000655D01*
X003321Y000753D01*
X003321Y000753D01*
X003055Y000993D01*
X003055Y000993D01*
X003055Y000993D01*
X002909Y001321D01*
X002909Y001679D01*
X003055Y002007D01*
X003055Y002007D01*
X003321Y002247D01*
X003321Y002247D01*
X003662Y002357D01*
X003662Y002357D01*
X004019Y002320D01*
X004019Y002320D01*
X004329Y002141D01*
X004329Y002141D01*
X004329Y002141D01*
X004540Y001851D01*
X004540Y001851D01*
X004614Y001500D01*
X004540Y001149D01*
X004329Y000859D01*
X004329Y000859D01*
X004019Y000680D01*
X004019Y000680D01*
X003780Y000655D01*
X029124Y000655D01*
X028821Y000753D01*
X028821Y000753D01*
X028555Y000993D01*
X028555Y000993D01*
X028409Y001321D01*
X028409Y001679D01*
X028555Y002007D01*
X028555Y002007D01*
X028821Y002247D01*
X029162Y002357D01*
X029519Y002320D01*
X029829Y002141D01*
X029829Y002141D01*
X030040Y001851D01*
X030040Y001851D01*
X030097Y001580D01*
X030097Y020420D01*
X030040Y020149D01*
X030040Y020149D01*
X029829Y019859D01*
X029829Y019859D01*
X029519Y019680D01*
X029519Y019680D01*
X029162Y019643D01*
X029162Y019643D01*
X028821Y019753D01*
X028821Y019753D01*
X028555Y019993D01*
X028555Y019993D01*
X028409Y020321D01*
X028409Y020679D01*
X028555Y021007D01*
X028555Y021007D01*
X028821Y021247D01*
X028821Y021247D01*
X029124Y021345D01*
X003780Y021345D01*
X004019Y021320D01*
X004019Y021320D01*
X004329Y021141D01*
X004329Y021141D01*
X004329Y021141D01*
X004540Y020851D01*
X004540Y020851D01*
X004614Y020500D01*
X004540Y020149D01*
X004540Y020149D01*
X004329Y019859D01*
X004329Y019859D01*
X004019Y019680D01*
X004019Y019680D01*
X003662Y019643D01*
X003662Y019643D01*
X003321Y019753D01*
X003321Y019753D01*
X003055Y019993D01*
X003055Y019993D01*
X002909Y020321D01*
X002909Y020679D01*
X003055Y021007D01*
X003055Y021007D01*
X003321Y021247D01*
X003321Y021247D01*
X003624Y021345D01*
X002907Y021345D01*
X002907Y021284D02*
X003435Y021284D01*
X003253Y021185D02*
X002907Y021185D01*
X002907Y021087D02*
X003144Y021087D01*
X003047Y020988D02*
X002907Y020988D01*
X002907Y020890D02*
X003003Y020890D01*
X002959Y020791D02*
X002907Y020791D01*
X002907Y020693D02*
X002915Y020693D01*
X002907Y020594D02*
X002909Y020594D01*
X002907Y020496D02*
X002909Y020496D01*
X002907Y020397D02*
X002909Y020397D01*
X002907Y020299D02*
X002919Y020299D01*
X002907Y020200D02*
X002963Y020200D01*
X003007Y020102D02*
X002907Y020102D01*
X002907Y020003D02*
X003051Y020003D01*
X003153Y019905D02*
X002907Y019905D01*
X002907Y019806D02*
X003263Y019806D01*
X003462Y019708D02*
X002907Y019708D01*
X002907Y019609D02*
X009756Y019609D01*
X009752Y019599D02*
X009752Y019401D01*
X009828Y019217D01*
X009969Y019076D01*
X010153Y019000D01*
X010352Y019000D01*
X010536Y019076D01*
X010676Y019217D01*
X010752Y019401D01*
X010752Y019599D01*
X010676Y019783D01*
X010536Y019924D01*
X010352Y020000D01*
X010153Y020000D01*
X009969Y019924D01*
X009828Y019783D01*
X009752Y019599D01*
X009752Y019511D02*
X002907Y019511D01*
X002907Y019412D02*
X009752Y019412D01*
X009788Y019314D02*
X002907Y019314D01*
X002907Y019215D02*
X009830Y019215D01*
X009929Y019117D02*
X003453Y019117D01*
X003439Y019130D02*
X003318Y019180D01*
X003187Y019180D01*
X003065Y019130D01*
X002973Y019037D01*
X002922Y018916D01*
X002922Y018784D01*
X002973Y018663D01*
X003065Y018570D01*
X003072Y018567D01*
X003072Y003118D01*
X003068Y003112D01*
X003072Y003044D01*
X003072Y002975D01*
X003077Y002971D01*
X003078Y002964D01*
X003129Y002918D01*
X003178Y002870D01*
X003185Y002870D01*
X003529Y002568D01*
X003578Y002520D01*
X003585Y002520D01*
X003590Y002515D01*
X003658Y002520D01*
X004928Y002520D01*
X005522Y001925D01*
X005522Y001025D01*
X005728Y000820D01*
X015327Y000820D01*
X015554Y001047D01*
X015562Y001040D01*
X015943Y001040D01*
X016212Y001309D01*
X016212Y001691D01*
X015943Y001960D01*
X015562Y001960D01*
X015292Y001691D01*
X015292Y001309D01*
X015300Y001302D01*
X015178Y001180D01*
X015083Y001180D01*
X015212Y001309D01*
X015212Y001691D01*
X014943Y001960D01*
X014562Y001960D01*
X014292Y001691D01*
X014292Y001309D01*
X014422Y001180D01*
X014083Y001180D01*
X014212Y001309D01*
X014212Y001691D01*
X013943Y001960D01*
X013562Y001960D01*
X013292Y001691D01*
X013292Y001309D01*
X013422Y001180D01*
X009992Y001180D01*
X010217Y001404D01*
X010298Y001486D01*
X010342Y001592D01*
X010342Y002083D01*
X010476Y002217D01*
X010552Y002401D01*
X010552Y002599D01*
X010476Y002783D01*
X010336Y002924D01*
X010152Y003000D01*
X009953Y003000D01*
X009769Y002924D01*
X009628Y002783D01*
X009552Y002599D01*
X009552Y002401D01*
X009628Y002217D01*
X009762Y002083D01*
X009762Y001770D01*
X009582Y001590D01*
X008309Y001590D01*
X008361Y001642D01*
X008412Y001712D01*
X008451Y001789D01*
X008478Y001871D01*
X008490Y001950D01*
X007991Y001950D01*
X007991Y002050D01*
X007891Y002050D01*
X007891Y001950D01*
X007392Y001950D01*
X007405Y001871D01*
X007432Y001789D01*
X007471Y001712D01*
X007522Y001642D01*
X007574Y001590D01*
X007181Y001590D01*
X007034Y001752D01*
X007093Y001895D01*
X007093Y002105D01*
X007013Y002300D01*
X006864Y002449D01*
X006669Y002530D01*
X006458Y002530D01*
X006263Y002449D01*
X006114Y002300D01*
X006033Y002105D01*
X006033Y001895D01*
X006114Y001700D01*
X006263Y001551D01*
X006458Y001470D01*
X006507Y001470D01*
X006770Y001180D01*
X005882Y001180D01*
X005882Y002075D01*
X005777Y002180D01*
X005077Y002880D01*
X003720Y002880D01*
X003432Y003132D01*
X003432Y018567D01*
X003439Y018570D01*
X003532Y018663D01*
X003582Y018784D01*
X003582Y018916D01*
X003532Y019037D01*
X003439Y019130D01*
X003540Y019018D02*
X010109Y019018D01*
X010395Y019018D02*
X011109Y019018D01*
X011153Y019000D02*
X011352Y019000D01*
X011536Y019076D01*
X011676Y019217D01*
X011752Y019401D01*
X011752Y019599D01*
X011676Y019783D01*
X011536Y019924D01*
X011352Y020000D01*
X011153Y020000D01*
X010969Y019924D01*
X010828Y019783D01*
X010752Y019599D01*
X010752Y019401D01*
X010828Y019217D01*
X010969Y019076D01*
X011153Y019000D01*
X011395Y019018D02*
X012109Y019018D01*
X012153Y019000D02*
X012352Y019000D01*
X012536Y019076D01*
X012676Y019217D01*
X012745Y019382D01*
X012745Y019378D01*
X012770Y019300D01*
X012808Y019227D01*
X012856Y019161D01*
X012914Y019103D01*
X012980Y019055D01*
X013053Y019018D01*
X012395Y019018D01*
X012576Y019117D02*
X012900Y019117D01*
X012817Y019215D02*
X012675Y019215D01*
X012716Y019314D02*
X012766Y019314D01*
X012745Y019618D02*
X012676Y019783D01*
X012536Y019924D01*
X012352Y020000D01*
X012153Y020000D01*
X011969Y019924D01*
X011828Y019783D01*
X011752Y019599D01*
X011752Y019401D01*
X011828Y019217D01*
X011969Y019076D01*
X012153Y019000D01*
X011929Y019117D02*
X011576Y019117D01*
X011675Y019215D02*
X011830Y019215D01*
X011788Y019314D02*
X011716Y019314D01*
X011752Y019412D02*
X011752Y019412D01*
X011752Y019511D02*
X011752Y019511D01*
X011748Y019609D02*
X011756Y019609D01*
X011797Y019708D02*
X011708Y019708D01*
X011653Y019806D02*
X011851Y019806D01*
X011950Y019905D02*
X011555Y019905D01*
X011443Y020040D02*
X011712Y020309D01*
X011712Y020691D01*
X011443Y020960D01*
X011062Y020960D01*
X010792Y020691D01*
X010792Y020309D01*
X011062Y020040D01*
X011443Y020040D01*
X011504Y020102D02*
X012000Y020102D01*
X012062Y020040D02*
X012443Y020040D01*
X012712Y020309D01*
X012712Y020691D01*
X012443Y020960D01*
X012062Y020960D01*
X011792Y020691D01*
X011792Y020309D01*
X012062Y020040D01*
X011902Y020200D02*
X011603Y020200D01*
X011701Y020299D02*
X011803Y020299D01*
X011792Y020397D02*
X011712Y020397D01*
X011712Y020496D02*
X011792Y020496D01*
X011792Y020594D02*
X011712Y020594D01*
X011710Y020693D02*
X011794Y020693D01*
X011893Y020791D02*
X011612Y020791D01*
X011513Y020890D02*
X011991Y020890D01*
X012513Y020890D02*
X012963Y020890D01*
X013054Y020980D02*
X012772Y020699D01*
X012772Y020548D01*
X013204Y020548D01*
X013204Y020452D01*
X012772Y020452D01*
X012772Y020301D01*
X013054Y020020D01*
X013204Y020020D01*
X013204Y020452D01*
X013301Y020452D01*
X013301Y020548D01*
X013732Y020548D01*
X013732Y020699D01*
X013451Y020980D01*
X013301Y020980D01*
X013301Y020548D01*
X013204Y020548D01*
X013204Y020980D01*
X013054Y020980D01*
X013204Y020890D02*
X013301Y020890D01*
X013301Y020791D02*
X013204Y020791D01*
X013204Y020693D02*
X013301Y020693D01*
X013301Y020594D02*
X013204Y020594D01*
X013204Y020496D02*
X012712Y020496D01*
X012712Y020594D02*
X012772Y020594D01*
X012772Y020693D02*
X012710Y020693D01*
X012612Y020791D02*
X012865Y020791D01*
X012772Y020397D02*
X012712Y020397D01*
X012701Y020299D02*
X012775Y020299D01*
X012873Y020200D02*
X012603Y020200D01*
X012504Y020102D02*
X012972Y020102D01*
X013053Y019982D02*
X012980Y019945D01*
X012914Y019897D01*
X012856Y019839D01*
X012808Y019773D01*
X012770Y019700D01*
X012745Y019622D01*
X012745Y019618D01*
X012775Y019708D02*
X012708Y019708D01*
X012653Y019806D02*
X012832Y019806D01*
X012925Y019905D02*
X012555Y019905D01*
X013053Y019982D02*
X013131Y020007D01*
X013202Y020019D01*
X013202Y019550D01*
X013302Y019550D01*
X013302Y020019D01*
X013374Y020007D01*
X013452Y019982D01*
X013525Y019945D01*
X013591Y019897D01*
X013649Y019839D01*
X013697Y019773D01*
X013734Y019700D01*
X013760Y019622D01*
X013760Y019618D01*
X013828Y019783D01*
X013969Y019924D01*
X014153Y020000D01*
X014352Y020000D01*
X014536Y019924D01*
X014676Y019783D01*
X014752Y019599D01*
X014752Y019401D01*
X014676Y019217D01*
X014536Y019076D01*
X014352Y019000D01*
X014153Y019000D01*
X013969Y019076D01*
X013828Y019217D01*
X013760Y019382D01*
X013760Y019378D01*
X013734Y019300D01*
X013697Y019227D01*
X013649Y019161D01*
X013591Y019103D01*
X013525Y019055D01*
X013452Y019018D01*
X013374Y018993D01*
X013302Y018981D01*
X013302Y019450D01*
X013202Y019450D01*
X013202Y018981D01*
X013131Y018993D01*
X013053Y019018D01*
X013202Y019018D02*
X013302Y019018D01*
X013302Y019117D02*
X013202Y019117D01*
X013202Y019215D02*
X013302Y019215D01*
X013302Y019314D02*
X013202Y019314D01*
X013202Y019412D02*
X013302Y019412D01*
X013302Y019609D02*
X013202Y019609D01*
X013202Y019708D02*
X013302Y019708D01*
X013302Y019806D02*
X013202Y019806D01*
X013202Y019905D02*
X013302Y019905D01*
X013302Y020003D02*
X013202Y020003D01*
X013118Y020003D02*
X004434Y020003D01*
X004505Y020102D02*
X010000Y020102D01*
X010062Y020040D02*
X009792Y020309D01*
X009792Y020691D01*
X010062Y020960D01*
X010443Y020960D01*
X010712Y020691D01*
X010712Y020309D01*
X010443Y020040D01*
X010062Y020040D01*
X009950Y019905D02*
X004362Y019905D01*
X004329Y019859D02*
X004329Y019859D01*
X004237Y019806D02*
X009851Y019806D01*
X009797Y019708D02*
X004066Y019708D01*
X004551Y020200D02*
X009902Y020200D01*
X009803Y020299D02*
X004572Y020299D01*
X004593Y020397D02*
X009792Y020397D01*
X009792Y020496D02*
X004614Y020496D01*
X004594Y020594D02*
X009792Y020594D01*
X009794Y020693D02*
X004574Y020693D01*
X004553Y020791D02*
X009893Y020791D01*
X009991Y020890D02*
X004512Y020890D01*
X004440Y020988D02*
X028547Y020988D01*
X028503Y020890D02*
X028013Y020890D01*
X027943Y020960D02*
X028212Y020691D01*
X028212Y020309D01*
X027943Y020040D01*
X027562Y020040D01*
X027292Y020309D01*
X027292Y020691D01*
X027562Y020960D01*
X027943Y020960D01*
X028112Y020791D02*
X028459Y020791D01*
X028415Y020693D02*
X028210Y020693D01*
X028212Y020594D02*
X028409Y020594D01*
X028409Y020496D02*
X028212Y020496D01*
X028212Y020397D02*
X028409Y020397D01*
X028419Y020299D02*
X028201Y020299D01*
X028103Y020200D02*
X028463Y020200D01*
X028507Y020102D02*
X028004Y020102D01*
X028036Y019924D02*
X027852Y020000D01*
X027653Y020000D01*
X027469Y019924D01*
X027328Y019783D01*
X027252Y019599D01*
X027176Y019783D01*
X027036Y019924D01*
X026852Y020000D01*
X026653Y020000D01*
X026469Y019924D01*
X026328Y019783D01*
X026252Y019599D01*
X026176Y019783D01*
X026036Y019924D01*
X025852Y020000D01*
X025653Y020000D01*
X025469Y019924D01*
X025328Y019783D01*
X025252Y019599D01*
X025176Y019783D01*
X025036Y019924D01*
X024852Y020000D01*
X024653Y020000D01*
X024469Y019924D01*
X024328Y019783D01*
X024252Y019599D01*
X024176Y019783D01*
X024036Y019924D01*
X023852Y020000D01*
X023653Y020000D01*
X023469Y019924D01*
X023328Y019783D01*
X023252Y019599D01*
X023176Y019783D01*
X023036Y019924D01*
X022852Y020000D01*
X022653Y020000D01*
X022469Y019924D01*
X022328Y019783D01*
X022252Y019599D01*
X022176Y019783D01*
X022036Y019924D01*
X021852Y020000D01*
X021653Y020000D01*
X021469Y019924D01*
X021328Y019783D01*
X021252Y019599D01*
X021176Y019783D01*
X021036Y019924D01*
X020852Y020000D01*
X020653Y020000D01*
X020469Y019924D01*
X020328Y019783D01*
X020252Y019599D01*
X020252Y019401D01*
X020328Y019217D01*
X020469Y019076D01*
X020653Y019000D01*
X020852Y019000D01*
X021036Y019076D01*
X021176Y019217D01*
X021252Y019401D01*
X021252Y019599D01*
X021252Y019401D01*
X021328Y019217D01*
X021469Y019076D01*
X021653Y019000D01*
X021852Y019000D01*
X022036Y019076D01*
X022176Y019217D01*
X022252Y019401D01*
X022252Y019599D01*
X022252Y019401D01*
X022328Y019217D01*
X022469Y019076D01*
X022653Y019000D01*
X022852Y019000D01*
X023036Y019076D01*
X023176Y019217D01*
X023252Y019401D01*
X023252Y019599D01*
X023252Y019401D01*
X023328Y019217D01*
X023469Y019076D01*
X023653Y019000D01*
X023852Y019000D01*
X024036Y019076D01*
X024176Y019217D01*
X024252Y019401D01*
X024252Y019599D01*
X024252Y019401D01*
X024328Y019217D01*
X024469Y019076D01*
X024653Y019000D01*
X024852Y019000D01*
X025036Y019076D01*
X025176Y019217D01*
X025252Y019401D01*
X025252Y019599D01*
X025252Y019401D01*
X025328Y019217D01*
X025469Y019076D01*
X025653Y019000D01*
X025852Y019000D01*
X026036Y019076D01*
X026176Y019217D01*
X026252Y019401D01*
X026252Y019599D01*
X026252Y019401D01*
X026328Y019217D01*
X026469Y019076D01*
X026653Y019000D01*
X026852Y019000D01*
X027036Y019076D01*
X027176Y019217D01*
X027252Y019401D01*
X027252Y019599D01*
X027252Y019401D01*
X027328Y019217D01*
X027469Y019076D01*
X027653Y019000D01*
X027852Y019000D01*
X028036Y019076D01*
X028176Y019217D01*
X028252Y019401D01*
X028252Y019599D01*
X028176Y019783D01*
X028036Y019924D01*
X028055Y019905D02*
X028653Y019905D01*
X028551Y020003D02*
X013387Y020003D01*
X013451Y020020D02*
X013732Y020301D01*
X013732Y020452D01*
X013301Y020452D01*
X013301Y020020D01*
X013451Y020020D01*
X013533Y020102D02*
X014000Y020102D01*
X014062Y020040D02*
X014443Y020040D01*
X014712Y020309D01*
X014712Y020691D01*
X014443Y020960D01*
X014062Y020960D01*
X013792Y020691D01*
X013792Y020309D01*
X014062Y020040D01*
X013950Y019905D02*
X013580Y019905D01*
X013673Y019806D02*
X013851Y019806D01*
X013797Y019708D02*
X013730Y019708D01*
X013739Y019314D02*
X013788Y019314D01*
X013830Y019215D02*
X013688Y019215D01*
X013604Y019117D02*
X013929Y019117D01*
X014109Y019018D02*
X013452Y019018D01*
X014395Y019018D02*
X015109Y019018D01*
X015153Y019000D02*
X015352Y019000D01*
X015536Y019076D01*
X015676Y019217D01*
X015752Y019401D01*
X015752Y019599D01*
X015676Y019783D01*
X015536Y019924D01*
X015352Y020000D01*
X015153Y020000D01*
X014969Y019924D01*
X014828Y019783D01*
X014752Y019599D01*
X014752Y019401D01*
X014828Y019217D01*
X014969Y019076D01*
X015153Y019000D01*
X015395Y019018D02*
X016109Y019018D01*
X016153Y019000D02*
X015969Y019076D01*
X015828Y019217D01*
X015752Y019401D01*
X015752Y019599D01*
X015828Y019783D01*
X015969Y019924D01*
X016153Y020000D01*
X016352Y020000D01*
X016536Y019924D01*
X016676Y019783D01*
X016752Y019599D01*
X016752Y019401D01*
X016676Y019217D01*
X016536Y019076D01*
X016352Y019000D01*
X016153Y019000D01*
X016395Y019018D02*
X017109Y019018D01*
X017153Y019000D02*
X017352Y019000D01*
X017536Y019076D01*
X017676Y019217D01*
X017752Y019401D01*
X017752Y019599D01*
X017676Y019783D01*
X017536Y019924D01*
X017352Y020000D01*
X017153Y020000D01*
X016969Y019924D01*
X016828Y019783D01*
X016752Y019599D01*
X016752Y019401D01*
X016828Y019217D01*
X016969Y019076D01*
X017153Y019000D01*
X017395Y019018D02*
X018109Y019018D01*
X018153Y019000D02*
X018352Y019000D01*
X018536Y019076D01*
X018676Y019217D01*
X018752Y019401D01*
X018752Y019599D01*
X018676Y019783D01*
X018536Y019924D01*
X018352Y020000D01*
X018153Y020000D01*
X017969Y019924D01*
X017828Y019783D01*
X017752Y019599D01*
X017752Y019401D01*
X017828Y019217D01*
X017969Y019076D01*
X018153Y019000D01*
X018395Y019018D02*
X019109Y019018D01*
X019153Y019000D02*
X019352Y019000D01*
X019536Y019076D01*
X019676Y019217D01*
X019752Y019401D01*
X019752Y019599D01*
X019676Y019783D01*
X019536Y019924D01*
X019352Y020000D01*
X019153Y020000D01*
X018969Y019924D01*
X018828Y019783D01*
X018752Y019599D01*
X018752Y019401D01*
X018828Y019217D01*
X018969Y019076D01*
X019153Y019000D01*
X019395Y019018D02*
X020609Y019018D01*
X020429Y019117D02*
X019576Y019117D01*
X019675Y019215D02*
X020330Y019215D01*
X020288Y019314D02*
X019716Y019314D01*
X019752Y019412D02*
X020252Y019412D01*
X020252Y019511D02*
X019752Y019511D01*
X019748Y019609D02*
X020256Y019609D01*
X020297Y019708D02*
X019708Y019708D01*
X019653Y019806D02*
X020351Y019806D01*
X020450Y019905D02*
X019555Y019905D01*
X019443Y020040D02*
X019712Y020309D01*
X019712Y020691D01*
X019443Y020960D01*
X019062Y020960D01*
X018792Y020691D01*
X018792Y020309D01*
X019062Y020040D01*
X019443Y020040D01*
X019504Y020102D02*
X020500Y020102D01*
X020562Y020040D02*
X020943Y020040D01*
X021212Y020309D01*
X021212Y020691D01*
X020943Y020960D01*
X020562Y020960D01*
X020292Y020691D01*
X020292Y020309D01*
X020562Y020040D01*
X020402Y020200D02*
X019603Y020200D01*
X019701Y020299D02*
X020303Y020299D01*
X020292Y020397D02*
X019712Y020397D01*
X019712Y020496D02*
X020292Y020496D01*
X020292Y020594D02*
X019712Y020594D01*
X019710Y020693D02*
X020294Y020693D01*
X020393Y020791D02*
X019612Y020791D01*
X019513Y020890D02*
X020491Y020890D01*
X021013Y020890D02*
X021491Y020890D01*
X021562Y020960D02*
X021292Y020691D01*
X021292Y020309D01*
X021562Y020040D01*
X021943Y020040D01*
X022212Y020309D01*
X022212Y020691D01*
X021943Y020960D01*
X021562Y020960D01*
X021393Y020791D02*
X021112Y020791D01*
X021210Y020693D02*
X021294Y020693D01*
X021292Y020594D02*
X021212Y020594D01*
X021212Y020496D02*
X021292Y020496D01*
X021292Y020397D02*
X021212Y020397D01*
X021201Y020299D02*
X021303Y020299D01*
X021402Y020200D02*
X021103Y020200D01*
X021004Y020102D02*
X021500Y020102D01*
X021450Y019905D02*
X021055Y019905D01*
X021153Y019806D02*
X021351Y019806D01*
X021297Y019708D02*
X021208Y019708D01*
X021248Y019609D02*
X021256Y019609D01*
X021252Y019511D02*
X021252Y019511D01*
X021252Y019412D02*
X021252Y019412D01*
X021216Y019314D02*
X021288Y019314D01*
X021330Y019215D02*
X021175Y019215D01*
X021076Y019117D02*
X021429Y019117D01*
X021609Y019018D02*
X020895Y019018D01*
X021463Y018171D02*
X021498Y018191D01*
X021536Y018201D01*
X021704Y018201D01*
X021704Y017883D01*
X021704Y017786D01*
X021406Y017786D01*
X021406Y017598D01*
X021416Y017560D01*
X021435Y017526D01*
X021463Y017498D01*
X021479Y017489D01*
X021445Y017455D01*
X018560Y017455D01*
X018526Y017489D01*
X018541Y017498D01*
X018569Y017526D01*
X018589Y017560D01*
X018599Y017598D01*
X018599Y017786D01*
X018301Y017786D01*
X018301Y017883D01*
X018599Y017883D01*
X018599Y018071D01*
X018589Y018109D01*
X018569Y018143D01*
X018541Y018171D01*
X018507Y018191D01*
X018469Y018201D01*
X018301Y018201D01*
X018301Y017883D01*
X018204Y017883D01*
X018204Y017786D01*
X017906Y017786D01*
X017906Y017598D01*
X017916Y017560D01*
X017935Y017526D01*
X017963Y017498D01*
X017979Y017489D01*
X017945Y017455D01*
X015060Y017455D01*
X015026Y017489D01*
X015041Y017498D01*
X015069Y017526D01*
X015089Y017560D01*
X015099Y017598D01*
X015099Y017786D01*
X014801Y017786D01*
X014801Y017883D01*
X015099Y017883D01*
X015099Y018071D01*
X015089Y018109D01*
X015069Y018143D01*
X015041Y018171D01*
X015007Y018191D01*
X014969Y018201D01*
X014801Y018201D01*
X014801Y017883D01*
X014704Y017883D01*
X014704Y017786D01*
X014406Y017786D01*
X014406Y017598D01*
X014416Y017560D01*
X014435Y017526D01*
X014463Y017498D01*
X014479Y017489D01*
X014430Y017440D01*
X011575Y017440D01*
X011526Y017489D01*
X011541Y017498D01*
X011569Y017526D01*
X011589Y017560D01*
X011599Y017598D01*
X011599Y017786D01*
X011301Y017786D01*
X011301Y017883D01*
X011599Y017883D01*
X011599Y018071D01*
X011589Y018109D01*
X011569Y018143D01*
X011541Y018171D01*
X011507Y018191D01*
X011469Y018201D01*
X011301Y018201D01*
X011301Y017883D01*
X011204Y017883D01*
X011204Y017786D01*
X010906Y017786D01*
X010906Y017598D01*
X010916Y017560D01*
X010935Y017526D01*
X010963Y017498D01*
X010979Y017489D01*
X010945Y017455D01*
X008060Y017455D01*
X008026Y017489D01*
X008041Y017498D01*
X008069Y017526D01*
X008089Y017560D01*
X008099Y017598D01*
X008099Y017786D01*
X007801Y017786D01*
X007801Y017883D01*
X008099Y017883D01*
X008099Y018071D01*
X008089Y018109D01*
X008069Y018143D01*
X008041Y018171D01*
X008007Y018191D01*
X007969Y018201D01*
X007801Y018201D01*
X007801Y017883D01*
X007704Y017883D01*
X007704Y017786D01*
X007406Y017786D01*
X007406Y017598D01*
X007416Y017560D01*
X007435Y017526D01*
X007463Y017498D01*
X007479Y017489D01*
X007426Y017436D01*
X007426Y016895D01*
X007502Y016819D01*
X008003Y016819D01*
X008060Y016875D01*
X010945Y016875D01*
X011002Y016819D01*
X011503Y016819D01*
X011544Y016860D01*
X014460Y016860D01*
X014502Y016819D01*
X015003Y016819D01*
X015060Y016875D01*
X017945Y016875D01*
X018002Y016819D01*
X018503Y016819D01*
X018560Y016875D01*
X021445Y016875D01*
X021502Y016819D01*
X022003Y016819D01*
X022060Y016875D01*
X024945Y016875D01*
X025002Y016819D01*
X025503Y016819D01*
X025560Y016875D01*
X026797Y016875D01*
X026772Y016816D01*
X026772Y016684D01*
X026823Y016563D01*
X026915Y016470D01*
X027012Y016430D01*
X027038Y016404D01*
X027145Y016360D01*
X028360Y016360D01*
X028467Y016404D01*
X028548Y016486D01*
X028881Y016819D01*
X029003Y016819D01*
X029060Y016875D01*
X029117Y016875D01*
X029362Y016630D01*
X029362Y015712D01*
X029322Y015616D01*
X029322Y015484D01*
X029362Y015388D01*
X029362Y014470D01*
X029132Y014240D01*
X029027Y014240D01*
X029041Y014248D01*
X029069Y014276D01*
X029089Y014310D01*
X029099Y014348D01*
X029099Y014536D01*
X028801Y014536D01*
X028801Y014633D01*
X029099Y014633D01*
X029099Y014821D01*
X029089Y014859D01*
X029069Y014893D01*
X029041Y014921D01*
X029007Y014941D01*
X028969Y014951D01*
X028801Y014951D01*
X028801Y014633D01*
X028704Y014633D01*
X028704Y014536D01*
X028406Y014536D01*
X028406Y014348D01*
X028416Y014310D01*
X028435Y014276D01*
X028463Y014248D01*
X028479Y014239D01*
X028426Y014186D01*
X028426Y013645D01*
X028502Y013569D01*
X029003Y013569D01*
X029079Y013645D01*
X029079Y013660D01*
X029310Y013660D01*
X029417Y013704D01*
X029498Y013786D01*
X029898Y014186D01*
X029942Y014292D01*
X029942Y015388D01*
X029982Y015484D01*
X029982Y015616D01*
X029942Y015712D01*
X029942Y016808D01*
X029898Y016914D01*
X029817Y016996D01*
X029401Y017411D01*
X029295Y017455D01*
X029060Y017455D01*
X029026Y017489D01*
X029041Y017498D01*
X029069Y017526D01*
X029089Y017560D01*
X029099Y017598D01*
X029099Y017786D01*
X028801Y017786D01*
X028801Y017883D01*
X029099Y017883D01*
X029099Y018071D01*
X029089Y018109D01*
X029069Y018143D01*
X029041Y018171D01*
X029007Y018191D01*
X028969Y018201D01*
X028801Y018201D01*
X028801Y017883D01*
X028704Y017883D01*
X028704Y017786D01*
X028406Y017786D01*
X028406Y017598D01*
X028416Y017560D01*
X028435Y017526D01*
X028463Y017498D01*
X028479Y017489D01*
X028445Y017455D01*
X025560Y017455D01*
X025526Y017489D01*
X025541Y017498D01*
X025569Y017526D01*
X025589Y017560D01*
X025599Y017598D01*
X025599Y017786D01*
X025301Y017786D01*
X025301Y017883D01*
X025599Y017883D01*
X025599Y018071D01*
X025589Y018109D01*
X025569Y018143D01*
X025541Y018171D01*
X025507Y018191D01*
X025469Y018201D01*
X025301Y018201D01*
X025301Y017883D01*
X025204Y017883D01*
X025204Y017786D01*
X024906Y017786D01*
X024906Y017598D01*
X024916Y017560D01*
X024935Y017526D01*
X024963Y017498D01*
X024979Y017489D01*
X024945Y017455D01*
X022060Y017455D01*
X022026Y017489D01*
X022041Y017498D01*
X022069Y017526D01*
X022089Y017560D01*
X022099Y017598D01*
X022099Y017786D01*
X021801Y017786D01*
X021801Y017883D01*
X022099Y017883D01*
X022099Y018071D01*
X022089Y018109D01*
X022069Y018143D01*
X022041Y018171D01*
X022007Y018191D01*
X021969Y018201D01*
X021801Y018201D01*
X021801Y017883D01*
X021704Y017883D01*
X021406Y017883D01*
X021406Y018071D01*
X021416Y018109D01*
X021435Y018143D01*
X021463Y018171D01*
X021429Y018132D02*
X018576Y018132D01*
X018599Y018033D02*
X021406Y018033D01*
X021406Y017935D02*
X018599Y017935D01*
X018599Y017738D02*
X021406Y017738D01*
X021406Y017639D02*
X018599Y017639D01*
X018578Y017541D02*
X021427Y017541D01*
X021704Y017836D02*
X018301Y017836D01*
X018204Y017836D02*
X014801Y017836D01*
X014704Y017836D02*
X011301Y017836D01*
X011204Y017836D02*
X007801Y017836D01*
X007704Y017836D02*
X006082Y017836D01*
X006082Y017783D02*
X006082Y018367D01*
X006089Y018370D01*
X006182Y018463D01*
X006232Y018584D01*
X006232Y018716D01*
X006182Y018837D01*
X006089Y018930D01*
X005968Y018980D01*
X005837Y018980D01*
X005715Y018930D01*
X005623Y018837D01*
X005572Y018716D01*
X005572Y018584D01*
X005623Y018463D01*
X005715Y018370D01*
X005722Y018367D01*
X005722Y017783D01*
X005715Y017780D01*
X005623Y017687D01*
X005572Y017566D01*
X005572Y017434D01*
X005623Y017313D01*
X005715Y017220D01*
X005837Y017170D01*
X005968Y017170D01*
X006089Y017220D01*
X006182Y017313D01*
X006232Y017434D01*
X006232Y017566D01*
X006182Y017687D01*
X006089Y017780D01*
X006082Y017783D01*
X006132Y017738D02*
X007406Y017738D01*
X007406Y017639D02*
X006202Y017639D01*
X006232Y017541D02*
X007427Y017541D01*
X007432Y017442D02*
X006232Y017442D01*
X006195Y017344D02*
X007426Y017344D01*
X007426Y017245D02*
X006114Y017245D01*
X005902Y017500D02*
X005902Y018650D01*
X005597Y018526D02*
X003432Y018526D01*
X003432Y018427D02*
X005659Y018427D01*
X005722Y018329D02*
X003432Y018329D01*
X003432Y018230D02*
X005722Y018230D01*
X005722Y018132D02*
X004576Y018132D01*
X004569Y018143D02*
X004541Y018171D01*
X004507Y018191D01*
X004469Y018201D01*
X004301Y018201D01*
X004301Y017883D01*
X004599Y017883D01*
X004599Y018071D01*
X004589Y018109D01*
X004569Y018143D01*
X004599Y018033D02*
X005722Y018033D01*
X005722Y017935D02*
X004599Y017935D01*
X004599Y017786D02*
X004301Y017786D01*
X004301Y017883D01*
X004204Y017883D01*
X004204Y017786D01*
X003906Y017786D01*
X003906Y017598D01*
X003916Y017560D01*
X003935Y017526D01*
X003963Y017498D01*
X003979Y017489D01*
X003926Y017436D01*
X003926Y016895D01*
X003962Y016858D01*
X003962Y016827D01*
X003923Y016787D01*
X003872Y016666D01*
X003872Y016534D01*
X003923Y016413D01*
X004015Y016320D01*
X004137Y016270D01*
X004268Y016270D01*
X004389Y016320D01*
X004482Y016413D01*
X004532Y016534D01*
X004532Y016568D01*
X004542Y016592D01*
X004542Y016858D01*
X004579Y016895D01*
X004579Y017436D01*
X004526Y017489D01*
X004541Y017498D01*
X004569Y017526D01*
X004589Y017560D01*
X004599Y017598D01*
X004599Y017786D01*
X004599Y017738D02*
X005673Y017738D01*
X005722Y017836D02*
X004301Y017836D01*
X004204Y017836D02*
X003432Y017836D01*
X003432Y017738D02*
X003906Y017738D01*
X003906Y017639D02*
X003432Y017639D01*
X003432Y017541D02*
X003927Y017541D01*
X003932Y017442D02*
X003432Y017442D01*
X003432Y017344D02*
X003926Y017344D01*
X003926Y017245D02*
X003432Y017245D01*
X003432Y017147D02*
X003926Y017147D01*
X003926Y017048D02*
X003432Y017048D01*
X003432Y016950D02*
X003926Y016950D01*
X003962Y016851D02*
X003432Y016851D01*
X003432Y016753D02*
X003908Y016753D01*
X003872Y016654D02*
X003432Y016654D01*
X003432Y016556D02*
X003872Y016556D01*
X003904Y016457D02*
X003432Y016457D01*
X003432Y016359D02*
X003977Y016359D01*
X004428Y016359D02*
X029362Y016359D01*
X029362Y016457D02*
X028520Y016457D01*
X028618Y016556D02*
X029362Y016556D01*
X029338Y016654D02*
X028717Y016654D01*
X028815Y016753D02*
X029240Y016753D01*
X029141Y016851D02*
X029035Y016851D01*
X029567Y017245D02*
X030097Y017245D01*
X030097Y017147D02*
X029666Y017147D01*
X029764Y017048D02*
X030097Y017048D01*
X030097Y016950D02*
X029863Y016950D01*
X029924Y016851D02*
X030097Y016851D01*
X030097Y016753D02*
X029942Y016753D01*
X029942Y016654D02*
X030097Y016654D01*
X030097Y016556D02*
X029942Y016556D01*
X029942Y016457D02*
X030097Y016457D01*
X030097Y016359D02*
X029942Y016359D01*
X029942Y016260D02*
X030097Y016260D01*
X030097Y016162D02*
X029942Y016162D01*
X029942Y016063D02*
X030097Y016063D01*
X030097Y015965D02*
X029942Y015965D01*
X029942Y015866D02*
X030097Y015866D01*
X030097Y015768D02*
X029942Y015768D01*
X029960Y015669D02*
X030097Y015669D01*
X030097Y015571D02*
X029982Y015571D01*
X029977Y015472D02*
X030097Y015472D01*
X030097Y015374D02*
X029942Y015374D01*
X029942Y015275D02*
X030097Y015275D01*
X030097Y015177D02*
X029942Y015177D01*
X029942Y015078D02*
X030097Y015078D01*
X030097Y014980D02*
X029942Y014980D01*
X029942Y014881D02*
X030097Y014881D01*
X030097Y014783D02*
X029942Y014783D01*
X029942Y014684D02*
X030097Y014684D01*
X030097Y014586D02*
X029942Y014586D01*
X029942Y014487D02*
X030097Y014487D01*
X030097Y014389D02*
X029942Y014389D01*
X029941Y014290D02*
X030097Y014290D01*
X030097Y014192D02*
X029901Y014192D01*
X029806Y014093D02*
X030097Y014093D01*
X030097Y013995D02*
X029707Y013995D01*
X029609Y013896D02*
X030097Y013896D01*
X030097Y013798D02*
X029510Y013798D01*
X029404Y013699D02*
X030097Y013699D01*
X030097Y013601D02*
X029035Y013601D01*
X028632Y013387D02*
X028539Y013480D01*
X028418Y013530D01*
X028287Y013530D01*
X028165Y013480D01*
X028073Y013387D01*
X028070Y013380D01*
X027282Y013380D01*
X027282Y014926D01*
X027389Y014970D01*
X027482Y015063D01*
X027532Y015184D01*
X027532Y015316D01*
X027482Y015437D01*
X027389Y015530D01*
X027268Y015580D01*
X027137Y015580D01*
X027015Y015530D01*
X026923Y015437D01*
X026872Y015316D01*
X026872Y015184D01*
X026922Y015064D01*
X026922Y013225D01*
X027028Y013120D01*
X027128Y013020D01*
X028070Y013020D01*
X028073Y013013D01*
X028165Y012920D01*
X028287Y012870D01*
X028418Y012870D01*
X028539Y012920D01*
X028632Y013013D01*
X028682Y013134D01*
X028682Y013266D01*
X028632Y013387D01*
X028616Y013404D02*
X030097Y013404D01*
X030097Y013502D02*
X028486Y013502D01*
X028470Y013601D02*
X027282Y013601D01*
X027282Y013699D02*
X028426Y013699D01*
X028426Y013798D02*
X027282Y013798D01*
X027282Y013896D02*
X028426Y013896D01*
X028426Y013995D02*
X027282Y013995D01*
X027282Y014093D02*
X028426Y014093D01*
X028431Y014192D02*
X027282Y014192D01*
X027282Y014290D02*
X028427Y014290D01*
X028406Y014389D02*
X027282Y014389D01*
X027282Y014487D02*
X028406Y014487D01*
X028406Y014633D02*
X028704Y014633D01*
X028704Y014951D01*
X028536Y014951D01*
X028498Y014941D01*
X028463Y014921D01*
X028435Y014893D01*
X028416Y014859D01*
X028406Y014821D01*
X028406Y014633D01*
X028406Y014684D02*
X027282Y014684D01*
X027282Y014586D02*
X028704Y014586D01*
X028801Y014586D02*
X029362Y014586D01*
X029362Y014684D02*
X029099Y014684D01*
X029099Y014783D02*
X029362Y014783D01*
X029362Y014881D02*
X029076Y014881D01*
X028801Y014881D02*
X028704Y014881D01*
X028704Y014783D02*
X028801Y014783D01*
X028801Y014684D02*
X028704Y014684D01*
X028406Y014783D02*
X027282Y014783D01*
X027282Y014881D02*
X028428Y014881D01*
X029099Y014487D02*
X029362Y014487D01*
X029281Y014389D02*
X029099Y014389D01*
X029077Y014290D02*
X029182Y014290D01*
X029362Y014980D02*
X027399Y014980D01*
X027488Y015078D02*
X029362Y015078D01*
X029362Y015177D02*
X027529Y015177D01*
X027532Y015275D02*
X029362Y015275D01*
X029362Y015374D02*
X027508Y015374D01*
X027447Y015472D02*
X029327Y015472D01*
X029322Y015571D02*
X027291Y015571D01*
X027114Y015571D02*
X026510Y015571D01*
X026532Y015516D02*
X026482Y015637D01*
X026389Y015730D01*
X026268Y015780D01*
X026137Y015780D01*
X026015Y015730D01*
X025923Y015637D01*
X025872Y015516D01*
X025872Y015384D01*
X025912Y015288D01*
X025912Y014370D01*
X025782Y014240D01*
X025527Y014240D01*
X025541Y014248D01*
X025569Y014276D01*
X025589Y014310D01*
X025599Y014348D01*
X025599Y014536D01*
X025301Y014536D01*
X025301Y014633D01*
X025599Y014633D01*
X025599Y014821D01*
X025589Y014859D01*
X025569Y014893D01*
X025541Y014921D01*
X025507Y014941D01*
X025469Y014951D01*
X025301Y014951D01*
X025301Y014633D01*
X025204Y014633D01*
X025204Y014536D01*
X024906Y014536D01*
X024906Y014348D01*
X024916Y014310D01*
X024935Y014276D01*
X024963Y014248D01*
X024979Y014239D01*
X024945Y014205D01*
X022060Y014205D01*
X022026Y014239D01*
X022041Y014248D01*
X022069Y014276D01*
X022089Y014310D01*
X022099Y014348D01*
X022099Y014536D01*
X021801Y014536D01*
X021801Y014633D01*
X022099Y014633D01*
X022099Y014821D01*
X022089Y014859D01*
X022069Y014893D01*
X022041Y014921D01*
X022007Y014941D01*
X021969Y014951D01*
X021801Y014951D01*
X021801Y014633D01*
X021704Y014633D01*
X021704Y014536D01*
X021406Y014536D01*
X021406Y014348D01*
X021416Y014310D01*
X021435Y014276D01*
X021463Y014248D01*
X021479Y014239D01*
X021445Y014205D01*
X018560Y014205D01*
X018526Y014239D01*
X018541Y014248D01*
X018569Y014276D01*
X018589Y014310D01*
X018599Y014348D01*
X018599Y014536D01*
X018301Y014536D01*
X018301Y014633D01*
X018599Y014633D01*
X018599Y014821D01*
X018589Y014859D01*
X018569Y014893D01*
X018541Y014921D01*
X018507Y014941D01*
X018469Y014951D01*
X018301Y014951D01*
X018301Y014633D01*
X018204Y014633D01*
X018204Y014536D01*
X017906Y014536D01*
X017906Y014348D01*
X017916Y014310D01*
X017935Y014276D01*
X017963Y014248D01*
X017979Y014239D01*
X017945Y014205D01*
X015060Y014205D01*
X015026Y014239D01*
X015041Y014248D01*
X015069Y014276D01*
X015089Y014310D01*
X015099Y014348D01*
X015099Y014536D01*
X014801Y014536D01*
X014801Y014633D01*
X015099Y014633D01*
X015099Y014821D01*
X015089Y014859D01*
X015069Y014893D01*
X015041Y014921D01*
X015007Y014941D01*
X014969Y014951D01*
X014801Y014951D01*
X014801Y014633D01*
X014704Y014633D01*
X014704Y014536D01*
X014406Y014536D01*
X014406Y014348D01*
X014416Y014310D01*
X014435Y014276D01*
X014463Y014248D01*
X014479Y014239D01*
X014445Y014205D01*
X011560Y014205D01*
X011526Y014239D01*
X011541Y014248D01*
X011569Y014276D01*
X011589Y014310D01*
X011599Y014348D01*
X011599Y014536D01*
X011301Y014536D01*
X011301Y014633D01*
X011599Y014633D01*
X011599Y014821D01*
X011589Y014859D01*
X011569Y014893D01*
X011541Y014921D01*
X011507Y014941D01*
X011469Y014951D01*
X011301Y014951D01*
X011301Y014633D01*
X011204Y014633D01*
X011204Y014536D01*
X010906Y014536D01*
X010906Y014348D01*
X010916Y014310D01*
X010935Y014276D01*
X010963Y014248D01*
X010979Y014239D01*
X010945Y014205D01*
X008060Y014205D01*
X008026Y014239D01*
X008041Y014248D01*
X008069Y014276D01*
X008089Y014310D01*
X008099Y014348D01*
X008099Y014536D01*
X007801Y014536D01*
X007801Y014633D01*
X008099Y014633D01*
X008099Y014821D01*
X008089Y014859D01*
X008069Y014893D01*
X008041Y014921D01*
X008007Y014941D01*
X007969Y014951D01*
X007801Y014951D01*
X007801Y014633D01*
X007704Y014633D01*
X007704Y014536D01*
X007406Y014536D01*
X007406Y014348D01*
X007416Y014310D01*
X007435Y014276D01*
X007463Y014248D01*
X007479Y014239D01*
X007445Y014205D01*
X004560Y014205D01*
X004526Y014239D01*
X004541Y014248D01*
X004569Y014276D01*
X004589Y014310D01*
X004599Y014348D01*
X004599Y014536D01*
X004301Y014536D01*
X004301Y014633D01*
X004599Y014633D01*
X004599Y014821D01*
X004589Y014859D01*
X004569Y014893D01*
X004541Y014921D01*
X004507Y014941D01*
X004469Y014951D01*
X004301Y014951D01*
X004301Y014633D01*
X004204Y014633D01*
X004204Y014536D01*
X003906Y014536D01*
X003906Y014348D01*
X003916Y014310D01*
X003935Y014276D01*
X003963Y014248D01*
X003979Y014239D01*
X003926Y014186D01*
X003926Y013645D01*
X004002Y013569D01*
X004503Y013569D01*
X004560Y013625D01*
X007445Y013625D01*
X007502Y013569D01*
X008003Y013569D01*
X008060Y013625D01*
X010945Y013625D01*
X011002Y013569D01*
X011503Y013569D01*
X011560Y013625D01*
X014445Y013625D01*
X014502Y013569D01*
X015003Y013569D01*
X015060Y013625D01*
X017945Y013625D01*
X018002Y013569D01*
X018503Y013569D01*
X018560Y013625D01*
X021445Y013625D01*
X021502Y013569D01*
X022003Y013569D01*
X022060Y013625D01*
X024945Y013625D01*
X025002Y013569D01*
X025503Y013569D01*
X025579Y013645D01*
X025579Y013660D01*
X025960Y013660D01*
X026067Y013704D01*
X026367Y014004D01*
X026448Y014086D01*
X026492Y014192D01*
X026922Y014192D01*
X026922Y014290D02*
X026492Y014290D01*
X026492Y014192D02*
X026492Y015288D01*
X026532Y015384D01*
X026532Y015516D01*
X026532Y015472D02*
X026958Y015472D01*
X026896Y015374D02*
X026528Y015374D01*
X026492Y015275D02*
X026872Y015275D01*
X026876Y015177D02*
X026492Y015177D01*
X026492Y015078D02*
X026916Y015078D01*
X026922Y014980D02*
X026492Y014980D01*
X026492Y014881D02*
X026922Y014881D01*
X026922Y014783D02*
X026492Y014783D01*
X026492Y014684D02*
X026922Y014684D01*
X026922Y014586D02*
X026492Y014586D01*
X026492Y014487D02*
X026922Y014487D01*
X026922Y014389D02*
X026492Y014389D01*
X026451Y014093D02*
X026922Y014093D01*
X026922Y013995D02*
X026357Y013995D01*
X026259Y013896D02*
X026922Y013896D01*
X026922Y013798D02*
X026160Y013798D01*
X026054Y013699D02*
X026922Y013699D01*
X026922Y013601D02*
X025535Y013601D01*
X024970Y013601D02*
X022035Y013601D01*
X021470Y013601D02*
X018535Y013601D01*
X017970Y013601D02*
X015035Y013601D01*
X014470Y013601D02*
X011535Y013601D01*
X010970Y013601D02*
X008035Y013601D01*
X007470Y013601D02*
X004535Y013601D01*
X003970Y013601D02*
X003432Y013601D01*
X003432Y013699D02*
X003926Y013699D01*
X003926Y013798D02*
X003432Y013798D01*
X003432Y013896D02*
X003926Y013896D01*
X003926Y013995D02*
X003432Y013995D01*
X003432Y014093D02*
X003926Y014093D01*
X003931Y014192D02*
X003432Y014192D01*
X003432Y014290D02*
X003927Y014290D01*
X003906Y014389D02*
X003432Y014389D01*
X003432Y014487D02*
X003906Y014487D01*
X003906Y014633D02*
X004204Y014633D01*
X004204Y014951D01*
X004036Y014951D01*
X003998Y014941D01*
X003963Y014921D01*
X003935Y014893D01*
X003916Y014859D01*
X003906Y014821D01*
X003906Y014633D01*
X003906Y014684D02*
X003432Y014684D01*
X003432Y014586D02*
X004204Y014586D01*
X004301Y014586D02*
X007704Y014586D01*
X007704Y014633D02*
X007406Y014633D01*
X007406Y014821D01*
X007416Y014859D01*
X007435Y014893D01*
X007463Y014921D01*
X007498Y014941D01*
X007536Y014951D01*
X007704Y014951D01*
X007704Y014633D01*
X007704Y014684D02*
X007801Y014684D01*
X007801Y014586D02*
X011204Y014586D01*
X011204Y014633D02*
X010906Y014633D01*
X010906Y014821D01*
X010916Y014859D01*
X010935Y014893D01*
X010963Y014921D01*
X010998Y014941D01*
X011036Y014951D01*
X011204Y014951D01*
X011204Y014633D01*
X011204Y014684D02*
X011301Y014684D01*
X011301Y014586D02*
X014704Y014586D01*
X014704Y014633D02*
X014406Y014633D01*
X014406Y014821D01*
X014416Y014859D01*
X014435Y014893D01*
X014463Y014921D01*
X014498Y014941D01*
X014536Y014951D01*
X014704Y014951D01*
X014704Y014633D01*
X014704Y014684D02*
X014801Y014684D01*
X014801Y014586D02*
X018204Y014586D01*
X018204Y014633D02*
X017906Y014633D01*
X017906Y014821D01*
X017916Y014859D01*
X017935Y014893D01*
X017963Y014921D01*
X017998Y014941D01*
X018036Y014951D01*
X018204Y014951D01*
X018204Y014633D01*
X018204Y014684D02*
X018301Y014684D01*
X018301Y014586D02*
X021704Y014586D01*
X021704Y014633D02*
X021406Y014633D01*
X021406Y014821D01*
X021416Y014859D01*
X021435Y014893D01*
X021463Y014921D01*
X021498Y014941D01*
X021536Y014951D01*
X021704Y014951D01*
X021704Y014633D01*
X021704Y014684D02*
X021801Y014684D01*
X021801Y014586D02*
X025204Y014586D01*
X025204Y014633D02*
X024906Y014633D01*
X024906Y014821D01*
X024916Y014859D01*
X024935Y014893D01*
X024963Y014921D01*
X024998Y014941D01*
X025036Y014951D01*
X025204Y014951D01*
X025204Y014633D01*
X025204Y014684D02*
X025301Y014684D01*
X025301Y014586D02*
X025912Y014586D01*
X025912Y014684D02*
X025599Y014684D01*
X025599Y014783D02*
X025912Y014783D01*
X025912Y014881D02*
X025576Y014881D01*
X025301Y014881D02*
X025204Y014881D01*
X025204Y014783D02*
X025301Y014783D01*
X024928Y014881D02*
X022076Y014881D01*
X022099Y014783D02*
X024906Y014783D01*
X024906Y014684D02*
X022099Y014684D01*
X022099Y014487D02*
X024906Y014487D01*
X024906Y014389D02*
X022099Y014389D01*
X022077Y014290D02*
X024927Y014290D01*
X025577Y014290D02*
X025832Y014290D01*
X025912Y014389D02*
X025599Y014389D01*
X025599Y014487D02*
X025912Y014487D01*
X025912Y014980D02*
X003432Y014980D01*
X003432Y015078D02*
X025912Y015078D01*
X025912Y015177D02*
X003432Y015177D01*
X003432Y015275D02*
X025912Y015275D01*
X025877Y015374D02*
X003432Y015374D01*
X003432Y015472D02*
X025872Y015472D01*
X025895Y015571D02*
X003432Y015571D01*
X003432Y015669D02*
X025955Y015669D01*
X026107Y015768D02*
X003432Y015768D01*
X003432Y015866D02*
X029362Y015866D01*
X029362Y015768D02*
X026298Y015768D01*
X026450Y015669D02*
X029344Y015669D01*
X029362Y015965D02*
X003432Y015965D01*
X003432Y016063D02*
X029362Y016063D01*
X029362Y016162D02*
X003432Y016162D01*
X003432Y016260D02*
X029362Y016260D01*
X029469Y017344D02*
X030097Y017344D01*
X030097Y017442D02*
X029327Y017442D01*
X029078Y017541D02*
X030097Y017541D01*
X030097Y017639D02*
X029099Y017639D01*
X029099Y017738D02*
X030097Y017738D01*
X030097Y017836D02*
X028801Y017836D01*
X028704Y017836D02*
X025301Y017836D01*
X025204Y017836D02*
X021801Y017836D01*
X021801Y017935D02*
X021704Y017935D01*
X021704Y018033D02*
X021801Y018033D01*
X021801Y018132D02*
X021704Y018132D01*
X022076Y018132D02*
X024929Y018132D01*
X024935Y018143D02*
X024916Y018109D01*
X024906Y018071D01*
X024906Y017883D01*
X025204Y017883D01*
X025204Y018201D01*
X025036Y018201D01*
X024998Y018191D01*
X024963Y018171D01*
X024935Y018143D01*
X024906Y018033D02*
X022099Y018033D01*
X022099Y017935D02*
X024906Y017935D01*
X024906Y017738D02*
X022099Y017738D01*
X022099Y017639D02*
X024906Y017639D01*
X024927Y017541D02*
X022078Y017541D01*
X022035Y016851D02*
X024969Y016851D01*
X025535Y016851D02*
X026787Y016851D01*
X026772Y016753D02*
X004542Y016753D01*
X004542Y016851D02*
X007469Y016851D01*
X007426Y016950D02*
X004579Y016950D01*
X004579Y017048D02*
X007426Y017048D01*
X007426Y017147D02*
X004579Y017147D01*
X004579Y017245D02*
X005691Y017245D01*
X005610Y017344D02*
X004579Y017344D01*
X004573Y017442D02*
X005572Y017442D01*
X005572Y017541D02*
X004578Y017541D01*
X004599Y017639D02*
X005603Y017639D01*
X006082Y017935D02*
X007406Y017935D01*
X007406Y017883D02*
X007704Y017883D01*
X007704Y018201D01*
X007536Y018201D01*
X007498Y018191D01*
X007463Y018171D01*
X007435Y018143D01*
X007416Y018109D01*
X007406Y018071D01*
X007406Y017883D01*
X007406Y018033D02*
X006082Y018033D01*
X006082Y018132D02*
X007429Y018132D01*
X007704Y018132D02*
X007801Y018132D01*
X007801Y018033D02*
X007704Y018033D01*
X007704Y017935D02*
X007801Y017935D01*
X008099Y017935D02*
X010906Y017935D01*
X010906Y017883D02*
X011204Y017883D01*
X011204Y018201D01*
X011036Y018201D01*
X010998Y018191D01*
X010963Y018171D01*
X010935Y018143D01*
X010916Y018109D01*
X010906Y018071D01*
X010906Y017883D01*
X010906Y017738D02*
X008099Y017738D01*
X008099Y017639D02*
X010906Y017639D01*
X010927Y017541D02*
X008078Y017541D01*
X008099Y018033D02*
X010906Y018033D01*
X010929Y018132D02*
X008076Y018132D01*
X008035Y016851D02*
X010969Y016851D01*
X011535Y016851D02*
X014469Y016851D01*
X015035Y016851D02*
X017969Y016851D01*
X018535Y016851D02*
X021469Y016851D01*
X021428Y014881D02*
X018576Y014881D01*
X018599Y014783D02*
X021406Y014783D01*
X021406Y014684D02*
X018599Y014684D01*
X018599Y014487D02*
X021406Y014487D01*
X021406Y014389D02*
X018599Y014389D01*
X018577Y014290D02*
X021427Y014290D01*
X021704Y014783D02*
X021801Y014783D01*
X021801Y014881D02*
X021704Y014881D01*
X018301Y014881D02*
X018204Y014881D01*
X018204Y014783D02*
X018301Y014783D01*
X017928Y014881D02*
X015076Y014881D01*
X015099Y014783D02*
X017906Y014783D01*
X017906Y014684D02*
X015099Y014684D01*
X015099Y014487D02*
X017906Y014487D01*
X017906Y014389D02*
X015099Y014389D01*
X015077Y014290D02*
X017927Y014290D01*
X014801Y014783D02*
X014704Y014783D01*
X014704Y014881D02*
X014801Y014881D01*
X014428Y014881D02*
X011576Y014881D01*
X011599Y014783D02*
X014406Y014783D01*
X014406Y014684D02*
X011599Y014684D01*
X011599Y014487D02*
X014406Y014487D01*
X014406Y014389D02*
X011599Y014389D01*
X011577Y014290D02*
X014427Y014290D01*
X011301Y014783D02*
X011204Y014783D01*
X011204Y014881D02*
X011301Y014881D01*
X010928Y014881D02*
X008076Y014881D01*
X008099Y014783D02*
X010906Y014783D01*
X010906Y014684D02*
X008099Y014684D01*
X008099Y014487D02*
X010906Y014487D01*
X010906Y014389D02*
X008099Y014389D01*
X008077Y014290D02*
X010927Y014290D01*
X007801Y014783D02*
X007704Y014783D01*
X007704Y014881D02*
X007801Y014881D01*
X007428Y014881D02*
X004576Y014881D01*
X004599Y014783D02*
X007406Y014783D01*
X007406Y014684D02*
X004599Y014684D01*
X004599Y014487D02*
X007406Y014487D01*
X007406Y014389D02*
X004599Y014389D01*
X004577Y014290D02*
X007427Y014290D01*
X005789Y012480D02*
X005668Y012530D01*
X005537Y012530D01*
X005415Y012480D01*
X005323Y012387D01*
X005272Y012266D01*
X005272Y012134D01*
X005323Y012013D01*
X005415Y011920D01*
X005422Y011917D01*
X005422Y011325D01*
X005525Y011223D01*
X005522Y011216D01*
X005522Y011084D01*
X005573Y010963D01*
X005580Y010955D01*
X004560Y010955D01*
X004526Y010989D01*
X004541Y010998D01*
X004569Y011026D01*
X004589Y011060D01*
X004599Y011098D01*
X004599Y011286D01*
X004301Y011286D01*
X004301Y011383D01*
X004599Y011383D01*
X004599Y011571D01*
X004589Y011609D01*
X004569Y011643D01*
X004541Y011671D01*
X004507Y011691D01*
X004469Y011701D01*
X004301Y011701D01*
X004301Y011383D01*
X004204Y011383D01*
X004204Y011286D01*
X003906Y011286D01*
X003906Y011098D01*
X003916Y011060D01*
X003935Y011026D01*
X003963Y010998D01*
X003979Y010989D01*
X003926Y010936D01*
X003926Y010395D01*
X004002Y010319D01*
X004503Y010319D01*
X004560Y010375D01*
X007445Y010375D01*
X007502Y010319D01*
X008003Y010319D01*
X008060Y010375D01*
X010945Y010375D01*
X011002Y010319D01*
X011503Y010319D01*
X011560Y010375D01*
X014445Y010375D01*
X014502Y010319D01*
X015003Y010319D01*
X015060Y010375D01*
X017945Y010375D01*
X018002Y010319D01*
X018503Y010319D01*
X018560Y010375D01*
X021445Y010375D01*
X021502Y010319D01*
X022003Y010319D01*
X022060Y010375D01*
X024945Y010375D01*
X025002Y010319D01*
X025503Y010319D01*
X025560Y010375D01*
X028297Y010375D01*
X028297Y010111D01*
X028273Y010087D01*
X028222Y009966D01*
X028222Y009834D01*
X028273Y009713D01*
X028365Y009620D01*
X028487Y009570D01*
X028618Y009570D01*
X028739Y009620D01*
X028832Y009713D01*
X028882Y009834D01*
X028882Y009966D01*
X028877Y009979D01*
X028877Y010319D01*
X029003Y010319D01*
X029079Y010395D01*
X029079Y010410D01*
X029362Y010410D01*
X029362Y007870D01*
X029182Y007690D01*
X029075Y007690D01*
X029026Y007739D01*
X029041Y007748D01*
X029069Y007776D01*
X029089Y007810D01*
X029099Y007848D01*
X029099Y008036D01*
X028801Y008036D01*
X028801Y008133D01*
X029099Y008133D01*
X029099Y008321D01*
X029089Y008359D01*
X029069Y008393D01*
X029041Y008421D01*
X029007Y008441D01*
X028969Y008451D01*
X028801Y008451D01*
X028801Y008133D01*
X028704Y008133D01*
X028704Y008036D01*
X028406Y008036D01*
X028406Y007848D01*
X028416Y007810D01*
X028435Y007776D01*
X028463Y007748D01*
X028479Y007739D01*
X028426Y007686D01*
X028426Y007145D01*
X028462Y007108D01*
X028462Y007012D01*
X028418Y007030D01*
X028287Y007030D01*
X028165Y006980D01*
X028073Y006887D01*
X028070Y006880D01*
X027282Y006880D01*
X027282Y008397D01*
X027339Y008420D01*
X027432Y008513D01*
X027482Y008634D01*
X027482Y008766D01*
X027432Y008887D01*
X027339Y008980D01*
X027218Y009030D01*
X027087Y009030D01*
X026965Y008980D01*
X026873Y008887D01*
X026822Y008766D01*
X026822Y008634D01*
X026873Y008513D01*
X026922Y008463D01*
X026922Y006725D01*
X027028Y006620D01*
X027128Y006520D01*
X028070Y006520D01*
X028073Y006513D01*
X028165Y006420D01*
X028287Y006370D01*
X028418Y006370D01*
X028539Y006420D01*
X028632Y006513D01*
X028675Y006617D01*
X029233Y006060D01*
X029273Y005963D01*
X029365Y005870D01*
X029487Y005820D01*
X029618Y005820D01*
X029739Y005870D01*
X029832Y005963D01*
X029882Y006084D01*
X029882Y006216D01*
X029832Y006337D01*
X029739Y006430D01*
X029643Y006470D01*
X029042Y007070D01*
X029042Y007108D01*
X029044Y007110D01*
X029360Y007110D01*
X029467Y007154D01*
X029817Y007504D01*
X029898Y007586D01*
X029942Y007692D01*
X029942Y010608D01*
X029898Y010714D01*
X029748Y010864D01*
X029667Y010946D01*
X029560Y010990D01*
X029027Y010990D01*
X029041Y010998D01*
X029069Y011026D01*
X029089Y011060D01*
X029099Y011098D01*
X029099Y011286D01*
X028801Y011286D01*
X028801Y011383D01*
X029099Y011383D01*
X029099Y011571D01*
X029089Y011609D01*
X029069Y011643D01*
X029041Y011671D01*
X029007Y011691D01*
X028969Y011701D01*
X028801Y011701D01*
X028801Y011383D01*
X028704Y011383D01*
X028704Y011286D01*
X028406Y011286D01*
X028406Y011098D01*
X028416Y011060D01*
X028435Y011026D01*
X028463Y010998D01*
X028479Y010989D01*
X028445Y010955D01*
X025560Y010955D01*
X025526Y010989D01*
X025541Y010998D01*
X025569Y011026D01*
X025589Y011060D01*
X025599Y011098D01*
X025599Y011286D01*
X025301Y011286D01*
X025301Y011383D01*
X025599Y011383D01*
X025599Y011571D01*
X025589Y011609D01*
X025569Y011643D01*
X025541Y011671D01*
X025507Y011691D01*
X025469Y011701D01*
X025301Y011701D01*
X025301Y011383D01*
X025204Y011383D01*
X025204Y011286D01*
X024906Y011286D01*
X024906Y011098D01*
X024916Y011060D01*
X024935Y011026D01*
X024963Y010998D01*
X024979Y010989D01*
X024945Y010955D01*
X022060Y010955D01*
X022026Y010989D01*
X022041Y010998D01*
X022069Y011026D01*
X022089Y011060D01*
X022099Y011098D01*
X022099Y011286D01*
X021801Y011286D01*
X021801Y011383D01*
X022099Y011383D01*
X022099Y011571D01*
X022089Y011609D01*
X022069Y011643D01*
X022041Y011671D01*
X022007Y011691D01*
X021969Y011701D01*
X021801Y011701D01*
X021801Y011383D01*
X021704Y011383D01*
X021704Y011286D01*
X021406Y011286D01*
X021406Y011098D01*
X021416Y011060D01*
X021435Y011026D01*
X021463Y010998D01*
X021479Y010989D01*
X021445Y010955D01*
X018560Y010955D01*
X018526Y010989D01*
X018541Y010998D01*
X018569Y011026D01*
X018589Y011060D01*
X018599Y011098D01*
X018599Y011286D01*
X018301Y011286D01*
X018301Y011383D01*
X018599Y011383D01*
X018599Y011571D01*
X018589Y011609D01*
X018569Y011643D01*
X018541Y011671D01*
X018507Y011691D01*
X018469Y011701D01*
X018301Y011701D01*
X018301Y011383D01*
X018204Y011383D01*
X018204Y011286D01*
X017906Y011286D01*
X017906Y011098D01*
X017916Y011060D01*
X017935Y011026D01*
X017963Y010998D01*
X017979Y010989D01*
X017945Y010955D01*
X015060Y010955D01*
X015026Y010989D01*
X015041Y010998D01*
X015069Y011026D01*
X015089Y011060D01*
X015099Y011098D01*
X015099Y011286D01*
X014801Y011286D01*
X014801Y011383D01*
X015099Y011383D01*
X015099Y011571D01*
X015089Y011609D01*
X015069Y011643D01*
X015041Y011671D01*
X015007Y011691D01*
X014969Y011701D01*
X014801Y011701D01*
X014801Y011383D01*
X014704Y011383D01*
X014704Y011286D01*
X014406Y011286D01*
X014406Y011098D01*
X014416Y011060D01*
X014435Y011026D01*
X014463Y010998D01*
X014479Y010989D01*
X014445Y010955D01*
X011560Y010955D01*
X011526Y010989D01*
X011541Y010998D01*
X011569Y011026D01*
X011589Y011060D01*
X011599Y011098D01*
X011599Y011286D01*
X011301Y011286D01*
X011301Y011383D01*
X011599Y011383D01*
X011599Y011571D01*
X011589Y011609D01*
X011569Y011643D01*
X011541Y011671D01*
X011507Y011691D01*
X011469Y011701D01*
X011301Y011701D01*
X011301Y011383D01*
X011204Y011383D01*
X011204Y011286D01*
X010906Y011286D01*
X010906Y011098D01*
X010916Y011060D01*
X010935Y011026D01*
X010963Y010998D01*
X010979Y010989D01*
X010945Y010955D01*
X008060Y010955D01*
X008026Y010989D01*
X008041Y010998D01*
X008069Y011026D01*
X008089Y011060D01*
X008099Y011098D01*
X008099Y011286D01*
X007801Y011286D01*
X007801Y011383D01*
X008099Y011383D01*
X008099Y011571D01*
X008089Y011609D01*
X008069Y011643D01*
X008041Y011671D01*
X008007Y011691D01*
X007969Y011701D01*
X007801Y011701D01*
X007801Y011383D01*
X007704Y011383D01*
X007704Y011286D01*
X007406Y011286D01*
X007406Y011098D01*
X007416Y011060D01*
X007435Y011026D01*
X007463Y010998D01*
X007479Y010989D01*
X007445Y010955D01*
X006124Y010955D01*
X006132Y010963D01*
X006182Y011084D01*
X006182Y011216D01*
X006132Y011337D01*
X006039Y011430D01*
X005918Y011480D01*
X005787Y011480D01*
X005782Y011478D01*
X005782Y011917D01*
X005789Y011920D01*
X005882Y012013D01*
X005932Y012134D01*
X005932Y012266D01*
X005882Y012387D01*
X005789Y012480D01*
X005851Y012419D02*
X030097Y012419D01*
X030097Y012517D02*
X005699Y012517D01*
X005505Y012517D02*
X003432Y012517D01*
X003432Y012419D02*
X005354Y012419D01*
X005295Y012320D02*
X003432Y012320D01*
X003432Y012222D02*
X005272Y012222D01*
X005277Y012123D02*
X003432Y012123D01*
X003432Y012025D02*
X005318Y012025D01*
X005410Y011926D02*
X003432Y011926D01*
X003432Y011828D02*
X005422Y011828D01*
X005422Y011729D02*
X003432Y011729D01*
X003432Y011631D02*
X003928Y011631D01*
X003935Y011643D02*
X003916Y011609D01*
X003906Y011571D01*
X003906Y011383D01*
X004204Y011383D01*
X004204Y011701D01*
X004036Y011701D01*
X003998Y011691D01*
X003963Y011671D01*
X003935Y011643D01*
X003906Y011532D02*
X003432Y011532D01*
X003432Y011434D02*
X003906Y011434D01*
X003906Y011237D02*
X003432Y011237D01*
X003432Y011335D02*
X004204Y011335D01*
X004301Y011335D02*
X005422Y011335D01*
X005422Y011434D02*
X004599Y011434D01*
X004599Y011532D02*
X005422Y011532D01*
X005422Y011631D02*
X004577Y011631D01*
X004301Y011631D02*
X004204Y011631D01*
X004204Y011532D02*
X004301Y011532D01*
X004301Y011434D02*
X004204Y011434D01*
X003906Y011138D02*
X003432Y011138D01*
X003432Y011040D02*
X003928Y011040D01*
X003931Y010941D02*
X003432Y010941D01*
X003432Y010843D02*
X003926Y010843D01*
X003926Y010744D02*
X003432Y010744D01*
X003432Y010646D02*
X003926Y010646D01*
X003926Y010547D02*
X003432Y010547D01*
X003432Y010449D02*
X003926Y010449D01*
X003970Y010350D02*
X003432Y010350D01*
X003432Y010252D02*
X028297Y010252D01*
X028297Y010350D02*
X025534Y010350D01*
X024970Y010350D02*
X022034Y010350D01*
X021470Y010350D02*
X018534Y010350D01*
X017970Y010350D02*
X015034Y010350D01*
X014470Y010350D02*
X011534Y010350D01*
X010970Y010350D02*
X008034Y010350D01*
X007470Y010350D02*
X004534Y010350D01*
X004577Y011040D02*
X005541Y011040D01*
X005522Y011138D02*
X004599Y011138D01*
X004599Y011237D02*
X005511Y011237D01*
X005602Y011400D02*
X005852Y011150D01*
X006182Y011138D02*
X007406Y011138D01*
X007406Y011237D02*
X006174Y011237D01*
X006133Y011335D02*
X007704Y011335D01*
X007704Y011383D02*
X007406Y011383D01*
X007406Y011571D01*
X007416Y011609D01*
X007435Y011643D01*
X007463Y011671D01*
X007498Y011691D01*
X007536Y011701D01*
X007704Y011701D01*
X007704Y011383D01*
X007704Y011434D02*
X007801Y011434D01*
X007801Y011532D02*
X007704Y011532D01*
X007704Y011631D02*
X007801Y011631D01*
X008077Y011631D02*
X010928Y011631D01*
X010935Y011643D02*
X010916Y011609D01*
X010906Y011571D01*
X010906Y011383D01*
X011204Y011383D01*
X011204Y011701D01*
X011036Y011701D01*
X010998Y011691D01*
X010963Y011671D01*
X010935Y011643D01*
X010906Y011532D02*
X008099Y011532D01*
X008099Y011434D02*
X010906Y011434D01*
X010906Y011237D02*
X008099Y011237D01*
X008099Y011138D02*
X010906Y011138D01*
X010928Y011040D02*
X008077Y011040D01*
X007801Y011335D02*
X011204Y011335D01*
X011301Y011335D02*
X014704Y011335D01*
X014704Y011383D02*
X014406Y011383D01*
X014406Y011571D01*
X014416Y011609D01*
X014435Y011643D01*
X014463Y011671D01*
X014498Y011691D01*
X014536Y011701D01*
X014704Y011701D01*
X014704Y011383D01*
X014704Y011434D02*
X014801Y011434D01*
X014801Y011532D02*
X014704Y011532D01*
X014704Y011631D02*
X014801Y011631D01*
X015077Y011631D02*
X017928Y011631D01*
X017935Y011643D02*
X017916Y011609D01*
X017906Y011571D01*
X017906Y011383D01*
X018204Y011383D01*
X018204Y011701D01*
X018036Y011701D01*
X017998Y011691D01*
X017963Y011671D01*
X017935Y011643D01*
X017906Y011532D02*
X015099Y011532D01*
X015099Y011434D02*
X017906Y011434D01*
X017906Y011237D02*
X015099Y011237D01*
X015099Y011138D02*
X017906Y011138D01*
X017928Y011040D02*
X015077Y011040D01*
X014801Y011335D02*
X018204Y011335D01*
X018301Y011335D02*
X021704Y011335D01*
X021704Y011383D02*
X021406Y011383D01*
X021406Y011571D01*
X021416Y011609D01*
X021435Y011643D01*
X021463Y011671D01*
X021498Y011691D01*
X021536Y011701D01*
X021704Y011701D01*
X021704Y011383D01*
X021704Y011434D02*
X021801Y011434D01*
X021801Y011532D02*
X021704Y011532D01*
X021704Y011631D02*
X021801Y011631D01*
X022077Y011631D02*
X024928Y011631D01*
X024935Y011643D02*
X024916Y011609D01*
X024906Y011571D01*
X024906Y011383D01*
X025204Y011383D01*
X025204Y011701D01*
X025036Y011701D01*
X024998Y011691D01*
X024963Y011671D01*
X024935Y011643D01*
X024906Y011532D02*
X022099Y011532D01*
X022099Y011434D02*
X024906Y011434D01*
X024906Y011237D02*
X022099Y011237D01*
X022099Y011138D02*
X024906Y011138D01*
X024928Y011040D02*
X022077Y011040D01*
X021801Y011335D02*
X025204Y011335D01*
X025301Y011335D02*
X028704Y011335D01*
X028704Y011383D02*
X028406Y011383D01*
X028406Y011571D01*
X028416Y011609D01*
X028435Y011643D01*
X028463Y011671D01*
X028498Y011691D01*
X028536Y011701D01*
X028704Y011701D01*
X028704Y011383D01*
X028704Y011434D02*
X028801Y011434D01*
X028801Y011532D02*
X028704Y011532D01*
X028704Y011631D02*
X028801Y011631D01*
X029077Y011631D02*
X030097Y011631D01*
X030097Y011729D02*
X005782Y011729D01*
X005782Y011631D02*
X007428Y011631D01*
X007406Y011532D02*
X005782Y011532D01*
X005602Y011400D02*
X005602Y012200D01*
X005910Y012320D02*
X030097Y012320D01*
X030097Y012222D02*
X005932Y012222D01*
X005928Y012123D02*
X030097Y012123D01*
X030097Y012025D02*
X005887Y012025D01*
X005795Y011926D02*
X030097Y011926D01*
X030097Y011828D02*
X005782Y011828D01*
X006030Y011434D02*
X007406Y011434D01*
X007428Y011040D02*
X006164Y011040D01*
X003432Y010153D02*
X028297Y010153D01*
X028259Y010055D02*
X003432Y010055D01*
X003432Y009956D02*
X028222Y009956D01*
X028222Y009858D02*
X003432Y009858D01*
X003432Y009759D02*
X028254Y009759D01*
X028325Y009661D02*
X003432Y009661D01*
X003432Y009562D02*
X029362Y009562D01*
X029362Y009464D02*
X003432Y009464D01*
X003432Y009365D02*
X029362Y009365D01*
X029362Y009267D02*
X003432Y009267D01*
X003432Y009168D02*
X025979Y009168D01*
X026015Y009205D02*
X025923Y009112D01*
X025872Y008991D01*
X025872Y008859D01*
X025912Y008763D01*
X025912Y007870D01*
X025748Y007705D01*
X025560Y007705D01*
X025526Y007739D01*
X025541Y007748D01*
X025569Y007776D01*
X025589Y007810D01*
X025599Y007848D01*
X025599Y008036D01*
X025301Y008036D01*
X025301Y008133D01*
X025599Y008133D01*
X025599Y008321D01*
X025589Y008359D01*
X025569Y008393D01*
X025541Y008421D01*
X025507Y008441D01*
X025469Y008451D01*
X025301Y008451D01*
X025301Y008133D01*
X025204Y008133D01*
X025204Y008036D01*
X024906Y008036D01*
X024906Y007848D01*
X024916Y007810D01*
X024935Y007776D01*
X024963Y007748D01*
X024979Y007739D01*
X024945Y007705D01*
X022060Y007705D01*
X022026Y007739D01*
X022041Y007748D01*
X022069Y007776D01*
X022089Y007810D01*
X022099Y007848D01*
X022099Y008036D01*
X021801Y008036D01*
X021801Y008133D01*
X022099Y008133D01*
X022099Y008321D01*
X022089Y008359D01*
X022069Y008393D01*
X022041Y008421D01*
X022007Y008441D01*
X021969Y008451D01*
X021801Y008451D01*
X021801Y008133D01*
X021704Y008133D01*
X021704Y008036D01*
X021406Y008036D01*
X021406Y007848D01*
X021416Y007810D01*
X021435Y007776D01*
X021463Y007748D01*
X021479Y007739D01*
X021445Y007705D01*
X018560Y007705D01*
X018526Y007739D01*
X018541Y007748D01*
X018569Y007776D01*
X018589Y007810D01*
X018599Y007848D01*
X018599Y008036D01*
X018301Y008036D01*
X018301Y008133D01*
X018599Y008133D01*
X018599Y008321D01*
X018589Y008359D01*
X018569Y008393D01*
X018541Y008421D01*
X018507Y008441D01*
X018469Y008451D01*
X018301Y008451D01*
X018301Y008133D01*
X018204Y008133D01*
X018204Y008036D01*
X017906Y008036D01*
X017906Y007848D01*
X017916Y007810D01*
X017935Y007776D01*
X017963Y007748D01*
X017979Y007739D01*
X017945Y007705D01*
X015060Y007705D01*
X015026Y007739D01*
X015041Y007748D01*
X015069Y007776D01*
X015089Y007810D01*
X015099Y007848D01*
X015099Y008036D01*
X014801Y008036D01*
X014801Y008133D01*
X015099Y008133D01*
X015099Y008321D01*
X015089Y008359D01*
X015069Y008393D01*
X015041Y008421D01*
X015007Y008441D01*
X014969Y008451D01*
X014801Y008451D01*
X014801Y008133D01*
X014704Y008133D01*
X014704Y008036D01*
X014406Y008036D01*
X014406Y007848D01*
X014416Y007810D01*
X014435Y007776D01*
X014463Y007748D01*
X014479Y007739D01*
X014445Y007705D01*
X011560Y007705D01*
X011526Y007739D01*
X011541Y007748D01*
X011569Y007776D01*
X011589Y007810D01*
X011599Y007848D01*
X011599Y008036D01*
X011301Y008036D01*
X011301Y008133D01*
X011599Y008133D01*
X011599Y008321D01*
X011589Y008359D01*
X011569Y008393D01*
X011541Y008421D01*
X011507Y008441D01*
X011469Y008451D01*
X011301Y008451D01*
X011301Y008133D01*
X011204Y008133D01*
X011204Y008036D01*
X010906Y008036D01*
X010906Y007848D01*
X010916Y007810D01*
X010935Y007776D01*
X010963Y007748D01*
X010979Y007739D01*
X010945Y007705D01*
X008060Y007705D01*
X008026Y007739D01*
X008041Y007748D01*
X008069Y007776D01*
X008089Y007810D01*
X008099Y007848D01*
X008099Y008036D01*
X007801Y008036D01*
X007801Y008133D01*
X008099Y008133D01*
X008099Y008321D01*
X008089Y008359D01*
X008069Y008393D01*
X008041Y008421D01*
X008007Y008441D01*
X007969Y008451D01*
X007801Y008451D01*
X007801Y008133D01*
X007704Y008133D01*
X007704Y008036D01*
X007406Y008036D01*
X007406Y007848D01*
X007416Y007810D01*
X007435Y007776D01*
X007463Y007748D01*
X007479Y007739D01*
X007445Y007705D01*
X004560Y007705D01*
X004526Y007739D01*
X004541Y007748D01*
X004569Y007776D01*
X004589Y007810D01*
X004599Y007848D01*
X004599Y008036D01*
X004301Y008036D01*
X004301Y008133D01*
X004599Y008133D01*
X004599Y008321D01*
X004589Y008359D01*
X004569Y008393D01*
X004541Y008421D01*
X004507Y008441D01*
X004469Y008451D01*
X004301Y008451D01*
X004301Y008133D01*
X004204Y008133D01*
X004204Y008036D01*
X003906Y008036D01*
X003906Y007848D01*
X003916Y007810D01*
X003935Y007776D01*
X003963Y007748D01*
X003979Y007739D01*
X003926Y007686D01*
X003926Y007145D01*
X004002Y007069D01*
X004503Y007069D01*
X004560Y007125D01*
X007445Y007125D01*
X007502Y007069D01*
X008003Y007069D01*
X008060Y007125D01*
X010945Y007125D01*
X011002Y007069D01*
X011503Y007069D01*
X011560Y007125D01*
X014445Y007125D01*
X014502Y007069D01*
X015003Y007069D01*
X015060Y007125D01*
X017945Y007125D01*
X018002Y007069D01*
X018503Y007069D01*
X018560Y007125D01*
X021445Y007125D01*
X021502Y007069D01*
X022003Y007069D01*
X022060Y007125D01*
X024945Y007125D01*
X025002Y007069D01*
X025503Y007069D01*
X025560Y007125D01*
X025925Y007125D01*
X026032Y007170D01*
X026448Y007586D01*
X026492Y007692D01*
X026492Y008763D01*
X026532Y008859D01*
X026532Y008991D01*
X026482Y009112D01*
X026389Y009205D01*
X026268Y009255D01*
X026137Y009255D01*
X026015Y009205D01*
X025905Y009070D02*
X003432Y009070D01*
X003432Y008971D02*
X025872Y008971D01*
X025872Y008873D02*
X003432Y008873D01*
X003432Y008774D02*
X025908Y008774D01*
X025912Y008676D02*
X003432Y008676D01*
X003432Y008577D02*
X025912Y008577D01*
X025912Y008479D02*
X003432Y008479D01*
X003432Y008380D02*
X003928Y008380D01*
X003935Y008393D02*
X003916Y008359D01*
X003906Y008321D01*
X003906Y008133D01*
X004204Y008133D01*
X004204Y008451D01*
X004036Y008451D01*
X003998Y008441D01*
X003963Y008421D01*
X003935Y008393D01*
X003906Y008282D02*
X003432Y008282D01*
X003432Y008183D02*
X003906Y008183D01*
X003906Y007986D02*
X003432Y007986D01*
X003432Y007888D02*
X003906Y007888D01*
X003928Y007789D02*
X003432Y007789D01*
X003432Y007691D02*
X003930Y007691D01*
X003926Y007592D02*
X003432Y007592D01*
X003432Y007494D02*
X003926Y007494D01*
X003926Y007395D02*
X003432Y007395D01*
X003432Y007297D02*
X003926Y007297D01*
X003926Y007198D02*
X003432Y007198D01*
X003432Y007100D02*
X003971Y007100D01*
X004534Y007100D02*
X007471Y007100D01*
X008034Y007100D02*
X010971Y007100D01*
X011534Y007100D02*
X014471Y007100D01*
X015034Y007100D02*
X017971Y007100D01*
X018534Y007100D02*
X021471Y007100D01*
X022034Y007100D02*
X024971Y007100D01*
X025534Y007100D02*
X026922Y007100D01*
X026922Y007198D02*
X026061Y007198D01*
X026159Y007297D02*
X026922Y007297D01*
X026922Y007395D02*
X026258Y007395D01*
X026356Y007494D02*
X026922Y007494D01*
X026922Y007592D02*
X026451Y007592D01*
X026492Y007691D02*
X026922Y007691D01*
X026922Y007789D02*
X026492Y007789D01*
X026492Y007888D02*
X026922Y007888D01*
X026922Y007986D02*
X026492Y007986D01*
X026492Y008085D02*
X026922Y008085D01*
X026922Y008183D02*
X026492Y008183D01*
X026492Y008282D02*
X026922Y008282D01*
X026922Y008380D02*
X026492Y008380D01*
X026492Y008479D02*
X026907Y008479D01*
X026846Y008577D02*
X026492Y008577D01*
X026492Y008676D02*
X026822Y008676D01*
X026826Y008774D02*
X026497Y008774D01*
X026532Y008873D02*
X026867Y008873D01*
X026957Y008971D02*
X026532Y008971D01*
X026500Y009070D02*
X029362Y009070D01*
X029362Y009168D02*
X026426Y009168D01*
X027102Y008650D02*
X027152Y008700D01*
X027102Y008650D02*
X027102Y006800D01*
X027202Y006700D01*
X028352Y006700D01*
X028190Y006410D02*
X003432Y006410D01*
X003432Y006312D02*
X028981Y006312D01*
X028882Y006410D02*
X028515Y006410D01*
X028628Y006509D02*
X028784Y006509D01*
X028685Y006607D02*
X028671Y006607D01*
X028462Y007100D02*
X027282Y007100D01*
X027282Y007198D02*
X028426Y007198D01*
X028426Y007297D02*
X027282Y007297D01*
X027282Y007395D02*
X028426Y007395D01*
X028426Y007494D02*
X027282Y007494D01*
X027282Y007592D02*
X028426Y007592D01*
X028430Y007691D02*
X027282Y007691D01*
X027282Y007789D02*
X028428Y007789D01*
X028406Y007888D02*
X027282Y007888D01*
X027282Y007986D02*
X028406Y007986D01*
X028406Y008133D02*
X028704Y008133D01*
X028704Y008451D01*
X028536Y008451D01*
X028498Y008441D01*
X028463Y008421D01*
X028435Y008393D01*
X028416Y008359D01*
X028406Y008321D01*
X028406Y008133D01*
X028406Y008183D02*
X027282Y008183D01*
X027282Y008085D02*
X028704Y008085D01*
X028801Y008085D02*
X029362Y008085D01*
X029362Y008183D02*
X029099Y008183D01*
X029099Y008282D02*
X029362Y008282D01*
X029362Y008380D02*
X029077Y008380D01*
X028801Y008380D02*
X028704Y008380D01*
X028704Y008282D02*
X028801Y008282D01*
X028801Y008183D02*
X028704Y008183D01*
X028406Y008282D02*
X027282Y008282D01*
X027282Y008380D02*
X028428Y008380D01*
X029099Y007986D02*
X029362Y007986D01*
X029362Y007888D02*
X029099Y007888D01*
X029077Y007789D02*
X029281Y007789D01*
X029183Y007691D02*
X029074Y007691D01*
X029511Y007198D02*
X030097Y007198D01*
X030097Y007100D02*
X029042Y007100D01*
X029111Y007001D02*
X030097Y007001D01*
X030097Y006903D02*
X029210Y006903D01*
X029308Y006804D02*
X030097Y006804D01*
X030097Y006706D02*
X029407Y006706D01*
X029505Y006607D02*
X030097Y006607D01*
X030097Y006509D02*
X029604Y006509D01*
X029759Y006410D02*
X030097Y006410D01*
X030097Y006312D02*
X029843Y006312D01*
X029882Y006213D02*
X030097Y006213D01*
X030097Y006115D02*
X029882Y006115D01*
X029854Y006016D02*
X030097Y006016D01*
X030097Y005918D02*
X029787Y005918D01*
X030097Y005819D02*
X008730Y005819D01*
X008750Y005769D02*
X008697Y005897D01*
X008600Y005995D01*
X008472Y006048D01*
X008333Y006048D01*
X008205Y005995D01*
X008200Y005990D01*
X004865Y005990D01*
X004768Y006030D01*
X004637Y006030D01*
X004515Y005980D01*
X004423Y005887D01*
X004383Y005790D01*
X004007Y005414D01*
X003962Y005308D01*
X003962Y005242D01*
X003926Y005205D01*
X003926Y004664D01*
X003979Y004611D01*
X003963Y004602D01*
X003935Y004574D01*
X003916Y004540D01*
X003906Y004502D01*
X003906Y004314D01*
X004204Y004314D01*
X004204Y004217D01*
X004301Y004217D01*
X004301Y004314D01*
X004599Y004314D01*
X004599Y004502D01*
X004589Y004540D01*
X004569Y004574D01*
X004541Y004602D01*
X004526Y004611D01*
X004560Y004645D01*
X007445Y004645D01*
X007479Y004611D01*
X007463Y004602D01*
X007435Y004574D01*
X007416Y004540D01*
X007406Y004502D01*
X007406Y004314D01*
X007704Y004314D01*
X007704Y004217D01*
X007406Y004217D01*
X007406Y004029D01*
X007416Y003991D01*
X007422Y003980D01*
X006335Y003980D01*
X006332Y003987D01*
X006239Y004080D01*
X006118Y004130D01*
X005987Y004130D01*
X005865Y004080D01*
X005773Y003987D01*
X005722Y003866D01*
X005722Y003734D01*
X005773Y003613D01*
X005865Y003520D01*
X005987Y003470D01*
X006118Y003470D01*
X006239Y003520D01*
X006332Y003613D01*
X006335Y003620D01*
X007328Y003620D01*
X007373Y003513D01*
X007465Y003420D01*
X007587Y003370D01*
X007718Y003370D01*
X007839Y003420D01*
X007932Y003513D01*
X007982Y003634D01*
X007982Y003766D01*
X007932Y003887D01*
X007920Y003899D01*
X007969Y003899D01*
X008007Y003909D01*
X008041Y003929D01*
X008069Y003957D01*
X008089Y003991D01*
X008099Y004029D01*
X008099Y004217D01*
X007801Y004217D01*
X007801Y004314D01*
X008099Y004314D01*
X008099Y004502D01*
X008089Y004540D01*
X008069Y004574D01*
X008041Y004602D01*
X008026Y004611D01*
X008060Y004645D01*
X010945Y004645D01*
X010979Y004611D01*
X010963Y004602D01*
X010935Y004574D01*
X010916Y004540D01*
X010906Y004502D01*
X010906Y004314D01*
X011204Y004314D01*
X011204Y004217D01*
X010906Y004217D01*
X010906Y004029D01*
X010916Y003991D01*
X010922Y003980D01*
X009785Y003980D01*
X009782Y003987D01*
X009689Y004080D01*
X009568Y004130D01*
X009437Y004130D01*
X009315Y004080D01*
X009223Y003987D01*
X009172Y003866D01*
X009172Y003734D01*
X009223Y003613D01*
X009315Y003520D01*
X009437Y003470D01*
X009568Y003470D01*
X009689Y003520D01*
X009782Y003613D01*
X009785Y003620D01*
X010828Y003620D01*
X010873Y003513D01*
X010965Y003420D01*
X011087Y003370D01*
X011218Y003370D01*
X011339Y003420D01*
X011432Y003513D01*
X011482Y003634D01*
X011482Y003766D01*
X011432Y003887D01*
X011420Y003899D01*
X011469Y003899D01*
X011507Y003909D01*
X011541Y003929D01*
X011569Y003957D01*
X011589Y003991D01*
X011599Y004029D01*
X011599Y004217D01*
X011301Y004217D01*
X011301Y004314D01*
X011599Y004314D01*
X011599Y004502D01*
X011589Y004540D01*
X011569Y004574D01*
X011541Y004602D01*
X011526Y004611D01*
X011560Y004645D01*
X014445Y004645D01*
X014479Y004611D01*
X014463Y004602D01*
X014435Y004574D01*
X014416Y004540D01*
X014406Y004502D01*
X014406Y004314D01*
X014704Y004314D01*
X014704Y004217D01*
X014406Y004217D01*
X014406Y004029D01*
X014416Y003991D01*
X014422Y003980D01*
X013235Y003980D01*
X013232Y003987D01*
X013139Y004080D01*
X013018Y004130D01*
X012887Y004130D01*
X012765Y004080D01*
X012673Y003987D01*
X012622Y003866D01*
X012622Y003734D01*
X012673Y003613D01*
X012765Y003520D01*
X012887Y003470D01*
X013018Y003470D01*
X013139Y003520D01*
X013232Y003613D01*
X013235Y003620D01*
X014328Y003620D01*
X014373Y003513D01*
X014465Y003420D01*
X014587Y003370D01*
X014718Y003370D01*
X014839Y003420D01*
X014932Y003513D01*
X014982Y003634D01*
X014982Y003766D01*
X014932Y003887D01*
X014920Y003899D01*
X014969Y003899D01*
X015007Y003909D01*
X015041Y003929D01*
X015069Y003957D01*
X015089Y003991D01*
X015099Y004029D01*
X015099Y004217D01*
X014801Y004217D01*
X014801Y004314D01*
X015099Y004314D01*
X015099Y004502D01*
X015089Y004540D01*
X015069Y004574D01*
X015041Y004602D01*
X015026Y004611D01*
X015060Y004645D01*
X017945Y004645D01*
X017979Y004611D01*
X017963Y004602D01*
X017935Y004574D01*
X017916Y004540D01*
X017906Y004502D01*
X017906Y004314D01*
X018204Y004314D01*
X018204Y004217D01*
X017906Y004217D01*
X017906Y004029D01*
X017916Y003991D01*
X017922Y003980D01*
X016735Y003980D01*
X016732Y003987D01*
X016639Y004080D01*
X016518Y004130D01*
X016387Y004130D01*
X016265Y004080D01*
X016173Y003987D01*
X016122Y003866D01*
X016122Y003734D01*
X016173Y003613D01*
X016265Y003520D01*
X016387Y003470D01*
X016518Y003470D01*
X016639Y003520D01*
X016732Y003613D01*
X016735Y003620D01*
X017828Y003620D01*
X017873Y003513D01*
X017965Y003420D01*
X018087Y003370D01*
X018218Y003370D01*
X018339Y003420D01*
X018432Y003513D01*
X018482Y003634D01*
X018482Y003766D01*
X018432Y003887D01*
X018420Y003899D01*
X018469Y003899D01*
X018507Y003909D01*
X018541Y003929D01*
X018569Y003957D01*
X018589Y003991D01*
X018599Y004029D01*
X018599Y004217D01*
X018301Y004217D01*
X018301Y004314D01*
X018599Y004314D01*
X018599Y004502D01*
X018589Y004540D01*
X018569Y004574D01*
X018541Y004602D01*
X018526Y004611D01*
X018560Y004645D01*
X021445Y004645D01*
X021479Y004611D01*
X021463Y004602D01*
X021435Y004574D01*
X021416Y004540D01*
X021406Y004502D01*
X021406Y004314D01*
X021704Y004314D01*
X021704Y004217D01*
X021406Y004217D01*
X021406Y004029D01*
X021416Y003991D01*
X021422Y003980D01*
X020235Y003980D01*
X020232Y003987D01*
X020139Y004080D01*
X020018Y004130D01*
X019887Y004130D01*
X019765Y004080D01*
X019673Y003987D01*
X019622Y003866D01*
X019622Y003734D01*
X019673Y003613D01*
X019765Y003520D01*
X019887Y003470D01*
X020018Y003470D01*
X020139Y003520D01*
X020232Y003613D01*
X020235Y003620D01*
X021328Y003620D01*
X021373Y003513D01*
X021465Y003420D01*
X021587Y003370D01*
X021718Y003370D01*
X021839Y003420D01*
X021932Y003513D01*
X021982Y003634D01*
X021982Y003766D01*
X021932Y003887D01*
X021920Y003899D01*
X021969Y003899D01*
X022007Y003909D01*
X022041Y003929D01*
X022069Y003957D01*
X022089Y003991D01*
X022099Y004029D01*
X022099Y004217D01*
X021801Y004217D01*
X021801Y004314D01*
X022099Y004314D01*
X022099Y004502D01*
X022089Y004540D01*
X022069Y004574D01*
X022041Y004602D01*
X022026Y004611D01*
X022060Y004645D01*
X024945Y004645D01*
X024979Y004611D01*
X024963Y004602D01*
X024935Y004574D01*
X024916Y004540D01*
X024906Y004502D01*
X024906Y004314D01*
X025204Y004314D01*
X025204Y004217D01*
X024906Y004217D01*
X024906Y004029D01*
X024916Y003991D01*
X024922Y003980D01*
X023735Y003980D01*
X023732Y003987D01*
X023639Y004080D01*
X023518Y004130D01*
X023387Y004130D01*
X023265Y004080D01*
X023173Y003987D01*
X023122Y003866D01*
X023122Y003734D01*
X023173Y003613D01*
X023265Y003520D01*
X023387Y003470D01*
X023518Y003470D01*
X023639Y003520D01*
X023732Y003613D01*
X023735Y003620D01*
X024878Y003620D01*
X024923Y003513D01*
X025015Y003420D01*
X025137Y003370D01*
X025268Y003370D01*
X025389Y003420D01*
X025482Y003513D01*
X025532Y003634D01*
X025532Y003766D01*
X025482Y003887D01*
X025470Y003899D01*
X025507Y003909D01*
X025541Y003929D01*
X025569Y003957D01*
X025589Y003991D01*
X025599Y004029D01*
X025599Y004217D01*
X025301Y004217D01*
X025301Y004314D01*
X025599Y004314D01*
X025599Y004502D01*
X025589Y004540D01*
X025569Y004574D01*
X025541Y004602D01*
X025526Y004611D01*
X025560Y004645D01*
X028445Y004645D01*
X028479Y004611D01*
X028463Y004602D01*
X028435Y004574D01*
X028416Y004540D01*
X028406Y004502D01*
X028406Y004314D01*
X028704Y004314D01*
X028704Y004217D01*
X028406Y004217D01*
X028406Y004029D01*
X028416Y003991D01*
X028422Y003980D01*
X027235Y003980D01*
X027232Y003987D01*
X027139Y004080D01*
X027018Y004130D01*
X026887Y004130D01*
X026765Y004080D01*
X026673Y003987D01*
X026622Y003866D01*
X026622Y003734D01*
X026673Y003613D01*
X026765Y003520D01*
X026887Y003470D01*
X027018Y003470D01*
X027139Y003520D01*
X027232Y003613D01*
X027235Y003620D01*
X028328Y003620D01*
X028373Y003513D01*
X028465Y003420D01*
X028587Y003370D01*
X028718Y003370D01*
X028839Y003420D01*
X028932Y003513D01*
X028982Y003634D01*
X028982Y003766D01*
X028932Y003887D01*
X028920Y003899D01*
X028969Y003899D01*
X029007Y003909D01*
X029041Y003929D01*
X029069Y003957D01*
X029089Y003991D01*
X029099Y004029D01*
X029099Y004217D01*
X028801Y004217D01*
X028801Y004314D01*
X029099Y004314D01*
X029099Y004502D01*
X029089Y004540D01*
X029069Y004574D01*
X029041Y004602D01*
X029026Y004611D01*
X029079Y004664D01*
X029079Y005205D01*
X029003Y005281D01*
X028502Y005281D01*
X028445Y005225D01*
X025560Y005225D01*
X025503Y005281D01*
X025002Y005281D01*
X024945Y005225D01*
X022060Y005225D01*
X022003Y005281D01*
X021502Y005281D01*
X021445Y005225D01*
X018560Y005225D01*
X018503Y005281D01*
X018002Y005281D01*
X017945Y005225D01*
X015060Y005225D01*
X015003Y005281D01*
X014502Y005281D01*
X014445Y005225D01*
X011560Y005225D01*
X011503Y005281D01*
X011002Y005281D01*
X010945Y005225D01*
X008060Y005225D01*
X008003Y005281D01*
X007502Y005281D01*
X007445Y005225D01*
X004637Y005225D01*
X004793Y005380D01*
X004865Y005410D01*
X008200Y005410D01*
X008205Y005405D01*
X008333Y005352D01*
X008472Y005352D01*
X008600Y005405D01*
X008697Y005503D01*
X008750Y005631D01*
X008750Y005769D01*
X008750Y005721D02*
X030097Y005721D01*
X030097Y005622D02*
X008747Y005622D01*
X008706Y005524D02*
X030097Y005524D01*
X030097Y005425D02*
X008620Y005425D01*
X008677Y005918D02*
X029318Y005918D01*
X029251Y006016D02*
X008549Y006016D01*
X008256Y006016D02*
X004802Y006016D01*
X004603Y006016D02*
X003432Y006016D01*
X003432Y005918D02*
X004453Y005918D01*
X004394Y005819D02*
X003432Y005819D01*
X003432Y005721D02*
X004313Y005721D01*
X004214Y005622D02*
X003432Y005622D01*
X003432Y005524D02*
X004116Y005524D01*
X004017Y005425D02*
X003432Y005425D01*
X003432Y005327D02*
X003970Y005327D01*
X003948Y005228D02*
X003432Y005228D01*
X003432Y005130D02*
X003926Y005130D01*
X003926Y005031D02*
X003432Y005031D01*
X003432Y004933D02*
X003926Y004933D01*
X003926Y004834D02*
X003432Y004834D01*
X003432Y004736D02*
X003926Y004736D01*
X003953Y004637D02*
X003432Y004637D01*
X003432Y004539D02*
X003915Y004539D01*
X003906Y004440D02*
X003432Y004440D01*
X003432Y004342D02*
X003906Y004342D01*
X003906Y004217D02*
X003906Y004029D01*
X003916Y003991D01*
X003935Y003957D01*
X003963Y003929D01*
X003998Y003909D01*
X004036Y003899D01*
X004204Y003899D01*
X004204Y004217D01*
X003906Y004217D01*
X003906Y004145D02*
X003432Y004145D01*
X003432Y004243D02*
X004204Y004243D01*
X004301Y004243D02*
X007704Y004243D01*
X007801Y004243D02*
X011204Y004243D01*
X011301Y004243D02*
X014704Y004243D01*
X014801Y004243D02*
X018204Y004243D01*
X018301Y004243D02*
X021704Y004243D01*
X021801Y004243D02*
X025204Y004243D01*
X025301Y004243D02*
X028704Y004243D01*
X028801Y004243D02*
X030097Y004243D01*
X030097Y004145D02*
X029099Y004145D01*
X029099Y004046D02*
X030097Y004046D01*
X030097Y003948D02*
X029060Y003948D01*
X028948Y003849D02*
X030097Y003849D01*
X030097Y003751D02*
X028982Y003751D01*
X028982Y003652D02*
X030097Y003652D01*
X030097Y003554D02*
X028949Y003554D01*
X028874Y003455D02*
X029194Y003455D01*
X029119Y003424D02*
X029303Y003500D01*
X029502Y003500D01*
X029686Y003424D01*
X029826Y003283D01*
X029902Y003099D01*
X029902Y002901D01*
X029826Y002717D01*
X029686Y002576D01*
X029502Y002500D01*
X029303Y002500D01*
X029119Y002576D01*
X028978Y002717D01*
X028902Y002901D01*
X028902Y003099D01*
X028978Y003283D01*
X029119Y003424D01*
X029052Y003357D02*
X003432Y003357D01*
X003432Y003455D02*
X007431Y003455D01*
X007356Y003554D02*
X006273Y003554D01*
X006052Y003800D02*
X007552Y003800D01*
X007652Y003700D01*
X007949Y003554D02*
X009282Y003554D01*
X009206Y003652D02*
X007982Y003652D01*
X007982Y003751D02*
X009172Y003751D01*
X009172Y003849D02*
X007948Y003849D01*
X008060Y003948D02*
X009206Y003948D01*
X009282Y004046D02*
X008099Y004046D01*
X008099Y004145D02*
X010906Y004145D01*
X010906Y004046D02*
X009723Y004046D01*
X009502Y003800D02*
X011052Y003800D01*
X011152Y003700D01*
X010856Y003554D02*
X009723Y003554D01*
X009862Y002963D02*
X003626Y002963D01*
X003513Y003061D02*
X028902Y003061D01*
X028902Y002963D02*
X027942Y002963D01*
X027852Y003000D02*
X027653Y003000D01*
X027469Y002924D01*
X027328Y002783D01*
X027252Y002599D01*
X027176Y002783D01*
X027036Y002924D01*
X026852Y003000D01*
X026653Y003000D01*
X026469Y002924D01*
X026328Y002783D01*
X026252Y002599D01*
X026176Y002783D01*
X026036Y002924D01*
X025852Y003000D01*
X025653Y003000D01*
X025469Y002924D01*
X025328Y002783D01*
X025252Y002599D01*
X025176Y002783D01*
X025036Y002924D01*
X024852Y003000D01*
X024653Y003000D01*
X024469Y002924D01*
X024328Y002783D01*
X024252Y002599D01*
X024176Y002783D01*
X024036Y002924D01*
X023852Y003000D01*
X023653Y003000D01*
X023469Y002924D01*
X023328Y002783D01*
X023252Y002599D01*
X023176Y002783D01*
X023036Y002924D01*
X022852Y003000D01*
X022653Y003000D01*
X022469Y002924D01*
X022328Y002783D01*
X022252Y002599D01*
X022252Y002401D01*
X022328Y002217D01*
X022469Y002076D01*
X022653Y002000D01*
X022852Y002000D01*
X023036Y002076D01*
X023176Y002217D01*
X023252Y002401D01*
X023252Y002599D01*
X023252Y002401D01*
X023328Y002217D01*
X023469Y002076D01*
X023653Y002000D01*
X023852Y002000D01*
X024036Y002076D01*
X024176Y002217D01*
X024252Y002401D01*
X024252Y002599D01*
X024252Y002401D01*
X024328Y002217D01*
X024469Y002076D01*
X024653Y002000D01*
X024852Y002000D01*
X025036Y002076D01*
X025176Y002217D01*
X025252Y002401D01*
X025252Y002599D01*
X025252Y002401D01*
X025328Y002217D01*
X025469Y002076D01*
X025653Y002000D01*
X025852Y002000D01*
X026036Y002076D01*
X026176Y002217D01*
X026252Y002401D01*
X026252Y002599D01*
X026252Y002401D01*
X026328Y002217D01*
X026469Y002076D01*
X026653Y002000D01*
X026852Y002000D01*
X027036Y002076D01*
X027176Y002217D01*
X027252Y002401D01*
X027252Y002599D01*
X027252Y002401D01*
X027328Y002217D01*
X027469Y002076D01*
X027653Y002000D01*
X027852Y002000D01*
X028036Y002076D01*
X028176Y002217D01*
X028252Y002401D01*
X028252Y002599D01*
X028176Y002783D01*
X028036Y002924D01*
X027852Y003000D01*
X028095Y002864D02*
X028917Y002864D01*
X028958Y002766D02*
X028184Y002766D01*
X028224Y002667D02*
X029028Y002667D01*
X029138Y002569D02*
X028252Y002569D01*
X028252Y002470D02*
X030097Y002470D01*
X030097Y002372D02*
X028240Y002372D01*
X028200Y002273D02*
X028903Y002273D01*
X028741Y002175D02*
X028134Y002175D01*
X028035Y002076D02*
X028632Y002076D01*
X028542Y001978D02*
X019954Y001978D01*
X019951Y001980D02*
X019801Y001980D01*
X019801Y001548D01*
X020232Y001548D01*
X020232Y001699D01*
X019951Y001980D01*
X019952Y002018D02*
X020025Y002055D01*
X020091Y002103D01*
X020149Y002161D01*
X020197Y002227D01*
X020234Y002300D01*
X020260Y002378D01*
X020260Y002382D01*
X020328Y002217D01*
X020469Y002076D01*
X020653Y002000D01*
X020852Y002000D01*
X021036Y002076D01*
X021176Y002217D01*
X021252Y002401D01*
X021252Y002599D01*
X021176Y002783D01*
X021036Y002924D01*
X020852Y003000D01*
X020653Y003000D01*
X020469Y002924D01*
X020328Y002783D01*
X020260Y002618D01*
X020260Y002622D01*
X020234Y002700D01*
X020197Y002773D01*
X020149Y002839D01*
X020091Y002897D01*
X020025Y002945D01*
X019952Y002982D01*
X019874Y003007D01*
X019802Y003019D01*
X019802Y002550D01*
X019702Y002550D01*
X019702Y002450D01*
X018802Y002450D01*
X018802Y001981D01*
X018874Y001993D01*
X018952Y002018D01*
X019025Y002055D01*
X019091Y002103D01*
X019149Y002161D01*
X019197Y002227D01*
X019234Y002300D01*
X019252Y002356D01*
X019270Y002300D01*
X019308Y002227D01*
X019356Y002161D01*
X019414Y002103D01*
X019480Y002055D01*
X019553Y002018D01*
X019631Y001993D01*
X019702Y001981D01*
X019702Y002450D01*
X019802Y002450D01*
X019802Y001981D01*
X019874Y001993D01*
X019952Y002018D01*
X020053Y002076D02*
X020469Y002076D01*
X020371Y002175D02*
X020159Y002175D01*
X020220Y002273D02*
X020305Y002273D01*
X020264Y002372D02*
X020257Y002372D01*
X019802Y002372D02*
X019702Y002372D01*
X019702Y002470D02*
X018802Y002470D01*
X018802Y002450D02*
X018802Y002550D01*
X018702Y002550D01*
X018702Y003019D01*
X018631Y003007D01*
X018553Y002982D01*
X018480Y002945D01*
X018414Y002897D01*
X018356Y002839D01*
X018308Y002773D01*
X018270Y002700D01*
X018245Y002622D01*
X018245Y002618D01*
X018176Y002783D01*
X018036Y002924D01*
X017852Y003000D01*
X017653Y003000D01*
X017469Y002924D01*
X017328Y002783D01*
X017252Y002599D01*
X017176Y002783D01*
X017036Y002924D01*
X016852Y003000D01*
X016653Y003000D01*
X016469Y002924D01*
X016328Y002783D01*
X016252Y002599D01*
X016176Y002783D01*
X016036Y002924D01*
X015852Y003000D01*
X015653Y003000D01*
X015469Y002924D01*
X015328Y002783D01*
X015252Y002599D01*
X015176Y002783D01*
X015036Y002924D01*
X014852Y003000D01*
X014653Y003000D01*
X014469Y002924D01*
X014328Y002783D01*
X014252Y002599D01*
X014176Y002783D01*
X014036Y002924D01*
X013852Y003000D01*
X013653Y003000D01*
X013469Y002924D01*
X013328Y002783D01*
X013252Y002599D01*
X013252Y002401D01*
X013328Y002217D01*
X013469Y002076D01*
X013653Y002000D01*
X013852Y002000D01*
X014036Y002076D01*
X014176Y002217D01*
X014252Y002401D01*
X014252Y002599D01*
X014252Y002401D01*
X014328Y002217D01*
X014469Y002076D01*
X014653Y002000D01*
X014852Y002000D01*
X015036Y002076D01*
X015176Y002217D01*
X015252Y002401D01*
X015252Y002599D01*
X015252Y002401D01*
X015328Y002217D01*
X015469Y002076D01*
X015653Y002000D01*
X015852Y002000D01*
X016036Y002076D01*
X016176Y002217D01*
X016252Y002401D01*
X016252Y002599D01*
X016252Y002401D01*
X016328Y002217D01*
X016469Y002076D01*
X016653Y002000D01*
X016852Y002000D01*
X017036Y002076D01*
X017176Y002217D01*
X017252Y002401D01*
X017252Y002599D01*
X017252Y002401D01*
X017328Y002217D01*
X017469Y002076D01*
X017653Y002000D01*
X017852Y002000D01*
X018036Y002076D01*
X018176Y002217D01*
X018245Y002382D01*
X018245Y002378D01*
X018270Y002300D01*
X018308Y002227D01*
X018356Y002161D01*
X018414Y002103D01*
X018480Y002055D01*
X018553Y002018D01*
X018631Y001993D01*
X018702Y001981D01*
X018702Y002450D01*
X018802Y002450D01*
X018802Y002372D02*
X018702Y002372D01*
X018702Y002273D02*
X018802Y002273D01*
X018802Y002175D02*
X018702Y002175D01*
X018702Y002076D02*
X018802Y002076D01*
X018801Y001980D02*
X018951Y001980D01*
X019232Y001699D01*
X019232Y001548D01*
X018801Y001548D01*
X018801Y001452D01*
X019232Y001452D01*
X019232Y001301D01*
X018951Y001020D01*
X018801Y001020D01*
X018801Y001452D01*
X018704Y001452D01*
X018272Y001452D01*
X018272Y001301D01*
X018554Y001020D01*
X018704Y001020D01*
X018704Y001452D01*
X018704Y001548D01*
X018272Y001548D01*
X018272Y001699D01*
X018554Y001980D01*
X018704Y001980D01*
X018704Y001548D01*
X018801Y001548D01*
X018801Y001980D01*
X018801Y001978D02*
X018704Y001978D01*
X018704Y001879D02*
X018801Y001879D01*
X018801Y001781D02*
X018704Y001781D01*
X018704Y001682D02*
X018801Y001682D01*
X018801Y001584D02*
X018704Y001584D01*
X018704Y001485D02*
X018212Y001485D01*
X018212Y001387D02*
X018272Y001387D01*
X018212Y001309D02*
X018212Y001691D01*
X017943Y001960D01*
X017562Y001960D01*
X017292Y001691D01*
X017292Y001309D01*
X017562Y001040D01*
X017943Y001040D01*
X018212Y001309D01*
X018191Y001288D02*
X018286Y001288D01*
X018384Y001190D02*
X018092Y001190D01*
X017994Y001091D02*
X018483Y001091D01*
X018704Y001091D02*
X018801Y001091D01*
X018801Y001190D02*
X018704Y001190D01*
X018704Y001288D02*
X018801Y001288D01*
X018801Y001387D02*
X018704Y001387D01*
X018801Y001485D02*
X019704Y001485D01*
X019704Y001452D02*
X019272Y001452D01*
X019272Y001301D01*
X019554Y001020D01*
X019704Y001020D01*
X019704Y001452D01*
X019704Y001548D01*
X019272Y001548D01*
X019272Y001699D01*
X019554Y001980D01*
X019704Y001980D01*
X019704Y001548D01*
X019801Y001548D01*
X019801Y001452D01*
X020232Y001452D01*
X020232Y001301D01*
X019951Y001020D01*
X019801Y001020D01*
X019801Y001452D01*
X019704Y001452D01*
X019704Y001387D02*
X019801Y001387D01*
X019801Y001485D02*
X020292Y001485D01*
X020292Y001387D02*
X020232Y001387D01*
X020292Y001309D02*
X020562Y001040D01*
X020943Y001040D01*
X021212Y001309D01*
X021212Y001691D01*
X020943Y001960D01*
X020562Y001960D01*
X020292Y001691D01*
X020292Y001309D01*
X020314Y001288D02*
X020219Y001288D01*
X020121Y001190D02*
X020412Y001190D01*
X020511Y001091D02*
X020022Y001091D01*
X019801Y001091D02*
X019704Y001091D01*
X019704Y001190D02*
X019801Y001190D01*
X019801Y001288D02*
X019704Y001288D01*
X019483Y001091D02*
X019022Y001091D01*
X019121Y001190D02*
X019384Y001190D01*
X019286Y001288D02*
X019219Y001288D01*
X019232Y001387D02*
X019272Y001387D01*
X019272Y001584D02*
X019232Y001584D01*
X019232Y001682D02*
X019272Y001682D01*
X019354Y001781D02*
X019151Y001781D01*
X019052Y001879D02*
X019453Y001879D01*
X019551Y001978D02*
X018954Y001978D01*
X019053Y002076D02*
X019451Y002076D01*
X019346Y002175D02*
X019159Y002175D01*
X019220Y002273D02*
X019284Y002273D01*
X019271Y002550D02*
X018802Y002550D01*
X018802Y003019D01*
X018874Y003007D01*
X018952Y002982D01*
X019025Y002945D01*
X019091Y002897D01*
X019149Y002839D01*
X019197Y002773D01*
X019234Y002700D01*
X019252Y002644D01*
X019270Y002700D01*
X019308Y002773D01*
X019356Y002839D01*
X019414Y002897D01*
X019480Y002945D01*
X019553Y002982D01*
X019631Y003007D01*
X019702Y003019D01*
X019702Y002550D01*
X019271Y002550D01*
X019260Y002667D02*
X019245Y002667D01*
X019201Y002766D02*
X019304Y002766D01*
X019381Y002864D02*
X019124Y002864D01*
X018990Y002963D02*
X019515Y002963D01*
X019702Y002963D02*
X019802Y002963D01*
X019802Y002864D02*
X019702Y002864D01*
X019702Y002766D02*
X019802Y002766D01*
X019802Y002667D02*
X019702Y002667D01*
X019702Y002569D02*
X019802Y002569D01*
X019802Y002273D02*
X019702Y002273D01*
X019702Y002175D02*
X019802Y002175D01*
X019802Y002076D02*
X019702Y002076D01*
X019704Y001978D02*
X019801Y001978D01*
X019801Y001879D02*
X019704Y001879D01*
X019704Y001781D02*
X019801Y001781D01*
X019801Y001682D02*
X019704Y001682D01*
X019704Y001584D02*
X019801Y001584D01*
X020052Y001879D02*
X020481Y001879D01*
X020382Y001781D02*
X020151Y001781D01*
X020232Y001682D02*
X020292Y001682D01*
X020292Y001584D02*
X020232Y001584D01*
X021024Y001879D02*
X022481Y001879D01*
X022562Y001960D02*
X022292Y001691D01*
X022292Y001309D01*
X022562Y001040D01*
X022943Y001040D01*
X023212Y001309D01*
X023212Y001691D01*
X022943Y001960D01*
X022562Y001960D01*
X022469Y002076D02*
X021035Y002076D01*
X021134Y002175D02*
X022371Y002175D01*
X022305Y002273D02*
X021200Y002273D01*
X021240Y002372D02*
X022264Y002372D01*
X022252Y002470D02*
X021252Y002470D01*
X021252Y002569D02*
X022252Y002569D01*
X022280Y002667D02*
X021224Y002667D01*
X021184Y002766D02*
X022321Y002766D01*
X022409Y002864D02*
X021095Y002864D01*
X020942Y002963D02*
X022562Y002963D01*
X022942Y002963D02*
X023562Y002963D01*
X023409Y002864D02*
X023095Y002864D01*
X023184Y002766D02*
X023321Y002766D01*
X023280Y002667D02*
X023224Y002667D01*
X023252Y002569D02*
X023252Y002569D01*
X023252Y002470D02*
X023252Y002470D01*
X023240Y002372D02*
X023264Y002372D01*
X023305Y002273D02*
X023200Y002273D01*
X023134Y002175D02*
X023371Y002175D01*
X023469Y002076D02*
X023035Y002076D01*
X023024Y001879D02*
X023481Y001879D01*
X023562Y001960D02*
X023292Y001691D01*
X023292Y001309D01*
X023562Y001040D01*
X023943Y001040D01*
X024212Y001309D01*
X024212Y001691D01*
X023943Y001960D01*
X023562Y001960D01*
X023382Y001781D02*
X023122Y001781D01*
X023212Y001682D02*
X023292Y001682D01*
X023292Y001584D02*
X023212Y001584D01*
X023212Y001485D02*
X023292Y001485D01*
X023292Y001387D02*
X023212Y001387D01*
X023191Y001288D02*
X023314Y001288D01*
X023412Y001190D02*
X023092Y001190D01*
X022994Y001091D02*
X023511Y001091D01*
X023994Y001091D02*
X024511Y001091D01*
X024562Y001040D02*
X024292Y001309D01*
X024292Y001691D01*
X024562Y001960D01*
X024943Y001960D01*
X025212Y001691D01*
X025212Y001309D01*
X024943Y001040D01*
X024562Y001040D01*
X024412Y001190D02*
X024092Y001190D01*
X024191Y001288D02*
X024314Y001288D01*
X024292Y001387D02*
X024212Y001387D01*
X024212Y001485D02*
X024292Y001485D01*
X024292Y001584D02*
X024212Y001584D01*
X024212Y001682D02*
X024292Y001682D01*
X024382Y001781D02*
X024122Y001781D01*
X024024Y001879D02*
X024481Y001879D01*
X024469Y002076D02*
X024035Y002076D01*
X024134Y002175D02*
X024371Y002175D01*
X024305Y002273D02*
X024200Y002273D01*
X024240Y002372D02*
X024264Y002372D01*
X024252Y002470D02*
X024252Y002470D01*
X024252Y002569D02*
X024252Y002569D01*
X024224Y002667D02*
X024280Y002667D01*
X024321Y002766D02*
X024184Y002766D01*
X024095Y002864D02*
X024409Y002864D01*
X024562Y002963D02*
X023942Y002963D01*
X023673Y003554D02*
X024906Y003554D01*
X024981Y003455D02*
X021874Y003455D01*
X021949Y003554D02*
X023232Y003554D01*
X023156Y003652D02*
X021982Y003652D01*
X021982Y003751D02*
X023122Y003751D01*
X023122Y003849D02*
X021948Y003849D01*
X022060Y003948D02*
X023156Y003948D01*
X023232Y004046D02*
X022099Y004046D01*
X022099Y004145D02*
X024906Y004145D01*
X024906Y004046D02*
X023673Y004046D01*
X023452Y003800D02*
X025102Y003800D01*
X025202Y003700D01*
X025499Y003554D02*
X026732Y003554D01*
X026656Y003652D02*
X025532Y003652D01*
X025532Y003751D02*
X026622Y003751D01*
X026622Y003849D02*
X025498Y003849D01*
X025560Y003948D02*
X026656Y003948D01*
X026732Y004046D02*
X025599Y004046D01*
X025599Y004145D02*
X028406Y004145D01*
X028406Y004046D02*
X027173Y004046D01*
X026952Y003800D02*
X028552Y003800D01*
X028652Y003700D01*
X028356Y003554D02*
X027173Y003554D01*
X026942Y002963D02*
X027562Y002963D01*
X027409Y002864D02*
X027095Y002864D01*
X027184Y002766D02*
X027321Y002766D01*
X027280Y002667D02*
X027224Y002667D01*
X027252Y002569D02*
X027252Y002569D01*
X027252Y002470D02*
X027252Y002470D01*
X027240Y002372D02*
X027264Y002372D01*
X027305Y002273D02*
X027200Y002273D01*
X027134Y002175D02*
X027371Y002175D01*
X027469Y002076D02*
X027035Y002076D01*
X026943Y001960D02*
X026562Y001960D01*
X026292Y001691D01*
X026292Y001309D01*
X026562Y001040D01*
X026943Y001040D01*
X027212Y001309D01*
X027212Y001691D01*
X026943Y001960D01*
X027024Y001879D02*
X027481Y001879D01*
X027562Y001960D02*
X027292Y001691D01*
X027292Y001309D01*
X027562Y001040D01*
X027943Y001040D01*
X028212Y001309D01*
X028212Y001691D01*
X027943Y001960D01*
X027562Y001960D01*
X027382Y001781D02*
X027122Y001781D01*
X027212Y001682D02*
X027292Y001682D01*
X027292Y001584D02*
X027212Y001584D01*
X027212Y001485D02*
X027292Y001485D01*
X027292Y001387D02*
X027212Y001387D01*
X027191Y001288D02*
X027314Y001288D01*
X027412Y001190D02*
X027092Y001190D01*
X026994Y001091D02*
X027511Y001091D01*
X027994Y001091D02*
X028511Y001091D01*
X028468Y001190D02*
X028092Y001190D01*
X028191Y001288D02*
X028424Y001288D01*
X028409Y001387D02*
X028212Y001387D01*
X028212Y001485D02*
X028409Y001485D01*
X028409Y001584D02*
X028212Y001584D01*
X028212Y001682D02*
X028410Y001682D01*
X028454Y001781D02*
X028122Y001781D01*
X028024Y001879D02*
X028498Y001879D01*
X028556Y000993D02*
X015499Y000993D01*
X015401Y000894D02*
X028665Y000894D01*
X028775Y000796D02*
X004219Y000796D01*
X004329Y000859D02*
X004329Y000859D01*
X004354Y000894D02*
X005654Y000894D01*
X005555Y000993D02*
X004426Y000993D01*
X004498Y001091D02*
X005522Y001091D01*
X005522Y001190D02*
X004548Y001190D01*
X004540Y001149D02*
X004540Y001149D01*
X004569Y001288D02*
X005522Y001288D01*
X005522Y001387D02*
X004590Y001387D01*
X004611Y001485D02*
X005522Y001485D01*
X005522Y001584D02*
X004597Y001584D01*
X004576Y001682D02*
X005522Y001682D01*
X005522Y001781D02*
X004555Y001781D01*
X004519Y001879D02*
X005522Y001879D01*
X005470Y001978D02*
X004448Y001978D01*
X004376Y002076D02*
X005372Y002076D01*
X005273Y002175D02*
X004271Y002175D01*
X004100Y002273D02*
X005175Y002273D01*
X005076Y002372D02*
X002907Y002372D01*
X002907Y002470D02*
X004978Y002470D01*
X005002Y002700D02*
X005702Y002000D01*
X005702Y001100D01*
X005802Y001000D01*
X015252Y001000D01*
X015752Y001500D01*
X015292Y001485D02*
X015212Y001485D01*
X015212Y001387D02*
X015292Y001387D01*
X015286Y001288D02*
X015191Y001288D01*
X015187Y001190D02*
X015092Y001190D01*
X015212Y001584D02*
X015292Y001584D01*
X015292Y001682D02*
X015212Y001682D01*
X015122Y001781D02*
X015382Y001781D01*
X015481Y001879D02*
X015024Y001879D01*
X015035Y002076D02*
X015469Y002076D01*
X015371Y002175D02*
X015134Y002175D01*
X015200Y002273D02*
X015305Y002273D01*
X015264Y002372D02*
X015240Y002372D01*
X015252Y002470D02*
X015252Y002470D01*
X015252Y002569D02*
X015252Y002569D01*
X015224Y002667D02*
X015280Y002667D01*
X015321Y002766D02*
X015184Y002766D01*
X015095Y002864D02*
X015409Y002864D01*
X015562Y002963D02*
X014942Y002963D01*
X014562Y002963D02*
X013942Y002963D01*
X014095Y002864D02*
X014409Y002864D01*
X014321Y002766D02*
X014184Y002766D01*
X014224Y002667D02*
X014280Y002667D01*
X014252Y002569D02*
X014252Y002569D01*
X014252Y002470D02*
X014252Y002470D01*
X014240Y002372D02*
X014264Y002372D01*
X014305Y002273D02*
X014200Y002273D01*
X014134Y002175D02*
X014371Y002175D01*
X014469Y002076D02*
X014035Y002076D01*
X014024Y001879D02*
X014481Y001879D01*
X014382Y001781D02*
X014122Y001781D01*
X014212Y001682D02*
X014292Y001682D01*
X014292Y001584D02*
X014212Y001584D01*
X014212Y001485D02*
X014292Y001485D01*
X014292Y001387D02*
X014212Y001387D01*
X014191Y001288D02*
X014314Y001288D01*
X014412Y001190D02*
X014092Y001190D01*
X013412Y001190D02*
X010002Y001190D01*
X010100Y001288D02*
X013314Y001288D01*
X013292Y001387D02*
X010199Y001387D01*
X010297Y001485D02*
X013292Y001485D01*
X013292Y001584D02*
X010339Y001584D01*
X010342Y001682D02*
X013292Y001682D01*
X013382Y001781D02*
X010342Y001781D01*
X010342Y001879D02*
X013481Y001879D01*
X013469Y002076D02*
X012335Y002076D01*
X012336Y002076D02*
X012476Y002217D01*
X012552Y002401D01*
X012552Y002599D01*
X012476Y002783D01*
X012336Y002924D01*
X012152Y003000D01*
X011953Y003000D01*
X011769Y002924D01*
X011628Y002783D01*
X011552Y002599D01*
X011476Y002783D01*
X011336Y002924D01*
X011152Y003000D01*
X010953Y003000D01*
X010769Y002924D01*
X010628Y002783D01*
X010552Y002599D01*
X010552Y002401D01*
X010628Y002217D01*
X010769Y002076D01*
X010953Y002000D01*
X011152Y002000D01*
X011336Y002076D01*
X011476Y002217D01*
X011552Y002401D01*
X011552Y002599D01*
X011552Y002401D01*
X011628Y002217D01*
X011769Y002076D01*
X011953Y002000D01*
X012152Y002000D01*
X012336Y002076D01*
X012434Y002175D02*
X013371Y002175D01*
X013305Y002273D02*
X012500Y002273D01*
X012540Y002372D02*
X013264Y002372D01*
X013252Y002470D02*
X012552Y002470D01*
X012552Y002569D02*
X013252Y002569D01*
X013280Y002667D02*
X012524Y002667D01*
X012484Y002766D02*
X013321Y002766D01*
X013409Y002864D02*
X012395Y002864D01*
X012242Y002963D02*
X013562Y002963D01*
X013173Y003554D02*
X014356Y003554D01*
X014431Y003455D02*
X011374Y003455D01*
X011449Y003554D02*
X012732Y003554D01*
X012656Y003652D02*
X011482Y003652D01*
X011482Y003751D02*
X012622Y003751D01*
X012622Y003849D02*
X011448Y003849D01*
X011560Y003948D02*
X012656Y003948D01*
X012732Y004046D02*
X011599Y004046D01*
X011599Y004145D02*
X014406Y004145D01*
X014406Y004046D02*
X013173Y004046D01*
X012952Y003800D02*
X014552Y003800D01*
X014652Y003700D01*
X014949Y003554D02*
X016232Y003554D01*
X016156Y003652D02*
X014982Y003652D01*
X014982Y003751D02*
X016122Y003751D01*
X016122Y003849D02*
X014948Y003849D01*
X015060Y003948D02*
X016156Y003948D01*
X016232Y004046D02*
X015099Y004046D01*
X015099Y004145D02*
X017906Y004145D01*
X017906Y004046D02*
X016673Y004046D01*
X016452Y003800D02*
X018052Y003800D01*
X018152Y003700D01*
X017856Y003554D02*
X016673Y003554D01*
X016562Y002963D02*
X015942Y002963D01*
X016095Y002864D02*
X016409Y002864D01*
X016321Y002766D02*
X016184Y002766D01*
X016224Y002667D02*
X016280Y002667D01*
X016252Y002569D02*
X016252Y002569D01*
X016252Y002470D02*
X016252Y002470D01*
X016240Y002372D02*
X016264Y002372D01*
X016305Y002273D02*
X016200Y002273D01*
X016134Y002175D02*
X016371Y002175D01*
X016469Y002076D02*
X016035Y002076D01*
X016024Y001879D02*
X016481Y001879D01*
X016562Y001960D02*
X016292Y001691D01*
X016292Y001309D01*
X016562Y001040D01*
X016943Y001040D01*
X017212Y001309D01*
X017212Y001691D01*
X016943Y001960D01*
X016562Y001960D01*
X016382Y001781D02*
X016122Y001781D01*
X016212Y001682D02*
X016292Y001682D01*
X016292Y001584D02*
X016212Y001584D01*
X016212Y001485D02*
X016292Y001485D01*
X016292Y001387D02*
X016212Y001387D01*
X016191Y001288D02*
X016314Y001288D01*
X016412Y001190D02*
X016092Y001190D01*
X015994Y001091D02*
X016511Y001091D01*
X016994Y001091D02*
X017511Y001091D01*
X017412Y001190D02*
X017092Y001190D01*
X017191Y001288D02*
X017314Y001288D01*
X017292Y001387D02*
X017212Y001387D01*
X017212Y001485D02*
X017292Y001485D01*
X017292Y001584D02*
X017212Y001584D01*
X017212Y001682D02*
X017292Y001682D01*
X017382Y001781D02*
X017122Y001781D01*
X017024Y001879D02*
X017481Y001879D01*
X017469Y002076D02*
X017035Y002076D01*
X017134Y002175D02*
X017371Y002175D01*
X017305Y002273D02*
X017200Y002273D01*
X017240Y002372D02*
X017264Y002372D01*
X017252Y002470D02*
X017252Y002470D01*
X017252Y002569D02*
X017252Y002569D01*
X017224Y002667D02*
X017280Y002667D01*
X017321Y002766D02*
X017184Y002766D01*
X017095Y002864D02*
X017409Y002864D01*
X017562Y002963D02*
X016942Y002963D01*
X017931Y003455D02*
X014874Y003455D01*
X015099Y004342D02*
X017906Y004342D01*
X017906Y004440D02*
X015099Y004440D01*
X015089Y004539D02*
X017915Y004539D01*
X017953Y004637D02*
X015052Y004637D01*
X014453Y004637D02*
X011552Y004637D01*
X011589Y004539D02*
X014415Y004539D01*
X014406Y004440D02*
X011599Y004440D01*
X011599Y004342D02*
X014406Y004342D01*
X014448Y005228D02*
X011556Y005228D01*
X010948Y005228D02*
X008056Y005228D01*
X007448Y005228D02*
X004640Y005228D01*
X004739Y005327D02*
X030097Y005327D01*
X030097Y005228D02*
X029056Y005228D01*
X029079Y005130D02*
X030097Y005130D01*
X030097Y005031D02*
X029079Y005031D01*
X029079Y004933D02*
X030097Y004933D01*
X030097Y004834D02*
X029079Y004834D01*
X029079Y004736D02*
X030097Y004736D01*
X030097Y004637D02*
X029052Y004637D01*
X029089Y004539D02*
X030097Y004539D01*
X030097Y004440D02*
X029099Y004440D01*
X029099Y004342D02*
X030097Y004342D01*
X030097Y003455D02*
X029610Y003455D01*
X029753Y003357D02*
X030097Y003357D01*
X030097Y003258D02*
X029837Y003258D01*
X029877Y003160D02*
X030097Y003160D01*
X030097Y003061D02*
X029902Y003061D01*
X029902Y002963D02*
X030097Y002963D01*
X030097Y002864D02*
X029887Y002864D01*
X029846Y002766D02*
X030097Y002766D01*
X030097Y002667D02*
X029776Y002667D01*
X029667Y002569D02*
X030097Y002569D01*
X030097Y002273D02*
X029600Y002273D01*
X029771Y002175D02*
X030097Y002175D01*
X030097Y002076D02*
X029876Y002076D01*
X029948Y001978D02*
X030097Y001978D01*
X030097Y001879D02*
X030019Y001879D01*
X030055Y001781D02*
X030097Y001781D01*
X030097Y001682D02*
X030076Y001682D01*
X030097Y001584D02*
X030097Y001584D01*
X028995Y000697D02*
X004048Y000697D01*
X003495Y000697D02*
X002907Y000697D01*
X002907Y000796D02*
X003275Y000796D01*
X003165Y000894D02*
X002907Y000894D01*
X002907Y000993D02*
X003056Y000993D01*
X003011Y001091D02*
X002907Y001091D01*
X002907Y001190D02*
X002968Y001190D01*
X002924Y001288D02*
X002907Y001288D01*
X002907Y001387D02*
X002909Y001387D01*
X002907Y001485D02*
X002909Y001485D01*
X002907Y001584D02*
X002909Y001584D01*
X002907Y001682D02*
X002910Y001682D01*
X002907Y001781D02*
X002954Y001781D01*
X002998Y001879D02*
X002907Y001879D01*
X002907Y001978D02*
X003042Y001978D01*
X003132Y002076D02*
X002907Y002076D01*
X002907Y002175D02*
X003241Y002175D01*
X003403Y002273D02*
X002907Y002273D01*
X002907Y002569D02*
X003529Y002569D01*
X003417Y002667D02*
X002907Y002667D01*
X002907Y002766D02*
X003304Y002766D01*
X003192Y002864D02*
X002907Y002864D01*
X002907Y002963D02*
X003079Y002963D01*
X003071Y003061D02*
X002907Y003061D01*
X002907Y003160D02*
X003072Y003160D01*
X003072Y003258D02*
X002907Y003258D01*
X002907Y003357D02*
X003072Y003357D01*
X003072Y003455D02*
X002907Y003455D01*
X002907Y003554D02*
X003072Y003554D01*
X003072Y003652D02*
X002907Y003652D01*
X002907Y003751D02*
X003072Y003751D01*
X003072Y003849D02*
X002907Y003849D01*
X002907Y003948D02*
X003072Y003948D01*
X003072Y004046D02*
X002907Y004046D01*
X002907Y004145D02*
X003072Y004145D01*
X003072Y004243D02*
X002907Y004243D01*
X002907Y004342D02*
X003072Y004342D01*
X003072Y004440D02*
X002907Y004440D01*
X002907Y004539D02*
X003072Y004539D01*
X003072Y004637D02*
X002907Y004637D01*
X002907Y004736D02*
X003072Y004736D01*
X003072Y004834D02*
X002907Y004834D01*
X002907Y004933D02*
X003072Y004933D01*
X003072Y005031D02*
X002907Y005031D01*
X002907Y005130D02*
X003072Y005130D01*
X003072Y005228D02*
X002907Y005228D01*
X002907Y005327D02*
X003072Y005327D01*
X003072Y005425D02*
X002907Y005425D01*
X002907Y005524D02*
X003072Y005524D01*
X003072Y005622D02*
X002907Y005622D01*
X002907Y005721D02*
X003072Y005721D01*
X003072Y005819D02*
X002907Y005819D01*
X002907Y005918D02*
X003072Y005918D01*
X003072Y006016D02*
X002907Y006016D01*
X002907Y006115D02*
X003072Y006115D01*
X003072Y006213D02*
X002907Y006213D01*
X002907Y006312D02*
X003072Y006312D01*
X003072Y006410D02*
X002907Y006410D01*
X002907Y006509D02*
X003072Y006509D01*
X003072Y006607D02*
X002907Y006607D01*
X002907Y006706D02*
X003072Y006706D01*
X003072Y006804D02*
X002907Y006804D01*
X002907Y006903D02*
X003072Y006903D01*
X003072Y007001D02*
X002907Y007001D01*
X002907Y007100D02*
X003072Y007100D01*
X003072Y007198D02*
X002907Y007198D01*
X002907Y007297D02*
X003072Y007297D01*
X003072Y007395D02*
X002907Y007395D01*
X002907Y007494D02*
X003072Y007494D01*
X003072Y007592D02*
X002907Y007592D01*
X002907Y007691D02*
X003072Y007691D01*
X003072Y007789D02*
X002907Y007789D01*
X002907Y007888D02*
X003072Y007888D01*
X003072Y007986D02*
X002907Y007986D01*
X002907Y008085D02*
X003072Y008085D01*
X003072Y008183D02*
X002907Y008183D01*
X002907Y008282D02*
X003072Y008282D01*
X003072Y008380D02*
X002907Y008380D01*
X002907Y008479D02*
X003072Y008479D01*
X003072Y008577D02*
X002907Y008577D01*
X002907Y008676D02*
X003072Y008676D01*
X003072Y008774D02*
X002907Y008774D01*
X002907Y008873D02*
X003072Y008873D01*
X003072Y008971D02*
X002907Y008971D01*
X002907Y009070D02*
X003072Y009070D01*
X003072Y009168D02*
X002907Y009168D01*
X002907Y009267D02*
X003072Y009267D01*
X003072Y009365D02*
X002907Y009365D01*
X002907Y009464D02*
X003072Y009464D01*
X003072Y009562D02*
X002907Y009562D01*
X002907Y009661D02*
X003072Y009661D01*
X003072Y009759D02*
X002907Y009759D01*
X002907Y009858D02*
X003072Y009858D01*
X003072Y009956D02*
X002907Y009956D01*
X002907Y010055D02*
X003072Y010055D01*
X003072Y010153D02*
X002907Y010153D01*
X002907Y010252D02*
X003072Y010252D01*
X003072Y010350D02*
X002907Y010350D01*
X002907Y010449D02*
X003072Y010449D01*
X003072Y010547D02*
X002907Y010547D01*
X002907Y010646D02*
X003072Y010646D01*
X003072Y010744D02*
X002907Y010744D01*
X002907Y010843D02*
X003072Y010843D01*
X003072Y010941D02*
X002907Y010941D01*
X002907Y011040D02*
X003072Y011040D01*
X003072Y011138D02*
X002907Y011138D01*
X002907Y011237D02*
X003072Y011237D01*
X003072Y011335D02*
X002907Y011335D01*
X002907Y011434D02*
X003072Y011434D01*
X003072Y011532D02*
X002907Y011532D01*
X002907Y011631D02*
X003072Y011631D01*
X003072Y011729D02*
X002907Y011729D01*
X002907Y011828D02*
X003072Y011828D01*
X003072Y011926D02*
X002907Y011926D01*
X002907Y012025D02*
X003072Y012025D01*
X003072Y012123D02*
X002907Y012123D01*
X002907Y012222D02*
X003072Y012222D01*
X003072Y012320D02*
X002907Y012320D01*
X002907Y012419D02*
X003072Y012419D01*
X003072Y012517D02*
X002907Y012517D01*
X002907Y012616D02*
X003072Y012616D01*
X003072Y012714D02*
X002907Y012714D01*
X002907Y012813D02*
X003072Y012813D01*
X003072Y012911D02*
X002907Y012911D01*
X002907Y013010D02*
X003072Y013010D01*
X003072Y013108D02*
X002907Y013108D01*
X002907Y013207D02*
X003072Y013207D01*
X003072Y013305D02*
X002907Y013305D01*
X002907Y013404D02*
X003072Y013404D01*
X003072Y013502D02*
X002907Y013502D01*
X002907Y013601D02*
X003072Y013601D01*
X003072Y013699D02*
X002907Y013699D01*
X002907Y013798D02*
X003072Y013798D01*
X003072Y013896D02*
X002907Y013896D01*
X002907Y013995D02*
X003072Y013995D01*
X003072Y014093D02*
X002907Y014093D01*
X002907Y014192D02*
X003072Y014192D01*
X003072Y014290D02*
X002907Y014290D01*
X002907Y014389D02*
X003072Y014389D01*
X003072Y014487D02*
X002907Y014487D01*
X002907Y014586D02*
X003072Y014586D01*
X003072Y014684D02*
X002907Y014684D01*
X002907Y014783D02*
X003072Y014783D01*
X003072Y014881D02*
X002907Y014881D01*
X002907Y014980D02*
X003072Y014980D01*
X003072Y015078D02*
X002907Y015078D01*
X002907Y015177D02*
X003072Y015177D01*
X003072Y015275D02*
X002907Y015275D01*
X002907Y015374D02*
X003072Y015374D01*
X003072Y015472D02*
X002907Y015472D01*
X002907Y015571D02*
X003072Y015571D01*
X003072Y015669D02*
X002907Y015669D01*
X002907Y015768D02*
X003072Y015768D01*
X003072Y015866D02*
X002907Y015866D01*
X002907Y015965D02*
X003072Y015965D01*
X003072Y016063D02*
X002907Y016063D01*
X002907Y016162D02*
X003072Y016162D01*
X003072Y016260D02*
X002907Y016260D01*
X002907Y016359D02*
X003072Y016359D01*
X003072Y016457D02*
X002907Y016457D01*
X002907Y016556D02*
X003072Y016556D01*
X003072Y016654D02*
X002907Y016654D01*
X002907Y016753D02*
X003072Y016753D01*
X003072Y016851D02*
X002907Y016851D01*
X002907Y016950D02*
X003072Y016950D01*
X003072Y017048D02*
X002907Y017048D01*
X002907Y017147D02*
X003072Y017147D01*
X003072Y017245D02*
X002907Y017245D01*
X002907Y017344D02*
X003072Y017344D01*
X003072Y017442D02*
X002907Y017442D01*
X002907Y017541D02*
X003072Y017541D01*
X003072Y017639D02*
X002907Y017639D01*
X002907Y017738D02*
X003072Y017738D01*
X003072Y017836D02*
X002907Y017836D01*
X002907Y017935D02*
X003072Y017935D01*
X003072Y018033D02*
X002907Y018033D01*
X002907Y018132D02*
X003072Y018132D01*
X003072Y018230D02*
X002907Y018230D01*
X002907Y018329D02*
X003072Y018329D01*
X003072Y018427D02*
X002907Y018427D01*
X002907Y018526D02*
X003072Y018526D01*
X003012Y018624D02*
X002907Y018624D01*
X002907Y018723D02*
X002948Y018723D01*
X002922Y018821D02*
X002907Y018821D01*
X002907Y018920D02*
X002924Y018920D01*
X002907Y019018D02*
X002965Y019018D01*
X002907Y019117D02*
X003052Y019117D01*
X003252Y018850D02*
X003252Y003050D01*
X003652Y002700D01*
X005002Y002700D01*
X005093Y002864D02*
X009709Y002864D01*
X009621Y002766D02*
X005191Y002766D01*
X005290Y002667D02*
X009580Y002667D01*
X009552Y002569D02*
X005388Y002569D01*
X005487Y002470D02*
X006313Y002470D01*
X006185Y002372D02*
X005585Y002372D01*
X005684Y002273D02*
X006103Y002273D01*
X006062Y002175D02*
X005782Y002175D01*
X005881Y002076D02*
X006033Y002076D01*
X006033Y001978D02*
X005882Y001978D01*
X005882Y001879D02*
X006040Y001879D01*
X006081Y001781D02*
X005882Y001781D01*
X005882Y001682D02*
X006132Y001682D01*
X006230Y001584D02*
X005882Y001584D01*
X005882Y001485D02*
X006422Y001485D01*
X006582Y001387D02*
X005882Y001387D01*
X005882Y001288D02*
X006672Y001288D01*
X006761Y001190D02*
X005882Y001190D01*
X007046Y001781D02*
X007436Y001781D01*
X007404Y001879D02*
X007087Y001879D01*
X007093Y001978D02*
X007891Y001978D01*
X007891Y002050D02*
X007392Y002050D01*
X007405Y002129D01*
X007432Y002211D01*
X007471Y002288D01*
X007522Y002358D01*
X007583Y002420D01*
X007653Y002470D01*
X007730Y002510D01*
X007813Y002536D01*
X007891Y002549D01*
X007891Y002050D01*
X007891Y002076D02*
X007991Y002076D01*
X007991Y002050D02*
X007991Y002549D01*
X008070Y002536D01*
X008152Y002510D01*
X008230Y002470D01*
X009552Y002470D01*
X009564Y002372D02*
X008348Y002372D01*
X008361Y002358D02*
X008300Y002420D01*
X008230Y002470D01*
X008361Y002358D02*
X008412Y002288D01*
X008451Y002211D01*
X008478Y002129D01*
X008490Y002050D01*
X007991Y002050D01*
X007991Y001978D02*
X009762Y001978D01*
X009762Y002076D02*
X008486Y002076D01*
X008463Y002175D02*
X009671Y002175D01*
X009605Y002273D02*
X008420Y002273D01*
X007991Y002273D02*
X007891Y002273D01*
X007891Y002175D02*
X007991Y002175D01*
X007991Y002372D02*
X007891Y002372D01*
X007891Y002470D02*
X007991Y002470D01*
X007653Y002470D02*
X006814Y002470D01*
X006941Y002372D02*
X007535Y002372D01*
X007463Y002273D02*
X007024Y002273D01*
X007065Y002175D02*
X007420Y002175D01*
X007397Y002076D02*
X007093Y002076D01*
X007097Y001682D02*
X007493Y001682D01*
X008390Y001682D02*
X009674Y001682D01*
X009762Y001781D02*
X008447Y001781D01*
X008479Y001879D02*
X009762Y001879D01*
X010342Y001978D02*
X018551Y001978D01*
X018453Y001879D02*
X018024Y001879D01*
X018122Y001781D02*
X018354Y001781D01*
X018272Y001682D02*
X018212Y001682D01*
X018212Y001584D02*
X018272Y001584D01*
X018451Y002076D02*
X018035Y002076D01*
X018134Y002175D02*
X018346Y002175D01*
X018284Y002273D02*
X018200Y002273D01*
X018240Y002372D02*
X018247Y002372D01*
X018702Y002569D02*
X018802Y002569D01*
X018802Y002667D02*
X018702Y002667D01*
X018702Y002766D02*
X018802Y002766D01*
X018802Y002864D02*
X018702Y002864D01*
X018702Y002963D02*
X018802Y002963D01*
X018515Y002963D02*
X017942Y002963D01*
X018095Y002864D02*
X018381Y002864D01*
X018304Y002766D02*
X018184Y002766D01*
X018224Y002667D02*
X018260Y002667D01*
X018374Y003455D02*
X021431Y003455D01*
X021356Y003554D02*
X020173Y003554D01*
X019952Y003800D02*
X021552Y003800D01*
X021652Y003700D01*
X021406Y004046D02*
X020173Y004046D01*
X019732Y004046D02*
X018599Y004046D01*
X018599Y004145D02*
X021406Y004145D01*
X021406Y004342D02*
X018599Y004342D01*
X018599Y004440D02*
X021406Y004440D01*
X021415Y004539D02*
X018589Y004539D01*
X018552Y004637D02*
X021453Y004637D01*
X022052Y004637D02*
X024953Y004637D01*
X024915Y004539D02*
X022089Y004539D01*
X022099Y004440D02*
X024906Y004440D01*
X024906Y004342D02*
X022099Y004342D01*
X022056Y005228D02*
X024948Y005228D01*
X025556Y005228D02*
X028448Y005228D01*
X028453Y004637D02*
X025552Y004637D01*
X025589Y004539D02*
X028415Y004539D01*
X028406Y004440D02*
X025599Y004440D01*
X025599Y004342D02*
X028406Y004342D01*
X028431Y003455D02*
X025424Y003455D01*
X025562Y002963D02*
X024942Y002963D01*
X025095Y002864D02*
X025409Y002864D01*
X025321Y002766D02*
X025184Y002766D01*
X025224Y002667D02*
X025280Y002667D01*
X025252Y002569D02*
X025252Y002569D01*
X025252Y002470D02*
X025252Y002470D01*
X025240Y002372D02*
X025264Y002372D01*
X025305Y002273D02*
X025200Y002273D01*
X025134Y002175D02*
X025371Y002175D01*
X025469Y002076D02*
X025035Y002076D01*
X025024Y001879D02*
X025481Y001879D01*
X025562Y001960D02*
X025292Y001691D01*
X025292Y001309D01*
X025562Y001040D01*
X025943Y001040D01*
X026212Y001309D01*
X026212Y001691D01*
X025943Y001960D01*
X025562Y001960D01*
X025382Y001781D02*
X025122Y001781D01*
X025212Y001682D02*
X025292Y001682D01*
X025292Y001584D02*
X025212Y001584D01*
X025212Y001485D02*
X025292Y001485D01*
X025292Y001387D02*
X025212Y001387D01*
X025191Y001288D02*
X025314Y001288D01*
X025412Y001190D02*
X025092Y001190D01*
X024994Y001091D02*
X025511Y001091D01*
X025994Y001091D02*
X026511Y001091D01*
X026412Y001190D02*
X026092Y001190D01*
X026191Y001288D02*
X026314Y001288D01*
X026292Y001387D02*
X026212Y001387D01*
X026212Y001485D02*
X026292Y001485D01*
X026292Y001584D02*
X026212Y001584D01*
X026212Y001682D02*
X026292Y001682D01*
X026382Y001781D02*
X026122Y001781D01*
X026024Y001879D02*
X026481Y001879D01*
X026469Y002076D02*
X026035Y002076D01*
X026134Y002175D02*
X026371Y002175D01*
X026305Y002273D02*
X026200Y002273D01*
X026240Y002372D02*
X026264Y002372D01*
X026252Y002470D02*
X026252Y002470D01*
X026252Y002569D02*
X026252Y002569D01*
X026224Y002667D02*
X026280Y002667D01*
X026321Y002766D02*
X026184Y002766D01*
X026095Y002864D02*
X026409Y002864D01*
X026562Y002963D02*
X025942Y002963D01*
X028927Y003160D02*
X003432Y003160D01*
X003432Y003258D02*
X028968Y003258D01*
X029178Y006115D02*
X003432Y006115D01*
X003432Y006213D02*
X029079Y006213D01*
X028077Y006509D02*
X003432Y006509D01*
X003432Y006607D02*
X027041Y006607D01*
X026942Y006706D02*
X003432Y006706D01*
X003432Y006804D02*
X026922Y006804D01*
X026922Y006903D02*
X003432Y006903D01*
X003432Y007001D02*
X026922Y007001D01*
X027282Y007001D02*
X028217Y007001D01*
X028088Y006903D02*
X027282Y006903D01*
X025912Y007888D02*
X025599Y007888D01*
X025599Y007986D02*
X025912Y007986D01*
X025912Y008085D02*
X025301Y008085D01*
X025204Y008085D02*
X021801Y008085D01*
X021704Y008085D02*
X018301Y008085D01*
X018204Y008085D02*
X014801Y008085D01*
X014704Y008085D02*
X011301Y008085D01*
X011204Y008085D02*
X007801Y008085D01*
X007704Y008085D02*
X004301Y008085D01*
X004204Y008085D02*
X003432Y008085D01*
X004204Y008183D02*
X004301Y008183D01*
X004301Y008282D02*
X004204Y008282D01*
X004204Y008380D02*
X004301Y008380D01*
X004577Y008380D02*
X007428Y008380D01*
X007435Y008393D02*
X007416Y008359D01*
X007406Y008321D01*
X007406Y008133D01*
X007704Y008133D01*
X007704Y008451D01*
X007536Y008451D01*
X007498Y008441D01*
X007463Y008421D01*
X007435Y008393D01*
X007406Y008282D02*
X004599Y008282D01*
X004599Y008183D02*
X007406Y008183D01*
X007406Y007986D02*
X004599Y007986D01*
X004599Y007888D02*
X007406Y007888D01*
X007428Y007789D02*
X004577Y007789D01*
X007704Y008183D02*
X007801Y008183D01*
X007801Y008282D02*
X007704Y008282D01*
X007704Y008380D02*
X007801Y008380D01*
X008077Y008380D02*
X010928Y008380D01*
X010935Y008393D02*
X010916Y008359D01*
X010906Y008321D01*
X010906Y008133D01*
X011204Y008133D01*
X011204Y008451D01*
X011036Y008451D01*
X010998Y008441D01*
X010963Y008421D01*
X010935Y008393D01*
X010906Y008282D02*
X008099Y008282D01*
X008099Y008183D02*
X010906Y008183D01*
X010906Y007986D02*
X008099Y007986D01*
X008099Y007888D02*
X010906Y007888D01*
X010928Y007789D02*
X008077Y007789D01*
X011204Y008183D02*
X011301Y008183D01*
X011301Y008282D02*
X011204Y008282D01*
X011204Y008380D02*
X011301Y008380D01*
X011577Y008380D02*
X014428Y008380D01*
X014435Y008393D02*
X014416Y008359D01*
X014406Y008321D01*
X014406Y008133D01*
X014704Y008133D01*
X014704Y008451D01*
X014536Y008451D01*
X014498Y008441D01*
X014463Y008421D01*
X014435Y008393D01*
X014406Y008282D02*
X011599Y008282D01*
X011599Y008183D02*
X014406Y008183D01*
X014406Y007986D02*
X011599Y007986D01*
X011599Y007888D02*
X014406Y007888D01*
X014428Y007789D02*
X011577Y007789D01*
X014704Y008183D02*
X014801Y008183D01*
X014801Y008282D02*
X014704Y008282D01*
X014704Y008380D02*
X014801Y008380D01*
X015077Y008380D02*
X017928Y008380D01*
X017935Y008393D02*
X017916Y008359D01*
X017906Y008321D01*
X017906Y008133D01*
X018204Y008133D01*
X018204Y008451D01*
X018036Y008451D01*
X017998Y008441D01*
X017963Y008421D01*
X017935Y008393D01*
X017906Y008282D02*
X015099Y008282D01*
X015099Y008183D02*
X017906Y008183D01*
X017906Y007986D02*
X015099Y007986D01*
X015099Y007888D02*
X017906Y007888D01*
X017928Y007789D02*
X015077Y007789D01*
X018204Y008183D02*
X018301Y008183D01*
X018301Y008282D02*
X018204Y008282D01*
X018204Y008380D02*
X018301Y008380D01*
X018577Y008380D02*
X021428Y008380D01*
X021435Y008393D02*
X021416Y008359D01*
X021406Y008321D01*
X021406Y008133D01*
X021704Y008133D01*
X021704Y008451D01*
X021536Y008451D01*
X021498Y008441D01*
X021463Y008421D01*
X021435Y008393D01*
X021406Y008282D02*
X018599Y008282D01*
X018599Y008183D02*
X021406Y008183D01*
X021406Y007986D02*
X018599Y007986D01*
X018599Y007888D02*
X021406Y007888D01*
X021428Y007789D02*
X018577Y007789D01*
X021704Y008183D02*
X021801Y008183D01*
X021801Y008282D02*
X021704Y008282D01*
X021704Y008380D02*
X021801Y008380D01*
X022077Y008380D02*
X024928Y008380D01*
X024935Y008393D02*
X024916Y008359D01*
X024906Y008321D01*
X024906Y008133D01*
X025204Y008133D01*
X025204Y008451D01*
X025036Y008451D01*
X024998Y008441D01*
X024963Y008421D01*
X024935Y008393D01*
X024906Y008282D02*
X022099Y008282D01*
X022099Y008183D02*
X024906Y008183D01*
X024906Y007986D02*
X022099Y007986D01*
X022099Y007888D02*
X024906Y007888D01*
X024928Y007789D02*
X022077Y007789D01*
X025204Y008183D02*
X025301Y008183D01*
X025301Y008282D02*
X025204Y008282D01*
X025204Y008380D02*
X025301Y008380D01*
X025577Y008380D02*
X025912Y008380D01*
X025912Y008282D02*
X025599Y008282D01*
X025599Y008183D02*
X025912Y008183D01*
X025831Y007789D02*
X025577Y007789D01*
X027398Y008479D02*
X029362Y008479D01*
X029362Y008577D02*
X027459Y008577D01*
X027482Y008676D02*
X029362Y008676D01*
X029362Y008774D02*
X027479Y008774D01*
X027438Y008873D02*
X029362Y008873D01*
X029362Y008971D02*
X027348Y008971D01*
X028780Y009661D02*
X029362Y009661D01*
X029362Y009759D02*
X028851Y009759D01*
X028882Y009858D02*
X029362Y009858D01*
X029362Y009956D02*
X028882Y009956D01*
X028877Y010055D02*
X029362Y010055D01*
X029362Y010153D02*
X028877Y010153D01*
X028877Y010252D02*
X029362Y010252D01*
X029362Y010350D02*
X029034Y010350D01*
X029077Y011040D02*
X030097Y011040D01*
X030097Y011138D02*
X029099Y011138D01*
X029099Y011237D02*
X030097Y011237D01*
X030097Y011335D02*
X028801Y011335D01*
X029099Y011434D02*
X030097Y011434D01*
X030097Y011532D02*
X029099Y011532D01*
X028428Y011631D02*
X025577Y011631D01*
X025599Y011532D02*
X028406Y011532D01*
X028406Y011434D02*
X025599Y011434D01*
X025599Y011237D02*
X028406Y011237D01*
X028406Y011138D02*
X025599Y011138D01*
X025577Y011040D02*
X028428Y011040D01*
X029671Y010941D02*
X030097Y010941D01*
X030097Y010843D02*
X029770Y010843D01*
X029868Y010744D02*
X030097Y010744D01*
X030097Y010646D02*
X029927Y010646D01*
X029942Y010547D02*
X030097Y010547D01*
X030097Y010449D02*
X029942Y010449D01*
X029942Y010350D02*
X030097Y010350D01*
X030097Y010252D02*
X029942Y010252D01*
X029942Y010153D02*
X030097Y010153D01*
X030097Y010055D02*
X029942Y010055D01*
X029942Y009956D02*
X030097Y009956D01*
X030097Y009858D02*
X029942Y009858D01*
X029942Y009759D02*
X030097Y009759D01*
X030097Y009661D02*
X029942Y009661D01*
X029942Y009562D02*
X030097Y009562D01*
X030097Y009464D02*
X029942Y009464D01*
X029942Y009365D02*
X030097Y009365D01*
X030097Y009267D02*
X029942Y009267D01*
X029942Y009168D02*
X030097Y009168D01*
X030097Y009070D02*
X029942Y009070D01*
X029942Y008971D02*
X030097Y008971D01*
X030097Y008873D02*
X029942Y008873D01*
X029942Y008774D02*
X030097Y008774D01*
X030097Y008676D02*
X029942Y008676D01*
X029942Y008577D02*
X030097Y008577D01*
X030097Y008479D02*
X029942Y008479D01*
X029942Y008380D02*
X030097Y008380D01*
X030097Y008282D02*
X029942Y008282D01*
X029942Y008183D02*
X030097Y008183D01*
X030097Y008085D02*
X029942Y008085D01*
X029942Y007986D02*
X030097Y007986D01*
X030097Y007888D02*
X029942Y007888D01*
X029942Y007789D02*
X030097Y007789D01*
X030097Y007691D02*
X029942Y007691D01*
X029901Y007592D02*
X030097Y007592D01*
X030097Y007494D02*
X029806Y007494D01*
X029708Y007395D02*
X030097Y007395D01*
X030097Y007297D02*
X029609Y007297D01*
X025301Y011434D02*
X025204Y011434D01*
X025204Y011532D02*
X025301Y011532D01*
X025301Y011631D02*
X025204Y011631D01*
X027040Y013108D02*
X003432Y013108D01*
X003432Y013010D02*
X028076Y013010D01*
X028188Y012911D02*
X003432Y012911D01*
X003432Y012813D02*
X030097Y012813D01*
X030097Y012911D02*
X028517Y012911D01*
X028629Y013010D02*
X030097Y013010D01*
X030097Y013108D02*
X028671Y013108D01*
X028682Y013207D02*
X030097Y013207D01*
X030097Y013305D02*
X028666Y013305D01*
X028352Y013200D02*
X027202Y013200D01*
X027102Y013300D01*
X027102Y015150D01*
X027202Y015250D01*
X026947Y016457D02*
X004500Y016457D01*
X004532Y016556D02*
X026830Y016556D01*
X026785Y016654D02*
X004542Y016654D01*
X004204Y017883D02*
X003906Y017883D01*
X003906Y018071D01*
X003916Y018109D01*
X003935Y018143D01*
X003963Y018171D01*
X003998Y018191D01*
X004036Y018201D01*
X004204Y018201D01*
X004204Y017883D01*
X004204Y017935D02*
X004301Y017935D01*
X004301Y018033D02*
X004204Y018033D01*
X004204Y018132D02*
X004301Y018132D01*
X003929Y018132D02*
X003432Y018132D01*
X003432Y018033D02*
X003906Y018033D01*
X003906Y017935D02*
X003432Y017935D01*
X003493Y018624D02*
X005572Y018624D01*
X005575Y018723D02*
X003557Y018723D01*
X003582Y018821D02*
X005616Y018821D01*
X005705Y018920D02*
X003581Y018920D01*
X006100Y018920D02*
X030097Y018920D01*
X030097Y019018D02*
X027895Y019018D01*
X028076Y019117D02*
X030097Y019117D01*
X030097Y019215D02*
X028175Y019215D01*
X028216Y019314D02*
X030097Y019314D01*
X030097Y019412D02*
X028252Y019412D01*
X028252Y019511D02*
X030097Y019511D01*
X030097Y019609D02*
X028248Y019609D01*
X028208Y019708D02*
X028962Y019708D01*
X028763Y019806D02*
X028153Y019806D01*
X027450Y019905D02*
X027055Y019905D01*
X027153Y019806D02*
X027351Y019806D01*
X027297Y019708D02*
X027208Y019708D01*
X027248Y019609D02*
X027256Y019609D01*
X027252Y019511D02*
X027252Y019511D01*
X027252Y019412D02*
X027252Y019412D01*
X027216Y019314D02*
X027288Y019314D01*
X027330Y019215D02*
X027175Y019215D01*
X027076Y019117D02*
X027429Y019117D01*
X027609Y019018D02*
X026895Y019018D01*
X026609Y019018D02*
X025895Y019018D01*
X026076Y019117D02*
X026429Y019117D01*
X026330Y019215D02*
X026175Y019215D01*
X026216Y019314D02*
X026288Y019314D01*
X026252Y019412D02*
X026252Y019412D01*
X026252Y019511D02*
X026252Y019511D01*
X026248Y019609D02*
X026256Y019609D01*
X026297Y019708D02*
X026208Y019708D01*
X026153Y019806D02*
X026351Y019806D01*
X026450Y019905D02*
X026055Y019905D01*
X025943Y020040D02*
X025562Y020040D01*
X025292Y020309D01*
X025292Y020691D01*
X025562Y020960D01*
X025943Y020960D01*
X026212Y020691D01*
X026212Y020309D01*
X025943Y020040D01*
X026004Y020102D02*
X026500Y020102D01*
X026562Y020040D02*
X026943Y020040D01*
X027212Y020309D01*
X027212Y020691D01*
X026943Y020960D01*
X026562Y020960D01*
X026292Y020691D01*
X026292Y020309D01*
X026562Y020040D01*
X026402Y020200D02*
X026103Y020200D01*
X026201Y020299D02*
X026303Y020299D01*
X026292Y020397D02*
X026212Y020397D01*
X026212Y020496D02*
X026292Y020496D01*
X026292Y020594D02*
X026212Y020594D01*
X026210Y020693D02*
X026294Y020693D01*
X026393Y020791D02*
X026112Y020791D01*
X026013Y020890D02*
X026491Y020890D01*
X027013Y020890D02*
X027491Y020890D01*
X027393Y020791D02*
X027112Y020791D01*
X027210Y020693D02*
X027294Y020693D01*
X027292Y020594D02*
X027212Y020594D01*
X027212Y020496D02*
X027292Y020496D01*
X027292Y020397D02*
X027212Y020397D01*
X027201Y020299D02*
X027303Y020299D01*
X027402Y020200D02*
X027103Y020200D01*
X027004Y020102D02*
X027500Y020102D01*
X028644Y021087D02*
X004369Y021087D01*
X004252Y021185D02*
X028753Y021185D01*
X028935Y021284D02*
X004082Y021284D01*
X006189Y018821D02*
X030097Y018821D01*
X030097Y018723D02*
X006230Y018723D01*
X006232Y018624D02*
X030097Y018624D01*
X030097Y018526D02*
X006208Y018526D01*
X006146Y018427D02*
X030097Y018427D01*
X030097Y018329D02*
X006082Y018329D01*
X006082Y018230D02*
X030097Y018230D01*
X030097Y018132D02*
X029076Y018132D01*
X029099Y018033D02*
X030097Y018033D01*
X030097Y017935D02*
X029099Y017935D01*
X028801Y017935D02*
X028704Y017935D01*
X028704Y017883D02*
X028704Y018201D01*
X028536Y018201D01*
X028498Y018191D01*
X028463Y018171D01*
X028435Y018143D01*
X028416Y018109D01*
X028406Y018071D01*
X028406Y017883D01*
X028704Y017883D01*
X028704Y018033D02*
X028801Y018033D01*
X028801Y018132D02*
X028704Y018132D01*
X028429Y018132D02*
X025576Y018132D01*
X025599Y018033D02*
X028406Y018033D01*
X028406Y017935D02*
X025599Y017935D01*
X025599Y017738D02*
X028406Y017738D01*
X028406Y017639D02*
X025599Y017639D01*
X025578Y017541D02*
X028427Y017541D01*
X025609Y019018D02*
X024895Y019018D01*
X025076Y019117D02*
X025429Y019117D01*
X025330Y019215D02*
X025175Y019215D01*
X025216Y019314D02*
X025288Y019314D01*
X025252Y019412D02*
X025252Y019412D01*
X025252Y019511D02*
X025252Y019511D01*
X025248Y019609D02*
X025256Y019609D01*
X025297Y019708D02*
X025208Y019708D01*
X025153Y019806D02*
X025351Y019806D01*
X025450Y019905D02*
X025055Y019905D01*
X024943Y020040D02*
X025212Y020309D01*
X025212Y020691D01*
X024943Y020960D01*
X024562Y020960D01*
X024292Y020691D01*
X024292Y020309D01*
X024562Y020040D01*
X024943Y020040D01*
X025004Y020102D02*
X025500Y020102D01*
X025402Y020200D02*
X025103Y020200D01*
X025201Y020299D02*
X025303Y020299D01*
X025292Y020397D02*
X025212Y020397D01*
X025212Y020496D02*
X025292Y020496D01*
X025292Y020594D02*
X025212Y020594D01*
X025210Y020693D02*
X025294Y020693D01*
X025393Y020791D02*
X025112Y020791D01*
X025013Y020890D02*
X025491Y020890D01*
X024491Y020890D02*
X024013Y020890D01*
X023943Y020960D02*
X023562Y020960D01*
X023292Y020691D01*
X023292Y020309D01*
X023562Y020040D01*
X023943Y020040D01*
X024212Y020309D01*
X024212Y020691D01*
X023943Y020960D01*
X024112Y020791D02*
X024393Y020791D01*
X024294Y020693D02*
X024210Y020693D01*
X024212Y020594D02*
X024292Y020594D01*
X024292Y020496D02*
X024212Y020496D01*
X024212Y020397D02*
X024292Y020397D01*
X024303Y020299D02*
X024201Y020299D01*
X024103Y020200D02*
X024402Y020200D01*
X024500Y020102D02*
X024004Y020102D01*
X024055Y019905D02*
X024450Y019905D01*
X024351Y019806D02*
X024153Y019806D01*
X024208Y019708D02*
X024297Y019708D01*
X024256Y019609D02*
X024248Y019609D01*
X024252Y019511D02*
X024252Y019511D01*
X024252Y019412D02*
X024252Y019412D01*
X024216Y019314D02*
X024288Y019314D01*
X024330Y019215D02*
X024175Y019215D01*
X024076Y019117D02*
X024429Y019117D01*
X024609Y019018D02*
X023895Y019018D01*
X023609Y019018D02*
X022895Y019018D01*
X023076Y019117D02*
X023429Y019117D01*
X023330Y019215D02*
X023175Y019215D01*
X023216Y019314D02*
X023288Y019314D01*
X023252Y019412D02*
X023252Y019412D01*
X023252Y019511D02*
X023252Y019511D01*
X023248Y019609D02*
X023256Y019609D01*
X023297Y019708D02*
X023208Y019708D01*
X023153Y019806D02*
X023351Y019806D01*
X023450Y019905D02*
X023055Y019905D01*
X022943Y020040D02*
X022562Y020040D01*
X022292Y020309D01*
X022292Y020691D01*
X022562Y020960D01*
X022943Y020960D01*
X023212Y020691D01*
X023212Y020309D01*
X022943Y020040D01*
X023004Y020102D02*
X023500Y020102D01*
X023402Y020200D02*
X023103Y020200D01*
X023201Y020299D02*
X023303Y020299D01*
X023292Y020397D02*
X023212Y020397D01*
X023212Y020496D02*
X023292Y020496D01*
X023292Y020594D02*
X023212Y020594D01*
X023210Y020693D02*
X023294Y020693D01*
X023393Y020791D02*
X023112Y020791D01*
X023013Y020890D02*
X023491Y020890D01*
X022491Y020890D02*
X022013Y020890D01*
X022112Y020791D02*
X022393Y020791D01*
X022294Y020693D02*
X022210Y020693D01*
X022212Y020594D02*
X022292Y020594D01*
X022292Y020496D02*
X022212Y020496D01*
X022212Y020397D02*
X022292Y020397D01*
X022303Y020299D02*
X022201Y020299D01*
X022103Y020200D02*
X022402Y020200D01*
X022500Y020102D02*
X022004Y020102D01*
X022055Y019905D02*
X022450Y019905D01*
X022351Y019806D02*
X022153Y019806D01*
X022208Y019708D02*
X022297Y019708D01*
X022256Y019609D02*
X022248Y019609D01*
X022252Y019511D02*
X022252Y019511D01*
X022252Y019412D02*
X022252Y019412D01*
X022216Y019314D02*
X022288Y019314D01*
X022330Y019215D02*
X022175Y019215D01*
X022076Y019117D02*
X022429Y019117D01*
X022609Y019018D02*
X021895Y019018D01*
X018929Y019117D02*
X018576Y019117D01*
X018675Y019215D02*
X018830Y019215D01*
X018788Y019314D02*
X018716Y019314D01*
X018752Y019412D02*
X018752Y019412D01*
X018752Y019511D02*
X018752Y019511D01*
X018748Y019609D02*
X018756Y019609D01*
X018797Y019708D02*
X018708Y019708D01*
X018653Y019806D02*
X018851Y019806D01*
X018950Y019905D02*
X018555Y019905D01*
X018443Y020040D02*
X018712Y020309D01*
X018712Y020691D01*
X018443Y020960D01*
X018062Y020960D01*
X017792Y020691D01*
X017792Y020309D01*
X018062Y020040D01*
X018443Y020040D01*
X018504Y020102D02*
X019000Y020102D01*
X018902Y020200D02*
X018603Y020200D01*
X018701Y020299D02*
X018803Y020299D01*
X018792Y020397D02*
X018712Y020397D01*
X018712Y020496D02*
X018792Y020496D01*
X018792Y020594D02*
X018712Y020594D01*
X018710Y020693D02*
X018794Y020693D01*
X018893Y020791D02*
X018612Y020791D01*
X018513Y020890D02*
X018991Y020890D01*
X017991Y020890D02*
X017513Y020890D01*
X017443Y020960D02*
X017062Y020960D01*
X016792Y020691D01*
X016792Y020309D01*
X017062Y020040D01*
X017443Y020040D01*
X017712Y020309D01*
X017712Y020691D01*
X017443Y020960D01*
X017612Y020791D02*
X017893Y020791D01*
X017794Y020693D02*
X017710Y020693D01*
X017712Y020594D02*
X017792Y020594D01*
X017792Y020496D02*
X017712Y020496D01*
X017712Y020397D02*
X017792Y020397D01*
X017803Y020299D02*
X017701Y020299D01*
X017603Y020200D02*
X017902Y020200D01*
X018000Y020102D02*
X017504Y020102D01*
X017555Y019905D02*
X017950Y019905D01*
X017851Y019806D02*
X017653Y019806D01*
X017708Y019708D02*
X017797Y019708D01*
X017756Y019609D02*
X017748Y019609D01*
X017752Y019511D02*
X017752Y019511D01*
X017752Y019412D02*
X017752Y019412D01*
X017716Y019314D02*
X017788Y019314D01*
X017830Y019215D02*
X017675Y019215D01*
X017576Y019117D02*
X017929Y019117D01*
X016929Y019117D02*
X016576Y019117D01*
X016675Y019215D02*
X016830Y019215D01*
X016788Y019314D02*
X016716Y019314D01*
X016752Y019412D02*
X016752Y019412D01*
X016752Y019511D02*
X016752Y019511D01*
X016748Y019609D02*
X016756Y019609D01*
X016797Y019708D02*
X016708Y019708D01*
X016653Y019806D02*
X016851Y019806D01*
X016950Y019905D02*
X016555Y019905D01*
X016443Y020040D02*
X016712Y020309D01*
X016712Y020691D01*
X016443Y020960D01*
X016062Y020960D01*
X015792Y020691D01*
X015792Y020309D01*
X016062Y020040D01*
X016443Y020040D01*
X016504Y020102D02*
X017000Y020102D01*
X016902Y020200D02*
X016603Y020200D01*
X016701Y020299D02*
X016803Y020299D01*
X016792Y020397D02*
X016712Y020397D01*
X016712Y020496D02*
X016792Y020496D01*
X016792Y020594D02*
X016712Y020594D01*
X016710Y020693D02*
X016794Y020693D01*
X016893Y020791D02*
X016612Y020791D01*
X016513Y020890D02*
X016991Y020890D01*
X015991Y020890D02*
X015513Y020890D01*
X015443Y020960D02*
X015712Y020691D01*
X015712Y020309D01*
X015443Y020040D01*
X015062Y020040D01*
X014792Y020309D01*
X014792Y020691D01*
X015062Y020960D01*
X015443Y020960D01*
X015612Y020791D02*
X015893Y020791D01*
X015794Y020693D02*
X015710Y020693D01*
X015712Y020594D02*
X015792Y020594D01*
X015792Y020496D02*
X015712Y020496D01*
X015712Y020397D02*
X015792Y020397D01*
X015803Y020299D02*
X015701Y020299D01*
X015603Y020200D02*
X015902Y020200D01*
X016000Y020102D02*
X015504Y020102D01*
X015555Y019905D02*
X015950Y019905D01*
X015851Y019806D02*
X015653Y019806D01*
X015708Y019708D02*
X015797Y019708D01*
X015756Y019609D02*
X015748Y019609D01*
X015752Y019511D02*
X015752Y019511D01*
X015752Y019412D02*
X015752Y019412D01*
X015716Y019314D02*
X015788Y019314D01*
X015830Y019215D02*
X015675Y019215D01*
X015576Y019117D02*
X015929Y019117D01*
X014929Y019117D02*
X014576Y019117D01*
X014675Y019215D02*
X014830Y019215D01*
X014788Y019314D02*
X014716Y019314D01*
X014752Y019412D02*
X014752Y019412D01*
X014752Y019511D02*
X014752Y019511D01*
X014748Y019609D02*
X014756Y019609D01*
X014797Y019708D02*
X014708Y019708D01*
X014653Y019806D02*
X014851Y019806D01*
X014950Y019905D02*
X014555Y019905D01*
X014504Y020102D02*
X015000Y020102D01*
X014902Y020200D02*
X014603Y020200D01*
X014701Y020299D02*
X014803Y020299D01*
X014792Y020397D02*
X014712Y020397D01*
X014712Y020496D02*
X014792Y020496D01*
X014792Y020594D02*
X014712Y020594D01*
X014710Y020693D02*
X014794Y020693D01*
X014893Y020791D02*
X014612Y020791D01*
X014513Y020890D02*
X014991Y020890D01*
X013991Y020890D02*
X013542Y020890D01*
X013640Y020791D02*
X013893Y020791D01*
X013794Y020693D02*
X013732Y020693D01*
X013732Y020594D02*
X013792Y020594D01*
X013792Y020496D02*
X013301Y020496D01*
X013301Y020397D02*
X013204Y020397D01*
X013204Y020299D02*
X013301Y020299D01*
X013301Y020200D02*
X013204Y020200D01*
X013204Y020102D02*
X013301Y020102D01*
X013631Y020200D02*
X013902Y020200D01*
X013803Y020299D02*
X013730Y020299D01*
X013732Y020397D02*
X013792Y020397D01*
X011000Y020102D02*
X010504Y020102D01*
X010603Y020200D02*
X010902Y020200D01*
X010803Y020299D02*
X010701Y020299D01*
X010712Y020397D02*
X010792Y020397D01*
X010792Y020496D02*
X010712Y020496D01*
X010712Y020594D02*
X010792Y020594D01*
X010794Y020693D02*
X010710Y020693D01*
X010612Y020791D02*
X010893Y020791D01*
X010991Y020890D02*
X010513Y020890D01*
X010555Y019905D02*
X010950Y019905D01*
X010851Y019806D02*
X010653Y019806D01*
X010708Y019708D02*
X010797Y019708D01*
X010756Y019609D02*
X010748Y019609D01*
X010752Y019511D02*
X010752Y019511D01*
X010752Y019412D02*
X010752Y019412D01*
X010716Y019314D02*
X010788Y019314D01*
X010830Y019215D02*
X010675Y019215D01*
X010576Y019117D02*
X010929Y019117D01*
X011204Y018132D02*
X011301Y018132D01*
X011301Y018033D02*
X011204Y018033D01*
X011204Y017935D02*
X011301Y017935D01*
X011599Y017935D02*
X014406Y017935D01*
X014406Y017883D02*
X014406Y018071D01*
X014416Y018109D01*
X014435Y018143D01*
X014463Y018171D01*
X014498Y018191D01*
X014536Y018201D01*
X014704Y018201D01*
X014704Y017883D01*
X014406Y017883D01*
X014406Y017738D02*
X011599Y017738D01*
X011599Y017639D02*
X014406Y017639D01*
X014427Y017541D02*
X011578Y017541D01*
X011573Y017442D02*
X014432Y017442D01*
X014704Y017935D02*
X014801Y017935D01*
X014801Y018033D02*
X014704Y018033D01*
X014704Y018132D02*
X014801Y018132D01*
X015076Y018132D02*
X017929Y018132D01*
X017935Y018143D02*
X017916Y018109D01*
X017906Y018071D01*
X017906Y017883D01*
X018204Y017883D01*
X018204Y018201D01*
X018036Y018201D01*
X017998Y018191D01*
X017963Y018171D01*
X017935Y018143D01*
X017906Y018033D02*
X015099Y018033D01*
X015099Y017935D02*
X017906Y017935D01*
X017906Y017738D02*
X015099Y017738D01*
X015099Y017639D02*
X017906Y017639D01*
X017927Y017541D02*
X015078Y017541D01*
X014406Y018033D02*
X011599Y018033D01*
X011576Y018132D02*
X014429Y018132D01*
X018204Y018132D02*
X018301Y018132D01*
X018301Y018033D02*
X018204Y018033D01*
X018204Y017935D02*
X018301Y017935D01*
X025204Y017935D02*
X025301Y017935D01*
X025301Y018033D02*
X025204Y018033D01*
X025204Y018132D02*
X025301Y018132D01*
X029566Y019708D02*
X030097Y019708D01*
X030097Y019806D02*
X029737Y019806D01*
X029829Y019859D02*
X029829Y019859D01*
X029862Y019905D02*
X030097Y019905D01*
X030097Y020003D02*
X029934Y020003D01*
X030005Y020102D02*
X030097Y020102D01*
X030097Y020200D02*
X030051Y020200D01*
X030072Y020299D02*
X030097Y020299D01*
X030093Y020397D02*
X030097Y020397D01*
X028219Y013502D02*
X027282Y013502D01*
X027282Y013404D02*
X028089Y013404D01*
X026941Y013207D02*
X003432Y013207D01*
X003432Y013305D02*
X026922Y013305D01*
X026922Y013404D02*
X003432Y013404D01*
X003432Y013502D02*
X026922Y013502D01*
X030097Y012714D02*
X003432Y012714D01*
X003432Y012616D02*
X030097Y012616D01*
X021428Y011631D02*
X018577Y011631D01*
X018599Y011532D02*
X021406Y011532D01*
X021406Y011434D02*
X018599Y011434D01*
X018599Y011237D02*
X021406Y011237D01*
X021406Y011138D02*
X018599Y011138D01*
X018577Y011040D02*
X021428Y011040D01*
X018301Y011434D02*
X018204Y011434D01*
X018204Y011532D02*
X018301Y011532D01*
X018301Y011631D02*
X018204Y011631D01*
X014428Y011631D02*
X011577Y011631D01*
X011599Y011532D02*
X014406Y011532D01*
X014406Y011434D02*
X011599Y011434D01*
X011599Y011237D02*
X014406Y011237D01*
X014406Y011138D02*
X011599Y011138D01*
X011577Y011040D02*
X014428Y011040D01*
X011301Y011434D02*
X011204Y011434D01*
X011204Y011532D02*
X011301Y011532D01*
X011301Y011631D02*
X011204Y011631D01*
X004301Y014684D02*
X004204Y014684D01*
X004204Y014783D02*
X004301Y014783D01*
X004301Y014881D02*
X004204Y014881D01*
X003928Y014881D02*
X003432Y014881D01*
X003432Y014783D02*
X003906Y014783D01*
X015056Y005228D02*
X017948Y005228D01*
X018556Y005228D02*
X021448Y005228D01*
X019656Y003948D02*
X018560Y003948D01*
X018448Y003849D02*
X019622Y003849D01*
X019622Y003751D02*
X018482Y003751D01*
X018482Y003652D02*
X019656Y003652D01*
X019732Y003554D02*
X018449Y003554D01*
X019990Y002963D02*
X020562Y002963D01*
X020409Y002864D02*
X020124Y002864D01*
X020201Y002766D02*
X020321Y002766D01*
X020280Y002667D02*
X020245Y002667D01*
X021122Y001781D02*
X022382Y001781D01*
X022292Y001682D02*
X021212Y001682D01*
X021212Y001584D02*
X022292Y001584D01*
X022292Y001485D02*
X021212Y001485D01*
X021212Y001387D02*
X022292Y001387D01*
X022314Y001288D02*
X021191Y001288D01*
X021092Y001190D02*
X022412Y001190D01*
X022511Y001091D02*
X020994Y001091D01*
X011862Y002963D02*
X011242Y002963D01*
X011395Y002864D02*
X011709Y002864D01*
X011621Y002766D02*
X011484Y002766D01*
X011524Y002667D02*
X011580Y002667D01*
X011552Y002569D02*
X011552Y002569D01*
X011552Y002470D02*
X011552Y002470D01*
X011540Y002372D02*
X011564Y002372D01*
X011605Y002273D02*
X011500Y002273D01*
X011434Y002175D02*
X011671Y002175D01*
X011769Y002076D02*
X011335Y002076D01*
X010769Y002076D02*
X010342Y002076D01*
X010434Y002175D02*
X010671Y002175D01*
X010605Y002273D02*
X010500Y002273D01*
X010540Y002372D02*
X010564Y002372D01*
X010552Y002470D02*
X010552Y002470D01*
X010552Y002569D02*
X010552Y002569D01*
X010524Y002667D02*
X010580Y002667D01*
X010621Y002766D02*
X010484Y002766D01*
X010395Y002864D02*
X010709Y002864D01*
X010862Y002963D02*
X010242Y002963D01*
X010931Y003455D02*
X007874Y003455D01*
X007406Y004046D02*
X006273Y004046D01*
X005832Y004046D02*
X004599Y004046D01*
X004599Y004029D02*
X004599Y004217D01*
X004301Y004217D01*
X004301Y003899D01*
X004469Y003899D01*
X004507Y003909D01*
X004541Y003929D01*
X004569Y003957D01*
X004589Y003991D01*
X004599Y004029D01*
X004560Y003948D02*
X005756Y003948D01*
X005722Y003849D02*
X003432Y003849D01*
X003432Y003751D02*
X005722Y003751D01*
X005756Y003652D02*
X003432Y003652D01*
X003432Y003554D02*
X005832Y003554D01*
X004599Y004145D02*
X007406Y004145D01*
X007406Y004342D02*
X004599Y004342D01*
X004599Y004440D02*
X007406Y004440D01*
X007415Y004539D02*
X004589Y004539D01*
X004552Y004637D02*
X007453Y004637D01*
X008052Y004637D02*
X010953Y004637D01*
X010915Y004539D02*
X008089Y004539D01*
X008099Y004440D02*
X010906Y004440D01*
X010906Y004342D02*
X008099Y004342D01*
X004301Y004145D02*
X004204Y004145D01*
X004204Y004046D02*
X004301Y004046D01*
X004301Y003948D02*
X004204Y003948D01*
X003945Y003948D02*
X003432Y003948D01*
X003432Y004046D02*
X003906Y004046D01*
D15*
X006052Y003800D03*
X007652Y003700D03*
X009502Y003800D03*
X011152Y003700D03*
X012952Y003800D03*
X014652Y003700D03*
X016452Y003800D03*
X018152Y003700D03*
X019952Y003800D03*
X021652Y003700D03*
X023452Y003800D03*
X025202Y003700D03*
X026952Y003800D03*
X028652Y003700D03*
X029552Y006150D03*
X028352Y006700D03*
X027802Y006200D03*
X027152Y008700D03*
X027802Y009400D03*
X028552Y009900D03*
X026202Y008925D03*
X024302Y009400D03*
X020802Y009400D03*
X017302Y009400D03*
X013802Y009400D03*
X010302Y009400D03*
X006802Y009400D03*
X005852Y011150D03*
X005602Y012200D03*
X006802Y012700D03*
X003652Y012850D03*
X006802Y016000D03*
X005902Y017500D03*
X005902Y018650D03*
X003252Y018850D03*
X004202Y016600D03*
X003652Y016150D03*
X010302Y015950D03*
X013802Y015950D03*
X017302Y015950D03*
X020802Y015950D03*
X024302Y015950D03*
X026202Y015450D03*
X027202Y015250D03*
X027102Y016750D03*
X029652Y015550D03*
X028352Y013200D03*
X027802Y012700D03*
X024302Y012700D03*
X020802Y012700D03*
X017302Y012700D03*
X013802Y012700D03*
X010302Y012700D03*
X003652Y009450D03*
X003652Y006250D03*
X004702Y005700D03*
X006802Y006200D03*
X010302Y006200D03*
X013802Y006200D03*
X017302Y006200D03*
X020802Y006200D03*
X024302Y006200D03*
D16*
X027802Y006200D01*
X028752Y006950D02*
X029552Y006150D01*
X028752Y006950D02*
X028752Y007415D01*
X028768Y007400D01*
X029302Y007400D01*
X029652Y007750D01*
X029652Y010550D01*
X029502Y010700D01*
X028587Y010700D01*
X028587Y009935D01*
X028552Y009900D01*
X027802Y009400D02*
X028752Y008450D01*
X028752Y008085D01*
X027802Y009400D02*
X024552Y009400D01*
X025252Y008700D01*
X025252Y008085D01*
X025252Y007415D02*
X025868Y007415D01*
X026202Y007750D01*
X026202Y008925D01*
X024552Y009400D02*
X024302Y009400D01*
X021102Y009400D01*
X021752Y008750D01*
X021752Y008085D01*
X021752Y007415D02*
X025252Y007415D01*
X024302Y006200D02*
X020802Y006200D01*
X017302Y006200D01*
X013802Y006200D01*
X010302Y006200D01*
X006802Y006200D01*
X003802Y006200D01*
X003652Y006250D02*
X003652Y003200D01*
X003802Y003050D01*
X006902Y003050D01*
X006902Y003039D01*
X007941Y002000D01*
X007052Y001300D02*
X009702Y001300D01*
X010052Y001650D01*
X010052Y002500D01*
X007052Y001300D02*
X006563Y001839D01*
X006563Y002000D01*
X007752Y004935D02*
X004252Y004935D01*
X004252Y005250D01*
X004702Y005700D01*
X008402Y005700D01*
X007752Y004935D02*
X011252Y004935D01*
X014752Y004935D01*
X018252Y004935D01*
X021752Y004935D01*
X025252Y004935D01*
X028752Y004935D01*
X021752Y007415D02*
X018252Y007415D01*
X014752Y007415D01*
X011252Y007415D01*
X007752Y007415D01*
X004252Y007415D01*
X004252Y008085D02*
X004018Y008085D01*
X003702Y008400D01*
X003652Y008350D01*
X003652Y006250D01*
X003702Y008400D02*
X003652Y008450D01*
X003652Y009450D01*
X003702Y009400D01*
X006802Y009400D01*
X007202Y009400D01*
X007752Y008850D01*
X007752Y008085D01*
X007202Y009400D02*
X010302Y009400D01*
X010652Y009400D01*
X011252Y008800D01*
X011252Y008085D01*
X010652Y009400D02*
X013802Y009400D01*
X014152Y009400D01*
X014752Y008800D01*
X014752Y008085D01*
X014152Y009400D02*
X017302Y009400D01*
X017652Y009400D01*
X018252Y008800D01*
X018252Y008085D01*
X017652Y009400D02*
X020802Y009400D01*
X021102Y009400D01*
X021752Y010665D02*
X018252Y010665D01*
X014752Y010665D01*
X011252Y010665D01*
X007752Y010665D01*
X004252Y010665D01*
X003652Y009450D02*
X003652Y012850D01*
X003802Y012700D01*
X006802Y012700D01*
X010302Y012700D01*
X013802Y012700D01*
X017302Y012700D01*
X020802Y012700D01*
X024302Y012700D01*
X027802Y012700D01*
X028752Y013900D02*
X028752Y013915D01*
X028787Y013950D01*
X029252Y013950D01*
X029652Y014350D01*
X029652Y015550D01*
X029652Y016750D01*
X029237Y017165D01*
X028752Y017165D01*
X028752Y017100D01*
X028302Y016650D01*
X027202Y016650D01*
X027102Y016750D01*
X028052Y015950D02*
X024302Y015950D01*
X024652Y015950D01*
X025252Y015350D01*
X025252Y014585D01*
X025252Y013950D02*
X025902Y013950D01*
X026202Y014250D01*
X026202Y015450D01*
X028052Y015950D02*
X028752Y015250D01*
X028752Y014585D01*
X025252Y013950D02*
X025252Y013915D01*
X021752Y013915D01*
X018252Y013915D01*
X014752Y013915D01*
X011252Y013915D01*
X007752Y013915D01*
X004252Y013915D01*
X003652Y012850D02*
X003652Y016150D01*
X003652Y018400D01*
X004452Y019200D01*
X006252Y019200D01*
X006352Y019100D01*
X006352Y018600D01*
X006452Y018600D01*
X006702Y018850D01*
X007752Y018850D01*
X007752Y017835D01*
X007752Y017165D02*
X011252Y017165D01*
X011252Y017150D01*
X014737Y017150D01*
X014752Y017165D01*
X018252Y017165D01*
X021752Y017165D01*
X025252Y017165D01*
X028752Y017165D01*
X028752Y017200D01*
X028752Y017835D02*
X028752Y018700D01*
X028602Y018850D01*
X025202Y018850D01*
X021652Y018850D01*
X018252Y018850D01*
X014852Y018850D01*
X014752Y018750D01*
X014752Y017835D01*
X014852Y018850D02*
X012652Y018850D01*
X013252Y019500D01*
X012652Y018850D02*
X011252Y018850D01*
X011252Y017835D01*
X011252Y018850D02*
X007752Y018850D01*
X006352Y018600D02*
X006352Y016100D01*
X006452Y016000D01*
X006802Y016000D01*
X006852Y015950D01*
X007302Y015950D01*
X007752Y015500D01*
X007752Y014585D01*
X007302Y015950D02*
X010302Y015950D01*
X013802Y015950D01*
X014202Y015950D01*
X014752Y015400D01*
X014752Y014585D01*
X014202Y015950D02*
X017302Y015950D01*
X017702Y015950D01*
X018252Y015400D01*
X018252Y014585D01*
X017702Y015950D02*
X020802Y015950D01*
X021202Y015950D01*
X021752Y015400D01*
X021752Y014585D01*
X021202Y015950D02*
X024302Y015950D01*
X025252Y017835D02*
X025252Y018800D01*
X025202Y018850D01*
X021752Y018750D02*
X021752Y017835D01*
X021752Y018750D02*
X021652Y018850D01*
X018252Y018850D02*
X018252Y017835D01*
X011252Y015450D02*
X011252Y014585D01*
X011252Y015450D02*
X010752Y015950D01*
X010302Y015950D01*
X004252Y016650D02*
X004202Y016600D01*
X004252Y016650D02*
X004252Y017165D01*
X021752Y010665D02*
X025252Y010665D01*
X028552Y010665D01*
X028587Y010700D01*
X028552Y010665D02*
X028752Y010665D01*
D17*
X008402Y005700D03*
X003652Y003200D03*
M02*
