G75*
%MOIN*%
%OFA0B0*%
%FSLAX24Y24*%
%IPPOS*%
%LPD*%
%AMOC8*
5,1,8,0,0,1.08239X$1,22.5*
%
%ADD10OC8,0.0740*%
%ADD11R,0.0474X0.0513*%
%ADD12C,0.0880*%
%ADD13C,0.0820*%
%ADD14C,0.0516*%
D10*
X013752Y001500D03*
X014752Y001500D03*
X015752Y001500D03*
X016752Y001500D03*
X017752Y001500D03*
X018752Y001500D03*
X019752Y001500D03*
X020752Y001500D03*
X022752Y001500D03*
X023752Y001500D03*
X024752Y001500D03*
X025752Y001500D03*
X026752Y001500D03*
X027752Y001500D03*
X027752Y020500D03*
X026752Y020500D03*
X025752Y020500D03*
X024752Y020500D03*
X023752Y020500D03*
X022752Y020500D03*
X021752Y020500D03*
X020752Y020500D03*
X019252Y020500D03*
X018252Y020500D03*
X017252Y020500D03*
X016252Y020500D03*
X015252Y020500D03*
X014252Y020500D03*
X013252Y020500D03*
X012252Y020500D03*
X011252Y020500D03*
X010252Y020500D03*
D11*
X011252Y017835D03*
X011252Y017165D03*
X014752Y017165D03*
X014752Y017835D03*
X018252Y017835D03*
X018252Y017165D03*
X021752Y017165D03*
X021752Y017835D03*
X025252Y017835D03*
X025252Y017165D03*
X028752Y017165D03*
X028752Y017835D03*
X028752Y014585D03*
X028752Y013915D03*
X025252Y013915D03*
X025252Y014585D03*
X021752Y014585D03*
X021752Y013915D03*
X018252Y013915D03*
X018252Y014585D03*
X014752Y014585D03*
X014752Y013915D03*
X011252Y013915D03*
X011252Y014585D03*
X007752Y014585D03*
X007752Y013915D03*
X007752Y011335D03*
X007752Y010665D03*
X007752Y008085D03*
X007752Y007415D03*
X007752Y004935D03*
X007752Y004265D03*
X004252Y004265D03*
X004252Y004935D03*
X004252Y007415D03*
X004252Y008085D03*
X004252Y010665D03*
X004252Y011335D03*
X004252Y013915D03*
X004252Y014585D03*
X004252Y017165D03*
X004252Y017835D03*
X007752Y017835D03*
X007752Y017165D03*
X011252Y011335D03*
X011252Y010665D03*
X014752Y010665D03*
X014752Y011335D03*
X018252Y011335D03*
X018252Y010665D03*
X021752Y010665D03*
X021752Y011335D03*
X025252Y011335D03*
X025252Y010665D03*
X028752Y010665D03*
X028752Y011335D03*
X028752Y008085D03*
X028752Y007415D03*
X025252Y007415D03*
X025252Y008085D03*
X021752Y008085D03*
X021752Y007415D03*
X018252Y007415D03*
X018252Y008085D03*
X014752Y008085D03*
X014752Y007415D03*
X011252Y007415D03*
X011252Y008085D03*
X011252Y004935D03*
X011252Y004265D03*
X014752Y004265D03*
X014752Y004935D03*
X018252Y004935D03*
X018252Y004265D03*
X021752Y004265D03*
X021752Y004935D03*
X025252Y004935D03*
X025252Y004265D03*
X028752Y004265D03*
X028752Y004935D03*
D12*
X007941Y002000D03*
X006563Y002000D03*
D13*
X010052Y002500D03*
X011052Y002500D03*
X012052Y002500D03*
X013752Y002500D03*
X014752Y002500D03*
X015752Y002500D03*
X016752Y002500D03*
X017752Y002500D03*
X018752Y002500D03*
X019752Y002500D03*
X020752Y002500D03*
X022752Y002500D03*
X023752Y002500D03*
X024752Y002500D03*
X025752Y002500D03*
X026752Y002500D03*
X027752Y002500D03*
X029402Y003000D03*
X027752Y019500D03*
X026752Y019500D03*
X025752Y019500D03*
X024752Y019500D03*
X023752Y019500D03*
X022752Y019500D03*
X021752Y019500D03*
X020752Y019500D03*
X019252Y019500D03*
X018252Y019500D03*
X017252Y019500D03*
X016252Y019500D03*
X015252Y019500D03*
X014252Y019500D03*
X013252Y019500D03*
X012252Y019500D03*
X011252Y019500D03*
X010252Y019500D03*
D14*
X003652Y003200D03*
X008402Y005700D03*
M02*
