G75*
%MOIN*%
%OFA0B0*%
%FSLAX24Y24*%
%IPPOS*%
%LPD*%
%AMOC8*
5,1,8,0,0,1.08239X$1,22.5*
%
%ADD10C,0.0050*%
%ADD11C,0.0080*%
%ADD12C,0.0060*%
%ADD13C,0.0079*%
%ADD14C,0.0220*%
%ADD15C,0.0100*%
D10*
X003207Y002455D02*
X003308Y002655D01*
X003430Y002655D02*
X003530Y002755D01*
X003530Y002455D01*
X003430Y002455D02*
X003630Y002455D01*
X003752Y002455D02*
X003802Y002455D01*
X003802Y002505D01*
X003752Y002505D01*
X003752Y002455D01*
X003913Y002455D02*
X004113Y002655D01*
X004113Y002705D01*
X004063Y002755D01*
X003963Y002755D01*
X003913Y002705D01*
X003913Y002455D02*
X004113Y002455D01*
X004150Y003025D02*
X003950Y003025D01*
X003950Y003325D01*
X004150Y003325D01*
X004272Y003325D02*
X004422Y003325D01*
X004472Y003275D01*
X004472Y003075D01*
X004422Y003025D01*
X004272Y003025D01*
X004272Y003325D01*
X004050Y003175D02*
X003950Y003175D01*
X003828Y003025D02*
X003627Y003025D01*
X003627Y003325D01*
X003107Y002655D02*
X003207Y002455D01*
X004594Y003075D02*
X004644Y003025D01*
X004744Y003025D01*
X004794Y003075D01*
X004794Y003125D01*
X004744Y003175D01*
X004694Y003175D01*
X004744Y003175D02*
X004794Y003225D01*
X004794Y003275D01*
X004744Y003325D01*
X004644Y003325D01*
X004594Y003275D01*
X004916Y003275D02*
X004967Y003325D01*
X005067Y003325D01*
X005117Y003275D01*
X005117Y003225D01*
X005067Y003175D01*
X005117Y003125D01*
X005117Y003075D01*
X005067Y003025D01*
X004967Y003025D01*
X004916Y003075D01*
X005017Y003175D02*
X005067Y003175D01*
X005277Y003151D02*
X005377Y003251D01*
X005477Y003251D01*
X005577Y003151D01*
X005427Y003029D02*
X005427Y002829D01*
X005327Y002929D02*
X005527Y002929D01*
X005577Y002714D02*
X005477Y002614D01*
X005377Y002614D01*
X005277Y002714D01*
X005327Y002492D02*
X005277Y002442D01*
X005277Y002292D01*
X005577Y002292D01*
X005577Y002442D01*
X005527Y002492D01*
X005327Y002492D01*
X005277Y002170D02*
X005277Y001970D01*
X005577Y001970D01*
X005577Y002170D01*
X005427Y002070D02*
X005427Y001970D01*
X005577Y001847D02*
X005577Y001647D01*
X005277Y001647D01*
X005277Y001525D02*
X005477Y001525D01*
X005577Y001425D01*
X005477Y001325D01*
X005277Y001325D01*
X008877Y001325D02*
X009077Y001325D01*
X009177Y001425D01*
X009077Y001525D01*
X008877Y001525D01*
X008877Y001647D02*
X009177Y001647D01*
X009177Y001847D01*
X009177Y001970D02*
X008877Y001970D01*
X008877Y002170D01*
X008877Y002292D02*
X008877Y002442D01*
X008927Y002492D01*
X009127Y002492D01*
X009177Y002442D01*
X009177Y002292D01*
X008877Y002292D01*
X009027Y002070D02*
X009027Y001970D01*
X009177Y001970D02*
X009177Y002170D01*
X009077Y002614D02*
X008977Y002614D01*
X008877Y002714D01*
X009027Y002829D02*
X009027Y003029D01*
X008877Y003151D02*
X008977Y003251D01*
X009077Y003251D01*
X009177Y003151D01*
X009377Y003225D02*
X009477Y003125D01*
X009578Y003225D01*
X009578Y003425D01*
X009700Y003425D02*
X009700Y003125D01*
X009900Y003125D01*
X010022Y003125D02*
X010222Y003125D01*
X010344Y003125D02*
X010344Y003425D01*
X010494Y003425D01*
X010544Y003375D01*
X010544Y003175D01*
X010494Y003125D01*
X010344Y003125D01*
X010122Y003275D02*
X010022Y003275D01*
X010022Y003425D02*
X010022Y003125D01*
X010022Y003425D02*
X010222Y003425D01*
X010777Y003425D02*
X010777Y003225D01*
X010877Y003125D01*
X010978Y003225D01*
X010978Y003425D01*
X011100Y003375D02*
X011100Y003175D01*
X011150Y003125D01*
X011250Y003125D01*
X011300Y003175D01*
X011422Y003175D02*
X011472Y003125D01*
X011572Y003125D01*
X011622Y003175D01*
X011422Y003175D02*
X011422Y003375D01*
X011472Y003425D01*
X011572Y003425D01*
X011622Y003375D01*
X011877Y003425D02*
X011877Y003275D01*
X011977Y003325D01*
X012027Y003325D01*
X012078Y003275D01*
X012078Y003175D01*
X012027Y003125D01*
X011927Y003125D01*
X011877Y003175D01*
X011877Y003425D02*
X012078Y003425D01*
X012200Y003425D02*
X012200Y003225D01*
X012300Y003125D01*
X012400Y003225D01*
X012400Y003425D01*
X011300Y003375D02*
X011250Y003425D01*
X011150Y003425D01*
X011100Y003375D01*
X009377Y003425D02*
X009377Y003225D01*
X009177Y002714D02*
X009077Y002614D01*
X004772Y006325D02*
X004722Y006275D01*
X004622Y006275D01*
X004572Y006325D01*
X004450Y006325D02*
X004400Y006275D01*
X004300Y006275D01*
X004250Y006325D01*
X004128Y006325D02*
X004077Y006275D01*
X003977Y006275D01*
X003927Y006325D01*
X003927Y006525D01*
X003977Y006575D01*
X004077Y006575D01*
X004128Y006525D01*
X004250Y006525D02*
X004300Y006575D01*
X004400Y006575D01*
X004450Y006525D01*
X004450Y006475D01*
X004400Y006425D01*
X004450Y006375D01*
X004450Y006325D01*
X004400Y006425D02*
X004350Y006425D01*
X004572Y006525D02*
X004622Y006575D01*
X004722Y006575D01*
X004772Y006525D01*
X004772Y006475D01*
X004722Y006425D01*
X004772Y006375D01*
X004772Y006325D01*
X004722Y006425D02*
X004672Y006425D01*
X004644Y009525D02*
X004844Y009525D01*
X004744Y009525D02*
X004744Y009825D01*
X004644Y009725D01*
X004522Y009775D02*
X004472Y009825D01*
X004322Y009825D01*
X004322Y009525D01*
X004472Y009525D01*
X004522Y009575D01*
X004522Y009775D01*
X004200Y009825D02*
X004000Y009825D01*
X004000Y009525D01*
X004200Y009525D01*
X004100Y009675D02*
X004000Y009675D01*
X003878Y009525D02*
X003677Y009525D01*
X003677Y009825D01*
X004966Y009825D02*
X005167Y009825D01*
X005167Y009775D01*
X004966Y009575D01*
X004966Y009525D01*
X004522Y012725D02*
X004522Y012775D01*
X004722Y012975D01*
X004722Y013025D01*
X004522Y013025D01*
X004300Y013025D02*
X004300Y012725D01*
X004200Y012725D02*
X004400Y012725D01*
X004200Y012925D02*
X004300Y013025D01*
X004078Y012975D02*
X004027Y013025D01*
X003927Y013025D01*
X003877Y012975D01*
X003877Y012775D01*
X003927Y012725D01*
X004027Y012725D01*
X004078Y012775D01*
X004050Y016025D02*
X004250Y016025D01*
X004372Y016025D02*
X004372Y016325D01*
X004522Y016325D01*
X004572Y016275D01*
X004572Y016075D01*
X004522Y016025D01*
X004372Y016025D01*
X004150Y016175D02*
X004050Y016175D01*
X004050Y016325D02*
X004050Y016025D01*
X003928Y016025D02*
X003727Y016025D01*
X003727Y016325D01*
X004050Y016325D02*
X004250Y016325D01*
X004694Y016225D02*
X004794Y016325D01*
X004794Y016025D01*
X004694Y016025D02*
X004894Y016025D01*
X004550Y019175D02*
X004350Y019175D01*
X004450Y019175D02*
X004450Y019475D01*
X004350Y019375D01*
X004228Y019425D02*
X004177Y019475D01*
X004077Y019475D01*
X004027Y019425D01*
X004027Y019225D01*
X004077Y019175D01*
X004177Y019175D01*
X004228Y019225D01*
X008637Y019434D02*
X008637Y019584D01*
X008687Y019634D01*
X008787Y019634D01*
X008837Y019584D01*
X008837Y019434D01*
X008837Y019534D02*
X008937Y019634D01*
X008937Y019756D02*
X008637Y019756D01*
X008637Y019956D01*
X008687Y020078D02*
X008737Y020078D01*
X008787Y020128D01*
X008787Y020228D01*
X008837Y020278D01*
X008887Y020278D01*
X008937Y020228D01*
X008937Y020128D01*
X008887Y020078D01*
X008937Y019956D02*
X008937Y019756D01*
X008787Y019756D02*
X008787Y019856D01*
X008687Y020078D02*
X008637Y020128D01*
X008637Y020228D01*
X008687Y020278D01*
X008637Y020400D02*
X008937Y020400D01*
X008937Y020601D01*
X008787Y020501D02*
X008787Y020400D01*
X008637Y020400D02*
X008637Y020601D01*
X008637Y020723D02*
X008637Y020923D01*
X008637Y020823D02*
X008937Y020823D01*
X009977Y020925D02*
X009977Y021125D01*
X010077Y021225D01*
X010178Y021125D01*
X010178Y020925D01*
X010300Y020975D02*
X010350Y020925D01*
X010450Y020925D01*
X010500Y020975D01*
X010500Y021075D01*
X010450Y021125D01*
X010400Y021125D01*
X010300Y021075D01*
X010300Y021225D01*
X010500Y021225D01*
X010777Y021125D02*
X010877Y021225D01*
X010978Y021125D01*
X010978Y020925D01*
X010978Y021075D02*
X010777Y021075D01*
X010777Y021125D02*
X010777Y020925D01*
X011100Y021075D02*
X011300Y021075D01*
X011250Y020925D02*
X011250Y021225D01*
X011100Y021075D01*
X011477Y021075D02*
X011678Y021075D01*
X011678Y021125D02*
X011678Y020925D01*
X011800Y020925D02*
X011800Y021225D01*
X011950Y021225D01*
X012000Y021175D01*
X012000Y021075D01*
X011950Y021025D01*
X011800Y021025D01*
X011900Y021025D02*
X012000Y020925D01*
X012122Y020925D02*
X012322Y020925D01*
X012444Y020925D02*
X012444Y021225D01*
X012644Y021225D01*
X012777Y021175D02*
X012777Y020975D01*
X012827Y020925D01*
X012927Y020925D01*
X012978Y020975D01*
X012978Y021075D01*
X012877Y021075D01*
X012777Y021175D02*
X012827Y021225D01*
X012927Y021225D01*
X012978Y021175D01*
X013100Y021225D02*
X013300Y020925D01*
X013300Y021225D01*
X013422Y021225D02*
X013572Y021225D01*
X013622Y021175D01*
X013622Y020975D01*
X013572Y020925D01*
X013422Y020925D01*
X013422Y021225D01*
X013100Y021225D02*
X013100Y020925D01*
X012544Y021075D02*
X012444Y021075D01*
X012322Y021225D02*
X012122Y021225D01*
X012122Y020925D01*
X012122Y021075D02*
X012222Y021075D01*
X011678Y021125D02*
X011577Y021225D01*
X011477Y021125D01*
X011477Y020925D01*
X010178Y021075D02*
X009977Y021075D01*
X008937Y019434D02*
X008637Y019434D01*
X013877Y020925D02*
X014027Y020925D01*
X014078Y020975D01*
X014078Y021175D01*
X014027Y021225D01*
X013877Y021225D01*
X013877Y020925D01*
X014200Y020925D02*
X014400Y020925D01*
X014300Y020925D02*
X014300Y021225D01*
X014200Y021125D01*
X014522Y021175D02*
X014572Y021225D01*
X014672Y021225D01*
X014722Y021175D01*
X014722Y021125D01*
X014672Y021075D01*
X014722Y021025D01*
X014722Y020975D01*
X014672Y020925D01*
X014572Y020925D01*
X014522Y020975D01*
X014622Y021075D02*
X014672Y021075D01*
X014977Y020925D02*
X015127Y020925D01*
X015178Y020975D01*
X015178Y021175D01*
X015127Y021225D01*
X014977Y021225D01*
X014977Y020925D01*
X015300Y020925D02*
X015500Y020925D01*
X015400Y020925D02*
X015400Y021225D01*
X015300Y021125D01*
X015622Y021175D02*
X015672Y021225D01*
X015772Y021225D01*
X015822Y021175D01*
X015822Y021125D01*
X015622Y020925D01*
X015822Y020925D01*
X016077Y020925D02*
X016227Y020925D01*
X016278Y020975D01*
X016278Y021175D01*
X016227Y021225D01*
X016077Y021225D01*
X016077Y020925D01*
X016400Y020925D02*
X016600Y020925D01*
X016500Y020925D02*
X016500Y021225D01*
X016400Y021125D01*
X016722Y021125D02*
X016822Y021225D01*
X016822Y020925D01*
X016722Y020925D02*
X016922Y020925D01*
X017177Y020925D02*
X017327Y020925D01*
X017378Y020975D01*
X017378Y021175D01*
X017327Y021225D01*
X017177Y021225D01*
X017177Y020925D01*
X017500Y020925D02*
X017700Y020925D01*
X017600Y020925D02*
X017600Y021225D01*
X017500Y021125D01*
X017822Y021175D02*
X017822Y020975D01*
X018022Y021175D01*
X018022Y020975D01*
X017972Y020925D01*
X017872Y020925D01*
X017822Y020975D01*
X017822Y021175D02*
X017872Y021225D01*
X017972Y021225D01*
X018022Y021175D01*
X018277Y021225D02*
X018277Y020925D01*
X018427Y020925D01*
X018478Y020975D01*
X018478Y021175D01*
X018427Y021225D01*
X018277Y021225D01*
X018600Y021175D02*
X018600Y021125D01*
X018650Y021075D01*
X018800Y021075D01*
X018800Y020975D02*
X018800Y021175D01*
X018750Y021225D01*
X018650Y021225D01*
X018600Y021175D01*
X018600Y020975D02*
X018650Y020925D01*
X018750Y020925D01*
X018800Y020975D01*
X019077Y020925D02*
X019227Y020925D01*
X019278Y020975D01*
X019278Y021175D01*
X019227Y021225D01*
X019077Y021225D01*
X019077Y020925D01*
X019400Y020975D02*
X019400Y021025D01*
X019450Y021075D01*
X019550Y021075D01*
X019600Y021025D01*
X019600Y020975D01*
X019550Y020925D01*
X019450Y020925D01*
X019400Y020975D01*
X019450Y021075D02*
X019400Y021125D01*
X019400Y021175D01*
X019450Y021225D01*
X019550Y021225D01*
X019600Y021175D01*
X019600Y021125D01*
X019550Y021075D01*
X020477Y020925D02*
X020627Y020925D01*
X020678Y020975D01*
X020678Y021175D01*
X020627Y021225D01*
X020477Y021225D01*
X020477Y020925D01*
X020800Y020925D02*
X020800Y020975D01*
X021000Y021175D01*
X021000Y021225D01*
X020800Y021225D01*
X021477Y021225D02*
X021477Y020925D01*
X021627Y020925D01*
X021678Y020975D01*
X021678Y021175D01*
X021627Y021225D01*
X021477Y021225D01*
X021800Y021075D02*
X021950Y021075D01*
X022000Y021025D01*
X022000Y020975D01*
X021950Y020925D01*
X021850Y020925D01*
X021800Y020975D01*
X021800Y021075D01*
X021900Y021175D01*
X022000Y021225D01*
X022477Y021225D02*
X022627Y021225D01*
X022678Y021175D01*
X022678Y020975D01*
X022627Y020925D01*
X022477Y020925D01*
X022477Y021225D01*
X022800Y021225D02*
X022800Y021075D01*
X022900Y021125D01*
X022950Y021125D01*
X023000Y021075D01*
X023000Y020975D01*
X022950Y020925D01*
X022850Y020925D01*
X022800Y020975D01*
X022800Y021225D02*
X023000Y021225D01*
X023477Y021225D02*
X023477Y020925D01*
X023627Y020925D01*
X023678Y020975D01*
X023678Y021175D01*
X023627Y021225D01*
X023477Y021225D01*
X023800Y021075D02*
X024000Y021075D01*
X023950Y020925D02*
X023950Y021225D01*
X023800Y021075D01*
X024477Y020925D02*
X024627Y020925D01*
X024678Y020975D01*
X024678Y021175D01*
X024627Y021225D01*
X024477Y021225D01*
X024477Y020925D01*
X024800Y020975D02*
X024850Y020925D01*
X024950Y020925D01*
X025000Y020975D01*
X025000Y021025D01*
X024950Y021075D01*
X024900Y021075D01*
X024950Y021075D02*
X025000Y021125D01*
X025000Y021175D01*
X024950Y021225D01*
X024850Y021225D01*
X024800Y021175D01*
X025477Y021225D02*
X025477Y020925D01*
X025627Y020925D01*
X025678Y020975D01*
X025678Y021175D01*
X025627Y021225D01*
X025477Y021225D01*
X025800Y021175D02*
X025850Y021225D01*
X025950Y021225D01*
X026000Y021175D01*
X026000Y021125D01*
X025800Y020925D01*
X026000Y020925D01*
X026477Y020925D02*
X026477Y021225D01*
X026627Y021225D01*
X026678Y021175D01*
X026678Y020975D01*
X026627Y020925D01*
X026477Y020925D01*
X026800Y020925D02*
X027000Y020925D01*
X026900Y020925D02*
X026900Y021225D01*
X026800Y021125D01*
X027477Y021225D02*
X027477Y020925D01*
X027627Y020925D01*
X027678Y020975D01*
X027678Y021175D01*
X027627Y021225D01*
X027477Y021225D01*
X027800Y021175D02*
X027850Y021225D01*
X027950Y021225D01*
X028000Y021175D01*
X027800Y020975D01*
X027850Y020925D01*
X027950Y020925D01*
X028000Y020975D01*
X028000Y021175D01*
X027800Y021175D02*
X027800Y020975D01*
X028627Y016275D02*
X028577Y016225D01*
X028577Y016025D01*
X028627Y015975D01*
X028727Y015975D01*
X028778Y016025D01*
X028900Y016025D02*
X028950Y015975D01*
X029050Y015975D01*
X029100Y016025D01*
X029100Y016225D01*
X029050Y016275D01*
X028950Y016275D01*
X028900Y016225D01*
X028900Y016175D01*
X028950Y016125D01*
X029100Y016125D01*
X028778Y016225D02*
X028727Y016275D01*
X028627Y016275D01*
X028550Y013075D02*
X028550Y012775D01*
X028750Y012775D01*
X028872Y012775D02*
X029022Y012775D01*
X029072Y012825D01*
X029072Y013025D01*
X029022Y013075D01*
X028872Y013075D01*
X028872Y012775D01*
X028650Y012925D02*
X028550Y012925D01*
X028550Y013075D02*
X028750Y013075D01*
X028428Y012775D02*
X028227Y012775D01*
X028227Y013075D01*
X029194Y013025D02*
X029194Y012975D01*
X029244Y012925D01*
X029394Y012925D01*
X029394Y012825D02*
X029394Y013025D01*
X029344Y013075D01*
X029244Y013075D01*
X029194Y013025D01*
X029194Y012825D02*
X029244Y012775D01*
X029344Y012775D01*
X029394Y012825D01*
X029222Y009825D02*
X029022Y009825D01*
X029022Y009675D01*
X029122Y009725D01*
X029172Y009725D01*
X029222Y009675D01*
X029222Y009575D01*
X029172Y009525D01*
X029072Y009525D01*
X029022Y009575D01*
X028900Y009525D02*
X028700Y009525D01*
X028900Y009725D01*
X028900Y009775D01*
X028850Y009825D01*
X028750Y009825D01*
X028700Y009775D01*
X028578Y009775D02*
X028527Y009825D01*
X028427Y009825D01*
X028377Y009775D01*
X028377Y009575D01*
X028427Y009525D01*
X028527Y009525D01*
X028578Y009575D01*
X028600Y006575D02*
X028400Y006575D01*
X028400Y006275D01*
X028600Y006275D01*
X028722Y006275D02*
X028872Y006275D01*
X028922Y006325D01*
X028922Y006525D01*
X028872Y006575D01*
X028722Y006575D01*
X028722Y006275D01*
X028500Y006425D02*
X028400Y006425D01*
X028278Y006275D02*
X028077Y006275D01*
X028077Y006575D01*
X029044Y006525D02*
X029094Y006575D01*
X029194Y006575D01*
X029244Y006525D01*
X029244Y006475D01*
X029044Y006275D01*
X029244Y006275D01*
X029366Y006325D02*
X029417Y006275D01*
X029517Y006275D01*
X029567Y006325D01*
X029567Y006425D01*
X029517Y006475D01*
X029467Y006475D01*
X029366Y006425D01*
X029366Y006575D01*
X029567Y006575D01*
X027565Y003425D02*
X027465Y003425D01*
X027414Y003375D01*
X027414Y003175D01*
X027465Y003125D01*
X027565Y003125D01*
X027615Y003175D01*
X027615Y003375D02*
X027565Y003425D01*
X027292Y003375D02*
X027242Y003425D01*
X027142Y003425D01*
X027092Y003375D01*
X026977Y003425D02*
X026877Y003425D01*
X026927Y003425D02*
X026927Y003125D01*
X026877Y003125D02*
X026977Y003125D01*
X027092Y003125D02*
X027292Y003325D01*
X027292Y003375D01*
X027292Y003125D02*
X027092Y003125D01*
X026168Y003115D02*
X026168Y003415D01*
X025968Y003415D02*
X025968Y003115D01*
X025853Y003115D02*
X025753Y003115D01*
X025803Y003115D02*
X025803Y003415D01*
X025753Y003415D02*
X025853Y003415D01*
X025968Y003415D02*
X026168Y003115D01*
X025309Y003165D02*
X025309Y003265D01*
X025209Y003265D01*
X025309Y003165D02*
X025259Y003115D01*
X025159Y003115D01*
X025109Y003165D01*
X025109Y003365D01*
X025159Y003415D01*
X025259Y003415D01*
X025309Y003365D01*
X024987Y003365D02*
X024987Y003165D01*
X024937Y003115D01*
X024837Y003115D01*
X024786Y003165D01*
X024786Y003365D01*
X024837Y003415D01*
X024937Y003415D01*
X024987Y003365D01*
X024664Y003115D02*
X024464Y003115D01*
X024464Y003415D01*
X024342Y003315D02*
X024342Y003115D01*
X024342Y003265D02*
X024142Y003265D01*
X024142Y003315D02*
X024242Y003415D01*
X024342Y003315D01*
X024142Y003315D02*
X024142Y003115D01*
X024020Y003115D02*
X024020Y003415D01*
X023820Y003415D02*
X023820Y003115D01*
X023698Y003115D02*
X023698Y003315D01*
X023597Y003415D01*
X023497Y003315D01*
X023497Y003115D01*
X023497Y003265D02*
X023698Y003265D01*
X023820Y003415D02*
X024020Y003115D01*
X023900Y001025D02*
X023900Y000725D01*
X023800Y000725D02*
X024000Y000725D01*
X023800Y000925D02*
X023900Y001025D01*
X023678Y000925D02*
X023678Y000725D01*
X023678Y000875D02*
X023477Y000875D01*
X023477Y000925D02*
X023577Y001025D01*
X023678Y000925D01*
X023477Y000925D02*
X023477Y000725D01*
X023000Y000775D02*
X022950Y000725D01*
X022850Y000725D01*
X022800Y000775D01*
X023000Y000975D01*
X023000Y000775D01*
X023000Y000975D02*
X022950Y001025D01*
X022850Y001025D01*
X022800Y000975D01*
X022800Y000775D01*
X022678Y000725D02*
X022678Y000925D01*
X022577Y001025D01*
X022477Y000925D01*
X022477Y000725D01*
X022477Y000875D02*
X022678Y000875D01*
X021215Y000725D02*
X021215Y001025D01*
X021014Y001025D02*
X021215Y000725D01*
X021014Y000725D02*
X021014Y001025D01*
X020900Y001025D02*
X020800Y001025D01*
X020850Y001025D02*
X020850Y000725D01*
X020800Y000725D02*
X020900Y000725D01*
X020678Y000825D02*
X020678Y001025D01*
X020678Y000825D02*
X020577Y000725D01*
X020477Y000825D01*
X020477Y001025D01*
X020222Y000975D02*
X020222Y000775D01*
X020172Y000725D01*
X020022Y000725D01*
X020022Y001025D01*
X020172Y001025D01*
X020222Y000975D01*
X019900Y001025D02*
X019900Y000725D01*
X019700Y001025D01*
X019700Y000725D01*
X019578Y000775D02*
X019578Y000875D01*
X019477Y000875D01*
X019377Y000775D02*
X019427Y000725D01*
X019527Y000725D01*
X019578Y000775D01*
X019578Y000975D02*
X019527Y001025D01*
X019427Y001025D01*
X019377Y000975D01*
X019377Y000775D01*
X019122Y000775D02*
X019122Y000975D01*
X019072Y001025D01*
X018922Y001025D01*
X018922Y000725D01*
X019072Y000725D01*
X019122Y000775D01*
X018800Y000725D02*
X018800Y001025D01*
X018600Y001025D02*
X018800Y000725D01*
X018600Y000725D02*
X018600Y001025D01*
X018478Y000975D02*
X018427Y001025D01*
X018327Y001025D01*
X018277Y000975D01*
X018277Y000775D01*
X018327Y000725D01*
X018427Y000725D01*
X018478Y000775D01*
X018478Y000875D01*
X018377Y000875D01*
X016597Y000995D02*
X016396Y000995D01*
X016497Y000995D02*
X016497Y000695D01*
X016274Y000695D02*
X016074Y000695D01*
X016074Y000995D01*
X016274Y000995D01*
X016174Y000845D02*
X016074Y000845D01*
X015952Y000795D02*
X015952Y000745D01*
X015902Y000695D01*
X015802Y000695D01*
X015752Y000745D01*
X015802Y000845D02*
X015902Y000845D01*
X015952Y000795D01*
X015952Y000945D02*
X015902Y000995D01*
X015802Y000995D01*
X015752Y000945D01*
X015752Y000895D01*
X015802Y000845D01*
X015630Y000695D02*
X015430Y000695D01*
X015430Y000995D01*
X015630Y000995D01*
X015530Y000845D02*
X015430Y000845D01*
X015308Y000845D02*
X015257Y000795D01*
X015107Y000795D01*
X015107Y000695D02*
X015107Y000995D01*
X015257Y000995D01*
X015308Y000945D01*
X015308Y000845D01*
X015207Y000795D02*
X015308Y000695D01*
X016427Y003125D02*
X016377Y003175D01*
X016427Y003125D02*
X016527Y003125D01*
X016578Y003175D01*
X016578Y003225D01*
X016527Y003275D01*
X016477Y003275D01*
X016527Y003275D02*
X016578Y003325D01*
X016578Y003375D01*
X016527Y003425D01*
X016427Y003425D01*
X016377Y003375D01*
X016700Y003425D02*
X016700Y003225D01*
X016800Y003125D01*
X016900Y003225D01*
X016900Y003425D01*
X017022Y003375D02*
X017072Y003425D01*
X017172Y003425D01*
X017222Y003375D01*
X017222Y003325D01*
X017172Y003275D01*
X017222Y003225D01*
X017222Y003175D01*
X017172Y003125D01*
X017072Y003125D01*
X017022Y003175D01*
X017122Y003275D02*
X017172Y003275D01*
X017477Y003275D02*
X017577Y003325D01*
X017627Y003325D01*
X017678Y003275D01*
X017678Y003175D01*
X017627Y003125D01*
X017527Y003125D01*
X017477Y003175D01*
X017477Y003275D02*
X017477Y003425D01*
X017678Y003425D01*
X017800Y003425D02*
X017800Y003225D01*
X017900Y003125D01*
X018000Y003225D01*
X018000Y003425D01*
X024477Y000925D02*
X024477Y000725D01*
X024477Y000875D02*
X024678Y000875D01*
X024678Y000925D02*
X024678Y000725D01*
X024800Y000725D02*
X025000Y000925D01*
X025000Y000975D01*
X024950Y001025D01*
X024850Y001025D01*
X024800Y000975D01*
X024678Y000925D02*
X024577Y001025D01*
X024477Y000925D01*
X024800Y000725D02*
X025000Y000725D01*
X025477Y000725D02*
X025477Y000925D01*
X025577Y001025D01*
X025678Y000925D01*
X025678Y000725D01*
X025800Y000775D02*
X025850Y000725D01*
X025950Y000725D01*
X026000Y000775D01*
X026000Y000825D01*
X025950Y000875D01*
X025900Y000875D01*
X025950Y000875D02*
X026000Y000925D01*
X026000Y000975D01*
X025950Y001025D01*
X025850Y001025D01*
X025800Y000975D01*
X025678Y000875D02*
X025477Y000875D01*
X026477Y000875D02*
X026678Y000875D01*
X026678Y000925D02*
X026678Y000725D01*
X026800Y000875D02*
X027000Y000875D01*
X026950Y000725D02*
X026950Y001025D01*
X026800Y000875D01*
X026678Y000925D02*
X026577Y001025D01*
X026477Y000925D01*
X026477Y000725D01*
X027477Y000725D02*
X027477Y000925D01*
X027577Y001025D01*
X027678Y000925D01*
X027678Y000725D01*
X027800Y000775D02*
X027850Y000725D01*
X027950Y000725D01*
X028000Y000775D01*
X028000Y000875D01*
X027950Y000925D01*
X027900Y000925D01*
X027800Y000875D01*
X027800Y001025D01*
X028000Y001025D01*
X027678Y000875D02*
X027477Y000875D01*
X028477Y002725D02*
X028477Y002875D01*
X028527Y002925D01*
X028727Y002925D01*
X028777Y002875D01*
X028777Y002725D01*
X028477Y002725D01*
X028527Y003047D02*
X028727Y003047D01*
X028777Y003097D01*
X028777Y003197D01*
X028727Y003247D01*
X028527Y003247D01*
X028477Y003197D01*
X028477Y003097D01*
X028527Y003047D01*
D11*
X028252Y002750D02*
X028002Y003000D01*
X027502Y003000D01*
X027252Y002750D01*
X027002Y003000D01*
X026502Y003000D01*
X026252Y002750D01*
X026002Y003000D01*
X025502Y003000D01*
X025252Y002750D01*
X025002Y003000D01*
X024502Y003000D01*
X024252Y002750D01*
X024002Y003000D01*
X023502Y003000D01*
X023252Y002750D01*
X023002Y003000D01*
X022502Y003000D01*
X022252Y002750D01*
X022252Y002250D01*
X022502Y002000D01*
X023002Y002000D01*
X023252Y002250D01*
X023502Y002000D01*
X024002Y002000D01*
X024252Y002250D01*
X024502Y002000D01*
X025002Y002000D01*
X025252Y002250D01*
X025502Y002000D01*
X026002Y002000D01*
X026252Y002250D01*
X026502Y002000D01*
X027002Y002000D01*
X027252Y002250D01*
X027502Y002000D01*
X028002Y002000D01*
X028252Y002250D01*
X028252Y002750D01*
X028902Y002750D02*
X028902Y003250D01*
X029152Y003500D01*
X029652Y003500D01*
X029902Y003250D01*
X029902Y002750D01*
X029652Y002500D01*
X029152Y002500D01*
X028902Y002750D01*
X029146Y003516D02*
X028359Y003516D01*
X027768Y004146D02*
X027768Y004224D01*
X027768Y004776D02*
X027768Y004854D01*
X028389Y005287D02*
X028391Y005305D01*
X028397Y005323D01*
X028406Y005339D01*
X028418Y005352D01*
X028433Y005363D01*
X028450Y005371D01*
X028468Y005375D01*
X028486Y005375D01*
X028504Y005371D01*
X028521Y005363D01*
X028536Y005352D01*
X028548Y005339D01*
X028557Y005323D01*
X028563Y005305D01*
X028565Y005287D01*
X028563Y005269D01*
X028557Y005251D01*
X028548Y005235D01*
X028536Y005222D01*
X028521Y005211D01*
X028504Y005203D01*
X028486Y005199D01*
X028468Y005199D01*
X028450Y005203D01*
X028433Y005211D01*
X028418Y005222D01*
X028406Y005235D01*
X028397Y005251D01*
X028391Y005269D01*
X028389Y005287D01*
X028359Y005484D02*
X029146Y005484D01*
X029737Y004854D02*
X029737Y004776D01*
X029737Y004224D02*
X029737Y004146D01*
X026237Y004224D02*
X026237Y004146D01*
X026237Y004776D02*
X026237Y004854D01*
X025646Y005484D02*
X024859Y005484D01*
X024889Y005287D02*
X024891Y005305D01*
X024897Y005323D01*
X024906Y005339D01*
X024918Y005352D01*
X024933Y005363D01*
X024950Y005371D01*
X024968Y005375D01*
X024986Y005375D01*
X025004Y005371D01*
X025021Y005363D01*
X025036Y005352D01*
X025048Y005339D01*
X025057Y005323D01*
X025063Y005305D01*
X025065Y005287D01*
X025063Y005269D01*
X025057Y005251D01*
X025048Y005235D01*
X025036Y005222D01*
X025021Y005211D01*
X025004Y005203D01*
X024986Y005199D01*
X024968Y005199D01*
X024950Y005203D01*
X024933Y005211D01*
X024918Y005222D01*
X024906Y005235D01*
X024897Y005251D01*
X024891Y005269D01*
X024889Y005287D01*
X024268Y004854D02*
X024268Y004776D01*
X024268Y004224D02*
X024268Y004146D01*
X024859Y003516D02*
X025646Y003516D01*
X022737Y004146D02*
X022737Y004224D01*
X022737Y004776D02*
X022737Y004854D01*
X022146Y005484D02*
X021359Y005484D01*
X021389Y005287D02*
X021391Y005305D01*
X021397Y005323D01*
X021406Y005339D01*
X021418Y005352D01*
X021433Y005363D01*
X021450Y005371D01*
X021468Y005375D01*
X021486Y005375D01*
X021504Y005371D01*
X021521Y005363D01*
X021536Y005352D01*
X021548Y005339D01*
X021557Y005323D01*
X021563Y005305D01*
X021565Y005287D01*
X021563Y005269D01*
X021557Y005251D01*
X021548Y005235D01*
X021536Y005222D01*
X021521Y005211D01*
X021504Y005203D01*
X021486Y005199D01*
X021468Y005199D01*
X021450Y005203D01*
X021433Y005211D01*
X021418Y005222D01*
X021406Y005235D01*
X021397Y005251D01*
X021391Y005269D01*
X021389Y005287D01*
X020768Y004854D02*
X020768Y004776D01*
X020768Y004224D02*
X020768Y004146D01*
X021359Y003516D02*
X022146Y003516D01*
X022123Y003360D02*
X022263Y003360D01*
X022333Y003290D01*
X022333Y003220D01*
X022263Y003150D01*
X022333Y003080D01*
X022333Y003010D01*
X022263Y002940D01*
X022123Y002940D01*
X022053Y003010D01*
X022193Y003150D02*
X022263Y003150D01*
X022053Y003290D02*
X022123Y003360D01*
X021873Y003360D02*
X021732Y003360D01*
X021803Y003360D02*
X021803Y003010D01*
X021732Y002940D01*
X021662Y002940D01*
X021592Y003010D01*
X021252Y002750D02*
X021002Y003000D01*
X020502Y003000D01*
X020252Y002750D01*
X020002Y003000D01*
X019502Y003000D01*
X019252Y002750D01*
X019002Y003000D01*
X018502Y003000D01*
X018252Y002750D01*
X018002Y003000D01*
X017502Y003000D01*
X017252Y002750D01*
X017002Y003000D01*
X016502Y003000D01*
X016252Y002750D01*
X016002Y003000D01*
X015502Y003000D01*
X015252Y002750D01*
X015002Y003000D01*
X014502Y003000D01*
X014252Y002750D01*
X014002Y003000D01*
X013502Y003000D01*
X013252Y002750D01*
X013252Y002250D01*
X013502Y002000D01*
X014002Y002000D01*
X014252Y002250D01*
X014502Y002000D01*
X015002Y002000D01*
X015252Y002250D01*
X015502Y002000D01*
X016002Y002000D01*
X016252Y002250D01*
X016502Y002000D01*
X017002Y002000D01*
X017252Y002250D01*
X017502Y002000D01*
X018002Y002000D01*
X018252Y002250D01*
X018502Y002000D01*
X019002Y002000D01*
X019252Y002250D01*
X019502Y002000D01*
X020002Y002000D01*
X020252Y002250D01*
X020502Y002000D01*
X021002Y002000D01*
X021252Y002250D01*
X021252Y002750D01*
X021332Y002060D02*
X021473Y002060D01*
X021403Y002060D02*
X021403Y001710D01*
X021332Y001640D01*
X021262Y001640D01*
X021192Y001710D01*
X021653Y001850D02*
X021863Y002060D01*
X021863Y001640D01*
X021933Y001850D02*
X021653Y001850D01*
X018646Y003516D02*
X017859Y003516D01*
X017268Y004146D02*
X017268Y004224D01*
X017268Y004776D02*
X017268Y004854D01*
X017889Y005287D02*
X017891Y005305D01*
X017897Y005323D01*
X017906Y005339D01*
X017918Y005352D01*
X017933Y005363D01*
X017950Y005371D01*
X017968Y005375D01*
X017986Y005375D01*
X018004Y005371D01*
X018021Y005363D01*
X018036Y005352D01*
X018048Y005339D01*
X018057Y005323D01*
X018063Y005305D01*
X018065Y005287D01*
X018063Y005269D01*
X018057Y005251D01*
X018048Y005235D01*
X018036Y005222D01*
X018021Y005211D01*
X018004Y005203D01*
X017986Y005199D01*
X017968Y005199D01*
X017950Y005203D01*
X017933Y005211D01*
X017918Y005222D01*
X017906Y005235D01*
X017897Y005251D01*
X017891Y005269D01*
X017889Y005287D01*
X017859Y005484D02*
X018646Y005484D01*
X019237Y004854D02*
X019237Y004776D01*
X019237Y004224D02*
X019237Y004146D01*
X018646Y006766D02*
X017859Y006766D01*
X017268Y007396D02*
X017268Y007474D01*
X017268Y008026D02*
X017268Y008104D01*
X017889Y008537D02*
X017891Y008555D01*
X017897Y008573D01*
X017906Y008589D01*
X017918Y008602D01*
X017933Y008613D01*
X017950Y008621D01*
X017968Y008625D01*
X017986Y008625D01*
X018004Y008621D01*
X018021Y008613D01*
X018036Y008602D01*
X018048Y008589D01*
X018057Y008573D01*
X018063Y008555D01*
X018065Y008537D01*
X018063Y008519D01*
X018057Y008501D01*
X018048Y008485D01*
X018036Y008472D01*
X018021Y008461D01*
X018004Y008453D01*
X017986Y008449D01*
X017968Y008449D01*
X017950Y008453D01*
X017933Y008461D01*
X017918Y008472D01*
X017906Y008485D01*
X017897Y008501D01*
X017891Y008519D01*
X017889Y008537D01*
X017859Y008734D02*
X018646Y008734D01*
X019237Y008104D02*
X019237Y008026D01*
X019237Y007474D02*
X019237Y007396D01*
X020768Y007396D02*
X020768Y007474D01*
X020768Y008026D02*
X020768Y008104D01*
X021389Y008537D02*
X021391Y008555D01*
X021397Y008573D01*
X021406Y008589D01*
X021418Y008602D01*
X021433Y008613D01*
X021450Y008621D01*
X021468Y008625D01*
X021486Y008625D01*
X021504Y008621D01*
X021521Y008613D01*
X021536Y008602D01*
X021548Y008589D01*
X021557Y008573D01*
X021563Y008555D01*
X021565Y008537D01*
X021563Y008519D01*
X021557Y008501D01*
X021548Y008485D01*
X021536Y008472D01*
X021521Y008461D01*
X021504Y008453D01*
X021486Y008449D01*
X021468Y008449D01*
X021450Y008453D01*
X021433Y008461D01*
X021418Y008472D01*
X021406Y008485D01*
X021397Y008501D01*
X021391Y008519D01*
X021389Y008537D01*
X021359Y008734D02*
X022146Y008734D01*
X022737Y008104D02*
X022737Y008026D01*
X022737Y007474D02*
X022737Y007396D01*
X022146Y006766D02*
X021359Y006766D01*
X024268Y007396D02*
X024268Y007474D01*
X024268Y008026D02*
X024268Y008104D01*
X024889Y008537D02*
X024891Y008555D01*
X024897Y008573D01*
X024906Y008589D01*
X024918Y008602D01*
X024933Y008613D01*
X024950Y008621D01*
X024968Y008625D01*
X024986Y008625D01*
X025004Y008621D01*
X025021Y008613D01*
X025036Y008602D01*
X025048Y008589D01*
X025057Y008573D01*
X025063Y008555D01*
X025065Y008537D01*
X025063Y008519D01*
X025057Y008501D01*
X025048Y008485D01*
X025036Y008472D01*
X025021Y008461D01*
X025004Y008453D01*
X024986Y008449D01*
X024968Y008449D01*
X024950Y008453D01*
X024933Y008461D01*
X024918Y008472D01*
X024906Y008485D01*
X024897Y008501D01*
X024891Y008519D01*
X024889Y008537D01*
X024859Y008734D02*
X025646Y008734D01*
X026237Y008104D02*
X026237Y008026D01*
X026237Y007474D02*
X026237Y007396D01*
X025646Y006766D02*
X024859Y006766D01*
X027768Y007396D02*
X027768Y007474D01*
X027768Y008026D02*
X027768Y008104D01*
X028389Y008537D02*
X028391Y008555D01*
X028397Y008573D01*
X028406Y008589D01*
X028418Y008602D01*
X028433Y008613D01*
X028450Y008621D01*
X028468Y008625D01*
X028486Y008625D01*
X028504Y008621D01*
X028521Y008613D01*
X028536Y008602D01*
X028548Y008589D01*
X028557Y008573D01*
X028563Y008555D01*
X028565Y008537D01*
X028563Y008519D01*
X028557Y008501D01*
X028548Y008485D01*
X028536Y008472D01*
X028521Y008461D01*
X028504Y008453D01*
X028486Y008449D01*
X028468Y008449D01*
X028450Y008453D01*
X028433Y008461D01*
X028418Y008472D01*
X028406Y008485D01*
X028397Y008501D01*
X028391Y008519D01*
X028389Y008537D01*
X028359Y008734D02*
X029146Y008734D01*
X029737Y008104D02*
X029737Y008026D01*
X029737Y007474D02*
X029737Y007396D01*
X029146Y006766D02*
X028359Y006766D01*
X028359Y010016D02*
X029146Y010016D01*
X029737Y010646D02*
X029737Y010724D01*
X029737Y011276D02*
X029737Y011354D01*
X029146Y011984D02*
X028359Y011984D01*
X028389Y011787D02*
X028391Y011805D01*
X028397Y011823D01*
X028406Y011839D01*
X028418Y011852D01*
X028433Y011863D01*
X028450Y011871D01*
X028468Y011875D01*
X028486Y011875D01*
X028504Y011871D01*
X028521Y011863D01*
X028536Y011852D01*
X028548Y011839D01*
X028557Y011823D01*
X028563Y011805D01*
X028565Y011787D01*
X028563Y011769D01*
X028557Y011751D01*
X028548Y011735D01*
X028536Y011722D01*
X028521Y011711D01*
X028504Y011703D01*
X028486Y011699D01*
X028468Y011699D01*
X028450Y011703D01*
X028433Y011711D01*
X028418Y011722D01*
X028406Y011735D01*
X028397Y011751D01*
X028391Y011769D01*
X028389Y011787D01*
X027768Y011354D02*
X027768Y011276D01*
X027768Y010724D02*
X027768Y010646D01*
X026237Y010646D02*
X026237Y010724D01*
X026237Y011276D02*
X026237Y011354D01*
X025646Y011984D02*
X024859Y011984D01*
X024889Y011787D02*
X024891Y011805D01*
X024897Y011823D01*
X024906Y011839D01*
X024918Y011852D01*
X024933Y011863D01*
X024950Y011871D01*
X024968Y011875D01*
X024986Y011875D01*
X025004Y011871D01*
X025021Y011863D01*
X025036Y011852D01*
X025048Y011839D01*
X025057Y011823D01*
X025063Y011805D01*
X025065Y011787D01*
X025063Y011769D01*
X025057Y011751D01*
X025048Y011735D01*
X025036Y011722D01*
X025021Y011711D01*
X025004Y011703D01*
X024986Y011699D01*
X024968Y011699D01*
X024950Y011703D01*
X024933Y011711D01*
X024918Y011722D01*
X024906Y011735D01*
X024897Y011751D01*
X024891Y011769D01*
X024889Y011787D01*
X024268Y011354D02*
X024268Y011276D01*
X024268Y010724D02*
X024268Y010646D01*
X024859Y010016D02*
X025646Y010016D01*
X022737Y010646D02*
X022737Y010724D01*
X022737Y011276D02*
X022737Y011354D01*
X022146Y011984D02*
X021359Y011984D01*
X021389Y011787D02*
X021391Y011805D01*
X021397Y011823D01*
X021406Y011839D01*
X021418Y011852D01*
X021433Y011863D01*
X021450Y011871D01*
X021468Y011875D01*
X021486Y011875D01*
X021504Y011871D01*
X021521Y011863D01*
X021536Y011852D01*
X021548Y011839D01*
X021557Y011823D01*
X021563Y011805D01*
X021565Y011787D01*
X021563Y011769D01*
X021557Y011751D01*
X021548Y011735D01*
X021536Y011722D01*
X021521Y011711D01*
X021504Y011703D01*
X021486Y011699D01*
X021468Y011699D01*
X021450Y011703D01*
X021433Y011711D01*
X021418Y011722D01*
X021406Y011735D01*
X021397Y011751D01*
X021391Y011769D01*
X021389Y011787D01*
X020768Y011354D02*
X020768Y011276D01*
X020768Y010724D02*
X020768Y010646D01*
X021359Y010016D02*
X022146Y010016D01*
X019237Y010646D02*
X019237Y010724D01*
X019237Y011276D02*
X019237Y011354D01*
X018646Y011984D02*
X017859Y011984D01*
X017889Y011787D02*
X017891Y011805D01*
X017897Y011823D01*
X017906Y011839D01*
X017918Y011852D01*
X017933Y011863D01*
X017950Y011871D01*
X017968Y011875D01*
X017986Y011875D01*
X018004Y011871D01*
X018021Y011863D01*
X018036Y011852D01*
X018048Y011839D01*
X018057Y011823D01*
X018063Y011805D01*
X018065Y011787D01*
X018063Y011769D01*
X018057Y011751D01*
X018048Y011735D01*
X018036Y011722D01*
X018021Y011711D01*
X018004Y011703D01*
X017986Y011699D01*
X017968Y011699D01*
X017950Y011703D01*
X017933Y011711D01*
X017918Y011722D01*
X017906Y011735D01*
X017897Y011751D01*
X017891Y011769D01*
X017889Y011787D01*
X017268Y011354D02*
X017268Y011276D01*
X017268Y010724D02*
X017268Y010646D01*
X017859Y010016D02*
X018646Y010016D01*
X015737Y010646D02*
X015737Y010724D01*
X015737Y011276D02*
X015737Y011354D01*
X015146Y011984D02*
X014359Y011984D01*
X014389Y011787D02*
X014391Y011805D01*
X014397Y011823D01*
X014406Y011839D01*
X014418Y011852D01*
X014433Y011863D01*
X014450Y011871D01*
X014468Y011875D01*
X014486Y011875D01*
X014504Y011871D01*
X014521Y011863D01*
X014536Y011852D01*
X014548Y011839D01*
X014557Y011823D01*
X014563Y011805D01*
X014565Y011787D01*
X014563Y011769D01*
X014557Y011751D01*
X014548Y011735D01*
X014536Y011722D01*
X014521Y011711D01*
X014504Y011703D01*
X014486Y011699D01*
X014468Y011699D01*
X014450Y011703D01*
X014433Y011711D01*
X014418Y011722D01*
X014406Y011735D01*
X014397Y011751D01*
X014391Y011769D01*
X014389Y011787D01*
X013768Y011354D02*
X013768Y011276D01*
X013768Y010724D02*
X013768Y010646D01*
X014359Y010016D02*
X015146Y010016D01*
X015146Y008734D02*
X014359Y008734D01*
X014389Y008537D02*
X014391Y008555D01*
X014397Y008573D01*
X014406Y008589D01*
X014418Y008602D01*
X014433Y008613D01*
X014450Y008621D01*
X014468Y008625D01*
X014486Y008625D01*
X014504Y008621D01*
X014521Y008613D01*
X014536Y008602D01*
X014548Y008589D01*
X014557Y008573D01*
X014563Y008555D01*
X014565Y008537D01*
X014563Y008519D01*
X014557Y008501D01*
X014548Y008485D01*
X014536Y008472D01*
X014521Y008461D01*
X014504Y008453D01*
X014486Y008449D01*
X014468Y008449D01*
X014450Y008453D01*
X014433Y008461D01*
X014418Y008472D01*
X014406Y008485D01*
X014397Y008501D01*
X014391Y008519D01*
X014389Y008537D01*
X013768Y008104D02*
X013768Y008026D01*
X013768Y007474D02*
X013768Y007396D01*
X014359Y006766D02*
X015146Y006766D01*
X015737Y007396D02*
X015737Y007474D01*
X015737Y008026D02*
X015737Y008104D01*
X012237Y008104D02*
X012237Y008026D01*
X012237Y007474D02*
X012237Y007396D01*
X011646Y006766D02*
X010859Y006766D01*
X010268Y007396D02*
X010268Y007474D01*
X010268Y008026D02*
X010268Y008104D01*
X010889Y008537D02*
X010891Y008555D01*
X010897Y008573D01*
X010906Y008589D01*
X010918Y008602D01*
X010933Y008613D01*
X010950Y008621D01*
X010968Y008625D01*
X010986Y008625D01*
X011004Y008621D01*
X011021Y008613D01*
X011036Y008602D01*
X011048Y008589D01*
X011057Y008573D01*
X011063Y008555D01*
X011065Y008537D01*
X011063Y008519D01*
X011057Y008501D01*
X011048Y008485D01*
X011036Y008472D01*
X011021Y008461D01*
X011004Y008453D01*
X010986Y008449D01*
X010968Y008449D01*
X010950Y008453D01*
X010933Y008461D01*
X010918Y008472D01*
X010906Y008485D01*
X010897Y008501D01*
X010891Y008519D01*
X010889Y008537D01*
X010859Y008734D02*
X011646Y008734D01*
X011646Y010016D02*
X010859Y010016D01*
X010268Y010646D02*
X010268Y010724D01*
X010268Y011276D02*
X010268Y011354D01*
X010889Y011787D02*
X010891Y011805D01*
X010897Y011823D01*
X010906Y011839D01*
X010918Y011852D01*
X010933Y011863D01*
X010950Y011871D01*
X010968Y011875D01*
X010986Y011875D01*
X011004Y011871D01*
X011021Y011863D01*
X011036Y011852D01*
X011048Y011839D01*
X011057Y011823D01*
X011063Y011805D01*
X011065Y011787D01*
X011063Y011769D01*
X011057Y011751D01*
X011048Y011735D01*
X011036Y011722D01*
X011021Y011711D01*
X011004Y011703D01*
X010986Y011699D01*
X010968Y011699D01*
X010950Y011703D01*
X010933Y011711D01*
X010918Y011722D01*
X010906Y011735D01*
X010897Y011751D01*
X010891Y011769D01*
X010889Y011787D01*
X010859Y011984D02*
X011646Y011984D01*
X012237Y011354D02*
X012237Y011276D01*
X012237Y010724D02*
X012237Y010646D01*
X011646Y013266D02*
X010859Y013266D01*
X010268Y013896D02*
X010268Y013974D01*
X010268Y014526D02*
X010268Y014604D01*
X010889Y015037D02*
X010891Y015055D01*
X010897Y015073D01*
X010906Y015089D01*
X010918Y015102D01*
X010933Y015113D01*
X010950Y015121D01*
X010968Y015125D01*
X010986Y015125D01*
X011004Y015121D01*
X011021Y015113D01*
X011036Y015102D01*
X011048Y015089D01*
X011057Y015073D01*
X011063Y015055D01*
X011065Y015037D01*
X011063Y015019D01*
X011057Y015001D01*
X011048Y014985D01*
X011036Y014972D01*
X011021Y014961D01*
X011004Y014953D01*
X010986Y014949D01*
X010968Y014949D01*
X010950Y014953D01*
X010933Y014961D01*
X010918Y014972D01*
X010906Y014985D01*
X010897Y015001D01*
X010891Y015019D01*
X010889Y015037D01*
X010859Y015234D02*
X011646Y015234D01*
X012237Y014604D02*
X012237Y014526D01*
X012237Y013974D02*
X012237Y013896D01*
X013768Y013896D02*
X013768Y013974D01*
X013768Y014526D02*
X013768Y014604D01*
X014389Y015037D02*
X014391Y015055D01*
X014397Y015073D01*
X014406Y015089D01*
X014418Y015102D01*
X014433Y015113D01*
X014450Y015121D01*
X014468Y015125D01*
X014486Y015125D01*
X014504Y015121D01*
X014521Y015113D01*
X014536Y015102D01*
X014548Y015089D01*
X014557Y015073D01*
X014563Y015055D01*
X014565Y015037D01*
X014563Y015019D01*
X014557Y015001D01*
X014548Y014985D01*
X014536Y014972D01*
X014521Y014961D01*
X014504Y014953D01*
X014486Y014949D01*
X014468Y014949D01*
X014450Y014953D01*
X014433Y014961D01*
X014418Y014972D01*
X014406Y014985D01*
X014397Y015001D01*
X014391Y015019D01*
X014389Y015037D01*
X014359Y015234D02*
X015146Y015234D01*
X015737Y014604D02*
X015737Y014526D01*
X015737Y013974D02*
X015737Y013896D01*
X015146Y013266D02*
X014359Y013266D01*
X017268Y013896D02*
X017268Y013974D01*
X017268Y014526D02*
X017268Y014604D01*
X017889Y015037D02*
X017891Y015055D01*
X017897Y015073D01*
X017906Y015089D01*
X017918Y015102D01*
X017933Y015113D01*
X017950Y015121D01*
X017968Y015125D01*
X017986Y015125D01*
X018004Y015121D01*
X018021Y015113D01*
X018036Y015102D01*
X018048Y015089D01*
X018057Y015073D01*
X018063Y015055D01*
X018065Y015037D01*
X018063Y015019D01*
X018057Y015001D01*
X018048Y014985D01*
X018036Y014972D01*
X018021Y014961D01*
X018004Y014953D01*
X017986Y014949D01*
X017968Y014949D01*
X017950Y014953D01*
X017933Y014961D01*
X017918Y014972D01*
X017906Y014985D01*
X017897Y015001D01*
X017891Y015019D01*
X017889Y015037D01*
X017859Y015234D02*
X018646Y015234D01*
X019237Y014604D02*
X019237Y014526D01*
X019237Y013974D02*
X019237Y013896D01*
X018646Y013266D02*
X017859Y013266D01*
X020768Y013896D02*
X020768Y013974D01*
X020768Y014526D02*
X020768Y014604D01*
X021389Y015037D02*
X021391Y015055D01*
X021397Y015073D01*
X021406Y015089D01*
X021418Y015102D01*
X021433Y015113D01*
X021450Y015121D01*
X021468Y015125D01*
X021486Y015125D01*
X021504Y015121D01*
X021521Y015113D01*
X021536Y015102D01*
X021548Y015089D01*
X021557Y015073D01*
X021563Y015055D01*
X021565Y015037D01*
X021563Y015019D01*
X021557Y015001D01*
X021548Y014985D01*
X021536Y014972D01*
X021521Y014961D01*
X021504Y014953D01*
X021486Y014949D01*
X021468Y014949D01*
X021450Y014953D01*
X021433Y014961D01*
X021418Y014972D01*
X021406Y014985D01*
X021397Y015001D01*
X021391Y015019D01*
X021389Y015037D01*
X021359Y015234D02*
X022146Y015234D01*
X022737Y014604D02*
X022737Y014526D01*
X022737Y013974D02*
X022737Y013896D01*
X022146Y013266D02*
X021359Y013266D01*
X024268Y013896D02*
X024268Y013974D01*
X024268Y014526D02*
X024268Y014604D01*
X024889Y015037D02*
X024891Y015055D01*
X024897Y015073D01*
X024906Y015089D01*
X024918Y015102D01*
X024933Y015113D01*
X024950Y015121D01*
X024968Y015125D01*
X024986Y015125D01*
X025004Y015121D01*
X025021Y015113D01*
X025036Y015102D01*
X025048Y015089D01*
X025057Y015073D01*
X025063Y015055D01*
X025065Y015037D01*
X025063Y015019D01*
X025057Y015001D01*
X025048Y014985D01*
X025036Y014972D01*
X025021Y014961D01*
X025004Y014953D01*
X024986Y014949D01*
X024968Y014949D01*
X024950Y014953D01*
X024933Y014961D01*
X024918Y014972D01*
X024906Y014985D01*
X024897Y015001D01*
X024891Y015019D01*
X024889Y015037D01*
X024859Y015234D02*
X025646Y015234D01*
X026237Y014604D02*
X026237Y014526D01*
X026237Y013974D02*
X026237Y013896D01*
X025646Y013266D02*
X024859Y013266D01*
X027768Y013896D02*
X027768Y013974D01*
X027768Y014526D02*
X027768Y014604D01*
X028389Y015037D02*
X028391Y015055D01*
X028397Y015073D01*
X028406Y015089D01*
X028418Y015102D01*
X028433Y015113D01*
X028450Y015121D01*
X028468Y015125D01*
X028486Y015125D01*
X028504Y015121D01*
X028521Y015113D01*
X028536Y015102D01*
X028548Y015089D01*
X028557Y015073D01*
X028563Y015055D01*
X028565Y015037D01*
X028563Y015019D01*
X028557Y015001D01*
X028548Y014985D01*
X028536Y014972D01*
X028521Y014961D01*
X028504Y014953D01*
X028486Y014949D01*
X028468Y014949D01*
X028450Y014953D01*
X028433Y014961D01*
X028418Y014972D01*
X028406Y014985D01*
X028397Y015001D01*
X028391Y015019D01*
X028389Y015037D01*
X028359Y015234D02*
X029146Y015234D01*
X029737Y014604D02*
X029737Y014526D01*
X029737Y013974D02*
X029737Y013896D01*
X029146Y013266D02*
X028359Y013266D01*
X028359Y016516D02*
X029146Y016516D01*
X029737Y017146D02*
X029737Y017224D01*
X029737Y017776D02*
X029737Y017854D01*
X029146Y018484D02*
X028359Y018484D01*
X028389Y018287D02*
X028391Y018305D01*
X028397Y018323D01*
X028406Y018339D01*
X028418Y018352D01*
X028433Y018363D01*
X028450Y018371D01*
X028468Y018375D01*
X028486Y018375D01*
X028504Y018371D01*
X028521Y018363D01*
X028536Y018352D01*
X028548Y018339D01*
X028557Y018323D01*
X028563Y018305D01*
X028565Y018287D01*
X028563Y018269D01*
X028557Y018251D01*
X028548Y018235D01*
X028536Y018222D01*
X028521Y018211D01*
X028504Y018203D01*
X028486Y018199D01*
X028468Y018199D01*
X028450Y018203D01*
X028433Y018211D01*
X028418Y018222D01*
X028406Y018235D01*
X028397Y018251D01*
X028391Y018269D01*
X028389Y018287D01*
X027768Y017854D02*
X027768Y017776D01*
X027768Y017224D02*
X027768Y017146D01*
X026237Y017146D02*
X026237Y017224D01*
X026237Y017776D02*
X026237Y017854D01*
X025646Y018484D02*
X024859Y018484D01*
X024889Y018287D02*
X024891Y018305D01*
X024897Y018323D01*
X024906Y018339D01*
X024918Y018352D01*
X024933Y018363D01*
X024950Y018371D01*
X024968Y018375D01*
X024986Y018375D01*
X025004Y018371D01*
X025021Y018363D01*
X025036Y018352D01*
X025048Y018339D01*
X025057Y018323D01*
X025063Y018305D01*
X025065Y018287D01*
X025063Y018269D01*
X025057Y018251D01*
X025048Y018235D01*
X025036Y018222D01*
X025021Y018211D01*
X025004Y018203D01*
X024986Y018199D01*
X024968Y018199D01*
X024950Y018203D01*
X024933Y018211D01*
X024918Y018222D01*
X024906Y018235D01*
X024897Y018251D01*
X024891Y018269D01*
X024889Y018287D01*
X024268Y017854D02*
X024268Y017776D01*
X024268Y017224D02*
X024268Y017146D01*
X024859Y016516D02*
X025646Y016516D01*
X022737Y017146D02*
X022737Y017224D01*
X022737Y017776D02*
X022737Y017854D01*
X022146Y018484D02*
X021359Y018484D01*
X021389Y018287D02*
X021391Y018305D01*
X021397Y018323D01*
X021406Y018339D01*
X021418Y018352D01*
X021433Y018363D01*
X021450Y018371D01*
X021468Y018375D01*
X021486Y018375D01*
X021504Y018371D01*
X021521Y018363D01*
X021536Y018352D01*
X021548Y018339D01*
X021557Y018323D01*
X021563Y018305D01*
X021565Y018287D01*
X021563Y018269D01*
X021557Y018251D01*
X021548Y018235D01*
X021536Y018222D01*
X021521Y018211D01*
X021504Y018203D01*
X021486Y018199D01*
X021468Y018199D01*
X021450Y018203D01*
X021433Y018211D01*
X021418Y018222D01*
X021406Y018235D01*
X021397Y018251D01*
X021391Y018269D01*
X021389Y018287D01*
X020768Y017854D02*
X020768Y017776D01*
X020768Y017224D02*
X020768Y017146D01*
X021359Y016516D02*
X022146Y016516D01*
X019237Y017146D02*
X019237Y017224D01*
X019237Y017776D02*
X019237Y017854D01*
X018646Y018484D02*
X017859Y018484D01*
X017889Y018287D02*
X017891Y018305D01*
X017897Y018323D01*
X017906Y018339D01*
X017918Y018352D01*
X017933Y018363D01*
X017950Y018371D01*
X017968Y018375D01*
X017986Y018375D01*
X018004Y018371D01*
X018021Y018363D01*
X018036Y018352D01*
X018048Y018339D01*
X018057Y018323D01*
X018063Y018305D01*
X018065Y018287D01*
X018063Y018269D01*
X018057Y018251D01*
X018048Y018235D01*
X018036Y018222D01*
X018021Y018211D01*
X018004Y018203D01*
X017986Y018199D01*
X017968Y018199D01*
X017950Y018203D01*
X017933Y018211D01*
X017918Y018222D01*
X017906Y018235D01*
X017897Y018251D01*
X017891Y018269D01*
X017889Y018287D01*
X017268Y017854D02*
X017268Y017776D01*
X017268Y017224D02*
X017268Y017146D01*
X017859Y016516D02*
X018646Y016516D01*
X015737Y017146D02*
X015737Y017224D01*
X015737Y017776D02*
X015737Y017854D01*
X015146Y018484D02*
X014359Y018484D01*
X014389Y018287D02*
X014391Y018305D01*
X014397Y018323D01*
X014406Y018339D01*
X014418Y018352D01*
X014433Y018363D01*
X014450Y018371D01*
X014468Y018375D01*
X014486Y018375D01*
X014504Y018371D01*
X014521Y018363D01*
X014536Y018352D01*
X014548Y018339D01*
X014557Y018323D01*
X014563Y018305D01*
X014565Y018287D01*
X014563Y018269D01*
X014557Y018251D01*
X014548Y018235D01*
X014536Y018222D01*
X014521Y018211D01*
X014504Y018203D01*
X014486Y018199D01*
X014468Y018199D01*
X014450Y018203D01*
X014433Y018211D01*
X014418Y018222D01*
X014406Y018235D01*
X014397Y018251D01*
X014391Y018269D01*
X014389Y018287D01*
X013768Y017854D02*
X013768Y017776D01*
X013768Y017224D02*
X013768Y017146D01*
X014359Y016516D02*
X015146Y016516D01*
X012237Y017146D02*
X012237Y017224D01*
X012237Y017776D02*
X012237Y017854D01*
X011646Y018484D02*
X010859Y018484D01*
X010889Y018287D02*
X010891Y018305D01*
X010897Y018323D01*
X010906Y018339D01*
X010918Y018352D01*
X010933Y018363D01*
X010950Y018371D01*
X010968Y018375D01*
X010986Y018375D01*
X011004Y018371D01*
X011021Y018363D01*
X011036Y018352D01*
X011048Y018339D01*
X011057Y018323D01*
X011063Y018305D01*
X011065Y018287D01*
X011063Y018269D01*
X011057Y018251D01*
X011048Y018235D01*
X011036Y018222D01*
X011021Y018211D01*
X011004Y018203D01*
X010986Y018199D01*
X010968Y018199D01*
X010950Y018203D01*
X010933Y018211D01*
X010918Y018222D01*
X010906Y018235D01*
X010897Y018251D01*
X010891Y018269D01*
X010889Y018287D01*
X010268Y017854D02*
X010268Y017776D01*
X010268Y017224D02*
X010268Y017146D01*
X010859Y016516D02*
X011646Y016516D01*
X008737Y017146D02*
X008737Y017224D01*
X008737Y017776D02*
X008737Y017854D01*
X008146Y018484D02*
X007359Y018484D01*
X007389Y018287D02*
X007391Y018305D01*
X007397Y018323D01*
X007406Y018339D01*
X007418Y018352D01*
X007433Y018363D01*
X007450Y018371D01*
X007468Y018375D01*
X007486Y018375D01*
X007504Y018371D01*
X007521Y018363D01*
X007536Y018352D01*
X007548Y018339D01*
X007557Y018323D01*
X007563Y018305D01*
X007565Y018287D01*
X007563Y018269D01*
X007557Y018251D01*
X007548Y018235D01*
X007536Y018222D01*
X007521Y018211D01*
X007504Y018203D01*
X007486Y018199D01*
X007468Y018199D01*
X007450Y018203D01*
X007433Y018211D01*
X007418Y018222D01*
X007406Y018235D01*
X007397Y018251D01*
X007391Y018269D01*
X007389Y018287D01*
X006768Y017854D02*
X006768Y017776D01*
X006768Y017224D02*
X006768Y017146D01*
X007359Y016516D02*
X008146Y016516D01*
X008146Y015234D02*
X007359Y015234D01*
X007389Y015037D02*
X007391Y015055D01*
X007397Y015073D01*
X007406Y015089D01*
X007418Y015102D01*
X007433Y015113D01*
X007450Y015121D01*
X007468Y015125D01*
X007486Y015125D01*
X007504Y015121D01*
X007521Y015113D01*
X007536Y015102D01*
X007548Y015089D01*
X007557Y015073D01*
X007563Y015055D01*
X007565Y015037D01*
X007563Y015019D01*
X007557Y015001D01*
X007548Y014985D01*
X007536Y014972D01*
X007521Y014961D01*
X007504Y014953D01*
X007486Y014949D01*
X007468Y014949D01*
X007450Y014953D01*
X007433Y014961D01*
X007418Y014972D01*
X007406Y014985D01*
X007397Y015001D01*
X007391Y015019D01*
X007389Y015037D01*
X006768Y014604D02*
X006768Y014526D01*
X006768Y013974D02*
X006768Y013896D01*
X007359Y013266D02*
X008146Y013266D01*
X008737Y013896D02*
X008737Y013974D01*
X008737Y014526D02*
X008737Y014604D01*
X005237Y014604D02*
X005237Y014526D01*
X005237Y013974D02*
X005237Y013896D01*
X004646Y013266D02*
X003859Y013266D01*
X003268Y013896D02*
X003268Y013974D01*
X003268Y014526D02*
X003268Y014604D01*
X003889Y015037D02*
X003891Y015055D01*
X003897Y015073D01*
X003906Y015089D01*
X003918Y015102D01*
X003933Y015113D01*
X003950Y015121D01*
X003968Y015125D01*
X003986Y015125D01*
X004004Y015121D01*
X004021Y015113D01*
X004036Y015102D01*
X004048Y015089D01*
X004057Y015073D01*
X004063Y015055D01*
X004065Y015037D01*
X004063Y015019D01*
X004057Y015001D01*
X004048Y014985D01*
X004036Y014972D01*
X004021Y014961D01*
X004004Y014953D01*
X003986Y014949D01*
X003968Y014949D01*
X003950Y014953D01*
X003933Y014961D01*
X003918Y014972D01*
X003906Y014985D01*
X003897Y015001D01*
X003891Y015019D01*
X003889Y015037D01*
X003859Y015234D02*
X004646Y015234D01*
X004646Y016516D02*
X003859Y016516D01*
X003268Y017146D02*
X003268Y017224D01*
X003268Y017776D02*
X003268Y017854D01*
X003889Y018287D02*
X003891Y018305D01*
X003897Y018323D01*
X003906Y018339D01*
X003918Y018352D01*
X003933Y018363D01*
X003950Y018371D01*
X003968Y018375D01*
X003986Y018375D01*
X004004Y018371D01*
X004021Y018363D01*
X004036Y018352D01*
X004048Y018339D01*
X004057Y018323D01*
X004063Y018305D01*
X004065Y018287D01*
X004063Y018269D01*
X004057Y018251D01*
X004048Y018235D01*
X004036Y018222D01*
X004021Y018211D01*
X004004Y018203D01*
X003986Y018199D01*
X003968Y018199D01*
X003950Y018203D01*
X003933Y018211D01*
X003918Y018222D01*
X003906Y018235D01*
X003897Y018251D01*
X003891Y018269D01*
X003889Y018287D01*
X003859Y018484D02*
X004646Y018484D01*
X005237Y017854D02*
X005237Y017776D01*
X005237Y017224D02*
X005237Y017146D01*
X009752Y019250D02*
X010002Y019000D01*
X010502Y019000D01*
X010752Y019250D01*
X011002Y019000D01*
X011502Y019000D01*
X011752Y019250D01*
X012002Y019000D01*
X012502Y019000D01*
X012752Y019250D01*
X013002Y019000D01*
X013502Y019000D01*
X013752Y019250D01*
X014002Y019000D01*
X014502Y019000D01*
X014752Y019250D01*
X015002Y019000D01*
X015502Y019000D01*
X015752Y019250D01*
X016002Y019000D01*
X016502Y019000D01*
X016752Y019250D01*
X017002Y019000D01*
X017502Y019000D01*
X017752Y019250D01*
X018002Y019000D01*
X018502Y019000D01*
X018752Y019250D01*
X019002Y019000D01*
X019502Y019000D01*
X019752Y019250D01*
X019752Y019750D01*
X019502Y020000D01*
X019002Y020000D01*
X018752Y019750D01*
X018502Y020000D01*
X018002Y020000D01*
X017752Y019750D01*
X017502Y020000D01*
X017002Y020000D01*
X016752Y019750D01*
X016502Y020000D01*
X016002Y020000D01*
X015752Y019750D01*
X015502Y020000D01*
X015002Y020000D01*
X014752Y019750D01*
X014502Y020000D01*
X014002Y020000D01*
X013752Y019750D01*
X013502Y020000D01*
X013002Y020000D01*
X012752Y019750D01*
X012502Y020000D01*
X012002Y020000D01*
X011752Y019750D01*
X011502Y020000D01*
X011002Y020000D01*
X010752Y019750D01*
X010502Y020000D01*
X010002Y020000D01*
X009752Y019750D01*
X009752Y019250D01*
X019592Y020110D02*
X019662Y020040D01*
X019732Y020040D01*
X019803Y020110D01*
X019803Y020460D01*
X019873Y020460D02*
X019732Y020460D01*
X020053Y020250D02*
X020263Y020250D01*
X020333Y020180D01*
X020333Y020110D01*
X020263Y020040D01*
X020123Y020040D01*
X020053Y020110D01*
X020053Y020250D01*
X020193Y020390D01*
X020333Y020460D01*
X020502Y020000D02*
X020252Y019750D01*
X020252Y019250D01*
X020502Y019000D01*
X021002Y019000D01*
X021252Y019250D01*
X021502Y019000D01*
X022002Y019000D01*
X022252Y019250D01*
X022502Y019000D01*
X023002Y019000D01*
X023252Y019250D01*
X023502Y019000D01*
X024002Y019000D01*
X024252Y019250D01*
X024502Y019000D01*
X025002Y019000D01*
X025252Y019250D01*
X025502Y019000D01*
X026002Y019000D01*
X026252Y019250D01*
X026502Y019000D01*
X027002Y019000D01*
X027252Y019250D01*
X027502Y019000D01*
X028002Y019000D01*
X028252Y019250D01*
X028252Y019750D01*
X028002Y020000D01*
X027502Y020000D01*
X027252Y019750D01*
X027002Y020000D01*
X026502Y020000D01*
X026252Y019750D01*
X026002Y020000D01*
X025502Y020000D01*
X025252Y019750D01*
X025002Y020000D01*
X024502Y020000D01*
X024252Y019750D01*
X024002Y020000D01*
X023502Y020000D01*
X023252Y019750D01*
X023002Y020000D01*
X022502Y020000D01*
X022252Y019750D01*
X022002Y020000D01*
X021502Y020000D01*
X021252Y019750D01*
X021002Y020000D01*
X020502Y020000D01*
X028372Y019130D02*
X028442Y019060D01*
X028512Y019060D01*
X028583Y019130D01*
X028583Y019480D01*
X028653Y019480D02*
X028512Y019480D01*
X028833Y019480D02*
X028833Y019270D01*
X028973Y019340D01*
X029043Y019340D01*
X029113Y019270D01*
X029113Y019130D01*
X029043Y019060D01*
X028903Y019060D01*
X028833Y019130D01*
X028833Y019480D02*
X029113Y019480D01*
X015146Y005484D02*
X014359Y005484D01*
X014389Y005287D02*
X014391Y005305D01*
X014397Y005323D01*
X014406Y005339D01*
X014418Y005352D01*
X014433Y005363D01*
X014450Y005371D01*
X014468Y005375D01*
X014486Y005375D01*
X014504Y005371D01*
X014521Y005363D01*
X014536Y005352D01*
X014548Y005339D01*
X014557Y005323D01*
X014563Y005305D01*
X014565Y005287D01*
X014563Y005269D01*
X014557Y005251D01*
X014548Y005235D01*
X014536Y005222D01*
X014521Y005211D01*
X014504Y005203D01*
X014486Y005199D01*
X014468Y005199D01*
X014450Y005203D01*
X014433Y005211D01*
X014418Y005222D01*
X014406Y005235D01*
X014397Y005251D01*
X014391Y005269D01*
X014389Y005287D01*
X013768Y004854D02*
X013768Y004776D01*
X013768Y004224D02*
X013768Y004146D01*
X014359Y003516D02*
X015146Y003516D01*
X015737Y004146D02*
X015737Y004224D01*
X015737Y004776D02*
X015737Y004854D01*
X012552Y002750D02*
X012302Y003000D01*
X011802Y003000D01*
X011552Y002750D01*
X011302Y003000D01*
X010802Y003000D01*
X010552Y002750D01*
X010302Y003000D01*
X009802Y003000D01*
X009552Y002750D01*
X009552Y002250D01*
X009802Y002000D01*
X010302Y002000D01*
X010552Y002250D01*
X010802Y002000D01*
X011302Y002000D01*
X011552Y002250D01*
X011802Y002000D01*
X012302Y002000D01*
X012552Y002250D01*
X012552Y002750D01*
X012722Y001810D02*
X012722Y001390D01*
X012582Y001390D02*
X012862Y001390D01*
X012582Y001670D02*
X012722Y001810D01*
X012402Y001740D02*
X012402Y001600D01*
X012332Y001530D01*
X012122Y001530D01*
X012122Y001390D02*
X012122Y001810D01*
X012332Y001810D01*
X012402Y001740D01*
X011941Y001810D02*
X011801Y001810D01*
X011871Y001810D02*
X011871Y001460D01*
X011801Y001390D01*
X011731Y001390D01*
X011661Y001460D01*
X011611Y001080D02*
X011751Y000940D01*
X011891Y001080D01*
X011891Y000660D01*
X012071Y000660D02*
X012211Y000660D01*
X012141Y000660D02*
X012141Y001080D01*
X012071Y001080D02*
X012211Y001080D01*
X012378Y001080D02*
X012658Y000660D01*
X012658Y001080D01*
X012839Y000940D02*
X012839Y000660D01*
X012839Y000870D02*
X013119Y000870D01*
X013119Y000940D02*
X013119Y000660D01*
X013119Y000940D02*
X012979Y001080D01*
X012839Y000940D01*
X012378Y001080D02*
X012378Y000660D01*
X011611Y000660D02*
X011611Y001080D01*
X011431Y001080D02*
X011431Y000730D01*
X011361Y000660D01*
X011221Y000660D01*
X011150Y000730D01*
X011150Y001080D01*
X010970Y000660D02*
X010690Y000660D01*
X010690Y001080D01*
X010063Y000660D02*
X009923Y000660D01*
X009993Y000660D02*
X009993Y000940D01*
X009923Y000940D01*
X009993Y001080D02*
X009993Y001150D01*
X009743Y000940D02*
X009602Y001080D01*
X009462Y000940D01*
X009462Y000660D01*
X009462Y000870D02*
X009743Y000870D01*
X009743Y000940D02*
X009743Y000660D01*
X008729Y000583D02*
X008729Y001118D01*
X005776Y001118D01*
X005776Y000583D01*
X008729Y000583D01*
X008729Y001118D02*
X008729Y003339D01*
X005776Y003339D01*
X005776Y001118D01*
X005510Y001060D02*
X005370Y000920D01*
X005510Y001060D02*
X005510Y000640D01*
X005370Y000640D02*
X005650Y000640D01*
X005119Y000710D02*
X005119Y001060D01*
X005049Y001060D02*
X005190Y001060D01*
X005119Y000710D02*
X005049Y000640D01*
X004979Y000640D01*
X004909Y000710D01*
X004646Y003516D02*
X003859Y003516D01*
X003268Y004146D02*
X003268Y004224D01*
X003268Y004776D02*
X003268Y004854D01*
X003889Y005287D02*
X003891Y005305D01*
X003897Y005323D01*
X003906Y005339D01*
X003918Y005352D01*
X003933Y005363D01*
X003950Y005371D01*
X003968Y005375D01*
X003986Y005375D01*
X004004Y005371D01*
X004021Y005363D01*
X004036Y005352D01*
X004048Y005339D01*
X004057Y005323D01*
X004063Y005305D01*
X004065Y005287D01*
X004063Y005269D01*
X004057Y005251D01*
X004048Y005235D01*
X004036Y005222D01*
X004021Y005211D01*
X004004Y005203D01*
X003986Y005199D01*
X003968Y005199D01*
X003950Y005203D01*
X003933Y005211D01*
X003918Y005222D01*
X003906Y005235D01*
X003897Y005251D01*
X003891Y005269D01*
X003889Y005287D01*
X003859Y005484D02*
X004646Y005484D01*
X005237Y004854D02*
X005237Y004776D01*
X005237Y004224D02*
X005237Y004146D01*
X006768Y004146D02*
X006768Y004224D01*
X006768Y004776D02*
X006768Y004854D01*
X007389Y005287D02*
X007391Y005305D01*
X007397Y005323D01*
X007406Y005339D01*
X007418Y005352D01*
X007433Y005363D01*
X007450Y005371D01*
X007468Y005375D01*
X007486Y005375D01*
X007504Y005371D01*
X007521Y005363D01*
X007536Y005352D01*
X007548Y005339D01*
X007557Y005323D01*
X007563Y005305D01*
X007565Y005287D01*
X007563Y005269D01*
X007557Y005251D01*
X007548Y005235D01*
X007536Y005222D01*
X007521Y005211D01*
X007504Y005203D01*
X007486Y005199D01*
X007468Y005199D01*
X007450Y005203D01*
X007433Y005211D01*
X007418Y005222D01*
X007406Y005235D01*
X007397Y005251D01*
X007391Y005269D01*
X007389Y005287D01*
X007359Y005484D02*
X008146Y005484D01*
X008737Y004854D02*
X008737Y004776D01*
X008737Y004224D02*
X008737Y004146D01*
X008146Y003516D02*
X007359Y003516D01*
X010268Y004146D02*
X010268Y004224D01*
X010268Y004776D02*
X010268Y004854D01*
X010889Y005287D02*
X010891Y005305D01*
X010897Y005323D01*
X010906Y005339D01*
X010918Y005352D01*
X010933Y005363D01*
X010950Y005371D01*
X010968Y005375D01*
X010986Y005375D01*
X011004Y005371D01*
X011021Y005363D01*
X011036Y005352D01*
X011048Y005339D01*
X011057Y005323D01*
X011063Y005305D01*
X011065Y005287D01*
X011063Y005269D01*
X011057Y005251D01*
X011048Y005235D01*
X011036Y005222D01*
X011021Y005211D01*
X011004Y005203D01*
X010986Y005199D01*
X010968Y005199D01*
X010950Y005203D01*
X010933Y005211D01*
X010918Y005222D01*
X010906Y005235D01*
X010897Y005251D01*
X010891Y005269D01*
X010889Y005287D01*
X010859Y005484D02*
X011646Y005484D01*
X012237Y004854D02*
X012237Y004776D01*
X012237Y004224D02*
X012237Y004146D01*
X011646Y003516D02*
X010859Y003516D01*
X008146Y006766D02*
X007359Y006766D01*
X006768Y007396D02*
X006768Y007474D01*
X006768Y008026D02*
X006768Y008104D01*
X007389Y008537D02*
X007391Y008555D01*
X007397Y008573D01*
X007406Y008589D01*
X007418Y008602D01*
X007433Y008613D01*
X007450Y008621D01*
X007468Y008625D01*
X007486Y008625D01*
X007504Y008621D01*
X007521Y008613D01*
X007536Y008602D01*
X007548Y008589D01*
X007557Y008573D01*
X007563Y008555D01*
X007565Y008537D01*
X007563Y008519D01*
X007557Y008501D01*
X007548Y008485D01*
X007536Y008472D01*
X007521Y008461D01*
X007504Y008453D01*
X007486Y008449D01*
X007468Y008449D01*
X007450Y008453D01*
X007433Y008461D01*
X007418Y008472D01*
X007406Y008485D01*
X007397Y008501D01*
X007391Y008519D01*
X007389Y008537D01*
X007359Y008734D02*
X008146Y008734D01*
X008737Y008104D02*
X008737Y008026D01*
X008737Y007474D02*
X008737Y007396D01*
X005237Y007474D02*
X005237Y007396D01*
X005237Y008026D02*
X005237Y008104D01*
X004646Y008734D02*
X003859Y008734D01*
X003889Y008537D02*
X003891Y008555D01*
X003897Y008573D01*
X003906Y008589D01*
X003918Y008602D01*
X003933Y008613D01*
X003950Y008621D01*
X003968Y008625D01*
X003986Y008625D01*
X004004Y008621D01*
X004021Y008613D01*
X004036Y008602D01*
X004048Y008589D01*
X004057Y008573D01*
X004063Y008555D01*
X004065Y008537D01*
X004063Y008519D01*
X004057Y008501D01*
X004048Y008485D01*
X004036Y008472D01*
X004021Y008461D01*
X004004Y008453D01*
X003986Y008449D01*
X003968Y008449D01*
X003950Y008453D01*
X003933Y008461D01*
X003918Y008472D01*
X003906Y008485D01*
X003897Y008501D01*
X003891Y008519D01*
X003889Y008537D01*
X003268Y008104D02*
X003268Y008026D01*
X003268Y007474D02*
X003268Y007396D01*
X003859Y006766D02*
X004646Y006766D01*
X004646Y010016D02*
X003859Y010016D01*
X003268Y010646D02*
X003268Y010724D01*
X003268Y011276D02*
X003268Y011354D01*
X003889Y011787D02*
X003891Y011805D01*
X003897Y011823D01*
X003906Y011839D01*
X003918Y011852D01*
X003933Y011863D01*
X003950Y011871D01*
X003968Y011875D01*
X003986Y011875D01*
X004004Y011871D01*
X004021Y011863D01*
X004036Y011852D01*
X004048Y011839D01*
X004057Y011823D01*
X004063Y011805D01*
X004065Y011787D01*
X004063Y011769D01*
X004057Y011751D01*
X004048Y011735D01*
X004036Y011722D01*
X004021Y011711D01*
X004004Y011703D01*
X003986Y011699D01*
X003968Y011699D01*
X003950Y011703D01*
X003933Y011711D01*
X003918Y011722D01*
X003906Y011735D01*
X003897Y011751D01*
X003891Y011769D01*
X003889Y011787D01*
X003859Y011984D02*
X004646Y011984D01*
X005237Y011354D02*
X005237Y011276D01*
X005237Y010724D02*
X005237Y010646D01*
X006768Y010646D02*
X006768Y010724D01*
X006768Y011276D02*
X006768Y011354D01*
X007389Y011787D02*
X007391Y011805D01*
X007397Y011823D01*
X007406Y011839D01*
X007418Y011852D01*
X007433Y011863D01*
X007450Y011871D01*
X007468Y011875D01*
X007486Y011875D01*
X007504Y011871D01*
X007521Y011863D01*
X007536Y011852D01*
X007548Y011839D01*
X007557Y011823D01*
X007563Y011805D01*
X007565Y011787D01*
X007563Y011769D01*
X007557Y011751D01*
X007548Y011735D01*
X007536Y011722D01*
X007521Y011711D01*
X007504Y011703D01*
X007486Y011699D01*
X007468Y011699D01*
X007450Y011703D01*
X007433Y011711D01*
X007418Y011722D01*
X007406Y011735D01*
X007397Y011751D01*
X007391Y011769D01*
X007389Y011787D01*
X007359Y011984D02*
X008146Y011984D01*
X008737Y011354D02*
X008737Y011276D01*
X008737Y010724D02*
X008737Y010646D01*
X008146Y010016D02*
X007359Y010016D01*
D12*
X026552Y003230D02*
X026552Y003140D01*
X026552Y003230D02*
X026752Y003230D01*
X027752Y003230D02*
X027952Y003230D01*
X027952Y003140D01*
D13*
X027847Y003516D02*
X027768Y003516D01*
X027768Y003555D01*
X029461Y003516D02*
X029579Y003516D01*
X029619Y003555D01*
X029737Y005445D02*
X029737Y005484D01*
X029658Y005484D01*
X029579Y006766D02*
X029461Y006766D01*
X029579Y006766D02*
X029619Y006805D01*
X027847Y006766D02*
X027768Y006766D01*
X027768Y006805D01*
X027768Y005484D02*
X027847Y005484D01*
X027768Y005484D02*
X027768Y005445D01*
X026237Y005484D02*
X026237Y005445D01*
X026237Y005484D02*
X026158Y005484D01*
X026079Y006766D02*
X025961Y006766D01*
X026079Y006766D02*
X026119Y006805D01*
X024347Y006766D02*
X024268Y006766D01*
X024268Y006805D01*
X022619Y006805D02*
X022579Y006766D01*
X022461Y006766D01*
X020847Y006766D02*
X020768Y006766D01*
X020768Y006805D01*
X020768Y005484D02*
X020847Y005484D01*
X020768Y005484D02*
X020768Y005445D01*
X019237Y005484D02*
X019237Y005445D01*
X019237Y005484D02*
X019158Y005484D01*
X019079Y006766D02*
X018961Y006766D01*
X019079Y006766D02*
X019119Y006805D01*
X017347Y006766D02*
X017268Y006766D01*
X017268Y006805D01*
X015619Y006805D02*
X015579Y006766D01*
X015461Y006766D01*
X013847Y006766D02*
X013768Y006766D01*
X013768Y006805D01*
X013768Y005484D02*
X013847Y005484D01*
X013768Y005484D02*
X013768Y005445D01*
X012237Y005484D02*
X012237Y005445D01*
X012237Y005484D02*
X012158Y005484D01*
X010347Y005484D02*
X010268Y005484D01*
X010268Y005445D01*
X008737Y005484D02*
X008737Y005445D01*
X008737Y005484D02*
X008658Y005484D01*
X008579Y006766D02*
X008461Y006766D01*
X008579Y006766D02*
X008619Y006805D01*
X010268Y006805D02*
X010268Y006766D01*
X010347Y006766D01*
X011961Y006766D02*
X012079Y006766D01*
X012119Y006805D01*
X012237Y008695D02*
X012237Y008734D01*
X012158Y008734D01*
X010347Y008734D02*
X010268Y008734D01*
X010268Y008695D01*
X008737Y008734D02*
X008737Y008695D01*
X008737Y008734D02*
X008658Y008734D01*
X008579Y010016D02*
X008461Y010016D01*
X008579Y010016D02*
X008619Y010055D01*
X010268Y010055D02*
X010268Y010016D01*
X010347Y010016D01*
X011961Y010016D02*
X012079Y010016D01*
X012119Y010055D01*
X013768Y010055D02*
X013768Y010016D01*
X013847Y010016D01*
X015461Y010016D02*
X015579Y010016D01*
X015619Y010055D01*
X017268Y010055D02*
X017268Y010016D01*
X017347Y010016D01*
X018961Y010016D02*
X019079Y010016D01*
X019119Y010055D01*
X019158Y008734D02*
X019237Y008734D01*
X019237Y008695D01*
X020768Y008695D02*
X020768Y008734D01*
X020847Y008734D01*
X020847Y010016D02*
X020768Y010016D01*
X020768Y010055D01*
X022461Y010016D02*
X022579Y010016D01*
X022619Y010055D01*
X024268Y010055D02*
X024268Y010016D01*
X024347Y010016D01*
X025961Y010016D02*
X026079Y010016D01*
X026119Y010055D01*
X026158Y008734D02*
X026237Y008734D01*
X026237Y008695D01*
X027768Y008695D02*
X027768Y008734D01*
X027847Y008734D01*
X027847Y010016D02*
X027768Y010016D01*
X027768Y010055D01*
X029461Y010016D02*
X029579Y010016D01*
X029619Y010055D01*
X029658Y008734D02*
X029737Y008734D01*
X029737Y008695D01*
X029737Y011945D02*
X029737Y011984D01*
X029658Y011984D01*
X029579Y013266D02*
X029461Y013266D01*
X029579Y013266D02*
X029619Y013305D01*
X027847Y013266D02*
X027768Y013266D01*
X027768Y013305D01*
X027768Y011984D02*
X027847Y011984D01*
X027768Y011984D02*
X027768Y011945D01*
X026237Y011984D02*
X026237Y011945D01*
X026237Y011984D02*
X026158Y011984D01*
X026079Y013266D02*
X025961Y013266D01*
X026079Y013266D02*
X026119Y013305D01*
X024347Y013266D02*
X024268Y013266D01*
X024268Y013305D01*
X022619Y013305D02*
X022579Y013266D01*
X022461Y013266D01*
X020847Y013266D02*
X020768Y013266D01*
X020768Y013305D01*
X020768Y011984D02*
X020847Y011984D01*
X020768Y011984D02*
X020768Y011945D01*
X019237Y011984D02*
X019237Y011945D01*
X019237Y011984D02*
X019158Y011984D01*
X019079Y013266D02*
X018961Y013266D01*
X019079Y013266D02*
X019119Y013305D01*
X017347Y013266D02*
X017268Y013266D01*
X017268Y013305D01*
X015619Y013305D02*
X015579Y013266D01*
X015461Y013266D01*
X013847Y013266D02*
X013768Y013266D01*
X013768Y013305D01*
X013768Y011984D02*
X013847Y011984D01*
X013768Y011984D02*
X013768Y011945D01*
X012237Y011984D02*
X012237Y011945D01*
X012237Y011984D02*
X012158Y011984D01*
X010347Y011984D02*
X010268Y011984D01*
X010268Y011945D01*
X008737Y011984D02*
X008737Y011945D01*
X008737Y011984D02*
X008658Y011984D01*
X008579Y013266D02*
X008461Y013266D01*
X008579Y013266D02*
X008619Y013305D01*
X010268Y013305D02*
X010268Y013266D01*
X010347Y013266D01*
X011961Y013266D02*
X012079Y013266D01*
X012119Y013305D01*
X012237Y015195D02*
X012237Y015234D01*
X012158Y015234D01*
X010347Y015234D02*
X010268Y015234D01*
X010268Y015195D01*
X008737Y015234D02*
X008737Y015195D01*
X008737Y015234D02*
X008658Y015234D01*
X008579Y016516D02*
X008461Y016516D01*
X008579Y016516D02*
X008619Y016555D01*
X010268Y016555D02*
X010268Y016516D01*
X010347Y016516D01*
X011961Y016516D02*
X012079Y016516D01*
X012119Y016555D01*
X013768Y016555D02*
X013768Y016516D01*
X013847Y016516D01*
X015461Y016516D02*
X015579Y016516D01*
X015619Y016555D01*
X017268Y016555D02*
X017268Y016516D01*
X017347Y016516D01*
X018961Y016516D02*
X019079Y016516D01*
X019119Y016555D01*
X019158Y015234D02*
X019237Y015234D01*
X019237Y015195D01*
X020768Y015195D02*
X020768Y015234D01*
X020847Y015234D01*
X020847Y016516D02*
X020768Y016516D01*
X020768Y016555D01*
X022461Y016516D02*
X022579Y016516D01*
X022619Y016555D01*
X024268Y016555D02*
X024268Y016516D01*
X024347Y016516D01*
X025961Y016516D02*
X026079Y016516D01*
X026119Y016555D01*
X026158Y015234D02*
X026237Y015234D01*
X026237Y015195D01*
X027768Y015195D02*
X027768Y015234D01*
X027847Y015234D01*
X027847Y016516D02*
X027768Y016516D01*
X027768Y016555D01*
X029461Y016516D02*
X029579Y016516D01*
X029619Y016555D01*
X029658Y015234D02*
X029737Y015234D01*
X029737Y015195D01*
X029737Y018445D02*
X029737Y018484D01*
X029658Y018484D01*
X027847Y018484D02*
X027768Y018484D01*
X027768Y018445D01*
X026237Y018484D02*
X026237Y018445D01*
X026237Y018484D02*
X026158Y018484D01*
X024347Y018484D02*
X024268Y018484D01*
X024268Y018445D01*
X022737Y018484D02*
X022737Y018445D01*
X022737Y018484D02*
X022658Y018484D01*
X020847Y018484D02*
X020768Y018484D01*
X020768Y018445D01*
X019237Y018484D02*
X019237Y018445D01*
X019237Y018484D02*
X019158Y018484D01*
X017347Y018484D02*
X017268Y018484D01*
X017268Y018445D01*
X015737Y018484D02*
X015737Y018445D01*
X015737Y018484D02*
X015658Y018484D01*
X013847Y018484D02*
X013768Y018484D01*
X013768Y018445D01*
X012237Y018484D02*
X012237Y018445D01*
X012237Y018484D02*
X012158Y018484D01*
X010347Y018484D02*
X010268Y018484D01*
X010268Y018445D01*
X008737Y018484D02*
X008737Y018445D01*
X008737Y018484D02*
X008658Y018484D01*
X006847Y018484D02*
X006768Y018484D01*
X006768Y018445D01*
X005237Y018484D02*
X005237Y018445D01*
X005237Y018484D02*
X005158Y018484D01*
X003347Y018484D02*
X003268Y018484D01*
X003268Y018445D01*
X003268Y016555D02*
X003268Y016516D01*
X003347Y016516D01*
X004961Y016516D02*
X005079Y016516D01*
X005119Y016555D01*
X005158Y015234D02*
X005237Y015234D01*
X005237Y015195D01*
X006768Y015195D02*
X006768Y015234D01*
X006847Y015234D01*
X006847Y016516D02*
X006768Y016516D01*
X006768Y016555D01*
X003347Y015234D02*
X003268Y015234D01*
X003268Y015195D01*
X003268Y013305D02*
X003268Y013266D01*
X003347Y013266D01*
X004961Y013266D02*
X005079Y013266D01*
X005119Y013305D01*
X005158Y011984D02*
X005237Y011984D01*
X005237Y011945D01*
X006768Y011945D02*
X006768Y011984D01*
X006847Y011984D01*
X006847Y013266D02*
X006768Y013266D01*
X006768Y013305D01*
X003347Y011984D02*
X003268Y011984D01*
X003268Y011945D01*
X003268Y010055D02*
X003268Y010016D01*
X003347Y010016D01*
X004961Y010016D02*
X005079Y010016D01*
X005119Y010055D01*
X005158Y008734D02*
X005237Y008734D01*
X005237Y008695D01*
X006768Y008695D02*
X006768Y008734D01*
X006847Y008734D01*
X006847Y010016D02*
X006768Y010016D01*
X006768Y010055D01*
X003347Y008734D02*
X003268Y008734D01*
X003268Y008695D01*
X003268Y006805D02*
X003268Y006766D01*
X003347Y006766D01*
X004961Y006766D02*
X005079Y006766D01*
X005119Y006805D01*
X005158Y005484D02*
X005237Y005484D01*
X005237Y005445D01*
X006768Y005445D02*
X006768Y005484D01*
X006847Y005484D01*
X006847Y006766D02*
X006768Y006766D01*
X006768Y006805D01*
X003347Y005484D02*
X003268Y005484D01*
X003268Y005445D01*
X003268Y003555D02*
X003268Y003516D01*
X003347Y003516D01*
X004961Y003516D02*
X005079Y003516D01*
X005119Y003555D01*
X006768Y003555D02*
X006768Y003516D01*
X006847Y003516D01*
X008461Y003516D02*
X008579Y003516D01*
X008619Y003555D01*
X010268Y003555D02*
X010268Y003516D01*
X010347Y003516D01*
X011961Y003516D02*
X012079Y003516D01*
X012119Y003555D01*
X013768Y003555D02*
X013768Y003516D01*
X013847Y003516D01*
X015461Y003516D02*
X015579Y003516D01*
X015619Y003555D01*
X017268Y003555D02*
X017268Y003516D01*
X017347Y003516D01*
X018961Y003516D02*
X019079Y003516D01*
X019119Y003555D01*
X020768Y003555D02*
X020768Y003516D01*
X020847Y003516D01*
X022461Y003516D02*
X022579Y003516D01*
X022619Y003555D01*
X024268Y003555D02*
X024268Y003516D01*
X024347Y003516D01*
X025961Y003516D02*
X026079Y003516D01*
X026119Y003555D01*
X024347Y005484D02*
X024268Y005484D01*
X024268Y005445D01*
X022737Y005484D02*
X022737Y005445D01*
X022737Y005484D02*
X022658Y005484D01*
X022737Y008695D02*
X022737Y008734D01*
X022658Y008734D01*
X024268Y008734D02*
X024347Y008734D01*
X024268Y008734D02*
X024268Y008695D01*
X024268Y011945D02*
X024268Y011984D01*
X024347Y011984D01*
X022737Y011984D02*
X022737Y011945D01*
X022737Y011984D02*
X022658Y011984D01*
X022737Y015195D02*
X022737Y015234D01*
X022658Y015234D01*
X024268Y015234D02*
X024347Y015234D01*
X024268Y015234D02*
X024268Y015195D01*
X017347Y015234D02*
X017268Y015234D01*
X017268Y015195D01*
X015737Y015234D02*
X015737Y015195D01*
X015737Y015234D02*
X015658Y015234D01*
X013847Y015234D02*
X013768Y015234D01*
X013768Y015195D01*
X015658Y011984D02*
X015737Y011984D01*
X015737Y011945D01*
X017268Y011945D02*
X017268Y011984D01*
X017347Y011984D01*
X017268Y008734D02*
X017347Y008734D01*
X017268Y008734D02*
X017268Y008695D01*
X015737Y008734D02*
X015737Y008695D01*
X015737Y008734D02*
X015658Y008734D01*
X013847Y008734D02*
X013768Y008734D01*
X013768Y008695D01*
X015658Y005484D02*
X015737Y005484D01*
X015737Y005445D01*
X017268Y005445D02*
X017268Y005484D01*
X017347Y005484D01*
D14*
X018252Y005788D02*
X018252Y005812D01*
X021752Y005788D02*
X021752Y005812D01*
X025252Y005788D02*
X025252Y005812D01*
X028752Y005788D02*
X028752Y005812D01*
X028752Y009088D02*
X028752Y009112D01*
X025252Y009088D02*
X025252Y009112D01*
X021752Y009088D02*
X021752Y009112D01*
X018252Y009088D02*
X018252Y009112D01*
X014752Y009088D02*
X014752Y009112D01*
X011252Y009088D02*
X011252Y009112D01*
X007752Y009088D02*
X007752Y009112D01*
X004302Y009088D02*
X004302Y009112D01*
X004302Y012338D02*
X004302Y012362D01*
X007752Y012338D02*
X007752Y012362D01*
X011252Y012338D02*
X011252Y012362D01*
X014752Y012338D02*
X014752Y012362D01*
X018252Y012338D02*
X018252Y012362D01*
X021752Y012338D02*
X021752Y012362D01*
X025252Y012338D02*
X025252Y012362D01*
X028752Y012338D02*
X028752Y012362D01*
X028752Y015588D02*
X028752Y015612D01*
X025252Y015588D02*
X025252Y015612D01*
X021752Y015588D02*
X021752Y015612D01*
X018252Y015588D02*
X018252Y015612D01*
X014702Y015588D02*
X014702Y015612D01*
X011252Y015588D02*
X011252Y015612D01*
X007752Y015588D02*
X007752Y015612D01*
X004302Y015588D02*
X004302Y015612D01*
X004302Y018738D02*
X004302Y018762D01*
X007752Y018738D02*
X007752Y018762D01*
X011252Y018738D02*
X011252Y018762D01*
X014752Y018738D02*
X014752Y018762D01*
X018252Y018738D02*
X018252Y018762D01*
X021752Y018738D02*
X021752Y018762D01*
X025252Y018738D02*
X025252Y018762D01*
X028752Y018738D02*
X028752Y018762D01*
X014752Y005812D02*
X014752Y005788D01*
X011252Y005788D02*
X011252Y005812D01*
X007752Y005788D02*
X007752Y005812D01*
X004302Y005788D02*
X004302Y005812D01*
D15*
X005521Y019019D02*
X007883Y019019D01*
X007883Y021381D01*
X005521Y021381D01*
X005521Y019019D01*
X006013Y020200D02*
X006015Y020252D01*
X006021Y020304D01*
X006031Y020355D01*
X006044Y020405D01*
X006062Y020455D01*
X006083Y020502D01*
X006107Y020548D01*
X006136Y020592D01*
X006167Y020634D01*
X006201Y020673D01*
X006238Y020710D01*
X006278Y020743D01*
X006321Y020774D01*
X006365Y020801D01*
X006411Y020825D01*
X006460Y020845D01*
X006509Y020861D01*
X006560Y020874D01*
X006611Y020883D01*
X006663Y020888D01*
X006715Y020889D01*
X006767Y020886D01*
X006819Y020879D01*
X006870Y020868D01*
X006920Y020854D01*
X006969Y020835D01*
X007016Y020813D01*
X007061Y020788D01*
X007105Y020759D01*
X007146Y020727D01*
X007185Y020692D01*
X007220Y020654D01*
X007253Y020613D01*
X007283Y020571D01*
X007309Y020526D01*
X007332Y020479D01*
X007351Y020430D01*
X007367Y020380D01*
X007379Y020330D01*
X007387Y020278D01*
X007391Y020226D01*
X007391Y020174D01*
X007387Y020122D01*
X007379Y020070D01*
X007367Y020020D01*
X007351Y019970D01*
X007332Y019921D01*
X007309Y019874D01*
X007283Y019829D01*
X007253Y019787D01*
X007220Y019746D01*
X007185Y019708D01*
X007146Y019673D01*
X007105Y019641D01*
X007061Y019612D01*
X007016Y019587D01*
X006969Y019565D01*
X006920Y019546D01*
X006870Y019532D01*
X006819Y019521D01*
X006767Y019514D01*
X006715Y019511D01*
X006663Y019512D01*
X006611Y019517D01*
X006560Y019526D01*
X006509Y019539D01*
X006460Y019555D01*
X006411Y019575D01*
X006365Y019599D01*
X006321Y019626D01*
X006278Y019657D01*
X006238Y019690D01*
X006201Y019727D01*
X006167Y019766D01*
X006136Y019808D01*
X006107Y019852D01*
X006083Y019898D01*
X006062Y019945D01*
X006044Y019995D01*
X006031Y020045D01*
X006021Y020096D01*
X006015Y020148D01*
X006013Y020200D01*
M02*
