G75*
%MOIN*%
%OFA0B0*%
%FSLAX24Y24*%
%IPPOS*%
%LPD*%
%AMOC8*
5,1,8,0,0,1.08239X$1,22.5*
%
%ADD10OC8,0.0660*%
%ADD11C,0.0800*%
%ADD12R,0.0800X0.0800*%
%ADD13R,0.0740X0.0740*%
%ADD14C,0.0740*%
%ADD15C,0.0100*%
%ADD16C,0.0400*%
%ADD17C,0.0140*%
%ADD18C,0.0200*%
%ADD19C,0.0320*%
D10*
X013752Y001500D03*
X014752Y001500D03*
X015752Y001500D03*
X016752Y001500D03*
X017752Y001500D03*
X018752Y001500D03*
X019752Y001500D03*
X020752Y001500D03*
X022752Y001500D03*
X023752Y001500D03*
X024752Y001500D03*
X025752Y001500D03*
X026752Y001500D03*
X027752Y001500D03*
X027752Y020500D03*
X026752Y020500D03*
X025752Y020500D03*
X024752Y020500D03*
X023752Y020500D03*
X022752Y020500D03*
X021752Y020500D03*
X020752Y020500D03*
X019252Y020500D03*
X018252Y020500D03*
X017252Y020500D03*
X016252Y020500D03*
X015252Y020500D03*
X014252Y020500D03*
X013252Y020500D03*
X012252Y020500D03*
X011252Y020500D03*
X010252Y020500D03*
D11*
X007941Y002000D03*
D12*
X006563Y002000D03*
D13*
X012052Y002500D03*
X020752Y002500D03*
X027752Y002500D03*
X029402Y003000D03*
X020752Y019500D03*
X010252Y019500D03*
D14*
X011252Y019500D03*
X012252Y019500D03*
X013252Y019500D03*
X014252Y019500D03*
X015252Y019500D03*
X016252Y019500D03*
X017252Y019500D03*
X018252Y019500D03*
X019252Y019500D03*
X021752Y019500D03*
X022752Y019500D03*
X023752Y019500D03*
X024752Y019500D03*
X025752Y019500D03*
X026752Y019500D03*
X027752Y019500D03*
X026752Y002500D03*
X025752Y002500D03*
X024752Y002500D03*
X023752Y002500D03*
X022752Y002500D03*
X019752Y002500D03*
X018752Y002500D03*
X017752Y002500D03*
X016752Y002500D03*
X015752Y002500D03*
X014752Y002500D03*
X013752Y002500D03*
X011052Y002500D03*
X010052Y002500D03*
D15*
X002907Y000655D02*
X002907Y021345D01*
X003624Y021345D01*
X003321Y021247D01*
X003055Y021007D01*
X003055Y021007D01*
X002909Y020679D01*
X002909Y020321D01*
X003055Y019993D01*
X003321Y019753D01*
X003321Y019753D01*
X003662Y019643D01*
X003662Y019643D01*
X004019Y019680D01*
X004329Y019859D01*
X004329Y019859D01*
X004540Y020149D01*
X004540Y020149D01*
X004614Y020500D01*
X004540Y020851D01*
X004329Y021141D01*
X004019Y021320D01*
X003780Y021345D01*
X029124Y021345D01*
X028821Y021247D01*
X028555Y021007D01*
X028555Y021007D01*
X028409Y020679D01*
X028409Y020321D01*
X028555Y019993D01*
X028821Y019753D01*
X028821Y019753D01*
X029162Y019643D01*
X029162Y019643D01*
X029519Y019680D01*
X029829Y019859D01*
X029829Y019859D01*
X030040Y020149D01*
X030040Y020149D01*
X030097Y020420D01*
X030097Y018900D01*
X030082Y018937D01*
X029989Y019030D01*
X029868Y019080D01*
X029737Y019080D01*
X029615Y019030D01*
X029566Y018980D01*
X026439Y018980D01*
X026389Y019030D01*
X026268Y019080D01*
X026137Y019080D01*
X026015Y019030D01*
X025966Y018980D01*
X022939Y018980D01*
X022899Y019020D01*
X023036Y019076D01*
X023176Y019217D01*
X023252Y019401D01*
X023252Y019599D01*
X023176Y019783D01*
X023036Y019924D01*
X022852Y020000D01*
X022653Y020000D01*
X022469Y019924D01*
X022328Y019783D01*
X022252Y019599D01*
X022176Y019783D01*
X022036Y019924D01*
X021852Y020000D01*
X021653Y020000D01*
X021469Y019924D01*
X021328Y019783D01*
X021252Y019599D01*
X021252Y019401D01*
X021328Y019217D01*
X021469Y019076D01*
X021653Y019000D01*
X021852Y019000D01*
X022036Y019076D01*
X022176Y019217D01*
X022252Y019401D01*
X022252Y019599D01*
X022252Y019401D01*
X022328Y019217D01*
X022469Y019076D01*
X022548Y019043D01*
X022515Y019030D01*
X022466Y018980D01*
X019439Y018980D01*
X019399Y019020D01*
X019536Y019076D01*
X019676Y019217D01*
X019752Y019401D01*
X019752Y019599D01*
X019676Y019783D01*
X019536Y019924D01*
X019352Y020000D01*
X019153Y020000D01*
X018969Y019924D01*
X018828Y019783D01*
X018752Y019599D01*
X018676Y019783D01*
X018536Y019924D01*
X018352Y020000D01*
X018153Y020000D01*
X017969Y019924D01*
X017828Y019783D01*
X017752Y019599D01*
X017676Y019783D01*
X017536Y019924D01*
X017352Y020000D01*
X017153Y020000D01*
X016969Y019924D01*
X016828Y019783D01*
X016752Y019599D01*
X016676Y019783D01*
X016536Y019924D01*
X016352Y020000D01*
X016153Y020000D01*
X015969Y019924D01*
X015828Y019783D01*
X015752Y019599D01*
X015676Y019783D01*
X015536Y019924D01*
X015352Y020000D01*
X015153Y020000D01*
X014969Y019924D01*
X014828Y019783D01*
X014752Y019599D01*
X014676Y019783D01*
X014536Y019924D01*
X014352Y020000D01*
X014153Y020000D01*
X013969Y019924D01*
X013828Y019783D01*
X013760Y019618D01*
X013760Y019622D01*
X013734Y019700D01*
X013697Y019773D01*
X013649Y019839D01*
X013591Y019897D01*
X013525Y019945D01*
X013452Y019982D01*
X013374Y020007D01*
X013302Y020019D01*
X013302Y019550D01*
X013202Y019550D01*
X013202Y020019D01*
X013131Y020007D01*
X013053Y019982D01*
X012980Y019945D01*
X012914Y019897D01*
X012856Y019839D01*
X012808Y019773D01*
X012770Y019700D01*
X012745Y019622D01*
X012745Y019618D01*
X012676Y019783D01*
X012536Y019924D01*
X012352Y020000D01*
X012153Y020000D01*
X011969Y019924D01*
X011828Y019783D01*
X011752Y019599D01*
X011676Y019783D01*
X011536Y019924D01*
X011352Y020000D01*
X011153Y020000D01*
X010969Y019924D01*
X010828Y019783D01*
X010752Y019599D01*
X010752Y019401D01*
X010828Y019217D01*
X010969Y019076D01*
X011153Y019000D01*
X011352Y019000D01*
X011536Y019076D01*
X011676Y019217D01*
X011752Y019401D01*
X011752Y019599D01*
X011752Y019401D01*
X011828Y019217D01*
X011969Y019076D01*
X012048Y019043D01*
X012015Y019030D01*
X011966Y018980D01*
X008939Y018980D01*
X008889Y019030D01*
X008768Y019080D01*
X008637Y019080D01*
X008515Y019030D01*
X008466Y018980D01*
X005439Y018980D01*
X005389Y019030D01*
X005268Y019080D01*
X005137Y019080D01*
X005015Y019030D01*
X004923Y018937D01*
X004872Y018816D01*
X004872Y018684D01*
X004923Y018563D01*
X005015Y018470D01*
X005137Y018420D01*
X005268Y018420D01*
X005389Y018470D01*
X005439Y018520D01*
X008466Y018520D01*
X008515Y018470D01*
X008637Y018420D01*
X008768Y018420D01*
X008889Y018470D01*
X008939Y018520D01*
X011966Y018520D01*
X012015Y018470D01*
X012137Y018420D01*
X012268Y018420D01*
X012389Y018470D01*
X012439Y018520D01*
X015516Y018520D01*
X015565Y018470D01*
X015687Y018420D01*
X015818Y018420D01*
X015939Y018470D01*
X015989Y018520D01*
X018966Y018520D01*
X019015Y018470D01*
X019137Y018420D01*
X019268Y018420D01*
X019389Y018470D01*
X019439Y018520D01*
X019866Y018520D01*
X019822Y018416D01*
X019822Y018284D01*
X019873Y018163D01*
X019952Y018083D01*
X019952Y017833D01*
X019820Y017700D01*
X006169Y017700D01*
X006089Y017780D01*
X005968Y017830D01*
X005837Y017830D01*
X005715Y017780D01*
X005623Y017687D01*
X005572Y017566D01*
X005572Y017434D01*
X005623Y017313D01*
X005715Y017220D01*
X005837Y017170D01*
X005968Y017170D01*
X006089Y017220D01*
X006169Y017300D01*
X019985Y017300D01*
X020235Y017550D01*
X020352Y017667D01*
X020352Y018083D01*
X020432Y018163D01*
X020482Y018284D01*
X020482Y018416D01*
X020439Y018520D01*
X022466Y018520D01*
X022515Y018470D01*
X022637Y018420D01*
X022768Y018420D01*
X022889Y018470D01*
X022939Y018520D01*
X025966Y018520D01*
X026015Y018470D01*
X026137Y018420D01*
X026268Y018420D01*
X026389Y018470D01*
X026439Y018520D01*
X029566Y018520D01*
X029572Y018513D01*
X029572Y015837D01*
X029523Y015787D01*
X029472Y015666D01*
X029472Y015534D01*
X029523Y015413D01*
X029572Y015363D01*
X029572Y012537D01*
X029566Y012530D01*
X026489Y012530D01*
X026439Y012580D01*
X026318Y012630D01*
X026187Y012630D01*
X026065Y012580D01*
X026016Y012530D01*
X023039Y012530D01*
X022989Y012580D01*
X022868Y012630D01*
X022737Y012630D01*
X022615Y012580D01*
X022566Y012530D01*
X019489Y012530D01*
X019439Y012580D01*
X019318Y012630D01*
X019187Y012630D01*
X019065Y012580D01*
X019016Y012530D01*
X015939Y012530D01*
X015889Y012580D01*
X015768Y012630D01*
X015637Y012630D01*
X015515Y012580D01*
X015466Y012530D01*
X012439Y012530D01*
X012389Y012580D01*
X012268Y012630D01*
X012137Y012630D01*
X012015Y012580D01*
X011966Y012530D01*
X008939Y012530D01*
X008889Y012580D01*
X008768Y012630D01*
X008637Y012630D01*
X008515Y012580D01*
X008466Y012530D01*
X006489Y012530D01*
X006439Y012580D01*
X006318Y012630D01*
X006187Y012630D01*
X006065Y012580D01*
X006002Y012517D01*
X006003Y012517D01*
X006002Y012517D02*
X006002Y012833D01*
X006082Y012913D01*
X006132Y013034D01*
X006132Y013166D01*
X006082Y013287D01*
X005989Y013380D01*
X005868Y013430D01*
X005737Y013430D01*
X005615Y013380D01*
X005523Y013287D01*
X005472Y013166D01*
X005472Y013034D01*
X005523Y012913D01*
X005602Y012833D01*
X005602Y011067D01*
X005622Y011047D01*
X005622Y010934D01*
X005673Y010813D01*
X005765Y010720D01*
X005887Y010670D01*
X006018Y010670D01*
X006139Y010720D01*
X006232Y010813D01*
X006282Y010934D01*
X006282Y011066D01*
X006232Y011187D01*
X006139Y011280D01*
X006018Y011330D01*
X006002Y011330D01*
X006002Y012083D01*
X006065Y012020D01*
X006187Y011970D01*
X006318Y011970D01*
X006439Y012020D01*
X006489Y012070D01*
X008466Y012070D01*
X008515Y012020D01*
X008637Y011970D01*
X008768Y011970D01*
X008889Y012020D01*
X008939Y012070D01*
X011966Y012070D01*
X012015Y012020D01*
X012137Y011970D01*
X012268Y011970D01*
X012389Y012020D01*
X012439Y012070D01*
X015466Y012070D01*
X015515Y012020D01*
X015637Y011970D01*
X015768Y011970D01*
X015889Y012020D01*
X015939Y012070D01*
X019016Y012070D01*
X019065Y012020D01*
X019187Y011970D01*
X019318Y011970D01*
X019439Y012020D01*
X019489Y012070D01*
X022566Y012070D01*
X022615Y012020D01*
X022737Y011970D01*
X022868Y011970D01*
X022989Y012020D01*
X023039Y012070D01*
X026016Y012070D01*
X026065Y012020D01*
X026187Y011970D01*
X026318Y011970D01*
X026439Y012020D01*
X026489Y012070D01*
X029566Y012070D01*
X029572Y012063D01*
X029572Y009287D01*
X029523Y009237D01*
X029472Y009116D01*
X029472Y008984D01*
X029523Y008863D01*
X029615Y008770D01*
X029622Y008767D01*
X029622Y006124D01*
X029515Y006080D01*
X029466Y006030D01*
X026489Y006030D01*
X026439Y006080D01*
X026318Y006130D01*
X026187Y006130D01*
X026065Y006080D01*
X026016Y006030D01*
X022989Y006030D01*
X022939Y006080D01*
X022818Y006130D01*
X022687Y006130D01*
X022565Y006080D01*
X022516Y006030D01*
X019589Y006030D01*
X019539Y006080D01*
X019418Y006130D01*
X019287Y006130D01*
X019165Y006080D01*
X019116Y006030D01*
X016039Y006030D01*
X015989Y006080D01*
X015868Y006130D01*
X015737Y006130D01*
X015615Y006080D01*
X015566Y006030D01*
X012689Y006030D01*
X012639Y006080D01*
X012518Y006130D01*
X012387Y006130D01*
X012265Y006080D01*
X012216Y006030D01*
X009089Y006030D01*
X009039Y006080D01*
X008918Y006130D01*
X008787Y006130D01*
X008665Y006080D01*
X008616Y006030D01*
X005489Y006030D01*
X005439Y006080D01*
X005318Y006130D01*
X005187Y006130D01*
X005065Y006080D01*
X004973Y005987D01*
X004922Y005866D01*
X004922Y005734D01*
X004973Y005613D01*
X005065Y005520D01*
X005187Y005470D01*
X005318Y005470D01*
X005439Y005520D01*
X005489Y005570D01*
X008616Y005570D01*
X008665Y005520D01*
X008787Y005470D01*
X008918Y005470D01*
X009039Y005520D01*
X009089Y005570D01*
X012216Y005570D01*
X012265Y005520D01*
X012387Y005470D01*
X012518Y005470D01*
X012639Y005520D01*
X012689Y005570D01*
X015566Y005570D01*
X015615Y005520D01*
X015737Y005470D01*
X015868Y005470D01*
X015989Y005520D01*
X016039Y005570D01*
X019116Y005570D01*
X019165Y005520D01*
X019287Y005470D01*
X019418Y005470D01*
X019539Y005520D01*
X019589Y005570D01*
X022516Y005570D01*
X022565Y005520D01*
X022687Y005470D01*
X022818Y005470D01*
X022939Y005520D01*
X022989Y005570D01*
X026016Y005570D01*
X026065Y005520D01*
X026187Y005470D01*
X026318Y005470D01*
X026439Y005520D01*
X026489Y005570D01*
X029466Y005570D01*
X029515Y005520D01*
X029637Y005470D01*
X029768Y005470D01*
X029889Y005520D01*
X029982Y005613D01*
X030032Y005734D01*
X030032Y005855D01*
X030082Y005905D01*
X030082Y008864D01*
X030097Y008900D01*
X030097Y001580D01*
X030040Y001851D01*
X029829Y002141D01*
X029519Y002320D01*
X029162Y002357D01*
X028821Y002247D01*
X028555Y002007D01*
X028555Y002007D01*
X028409Y001679D01*
X028409Y001321D01*
X028555Y000993D01*
X028821Y000753D01*
X028821Y000753D01*
X029124Y000655D01*
X003780Y000655D01*
X004019Y000680D01*
X004329Y000859D01*
X004329Y000859D01*
X004540Y001149D01*
X004540Y001149D01*
X004614Y001500D01*
X004540Y001851D01*
X004329Y002141D01*
X004019Y002320D01*
X003662Y002357D01*
X003321Y002247D01*
X003055Y002007D01*
X003055Y002007D01*
X002909Y001679D01*
X002909Y001321D01*
X003055Y000993D01*
X003321Y000753D01*
X003321Y000753D01*
X003624Y000655D01*
X002907Y000655D01*
X002907Y000697D02*
X003495Y000697D01*
X003275Y000796D02*
X002907Y000796D01*
X002907Y000894D02*
X003165Y000894D01*
X003056Y000993D02*
X002907Y000993D01*
X002907Y001091D02*
X003011Y001091D01*
X003055Y000993D02*
X003055Y000993D01*
X003055Y000993D01*
X002968Y001190D02*
X002907Y001190D01*
X002907Y001288D02*
X002924Y001288D01*
X002907Y001387D02*
X002909Y001387D01*
X002907Y001485D02*
X002909Y001485D01*
X002907Y001584D02*
X002909Y001584D01*
X002907Y001682D02*
X002910Y001682D01*
X002907Y001781D02*
X002954Y001781D01*
X002998Y001879D02*
X002907Y001879D01*
X002907Y001978D02*
X003042Y001978D01*
X003132Y002076D02*
X002907Y002076D01*
X002907Y002175D02*
X003241Y002175D01*
X003321Y002247D02*
X003321Y002247D01*
X003403Y002273D02*
X002907Y002273D01*
X002907Y002372D02*
X005048Y002372D01*
X004950Y002470D02*
X002907Y002470D01*
X002907Y002569D02*
X003499Y002569D01*
X003516Y002554D02*
X003570Y002500D01*
X003577Y002500D01*
X003583Y002495D01*
X003659Y002500D01*
X004920Y002500D01*
X005502Y001917D01*
X005502Y001017D01*
X005820Y000700D01*
X015236Y000700D01*
X015249Y000690D01*
X015317Y000700D01*
X015385Y000700D01*
X015397Y000711D01*
X015413Y000714D01*
X015454Y000769D01*
X015502Y000817D01*
X015502Y000833D01*
X015657Y001040D01*
X015943Y001040D01*
X016212Y001309D01*
X016212Y001691D01*
X015943Y001960D01*
X015562Y001960D01*
X015292Y001691D01*
X015292Y001309D01*
X015331Y001271D01*
X015202Y001100D01*
X015003Y001100D01*
X015212Y001309D01*
X015212Y001691D01*
X014943Y001960D01*
X014562Y001960D01*
X014292Y001691D01*
X014292Y001309D01*
X014502Y001100D01*
X014003Y001100D01*
X014212Y001309D01*
X014212Y001691D01*
X013943Y001960D01*
X013562Y001960D01*
X013292Y001691D01*
X013292Y001309D01*
X013502Y001100D01*
X009912Y001100D01*
X010217Y001404D01*
X010298Y001486D01*
X010342Y001592D01*
X010342Y002083D01*
X010476Y002217D01*
X010552Y002401D01*
X010552Y002599D01*
X010476Y002783D01*
X010336Y002924D01*
X010152Y003000D01*
X009953Y003000D01*
X009769Y002924D01*
X009628Y002783D01*
X009552Y002599D01*
X009552Y002401D01*
X009628Y002217D01*
X009762Y002083D01*
X009762Y001770D01*
X009582Y001590D01*
X008309Y001590D01*
X008361Y001642D01*
X008412Y001712D01*
X008451Y001789D01*
X008478Y001871D01*
X008490Y001950D01*
X007991Y001950D01*
X007991Y002050D01*
X007891Y002050D01*
X007891Y001950D01*
X007392Y001950D01*
X007405Y001871D01*
X007432Y001789D01*
X007471Y001712D01*
X007522Y001642D01*
X007574Y001590D01*
X007093Y001590D01*
X007093Y002454D01*
X007017Y002530D01*
X006110Y002530D01*
X006033Y002454D01*
X006033Y001546D01*
X006110Y001470D01*
X006273Y001470D01*
X006273Y001431D01*
X006318Y001325D01*
X006507Y001136D01*
X006542Y001100D01*
X005985Y001100D01*
X005902Y001183D01*
X005902Y002083D01*
X005785Y002200D01*
X005085Y002900D01*
X003728Y002900D01*
X003452Y003141D01*
X003452Y018583D01*
X003532Y018663D01*
X003582Y018784D01*
X003582Y018916D01*
X003532Y019037D01*
X003439Y019130D01*
X003318Y019180D01*
X003187Y019180D01*
X003065Y019130D01*
X002973Y019037D01*
X002922Y018916D01*
X002922Y018784D01*
X002973Y018663D01*
X003052Y018583D01*
X003052Y003125D01*
X003047Y003119D01*
X003052Y003043D01*
X003052Y002967D01*
X003058Y002962D01*
X003058Y002954D01*
X003116Y002904D01*
X003170Y002850D01*
X003177Y002850D01*
X003516Y002554D01*
X003386Y002667D02*
X002907Y002667D01*
X002907Y002766D02*
X003274Y002766D01*
X003156Y002864D02*
X002907Y002864D01*
X002907Y002963D02*
X003057Y002963D01*
X003051Y003061D02*
X002907Y003061D01*
X002907Y003160D02*
X003052Y003160D01*
X003052Y003258D02*
X002907Y003258D01*
X002907Y003357D02*
X003052Y003357D01*
X003052Y003455D02*
X002907Y003455D01*
X002907Y003554D02*
X003052Y003554D01*
X003052Y003652D02*
X002907Y003652D01*
X002907Y003751D02*
X003052Y003751D01*
X003052Y003849D02*
X002907Y003849D01*
X002907Y003948D02*
X003052Y003948D01*
X003052Y004046D02*
X002907Y004046D01*
X002907Y004145D02*
X003052Y004145D01*
X003052Y004243D02*
X002907Y004243D01*
X002907Y004342D02*
X003052Y004342D01*
X003052Y004440D02*
X002907Y004440D01*
X002907Y004539D02*
X003052Y004539D01*
X003052Y004637D02*
X002907Y004637D01*
X002907Y004736D02*
X003052Y004736D01*
X003052Y004834D02*
X002907Y004834D01*
X002907Y004933D02*
X003052Y004933D01*
X003052Y005031D02*
X002907Y005031D01*
X002907Y005130D02*
X003052Y005130D01*
X003052Y005228D02*
X002907Y005228D01*
X002907Y005327D02*
X003052Y005327D01*
X003052Y005425D02*
X002907Y005425D01*
X002907Y005524D02*
X003052Y005524D01*
X003052Y005622D02*
X002907Y005622D01*
X002907Y005721D02*
X003052Y005721D01*
X003052Y005819D02*
X002907Y005819D01*
X002907Y005918D02*
X003052Y005918D01*
X003052Y006016D02*
X002907Y006016D01*
X002907Y006115D02*
X003052Y006115D01*
X003052Y006213D02*
X002907Y006213D01*
X002907Y006312D02*
X003052Y006312D01*
X003052Y006410D02*
X002907Y006410D01*
X002907Y006509D02*
X003052Y006509D01*
X003052Y006607D02*
X002907Y006607D01*
X002907Y006706D02*
X003052Y006706D01*
X003052Y006804D02*
X002907Y006804D01*
X002907Y006903D02*
X003052Y006903D01*
X003052Y007001D02*
X002907Y007001D01*
X002907Y007100D02*
X003052Y007100D01*
X003052Y007198D02*
X002907Y007198D01*
X002907Y007297D02*
X003052Y007297D01*
X003052Y007395D02*
X002907Y007395D01*
X002907Y007494D02*
X003052Y007494D01*
X003052Y007592D02*
X002907Y007592D01*
X002907Y007691D02*
X003052Y007691D01*
X003052Y007789D02*
X002907Y007789D01*
X002907Y007888D02*
X003052Y007888D01*
X003052Y007986D02*
X002907Y007986D01*
X002907Y008085D02*
X003052Y008085D01*
X003052Y008183D02*
X002907Y008183D01*
X002907Y008282D02*
X003052Y008282D01*
X003052Y008380D02*
X002907Y008380D01*
X002907Y008479D02*
X003052Y008479D01*
X003052Y008577D02*
X002907Y008577D01*
X002907Y008676D02*
X003052Y008676D01*
X003052Y008774D02*
X002907Y008774D01*
X002907Y008873D02*
X003052Y008873D01*
X003052Y008971D02*
X002907Y008971D01*
X002907Y009070D02*
X003052Y009070D01*
X003052Y009168D02*
X002907Y009168D01*
X002907Y009267D02*
X003052Y009267D01*
X003052Y009365D02*
X002907Y009365D01*
X002907Y009464D02*
X003052Y009464D01*
X003052Y009562D02*
X002907Y009562D01*
X002907Y009661D02*
X003052Y009661D01*
X003052Y009759D02*
X002907Y009759D01*
X002907Y009858D02*
X003052Y009858D01*
X003052Y009956D02*
X002907Y009956D01*
X002907Y010055D02*
X003052Y010055D01*
X003052Y010153D02*
X002907Y010153D01*
X002907Y010252D02*
X003052Y010252D01*
X003052Y010350D02*
X002907Y010350D01*
X002907Y010449D02*
X003052Y010449D01*
X003052Y010547D02*
X002907Y010547D01*
X002907Y010646D02*
X003052Y010646D01*
X003052Y010744D02*
X002907Y010744D01*
X002907Y010843D02*
X003052Y010843D01*
X003052Y010941D02*
X002907Y010941D01*
X002907Y011040D02*
X003052Y011040D01*
X003052Y011138D02*
X002907Y011138D01*
X002907Y011237D02*
X003052Y011237D01*
X003052Y011335D02*
X002907Y011335D01*
X002907Y011434D02*
X003052Y011434D01*
X003052Y011532D02*
X002907Y011532D01*
X002907Y011631D02*
X003052Y011631D01*
X003052Y011729D02*
X002907Y011729D01*
X002907Y011828D02*
X003052Y011828D01*
X003052Y011926D02*
X002907Y011926D01*
X002907Y012025D02*
X003052Y012025D01*
X003052Y012123D02*
X002907Y012123D01*
X002907Y012222D02*
X003052Y012222D01*
X003052Y012320D02*
X002907Y012320D01*
X002907Y012419D02*
X003052Y012419D01*
X003052Y012517D02*
X002907Y012517D01*
X002907Y012616D02*
X003052Y012616D01*
X003052Y012714D02*
X002907Y012714D01*
X002907Y012813D02*
X003052Y012813D01*
X003052Y012911D02*
X002907Y012911D01*
X002907Y013010D02*
X003052Y013010D01*
X003052Y013108D02*
X002907Y013108D01*
X002907Y013207D02*
X003052Y013207D01*
X003052Y013305D02*
X002907Y013305D01*
X002907Y013404D02*
X003052Y013404D01*
X003052Y013502D02*
X002907Y013502D01*
X002907Y013601D02*
X003052Y013601D01*
X003052Y013699D02*
X002907Y013699D01*
X002907Y013798D02*
X003052Y013798D01*
X003052Y013896D02*
X002907Y013896D01*
X002907Y013995D02*
X003052Y013995D01*
X003052Y014093D02*
X002907Y014093D01*
X002907Y014192D02*
X003052Y014192D01*
X003052Y014290D02*
X002907Y014290D01*
X002907Y014389D02*
X003052Y014389D01*
X003052Y014487D02*
X002907Y014487D01*
X002907Y014586D02*
X003052Y014586D01*
X003052Y014684D02*
X002907Y014684D01*
X002907Y014783D02*
X003052Y014783D01*
X003052Y014881D02*
X002907Y014881D01*
X002907Y014980D02*
X003052Y014980D01*
X003052Y015078D02*
X002907Y015078D01*
X002907Y015177D02*
X003052Y015177D01*
X003052Y015275D02*
X002907Y015275D01*
X002907Y015374D02*
X003052Y015374D01*
X003052Y015472D02*
X002907Y015472D01*
X002907Y015571D02*
X003052Y015571D01*
X003052Y015669D02*
X002907Y015669D01*
X002907Y015768D02*
X003052Y015768D01*
X003052Y015866D02*
X002907Y015866D01*
X002907Y015965D02*
X003052Y015965D01*
X003052Y016063D02*
X002907Y016063D01*
X002907Y016162D02*
X003052Y016162D01*
X003052Y016260D02*
X002907Y016260D01*
X002907Y016359D02*
X003052Y016359D01*
X003052Y016457D02*
X002907Y016457D01*
X002907Y016556D02*
X003052Y016556D01*
X003052Y016654D02*
X002907Y016654D01*
X002907Y016753D02*
X003052Y016753D01*
X003052Y016851D02*
X002907Y016851D01*
X002907Y016950D02*
X003052Y016950D01*
X003052Y017048D02*
X002907Y017048D01*
X002907Y017147D02*
X003052Y017147D01*
X003052Y017245D02*
X002907Y017245D01*
X002907Y017344D02*
X003052Y017344D01*
X003052Y017442D02*
X002907Y017442D01*
X002907Y017541D02*
X003052Y017541D01*
X003052Y017639D02*
X002907Y017639D01*
X002907Y017738D02*
X003052Y017738D01*
X003052Y017836D02*
X002907Y017836D01*
X002907Y017935D02*
X003052Y017935D01*
X003052Y018033D02*
X002907Y018033D01*
X002907Y018132D02*
X003052Y018132D01*
X003052Y018230D02*
X002907Y018230D01*
X002907Y018329D02*
X003052Y018329D01*
X003052Y018427D02*
X002907Y018427D01*
X002907Y018526D02*
X003052Y018526D01*
X003012Y018624D02*
X002907Y018624D01*
X002907Y018723D02*
X002948Y018723D01*
X002922Y018821D02*
X002907Y018821D01*
X002907Y018920D02*
X002924Y018920D01*
X002907Y019018D02*
X002965Y019018D01*
X002907Y019117D02*
X003052Y019117D01*
X002907Y019215D02*
X009752Y019215D01*
X009752Y019117D02*
X003453Y019117D01*
X003540Y019018D02*
X005004Y019018D01*
X004915Y018920D02*
X003581Y018920D01*
X003582Y018821D02*
X004875Y018821D01*
X004872Y018723D02*
X003557Y018723D01*
X003493Y018624D02*
X004897Y018624D01*
X004960Y018526D02*
X003452Y018526D01*
X003452Y018427D02*
X005120Y018427D01*
X005285Y018427D02*
X008620Y018427D01*
X008785Y018427D02*
X012120Y018427D01*
X012285Y018427D02*
X015670Y018427D01*
X015835Y018427D02*
X019120Y018427D01*
X019285Y018427D02*
X019827Y018427D01*
X019822Y018329D02*
X003452Y018329D01*
X003452Y018230D02*
X019845Y018230D01*
X019904Y018132D02*
X003452Y018132D01*
X003452Y018033D02*
X019952Y018033D01*
X019952Y017935D02*
X003452Y017935D01*
X003452Y017836D02*
X019952Y017836D01*
X019857Y017738D02*
X006132Y017738D01*
X005673Y017738D02*
X003452Y017738D01*
X003452Y017639D02*
X005603Y017639D01*
X005572Y017541D02*
X003452Y017541D01*
X003452Y017442D02*
X005572Y017442D01*
X005610Y017344D02*
X003452Y017344D01*
X003452Y017245D02*
X005691Y017245D01*
X006114Y017245D02*
X029572Y017245D01*
X029572Y017147D02*
X003452Y017147D01*
X003452Y017048D02*
X029572Y017048D01*
X029572Y016950D02*
X003452Y016950D01*
X003452Y016851D02*
X028767Y016851D01*
X028715Y016830D02*
X028623Y016737D01*
X028572Y016616D01*
X028572Y016503D01*
X028352Y016283D01*
X028352Y014617D01*
X028470Y014500D01*
X028672Y014297D01*
X028672Y014184D01*
X028723Y014063D01*
X028815Y013970D01*
X028937Y013920D01*
X029068Y013920D01*
X029189Y013970D01*
X029282Y014063D01*
X029332Y014184D01*
X029332Y014316D01*
X029282Y014437D01*
X029189Y014530D01*
X029068Y014580D01*
X028955Y014580D01*
X028752Y014783D01*
X028752Y016117D01*
X028855Y016220D01*
X028968Y016220D01*
X029089Y016270D01*
X029182Y016363D01*
X029232Y016484D01*
X029232Y016616D01*
X029182Y016737D01*
X029089Y016830D01*
X028968Y016880D01*
X028837Y016880D01*
X028715Y016830D01*
X028638Y016753D02*
X003452Y016753D01*
X003452Y016654D02*
X028588Y016654D01*
X028572Y016556D02*
X003452Y016556D01*
X003452Y016457D02*
X028527Y016457D01*
X028428Y016359D02*
X003452Y016359D01*
X003452Y016260D02*
X028352Y016260D01*
X028352Y016162D02*
X003452Y016162D01*
X003452Y016063D02*
X028352Y016063D01*
X028352Y015965D02*
X003452Y015965D01*
X003452Y015866D02*
X005152Y015866D01*
X005165Y015880D02*
X005073Y015787D01*
X005022Y015666D01*
X005022Y015534D01*
X005073Y015413D01*
X005165Y015320D01*
X005287Y015270D01*
X005418Y015270D01*
X005539Y015320D01*
X005589Y015370D01*
X008466Y015370D01*
X008515Y015320D01*
X008637Y015270D01*
X008768Y015270D01*
X008889Y015320D01*
X008939Y015370D01*
X012016Y015370D01*
X012065Y015320D01*
X012187Y015270D01*
X012318Y015270D01*
X012439Y015320D01*
X012489Y015370D01*
X015466Y015370D01*
X015515Y015320D01*
X015637Y015270D01*
X015768Y015270D01*
X015889Y015320D01*
X015939Y015370D01*
X019016Y015370D01*
X019065Y015320D01*
X019187Y015270D01*
X019318Y015270D01*
X019439Y015320D01*
X019489Y015370D01*
X022516Y015370D01*
X022565Y015320D01*
X022687Y015270D01*
X022818Y015270D01*
X022939Y015320D01*
X022989Y015370D01*
X026016Y015370D01*
X026065Y015320D01*
X026187Y015270D01*
X026318Y015270D01*
X026439Y015320D01*
X026532Y015413D01*
X026582Y015534D01*
X026582Y015666D01*
X026532Y015787D01*
X026439Y015880D01*
X026318Y015930D01*
X026187Y015930D01*
X026065Y015880D01*
X026016Y015830D01*
X022989Y015830D01*
X022939Y015880D01*
X022818Y015930D01*
X022687Y015930D01*
X022565Y015880D01*
X022516Y015830D01*
X019489Y015830D01*
X019439Y015880D01*
X019318Y015930D01*
X019187Y015930D01*
X019065Y015880D01*
X019016Y015830D01*
X015939Y015830D01*
X015889Y015880D01*
X015768Y015930D01*
X015637Y015930D01*
X015515Y015880D01*
X015466Y015830D01*
X012489Y015830D01*
X012439Y015880D01*
X012318Y015930D01*
X012187Y015930D01*
X012065Y015880D01*
X012016Y015830D01*
X008939Y015830D01*
X008889Y015880D01*
X008768Y015930D01*
X008637Y015930D01*
X008515Y015880D01*
X008466Y015830D01*
X005589Y015830D01*
X005539Y015880D01*
X005418Y015930D01*
X005287Y015930D01*
X005165Y015880D01*
X005065Y015768D02*
X003452Y015768D01*
X003452Y015669D02*
X005024Y015669D01*
X005022Y015571D02*
X003452Y015571D01*
X003452Y015472D02*
X005048Y015472D01*
X005112Y015374D02*
X003452Y015374D01*
X003452Y015275D02*
X005275Y015275D01*
X005430Y015275D02*
X008625Y015275D01*
X008780Y015275D02*
X012175Y015275D01*
X012330Y015275D02*
X015625Y015275D01*
X015780Y015275D02*
X019175Y015275D01*
X019330Y015275D02*
X022675Y015275D01*
X022830Y015275D02*
X026175Y015275D01*
X026330Y015275D02*
X028352Y015275D01*
X028352Y015177D02*
X003452Y015177D01*
X003452Y015078D02*
X028352Y015078D01*
X028352Y014980D02*
X003452Y014980D01*
X003452Y014881D02*
X028352Y014881D01*
X028352Y014783D02*
X003452Y014783D01*
X003452Y014684D02*
X028352Y014684D01*
X028384Y014586D02*
X003452Y014586D01*
X003452Y014487D02*
X028482Y014487D01*
X028581Y014389D02*
X003452Y014389D01*
X003452Y014290D02*
X028672Y014290D01*
X028672Y014192D02*
X003452Y014192D01*
X003452Y014093D02*
X028710Y014093D01*
X028791Y013995D02*
X003452Y013995D01*
X003452Y013896D02*
X029572Y013896D01*
X029572Y013798D02*
X003452Y013798D01*
X003452Y013699D02*
X029572Y013699D01*
X029572Y013601D02*
X003452Y013601D01*
X003452Y013502D02*
X029572Y013502D01*
X029572Y013404D02*
X005932Y013404D01*
X006064Y013305D02*
X029572Y013305D01*
X029572Y013207D02*
X006115Y013207D01*
X006132Y013108D02*
X029572Y013108D01*
X029572Y013010D02*
X006122Y013010D01*
X006080Y012911D02*
X029572Y012911D01*
X029572Y012813D02*
X006002Y012813D01*
X006002Y012714D02*
X029572Y012714D01*
X029572Y012616D02*
X026353Y012616D01*
X026152Y012616D02*
X022903Y012616D01*
X022702Y012616D02*
X019353Y012616D01*
X019152Y012616D02*
X015803Y012616D01*
X015602Y012616D02*
X012303Y012616D01*
X012102Y012616D02*
X008803Y012616D01*
X008602Y012616D02*
X006353Y012616D01*
X006152Y012616D02*
X006002Y012616D01*
X005602Y012616D02*
X003452Y012616D01*
X003452Y012714D02*
X005602Y012714D01*
X005602Y012813D02*
X003452Y012813D01*
X003452Y012911D02*
X005525Y012911D01*
X005483Y013010D02*
X003452Y013010D01*
X003452Y013108D02*
X005472Y013108D01*
X005489Y013207D02*
X003452Y013207D01*
X003452Y013305D02*
X005541Y013305D01*
X005673Y013404D02*
X003452Y013404D01*
X003452Y012517D02*
X005602Y012517D01*
X005602Y012419D02*
X003452Y012419D01*
X003452Y012320D02*
X005602Y012320D01*
X005602Y012222D02*
X003452Y012222D01*
X003452Y012123D02*
X005602Y012123D01*
X005602Y012025D02*
X003452Y012025D01*
X003452Y011926D02*
X005602Y011926D01*
X005602Y011828D02*
X003452Y011828D01*
X003452Y011729D02*
X005602Y011729D01*
X005602Y011631D02*
X003452Y011631D01*
X003452Y011532D02*
X005602Y011532D01*
X005602Y011434D02*
X003452Y011434D01*
X003452Y011335D02*
X005602Y011335D01*
X005602Y011237D02*
X003452Y011237D01*
X003452Y011138D02*
X005602Y011138D01*
X005622Y011040D02*
X003452Y011040D01*
X003452Y010941D02*
X005622Y010941D01*
X005660Y010843D02*
X003452Y010843D01*
X003452Y010744D02*
X005742Y010744D01*
X006163Y010744D02*
X029572Y010744D01*
X029572Y010646D02*
X003452Y010646D01*
X003452Y010547D02*
X029572Y010547D01*
X029572Y010449D02*
X003452Y010449D01*
X003452Y010350D02*
X029572Y010350D01*
X029572Y010252D02*
X028987Y010252D01*
X029039Y010230D02*
X028918Y010280D01*
X028787Y010280D01*
X028665Y010230D01*
X028573Y010137D01*
X028522Y010016D01*
X028522Y009903D01*
X028352Y009733D01*
X028352Y007917D01*
X028470Y007800D01*
X028472Y007797D01*
X028472Y007684D01*
X028523Y007563D01*
X028615Y007470D01*
X028737Y007420D01*
X028868Y007420D01*
X028989Y007470D01*
X029082Y007563D01*
X029132Y007684D01*
X029132Y007816D01*
X029082Y007937D01*
X028989Y008030D01*
X028868Y008080D01*
X028755Y008080D01*
X028752Y008083D01*
X028752Y009567D01*
X028805Y009620D01*
X028918Y009620D01*
X029039Y009670D01*
X029132Y009763D01*
X029182Y009884D01*
X029182Y010016D01*
X029132Y010137D01*
X029039Y010230D01*
X029116Y010153D02*
X029572Y010153D01*
X029572Y010055D02*
X029166Y010055D01*
X029182Y009956D02*
X029572Y009956D01*
X029572Y009858D02*
X029171Y009858D01*
X029128Y009759D02*
X029572Y009759D01*
X029572Y009661D02*
X029016Y009661D01*
X028752Y009562D02*
X029572Y009562D01*
X029572Y009464D02*
X028752Y009464D01*
X028752Y009365D02*
X029572Y009365D01*
X029552Y009267D02*
X028752Y009267D01*
X028752Y009168D02*
X029494Y009168D01*
X029472Y009070D02*
X028752Y009070D01*
X028752Y008971D02*
X029478Y008971D01*
X029519Y008873D02*
X028752Y008873D01*
X028752Y008774D02*
X029612Y008774D01*
X029622Y008676D02*
X028752Y008676D01*
X028752Y008577D02*
X029622Y008577D01*
X029622Y008479D02*
X028752Y008479D01*
X028752Y008380D02*
X029622Y008380D01*
X029622Y008282D02*
X028752Y008282D01*
X028752Y008183D02*
X029622Y008183D01*
X029622Y008085D02*
X028752Y008085D01*
X029033Y007986D02*
X029622Y007986D01*
X029622Y007888D02*
X029103Y007888D01*
X029132Y007789D02*
X029622Y007789D01*
X029622Y007691D02*
X029132Y007691D01*
X029094Y007592D02*
X029622Y007592D01*
X029622Y007494D02*
X029013Y007494D01*
X028592Y007494D02*
X003452Y007494D01*
X003452Y007592D02*
X028511Y007592D01*
X028472Y007691D02*
X003452Y007691D01*
X003452Y007789D02*
X028472Y007789D01*
X028382Y007888D02*
X003452Y007888D01*
X003452Y007986D02*
X028352Y007986D01*
X028352Y008085D02*
X003452Y008085D01*
X003452Y008183D02*
X028352Y008183D01*
X028352Y008282D02*
X003452Y008282D01*
X003452Y008380D02*
X028352Y008380D01*
X028352Y008479D02*
X003452Y008479D01*
X003452Y008577D02*
X028352Y008577D01*
X028352Y008676D02*
X003452Y008676D01*
X003452Y008774D02*
X005112Y008774D01*
X005115Y008770D02*
X005237Y008720D01*
X005368Y008720D01*
X005489Y008770D01*
X005539Y008820D01*
X008516Y008820D01*
X008565Y008770D01*
X008687Y008720D01*
X008818Y008720D01*
X008939Y008770D01*
X008989Y008820D01*
X012016Y008820D01*
X012065Y008770D01*
X012187Y008720D01*
X012318Y008720D01*
X012439Y008770D01*
X012489Y008820D01*
X015466Y008820D01*
X015515Y008770D01*
X015637Y008720D01*
X015768Y008720D01*
X015889Y008770D01*
X015939Y008820D01*
X018966Y008820D01*
X019015Y008770D01*
X019137Y008720D01*
X019268Y008720D01*
X019389Y008770D01*
X019439Y008820D01*
X022466Y008820D01*
X022515Y008770D01*
X022637Y008720D01*
X022768Y008720D01*
X022889Y008770D01*
X022939Y008820D01*
X026016Y008820D01*
X026065Y008770D01*
X026187Y008720D01*
X026318Y008720D01*
X026439Y008770D01*
X026532Y008863D01*
X026582Y008984D01*
X026582Y009116D01*
X026532Y009237D01*
X026439Y009330D01*
X026318Y009380D01*
X026187Y009380D01*
X026065Y009330D01*
X026016Y009280D01*
X022939Y009280D01*
X022889Y009330D01*
X022768Y009380D01*
X022637Y009380D01*
X022515Y009330D01*
X022466Y009280D01*
X019439Y009280D01*
X019389Y009330D01*
X019268Y009380D01*
X019137Y009380D01*
X019015Y009330D01*
X018966Y009280D01*
X015939Y009280D01*
X015889Y009330D01*
X015768Y009380D01*
X015637Y009380D01*
X015515Y009330D01*
X015466Y009280D01*
X012489Y009280D01*
X012439Y009330D01*
X012318Y009380D01*
X012187Y009380D01*
X012065Y009330D01*
X012016Y009280D01*
X008989Y009280D01*
X008939Y009330D01*
X008818Y009380D01*
X008687Y009380D01*
X008565Y009330D01*
X008516Y009280D01*
X005539Y009280D01*
X005489Y009330D01*
X005368Y009380D01*
X005237Y009380D01*
X005115Y009330D01*
X005023Y009237D01*
X004972Y009116D01*
X004972Y008984D01*
X005023Y008863D01*
X005115Y008770D01*
X005019Y008873D02*
X003452Y008873D01*
X003452Y008971D02*
X004978Y008971D01*
X004972Y009070D02*
X003452Y009070D01*
X003452Y009168D02*
X004994Y009168D01*
X005052Y009267D02*
X003452Y009267D01*
X003452Y009365D02*
X005201Y009365D01*
X005404Y009365D02*
X008651Y009365D01*
X008854Y009365D02*
X012151Y009365D01*
X012354Y009365D02*
X015601Y009365D01*
X015804Y009365D02*
X019101Y009365D01*
X019304Y009365D02*
X022601Y009365D01*
X022804Y009365D02*
X026151Y009365D01*
X026354Y009365D02*
X028352Y009365D01*
X028352Y009267D02*
X026503Y009267D01*
X026561Y009168D02*
X028352Y009168D01*
X028352Y009070D02*
X026582Y009070D01*
X026577Y008971D02*
X028352Y008971D01*
X028352Y008873D02*
X026536Y008873D01*
X026443Y008774D02*
X028352Y008774D01*
X028352Y009464D02*
X003452Y009464D01*
X003452Y009562D02*
X028352Y009562D01*
X028352Y009661D02*
X003452Y009661D01*
X003452Y009759D02*
X028379Y009759D01*
X028477Y009858D02*
X003452Y009858D01*
X003452Y009956D02*
X028522Y009956D01*
X028538Y010055D02*
X003452Y010055D01*
X003452Y010153D02*
X028589Y010153D01*
X028718Y010252D02*
X003452Y010252D01*
X005493Y008774D02*
X008562Y008774D01*
X008943Y008774D02*
X012062Y008774D01*
X012443Y008774D02*
X015512Y008774D01*
X015893Y008774D02*
X019012Y008774D01*
X019393Y008774D02*
X022512Y008774D01*
X022893Y008774D02*
X026062Y008774D01*
X026149Y006115D02*
X022855Y006115D01*
X022649Y006115D02*
X019455Y006115D01*
X019249Y006115D02*
X015905Y006115D01*
X015699Y006115D02*
X012555Y006115D01*
X012349Y006115D02*
X008955Y006115D01*
X008749Y006115D02*
X005355Y006115D01*
X005149Y006115D02*
X003452Y006115D01*
X003452Y006213D02*
X029622Y006213D01*
X029622Y006312D02*
X003452Y006312D01*
X003452Y006410D02*
X029622Y006410D01*
X029622Y006509D02*
X003452Y006509D01*
X003452Y006607D02*
X029622Y006607D01*
X029622Y006706D02*
X003452Y006706D01*
X003452Y006804D02*
X029622Y006804D01*
X029622Y006903D02*
X003452Y006903D01*
X003452Y007001D02*
X029622Y007001D01*
X029622Y007100D02*
X003452Y007100D01*
X003452Y007198D02*
X029622Y007198D01*
X029622Y007297D02*
X003452Y007297D01*
X003452Y007395D02*
X029622Y007395D01*
X030082Y007395D02*
X030097Y007395D01*
X030097Y007297D02*
X030082Y007297D01*
X030082Y007198D02*
X030097Y007198D01*
X030097Y007100D02*
X030082Y007100D01*
X030082Y007001D02*
X030097Y007001D01*
X030097Y006903D02*
X030082Y006903D01*
X030082Y006804D02*
X030097Y006804D01*
X030097Y006706D02*
X030082Y006706D01*
X030082Y006607D02*
X030097Y006607D01*
X030097Y006509D02*
X030082Y006509D01*
X030082Y006410D02*
X030097Y006410D01*
X030097Y006312D02*
X030082Y006312D01*
X030082Y006213D02*
X030097Y006213D01*
X030097Y006115D02*
X030082Y006115D01*
X030082Y006016D02*
X030097Y006016D01*
X030097Y005918D02*
X030082Y005918D01*
X030097Y005819D02*
X030032Y005819D01*
X030027Y005721D02*
X030097Y005721D01*
X030097Y005622D02*
X029986Y005622D01*
X029893Y005524D02*
X030097Y005524D01*
X030097Y005425D02*
X003452Y005425D01*
X003452Y005327D02*
X030097Y005327D01*
X030097Y005228D02*
X003452Y005228D01*
X003452Y005130D02*
X030097Y005130D01*
X030097Y005031D02*
X003452Y005031D01*
X003452Y004933D02*
X030097Y004933D01*
X030097Y004834D02*
X003452Y004834D01*
X003452Y004736D02*
X030097Y004736D01*
X030097Y004637D02*
X003452Y004637D01*
X003452Y004539D02*
X030097Y004539D01*
X030097Y004440D02*
X003452Y004440D01*
X003452Y004342D02*
X030097Y004342D01*
X030097Y004243D02*
X003452Y004243D01*
X003452Y004145D02*
X030097Y004145D01*
X030097Y004046D02*
X003452Y004046D01*
X003452Y003948D02*
X030097Y003948D01*
X030097Y003849D02*
X003452Y003849D01*
X003452Y003751D02*
X030097Y003751D01*
X030097Y003652D02*
X003452Y003652D01*
X003452Y003554D02*
X030097Y003554D01*
X030097Y003455D02*
X029871Y003455D01*
X029902Y003424D02*
X029826Y003500D01*
X028979Y003500D01*
X028902Y003424D01*
X028902Y002576D01*
X028979Y002500D01*
X029826Y002500D01*
X029902Y002576D01*
X029902Y003424D01*
X029902Y003357D02*
X030097Y003357D01*
X030097Y003258D02*
X029902Y003258D01*
X029902Y003160D02*
X030097Y003160D01*
X030097Y003061D02*
X029902Y003061D01*
X029902Y002963D02*
X030097Y002963D01*
X030097Y002864D02*
X029902Y002864D01*
X029902Y002766D02*
X030097Y002766D01*
X030097Y002667D02*
X029902Y002667D01*
X029895Y002569D02*
X030097Y002569D01*
X030097Y002470D02*
X028252Y002470D01*
X028252Y002372D02*
X030097Y002372D01*
X030097Y002273D02*
X029600Y002273D01*
X029771Y002175D02*
X030097Y002175D01*
X030097Y002076D02*
X029876Y002076D01*
X029829Y002141D02*
X029829Y002141D01*
X029948Y001978D02*
X030097Y001978D01*
X030097Y001879D02*
X030019Y001879D01*
X030040Y001851D02*
X030040Y001851D01*
X030055Y001781D02*
X030097Y001781D01*
X030097Y001682D02*
X030076Y001682D01*
X030097Y001584D02*
X030097Y001584D01*
X028903Y002273D02*
X028252Y002273D01*
X028252Y002175D02*
X028741Y002175D01*
X028632Y002076D02*
X028252Y002076D01*
X028252Y002924D01*
X028176Y003000D01*
X027329Y003000D01*
X027252Y002924D01*
X027252Y002076D01*
X027329Y002000D01*
X028176Y002000D01*
X028252Y002076D01*
X028024Y001879D02*
X028498Y001879D01*
X028454Y001781D02*
X028122Y001781D01*
X028212Y001691D02*
X027943Y001960D01*
X027562Y001960D01*
X027292Y001691D01*
X027292Y001309D01*
X027562Y001040D01*
X027943Y001040D01*
X028212Y001309D01*
X028212Y001691D01*
X028212Y001682D02*
X028410Y001682D01*
X028409Y001584D02*
X028212Y001584D01*
X028212Y001485D02*
X028409Y001485D01*
X028409Y001387D02*
X028212Y001387D01*
X028191Y001288D02*
X028424Y001288D01*
X028468Y001190D02*
X028092Y001190D01*
X027994Y001091D02*
X028511Y001091D01*
X028555Y000993D02*
X028555Y000993D01*
X028556Y000993D02*
X015622Y000993D01*
X015548Y000894D02*
X028665Y000894D01*
X028775Y000796D02*
X015481Y000796D01*
X015296Y000697D02*
X028995Y000697D01*
X027511Y001091D02*
X026994Y001091D01*
X026943Y001040D02*
X026562Y001040D01*
X026292Y001309D01*
X026292Y001691D01*
X026562Y001960D01*
X026943Y001960D01*
X027212Y001691D01*
X027212Y001309D01*
X026943Y001040D01*
X027092Y001190D02*
X027412Y001190D01*
X027314Y001288D02*
X027191Y001288D01*
X027212Y001387D02*
X027292Y001387D01*
X027292Y001485D02*
X027212Y001485D01*
X027212Y001584D02*
X027292Y001584D01*
X027292Y001682D02*
X027212Y001682D01*
X027122Y001781D02*
X027382Y001781D01*
X027481Y001879D02*
X027024Y001879D01*
X027035Y002076D02*
X027253Y002076D01*
X027252Y002175D02*
X027134Y002175D01*
X027176Y002217D02*
X027252Y002401D01*
X027252Y002599D01*
X027176Y002783D01*
X027036Y002924D01*
X026852Y003000D01*
X026653Y003000D01*
X026469Y002924D01*
X026328Y002783D01*
X026252Y002599D01*
X026176Y002783D01*
X026036Y002924D01*
X025852Y003000D01*
X025653Y003000D01*
X025469Y002924D01*
X025328Y002783D01*
X025252Y002599D01*
X025176Y002783D01*
X025036Y002924D01*
X024852Y003000D01*
X024653Y003000D01*
X024469Y002924D01*
X024328Y002783D01*
X024252Y002599D01*
X024176Y002783D01*
X024036Y002924D01*
X023852Y003000D01*
X023653Y003000D01*
X023469Y002924D01*
X023328Y002783D01*
X023252Y002599D01*
X023176Y002783D01*
X023036Y002924D01*
X022852Y003000D01*
X022653Y003000D01*
X022469Y002924D01*
X022328Y002783D01*
X022252Y002599D01*
X022252Y002401D01*
X022328Y002217D01*
X022469Y002076D01*
X022653Y002000D01*
X022852Y002000D01*
X023036Y002076D01*
X023176Y002217D01*
X023252Y002401D01*
X023252Y002599D01*
X023252Y002401D01*
X023328Y002217D01*
X023469Y002076D01*
X023653Y002000D01*
X023852Y002000D01*
X024036Y002076D01*
X024176Y002217D01*
X024252Y002401D01*
X024252Y002599D01*
X024252Y002401D01*
X024328Y002217D01*
X024469Y002076D01*
X024653Y002000D01*
X024852Y002000D01*
X025036Y002076D01*
X025176Y002217D01*
X025252Y002401D01*
X025252Y002599D01*
X025252Y002401D01*
X025328Y002217D01*
X025469Y002076D01*
X025653Y002000D01*
X025852Y002000D01*
X026036Y002076D01*
X026176Y002217D01*
X026252Y002401D01*
X026252Y002599D01*
X026252Y002401D01*
X026328Y002217D01*
X026469Y002076D01*
X026653Y002000D01*
X026852Y002000D01*
X027036Y002076D01*
X027176Y002217D01*
X027200Y002273D02*
X027252Y002273D01*
X027240Y002372D02*
X027252Y002372D01*
X027252Y002470D02*
X027252Y002470D01*
X027252Y002569D02*
X027252Y002569D01*
X027252Y002667D02*
X027224Y002667D01*
X027252Y002766D02*
X027184Y002766D01*
X027252Y002864D02*
X027095Y002864D01*
X026942Y002963D02*
X027291Y002963D01*
X026562Y002963D02*
X025942Y002963D01*
X026095Y002864D02*
X026409Y002864D01*
X026321Y002766D02*
X026184Y002766D01*
X026224Y002667D02*
X026280Y002667D01*
X026252Y002569D02*
X026252Y002569D01*
X026252Y002470D02*
X026252Y002470D01*
X026240Y002372D02*
X026264Y002372D01*
X026305Y002273D02*
X026200Y002273D01*
X026134Y002175D02*
X026371Y002175D01*
X026469Y002076D02*
X026035Y002076D01*
X025943Y001960D02*
X025562Y001960D01*
X025292Y001691D01*
X025292Y001309D01*
X025562Y001040D01*
X025943Y001040D01*
X026212Y001309D01*
X026212Y001691D01*
X025943Y001960D01*
X026024Y001879D02*
X026481Y001879D01*
X026382Y001781D02*
X026122Y001781D01*
X026212Y001682D02*
X026292Y001682D01*
X026292Y001584D02*
X026212Y001584D01*
X026212Y001485D02*
X026292Y001485D01*
X026292Y001387D02*
X026212Y001387D01*
X026191Y001288D02*
X026314Y001288D01*
X026412Y001190D02*
X026092Y001190D01*
X025994Y001091D02*
X026511Y001091D01*
X025511Y001091D02*
X024994Y001091D01*
X024943Y001040D02*
X025212Y001309D01*
X025212Y001691D01*
X024943Y001960D01*
X024562Y001960D01*
X024292Y001691D01*
X024292Y001309D01*
X024562Y001040D01*
X024943Y001040D01*
X025092Y001190D02*
X025412Y001190D01*
X025314Y001288D02*
X025191Y001288D01*
X025212Y001387D02*
X025292Y001387D01*
X025292Y001485D02*
X025212Y001485D01*
X025212Y001584D02*
X025292Y001584D01*
X025292Y001682D02*
X025212Y001682D01*
X025122Y001781D02*
X025382Y001781D01*
X025481Y001879D02*
X025024Y001879D01*
X025035Y002076D02*
X025469Y002076D01*
X025371Y002175D02*
X025134Y002175D01*
X025200Y002273D02*
X025305Y002273D01*
X025264Y002372D02*
X025240Y002372D01*
X025252Y002470D02*
X025252Y002470D01*
X025252Y002569D02*
X025252Y002569D01*
X025224Y002667D02*
X025280Y002667D01*
X025321Y002766D02*
X025184Y002766D01*
X025095Y002864D02*
X025409Y002864D01*
X025562Y002963D02*
X024942Y002963D01*
X024562Y002963D02*
X023942Y002963D01*
X024095Y002864D02*
X024409Y002864D01*
X024321Y002766D02*
X024184Y002766D01*
X024224Y002667D02*
X024280Y002667D01*
X024252Y002569D02*
X024252Y002569D01*
X024252Y002470D02*
X024252Y002470D01*
X024240Y002372D02*
X024264Y002372D01*
X024305Y002273D02*
X024200Y002273D01*
X024134Y002175D02*
X024371Y002175D01*
X024469Y002076D02*
X024035Y002076D01*
X023943Y001960D02*
X023562Y001960D01*
X023292Y001691D01*
X023292Y001309D01*
X023562Y001040D01*
X023943Y001040D01*
X024212Y001309D01*
X024212Y001691D01*
X023943Y001960D01*
X024024Y001879D02*
X024481Y001879D01*
X024382Y001781D02*
X024122Y001781D01*
X024212Y001682D02*
X024292Y001682D01*
X024292Y001584D02*
X024212Y001584D01*
X024212Y001485D02*
X024292Y001485D01*
X024292Y001387D02*
X024212Y001387D01*
X024191Y001288D02*
X024314Y001288D01*
X024412Y001190D02*
X024092Y001190D01*
X023994Y001091D02*
X024511Y001091D01*
X023511Y001091D02*
X022994Y001091D01*
X022943Y001040D02*
X022562Y001040D01*
X022292Y001309D01*
X022292Y001691D01*
X022562Y001960D01*
X022943Y001960D01*
X023212Y001691D01*
X023212Y001309D01*
X022943Y001040D01*
X023092Y001190D02*
X023412Y001190D01*
X023314Y001288D02*
X023191Y001288D01*
X023212Y001387D02*
X023292Y001387D01*
X023292Y001485D02*
X023212Y001485D01*
X023212Y001584D02*
X023292Y001584D01*
X023292Y001682D02*
X023212Y001682D01*
X023122Y001781D02*
X023382Y001781D01*
X023481Y001879D02*
X023024Y001879D01*
X023035Y002076D02*
X023469Y002076D01*
X023371Y002175D02*
X023134Y002175D01*
X023200Y002273D02*
X023305Y002273D01*
X023264Y002372D02*
X023240Y002372D01*
X023252Y002470D02*
X023252Y002470D01*
X023252Y002569D02*
X023252Y002569D01*
X023224Y002667D02*
X023280Y002667D01*
X023321Y002766D02*
X023184Y002766D01*
X023095Y002864D02*
X023409Y002864D01*
X023562Y002963D02*
X022942Y002963D01*
X022562Y002963D02*
X021214Y002963D01*
X021176Y003000D02*
X020329Y003000D01*
X020252Y002924D01*
X020252Y002644D01*
X020234Y002700D01*
X020197Y002773D01*
X020149Y002839D01*
X020091Y002897D01*
X020025Y002945D01*
X019952Y002982D01*
X019874Y003007D01*
X019802Y003019D01*
X019802Y002550D01*
X019702Y002550D01*
X019702Y002450D01*
X018802Y002450D01*
X018802Y001981D01*
X018874Y001993D01*
X018952Y002018D01*
X019025Y002055D01*
X019091Y002103D01*
X019149Y002161D01*
X019197Y002227D01*
X019234Y002300D01*
X019252Y002356D01*
X019270Y002300D01*
X019308Y002227D01*
X019356Y002161D01*
X019414Y002103D01*
X019480Y002055D01*
X019553Y002018D01*
X019631Y001993D01*
X019702Y001981D01*
X019702Y002450D01*
X019802Y002450D01*
X019802Y001981D01*
X019874Y001993D01*
X019952Y002018D01*
X020025Y002055D01*
X020091Y002103D01*
X020149Y002161D01*
X020197Y002227D01*
X020234Y002300D01*
X020252Y002356D01*
X020252Y002076D01*
X020329Y002000D01*
X021176Y002000D01*
X021252Y002076D01*
X022469Y002076D01*
X022371Y002175D02*
X021252Y002175D01*
X021252Y002273D02*
X022305Y002273D01*
X022264Y002372D02*
X021252Y002372D01*
X021252Y002470D02*
X022252Y002470D01*
X022252Y002569D02*
X021252Y002569D01*
X021252Y002667D02*
X022280Y002667D01*
X022321Y002766D02*
X021252Y002766D01*
X021252Y002864D02*
X022409Y002864D01*
X021252Y002924D02*
X021252Y002076D01*
X021024Y001879D02*
X022481Y001879D01*
X022382Y001781D02*
X021122Y001781D01*
X021212Y001691D02*
X020943Y001960D01*
X020562Y001960D01*
X020292Y001691D01*
X020292Y001309D01*
X020562Y001040D01*
X020943Y001040D01*
X021212Y001309D01*
X021212Y001691D01*
X021212Y001682D02*
X022292Y001682D01*
X022292Y001584D02*
X021212Y001584D01*
X021212Y001485D02*
X022292Y001485D01*
X022292Y001387D02*
X021212Y001387D01*
X021191Y001288D02*
X022314Y001288D01*
X022412Y001190D02*
X021092Y001190D01*
X020994Y001091D02*
X022511Y001091D01*
X020511Y001091D02*
X020022Y001091D01*
X019951Y001020D02*
X020232Y001301D01*
X020232Y001452D01*
X019801Y001452D01*
X019801Y001548D01*
X020232Y001548D01*
X020232Y001699D01*
X019951Y001980D01*
X019801Y001980D01*
X019801Y001548D01*
X019704Y001548D01*
X019704Y001452D01*
X019272Y001452D01*
X019272Y001301D01*
X019554Y001020D01*
X019704Y001020D01*
X019704Y001452D01*
X019801Y001452D01*
X019801Y001020D01*
X019951Y001020D01*
X019801Y001091D02*
X019704Y001091D01*
X019704Y001190D02*
X019801Y001190D01*
X019801Y001288D02*
X019704Y001288D01*
X019704Y001387D02*
X019801Y001387D01*
X019801Y001485D02*
X020292Y001485D01*
X020292Y001387D02*
X020232Y001387D01*
X020219Y001288D02*
X020314Y001288D01*
X020412Y001190D02*
X020121Y001190D01*
X020232Y001584D02*
X020292Y001584D01*
X020292Y001682D02*
X020232Y001682D01*
X020151Y001781D02*
X020382Y001781D01*
X020481Y001879D02*
X020052Y001879D01*
X019954Y001978D02*
X028542Y001978D01*
X028252Y002569D02*
X028910Y002569D01*
X028902Y002667D02*
X028252Y002667D01*
X028252Y002766D02*
X028902Y002766D01*
X028902Y002864D02*
X028252Y002864D01*
X028214Y002963D02*
X028902Y002963D01*
X028902Y003061D02*
X003544Y003061D01*
X003452Y003160D02*
X028902Y003160D01*
X028902Y003258D02*
X003452Y003258D01*
X003452Y003357D02*
X028902Y003357D01*
X028934Y003455D02*
X003452Y003455D01*
X003656Y002963D02*
X009862Y002963D01*
X009709Y002864D02*
X005121Y002864D01*
X005220Y002766D02*
X009621Y002766D01*
X009580Y002667D02*
X005318Y002667D01*
X005417Y002569D02*
X009552Y002569D01*
X009552Y002470D02*
X008230Y002470D01*
X008152Y002510D01*
X008070Y002536D01*
X007991Y002549D01*
X007991Y002050D01*
X008490Y002050D01*
X008478Y002129D01*
X008451Y002211D01*
X008412Y002288D01*
X008361Y002358D01*
X008300Y002420D01*
X008230Y002470D01*
X008348Y002372D02*
X009564Y002372D01*
X009605Y002273D02*
X008420Y002273D01*
X008463Y002175D02*
X009671Y002175D01*
X009762Y002076D02*
X008486Y002076D01*
X008479Y001879D02*
X009762Y001879D01*
X009762Y001781D02*
X008447Y001781D01*
X008390Y001682D02*
X009674Y001682D01*
X009762Y001978D02*
X007991Y001978D01*
X007991Y002076D02*
X007891Y002076D01*
X007891Y002050D02*
X007891Y002549D01*
X007813Y002536D01*
X007730Y002510D01*
X007653Y002470D01*
X007583Y002420D01*
X007522Y002358D01*
X007471Y002288D01*
X007432Y002211D01*
X007405Y002129D01*
X007392Y002050D01*
X007891Y002050D01*
X007891Y001978D02*
X007093Y001978D01*
X007093Y002076D02*
X007397Y002076D01*
X007420Y002175D02*
X007093Y002175D01*
X007093Y002273D02*
X007463Y002273D01*
X007535Y002372D02*
X007093Y002372D01*
X007077Y002470D02*
X007653Y002470D01*
X007891Y002470D02*
X007991Y002470D01*
X007991Y002372D02*
X007891Y002372D01*
X007891Y002273D02*
X007991Y002273D01*
X007991Y002175D02*
X007891Y002175D01*
X007404Y001879D02*
X007093Y001879D01*
X007093Y001781D02*
X007436Y001781D01*
X007493Y001682D02*
X007093Y001682D01*
X006453Y001190D02*
X005902Y001190D01*
X005902Y001288D02*
X006354Y001288D01*
X006292Y001387D02*
X005902Y001387D01*
X005902Y001485D02*
X006095Y001485D01*
X006033Y001584D02*
X005902Y001584D01*
X005902Y001682D02*
X006033Y001682D01*
X006033Y001781D02*
X005902Y001781D01*
X005902Y001879D02*
X006033Y001879D01*
X006033Y001978D02*
X005902Y001978D01*
X005902Y002076D02*
X006033Y002076D01*
X006033Y002175D02*
X005811Y002175D01*
X005712Y002273D02*
X006033Y002273D01*
X006033Y002372D02*
X005614Y002372D01*
X005515Y002470D02*
X006050Y002470D01*
X005442Y001978D02*
X004448Y001978D01*
X004376Y002076D02*
X005344Y002076D01*
X005245Y002175D02*
X004271Y002175D01*
X004329Y002141D02*
X004329Y002141D01*
X004329Y002141D01*
X004100Y002273D02*
X005147Y002273D01*
X005502Y001879D02*
X004519Y001879D01*
X004540Y001851D02*
X004540Y001851D01*
X004555Y001781D02*
X005502Y001781D01*
X005502Y001682D02*
X004576Y001682D01*
X004597Y001584D02*
X005502Y001584D01*
X005502Y001485D02*
X004611Y001485D01*
X004590Y001387D02*
X005502Y001387D01*
X005502Y001288D02*
X004569Y001288D01*
X004548Y001190D02*
X005502Y001190D01*
X005502Y001091D02*
X004498Y001091D01*
X004426Y000993D02*
X005527Y000993D01*
X005626Y000894D02*
X004354Y000894D01*
X004329Y000859D02*
X004329Y000859D01*
X004219Y000796D02*
X005724Y000796D01*
X004048Y000697D02*
X015240Y000697D01*
X015269Y001190D02*
X015092Y001190D01*
X015191Y001288D02*
X015314Y001288D01*
X015292Y001387D02*
X015212Y001387D01*
X015212Y001485D02*
X015292Y001485D01*
X015292Y001584D02*
X015212Y001584D01*
X015212Y001682D02*
X015292Y001682D01*
X015382Y001781D02*
X015122Y001781D01*
X015024Y001879D02*
X015481Y001879D01*
X015469Y002076D02*
X015035Y002076D01*
X015036Y002076D02*
X015176Y002217D01*
X015252Y002401D01*
X015252Y002599D01*
X015176Y002783D01*
X015036Y002924D01*
X014852Y003000D01*
X014653Y003000D01*
X014469Y002924D01*
X014328Y002783D01*
X014252Y002599D01*
X014176Y002783D01*
X014036Y002924D01*
X013852Y003000D01*
X013653Y003000D01*
X013469Y002924D01*
X013328Y002783D01*
X013252Y002599D01*
X013252Y002401D01*
X013328Y002217D01*
X013469Y002076D01*
X013653Y002000D01*
X013852Y002000D01*
X014036Y002076D01*
X014176Y002217D01*
X014252Y002401D01*
X014252Y002599D01*
X014252Y002401D01*
X014328Y002217D01*
X014469Y002076D01*
X014653Y002000D01*
X014852Y002000D01*
X015036Y002076D01*
X015134Y002175D02*
X015371Y002175D01*
X015328Y002217D02*
X015469Y002076D01*
X015653Y002000D01*
X015852Y002000D01*
X016036Y002076D01*
X016176Y002217D01*
X016252Y002401D01*
X016252Y002599D01*
X016176Y002783D01*
X016036Y002924D01*
X015852Y003000D01*
X015653Y003000D01*
X015469Y002924D01*
X015328Y002783D01*
X015252Y002599D01*
X015252Y002401D01*
X015328Y002217D01*
X015305Y002273D02*
X015200Y002273D01*
X015240Y002372D02*
X015264Y002372D01*
X015252Y002470D02*
X015252Y002470D01*
X015252Y002569D02*
X015252Y002569D01*
X015224Y002667D02*
X015280Y002667D01*
X015321Y002766D02*
X015184Y002766D01*
X015095Y002864D02*
X015409Y002864D01*
X015562Y002963D02*
X014942Y002963D01*
X014562Y002963D02*
X013942Y002963D01*
X014095Y002864D02*
X014409Y002864D01*
X014321Y002766D02*
X014184Y002766D01*
X014224Y002667D02*
X014280Y002667D01*
X014252Y002569D02*
X014252Y002569D01*
X014252Y002470D02*
X014252Y002470D01*
X014240Y002372D02*
X014264Y002372D01*
X014305Y002273D02*
X014200Y002273D01*
X014134Y002175D02*
X014371Y002175D01*
X014469Y002076D02*
X014035Y002076D01*
X014024Y001879D02*
X014481Y001879D01*
X014382Y001781D02*
X014122Y001781D01*
X014212Y001682D02*
X014292Y001682D01*
X014292Y001584D02*
X014212Y001584D01*
X014212Y001485D02*
X014292Y001485D01*
X014292Y001387D02*
X014212Y001387D01*
X014191Y001288D02*
X014314Y001288D01*
X014412Y001190D02*
X014092Y001190D01*
X013412Y001190D02*
X010002Y001190D01*
X010100Y001288D02*
X013314Y001288D01*
X013292Y001387D02*
X010199Y001387D01*
X010297Y001485D02*
X013292Y001485D01*
X013292Y001584D02*
X010339Y001584D01*
X010342Y001682D02*
X013292Y001682D01*
X013382Y001781D02*
X010342Y001781D01*
X010342Y001879D02*
X013481Y001879D01*
X013469Y002076D02*
X012552Y002076D01*
X012552Y002924D01*
X012476Y003000D01*
X011629Y003000D01*
X011552Y002924D01*
X011552Y002076D01*
X011629Y002000D01*
X012476Y002000D01*
X012552Y002076D01*
X012552Y002175D02*
X013371Y002175D01*
X013305Y002273D02*
X012552Y002273D01*
X012552Y002372D02*
X013264Y002372D01*
X013252Y002470D02*
X012552Y002470D01*
X012552Y002569D02*
X013252Y002569D01*
X013280Y002667D02*
X012552Y002667D01*
X012552Y002766D02*
X013321Y002766D01*
X013409Y002864D02*
X012552Y002864D01*
X012514Y002963D02*
X013562Y002963D01*
X011591Y002963D02*
X011242Y002963D01*
X011152Y003000D02*
X010953Y003000D01*
X010769Y002924D01*
X010628Y002783D01*
X010552Y002599D01*
X010552Y002401D01*
X010628Y002217D01*
X010769Y002076D01*
X010953Y002000D01*
X011152Y002000D01*
X011336Y002076D01*
X011476Y002217D01*
X011552Y002401D01*
X011552Y002599D01*
X011476Y002783D01*
X011336Y002924D01*
X011152Y003000D01*
X011395Y002864D02*
X011552Y002864D01*
X011552Y002766D02*
X011484Y002766D01*
X011524Y002667D02*
X011552Y002667D01*
X011552Y002569D02*
X011552Y002569D01*
X011552Y002470D02*
X011552Y002470D01*
X011540Y002372D02*
X011552Y002372D01*
X011552Y002273D02*
X011500Y002273D01*
X011552Y002175D02*
X011434Y002175D01*
X011335Y002076D02*
X011553Y002076D01*
X010769Y002076D02*
X010342Y002076D01*
X010342Y001978D02*
X018551Y001978D01*
X018554Y001980D02*
X018272Y001699D01*
X018272Y001548D01*
X018704Y001548D01*
X018704Y001452D01*
X018272Y001452D01*
X018272Y001301D01*
X018554Y001020D01*
X018704Y001020D01*
X018704Y001452D01*
X018801Y001452D01*
X018801Y001548D01*
X019232Y001548D01*
X019232Y001699D01*
X018951Y001980D01*
X018801Y001980D01*
X018801Y001548D01*
X018704Y001548D01*
X018704Y001980D01*
X018554Y001980D01*
X018553Y002018D02*
X018631Y001993D01*
X018702Y001981D01*
X018702Y002450D01*
X018802Y002450D01*
X018802Y002550D01*
X018702Y002550D01*
X018702Y003019D01*
X018631Y003007D01*
X018553Y002982D01*
X018480Y002945D01*
X018414Y002897D01*
X018356Y002839D01*
X018308Y002773D01*
X018270Y002700D01*
X018245Y002622D01*
X018245Y002618D01*
X018176Y002783D01*
X018036Y002924D01*
X017852Y003000D01*
X017653Y003000D01*
X017469Y002924D01*
X017328Y002783D01*
X017252Y002599D01*
X017176Y002783D01*
X017036Y002924D01*
X016852Y003000D01*
X016653Y003000D01*
X016469Y002924D01*
X016328Y002783D01*
X016252Y002599D01*
X016252Y002401D01*
X016328Y002217D01*
X016469Y002076D01*
X016653Y002000D01*
X016852Y002000D01*
X017036Y002076D01*
X017176Y002217D01*
X017252Y002401D01*
X017252Y002599D01*
X017252Y002401D01*
X017328Y002217D01*
X017469Y002076D01*
X017653Y002000D01*
X017852Y002000D01*
X018036Y002076D01*
X018176Y002217D01*
X018245Y002382D01*
X018245Y002378D01*
X018270Y002300D01*
X018308Y002227D01*
X018356Y002161D01*
X018414Y002103D01*
X018480Y002055D01*
X018553Y002018D01*
X018451Y002076D02*
X018035Y002076D01*
X018134Y002175D02*
X018346Y002175D01*
X018284Y002273D02*
X018200Y002273D01*
X018240Y002372D02*
X018247Y002372D01*
X018702Y002372D02*
X018802Y002372D01*
X018802Y002470D02*
X019702Y002470D01*
X019702Y002550D02*
X019271Y002550D01*
X018802Y002550D01*
X018802Y003019D01*
X018874Y003007D01*
X018952Y002982D01*
X019025Y002945D01*
X019091Y002897D01*
X019149Y002839D01*
X019197Y002773D01*
X019234Y002700D01*
X019252Y002644D01*
X019270Y002700D01*
X019308Y002773D01*
X019356Y002839D01*
X019414Y002897D01*
X019480Y002945D01*
X019553Y002982D01*
X019631Y003007D01*
X019702Y003019D01*
X019702Y002550D01*
X019702Y002569D02*
X019802Y002569D01*
X019802Y002667D02*
X019702Y002667D01*
X019702Y002766D02*
X019802Y002766D01*
X019802Y002864D02*
X019702Y002864D01*
X019702Y002963D02*
X019802Y002963D01*
X019990Y002963D02*
X020291Y002963D01*
X020252Y002864D02*
X020124Y002864D01*
X020201Y002766D02*
X020252Y002766D01*
X020245Y002667D02*
X020252Y002667D01*
X020252Y002273D02*
X020220Y002273D01*
X020252Y002175D02*
X020159Y002175D01*
X020253Y002076D02*
X020053Y002076D01*
X019802Y002076D02*
X019702Y002076D01*
X019704Y001980D02*
X019554Y001980D01*
X019272Y001699D01*
X019272Y001548D01*
X019704Y001548D01*
X019704Y001980D01*
X019704Y001978D02*
X019801Y001978D01*
X019801Y001879D02*
X019704Y001879D01*
X019704Y001781D02*
X019801Y001781D01*
X019801Y001682D02*
X019704Y001682D01*
X019704Y001584D02*
X019801Y001584D01*
X019704Y001485D02*
X018801Y001485D01*
X018801Y001452D02*
X019232Y001452D01*
X019232Y001301D01*
X018951Y001020D01*
X018801Y001020D01*
X018801Y001452D01*
X018801Y001387D02*
X018704Y001387D01*
X018704Y001485D02*
X018212Y001485D01*
X018212Y001387D02*
X018272Y001387D01*
X018212Y001309D02*
X018212Y001691D01*
X017943Y001960D01*
X017562Y001960D01*
X017292Y001691D01*
X017292Y001309D01*
X017562Y001040D01*
X017943Y001040D01*
X018212Y001309D01*
X018191Y001288D02*
X018286Y001288D01*
X018384Y001190D02*
X018092Y001190D01*
X017994Y001091D02*
X018483Y001091D01*
X018704Y001091D02*
X018801Y001091D01*
X018801Y001190D02*
X018704Y001190D01*
X018704Y001288D02*
X018801Y001288D01*
X019022Y001091D02*
X019483Y001091D01*
X019384Y001190D02*
X019121Y001190D01*
X019219Y001288D02*
X019286Y001288D01*
X019272Y001387D02*
X019232Y001387D01*
X019232Y001584D02*
X019272Y001584D01*
X019272Y001682D02*
X019232Y001682D01*
X019151Y001781D02*
X019354Y001781D01*
X019453Y001879D02*
X019052Y001879D01*
X018954Y001978D02*
X019551Y001978D01*
X019451Y002076D02*
X019053Y002076D01*
X019159Y002175D02*
X019346Y002175D01*
X019284Y002273D02*
X019220Y002273D01*
X019702Y002273D02*
X019802Y002273D01*
X019802Y002175D02*
X019702Y002175D01*
X019702Y002372D02*
X019802Y002372D01*
X019260Y002667D02*
X019245Y002667D01*
X019201Y002766D02*
X019304Y002766D01*
X019381Y002864D02*
X019124Y002864D01*
X018990Y002963D02*
X019515Y002963D01*
X018802Y002963D02*
X018702Y002963D01*
X018702Y002864D02*
X018802Y002864D01*
X018802Y002766D02*
X018702Y002766D01*
X018702Y002667D02*
X018802Y002667D01*
X018802Y002569D02*
X018702Y002569D01*
X018702Y002273D02*
X018802Y002273D01*
X018802Y002175D02*
X018702Y002175D01*
X018702Y002076D02*
X018802Y002076D01*
X018801Y001978D02*
X018704Y001978D01*
X018704Y001879D02*
X018801Y001879D01*
X018801Y001781D02*
X018704Y001781D01*
X018704Y001682D02*
X018801Y001682D01*
X018801Y001584D02*
X018704Y001584D01*
X018453Y001879D02*
X018024Y001879D01*
X018122Y001781D02*
X018354Y001781D01*
X018272Y001682D02*
X018212Y001682D01*
X018212Y001584D02*
X018272Y001584D01*
X017481Y001879D02*
X017024Y001879D01*
X016943Y001960D02*
X016562Y001960D01*
X016292Y001691D01*
X016292Y001309D01*
X016562Y001040D01*
X016943Y001040D01*
X017212Y001309D01*
X017212Y001691D01*
X016943Y001960D01*
X017035Y002076D02*
X017469Y002076D01*
X017371Y002175D02*
X017134Y002175D01*
X017200Y002273D02*
X017305Y002273D01*
X017264Y002372D02*
X017240Y002372D01*
X017252Y002470D02*
X017252Y002470D01*
X017252Y002569D02*
X017252Y002569D01*
X017224Y002667D02*
X017280Y002667D01*
X017321Y002766D02*
X017184Y002766D01*
X017095Y002864D02*
X017409Y002864D01*
X017562Y002963D02*
X016942Y002963D01*
X016562Y002963D02*
X015942Y002963D01*
X016095Y002864D02*
X016409Y002864D01*
X016321Y002766D02*
X016184Y002766D01*
X016224Y002667D02*
X016280Y002667D01*
X016252Y002569D02*
X016252Y002569D01*
X016252Y002470D02*
X016252Y002470D01*
X016240Y002372D02*
X016264Y002372D01*
X016305Y002273D02*
X016200Y002273D01*
X016134Y002175D02*
X016371Y002175D01*
X016469Y002076D02*
X016035Y002076D01*
X016024Y001879D02*
X016481Y001879D01*
X016382Y001781D02*
X016122Y001781D01*
X016212Y001682D02*
X016292Y001682D01*
X016292Y001584D02*
X016212Y001584D01*
X016212Y001485D02*
X016292Y001485D01*
X016292Y001387D02*
X016212Y001387D01*
X016191Y001288D02*
X016314Y001288D01*
X016412Y001190D02*
X016092Y001190D01*
X015994Y001091D02*
X016511Y001091D01*
X016994Y001091D02*
X017511Y001091D01*
X017412Y001190D02*
X017092Y001190D01*
X017191Y001288D02*
X017314Y001288D01*
X017292Y001387D02*
X017212Y001387D01*
X017212Y001485D02*
X017292Y001485D01*
X017292Y001584D02*
X017212Y001584D01*
X017212Y001682D02*
X017292Y001682D01*
X017382Y001781D02*
X017122Y001781D01*
X018224Y002667D02*
X018260Y002667D01*
X018304Y002766D02*
X018184Y002766D01*
X018095Y002864D02*
X018381Y002864D01*
X018515Y002963D02*
X017942Y002963D01*
X021176Y003000D02*
X021252Y002924D01*
X022562Y005524D02*
X019543Y005524D01*
X019162Y005524D02*
X015993Y005524D01*
X015612Y005524D02*
X012643Y005524D01*
X012262Y005524D02*
X009043Y005524D01*
X008662Y005524D02*
X005443Y005524D01*
X005062Y005524D02*
X003452Y005524D01*
X003452Y005622D02*
X004969Y005622D01*
X004928Y005721D02*
X003452Y005721D01*
X003452Y005819D02*
X004922Y005819D01*
X004944Y005918D02*
X003452Y005918D01*
X003452Y006016D02*
X005002Y006016D01*
X004019Y002320D02*
X004019Y002320D01*
X003662Y002357D02*
X003662Y002357D01*
X004019Y000680D02*
X004019Y000680D01*
X010242Y002963D02*
X010862Y002963D01*
X010709Y002864D02*
X010395Y002864D01*
X010484Y002766D02*
X010621Y002766D01*
X010580Y002667D02*
X010524Y002667D01*
X010552Y002569D02*
X010552Y002569D01*
X010552Y002470D02*
X010552Y002470D01*
X010540Y002372D02*
X010564Y002372D01*
X010605Y002273D02*
X010500Y002273D01*
X010434Y002175D02*
X010671Y002175D01*
X006244Y010843D02*
X029572Y010843D01*
X029572Y010941D02*
X006282Y010941D01*
X006282Y011040D02*
X029572Y011040D01*
X029572Y011138D02*
X006252Y011138D01*
X006183Y011237D02*
X029572Y011237D01*
X029572Y011335D02*
X006002Y011335D01*
X006002Y011434D02*
X029572Y011434D01*
X029572Y011532D02*
X006002Y011532D01*
X006002Y011631D02*
X029572Y011631D01*
X029572Y011729D02*
X006002Y011729D01*
X006002Y011828D02*
X029572Y011828D01*
X029572Y011926D02*
X006002Y011926D01*
X006002Y012025D02*
X006061Y012025D01*
X006444Y012025D02*
X008511Y012025D01*
X008894Y012025D02*
X012011Y012025D01*
X012394Y012025D02*
X015511Y012025D01*
X015894Y012025D02*
X019061Y012025D01*
X019444Y012025D02*
X022611Y012025D01*
X022994Y012025D02*
X026061Y012025D01*
X026444Y012025D02*
X029572Y012025D01*
X029572Y013995D02*
X029214Y013995D01*
X029295Y014093D02*
X029572Y014093D01*
X029572Y014192D02*
X029332Y014192D01*
X029332Y014290D02*
X029572Y014290D01*
X029572Y014389D02*
X029302Y014389D01*
X029232Y014487D02*
X029572Y014487D01*
X029572Y014586D02*
X028950Y014586D01*
X028851Y014684D02*
X029572Y014684D01*
X029572Y014783D02*
X028753Y014783D01*
X028752Y014881D02*
X029572Y014881D01*
X029572Y014980D02*
X028752Y014980D01*
X028752Y015078D02*
X029572Y015078D01*
X029572Y015177D02*
X028752Y015177D01*
X028752Y015275D02*
X029572Y015275D01*
X029562Y015374D02*
X028752Y015374D01*
X028752Y015472D02*
X029498Y015472D01*
X029472Y015571D02*
X028752Y015571D01*
X028752Y015669D02*
X029474Y015669D01*
X029515Y015768D02*
X028752Y015768D01*
X028752Y015866D02*
X029572Y015866D01*
X029572Y015965D02*
X028752Y015965D01*
X028752Y016063D02*
X029572Y016063D01*
X029572Y016162D02*
X028797Y016162D01*
X029065Y016260D02*
X029572Y016260D01*
X029572Y016359D02*
X029178Y016359D01*
X029221Y016457D02*
X029572Y016457D01*
X029572Y016556D02*
X029232Y016556D01*
X029216Y016654D02*
X029572Y016654D01*
X029572Y016753D02*
X029167Y016753D01*
X029038Y016851D02*
X029572Y016851D01*
X029572Y017344D02*
X020029Y017344D01*
X020127Y017442D02*
X029572Y017442D01*
X029572Y017541D02*
X020226Y017541D01*
X020324Y017639D02*
X029572Y017639D01*
X029572Y017738D02*
X020352Y017738D01*
X020352Y017836D02*
X029572Y017836D01*
X029572Y017935D02*
X020352Y017935D01*
X020352Y018033D02*
X029572Y018033D01*
X029572Y018132D02*
X020401Y018132D01*
X020460Y018230D02*
X029572Y018230D01*
X029572Y018329D02*
X020482Y018329D01*
X020478Y018427D02*
X022620Y018427D01*
X022785Y018427D02*
X026120Y018427D01*
X026285Y018427D02*
X029572Y018427D01*
X029604Y019018D02*
X027895Y019018D01*
X027852Y019000D02*
X028036Y019076D01*
X028176Y019217D01*
X028252Y019401D01*
X028252Y019599D01*
X028176Y019783D01*
X028036Y019924D01*
X027852Y020000D01*
X027653Y020000D01*
X027469Y019924D01*
X027328Y019783D01*
X027252Y019599D01*
X027176Y019783D01*
X027036Y019924D01*
X026852Y020000D01*
X026653Y020000D01*
X026469Y019924D01*
X026328Y019783D01*
X026252Y019599D01*
X026176Y019783D01*
X026036Y019924D01*
X025852Y020000D01*
X025653Y020000D01*
X025469Y019924D01*
X025328Y019783D01*
X025252Y019599D01*
X025176Y019783D01*
X025036Y019924D01*
X024852Y020000D01*
X024653Y020000D01*
X024469Y019924D01*
X024328Y019783D01*
X024252Y019599D01*
X024176Y019783D01*
X024036Y019924D01*
X023852Y020000D01*
X023653Y020000D01*
X023469Y019924D01*
X023328Y019783D01*
X023252Y019599D01*
X023252Y019401D01*
X023328Y019217D01*
X023469Y019076D01*
X023653Y019000D01*
X023852Y019000D01*
X024036Y019076D01*
X024176Y019217D01*
X024252Y019401D01*
X024252Y019599D01*
X024252Y019401D01*
X024328Y019217D01*
X024469Y019076D01*
X024653Y019000D01*
X024852Y019000D01*
X025036Y019076D01*
X025176Y019217D01*
X025252Y019401D01*
X025252Y019599D01*
X025252Y019401D01*
X025328Y019217D01*
X025469Y019076D01*
X025653Y019000D01*
X025852Y019000D01*
X026036Y019076D01*
X026176Y019217D01*
X026252Y019401D01*
X026252Y019599D01*
X026252Y019401D01*
X026328Y019217D01*
X026469Y019076D01*
X026653Y019000D01*
X026852Y019000D01*
X027036Y019076D01*
X027176Y019217D01*
X027252Y019401D01*
X027252Y019599D01*
X027252Y019401D01*
X027328Y019217D01*
X027469Y019076D01*
X027653Y019000D01*
X027852Y019000D01*
X027609Y019018D02*
X026895Y019018D01*
X027076Y019117D02*
X027429Y019117D01*
X027330Y019215D02*
X027175Y019215D01*
X027216Y019314D02*
X027288Y019314D01*
X027252Y019412D02*
X027252Y019412D01*
X027252Y019511D02*
X027252Y019511D01*
X027248Y019609D02*
X027256Y019609D01*
X027297Y019708D02*
X027208Y019708D01*
X027153Y019806D02*
X027351Y019806D01*
X027450Y019905D02*
X027055Y019905D01*
X026943Y020040D02*
X026562Y020040D01*
X026292Y020309D01*
X026292Y020691D01*
X026562Y020960D01*
X026943Y020960D01*
X027212Y020691D01*
X027212Y020309D01*
X026943Y020040D01*
X027004Y020102D02*
X027500Y020102D01*
X027562Y020040D02*
X027943Y020040D01*
X028212Y020309D01*
X028212Y020691D01*
X027943Y020960D01*
X027562Y020960D01*
X027292Y020691D01*
X027292Y020309D01*
X027562Y020040D01*
X027402Y020200D02*
X027103Y020200D01*
X027201Y020299D02*
X027303Y020299D01*
X027292Y020397D02*
X027212Y020397D01*
X027212Y020496D02*
X027292Y020496D01*
X027292Y020594D02*
X027212Y020594D01*
X027210Y020693D02*
X027294Y020693D01*
X027393Y020791D02*
X027112Y020791D01*
X027013Y020890D02*
X027491Y020890D01*
X028013Y020890D02*
X028503Y020890D01*
X028547Y020988D02*
X004440Y020988D01*
X004369Y021087D02*
X028644Y021087D01*
X028753Y021185D02*
X004252Y021185D01*
X004329Y021141D02*
X004329Y021141D01*
X004329Y021141D01*
X004082Y021284D02*
X028935Y021284D01*
X028821Y021247D02*
X028821Y021247D01*
X028459Y020791D02*
X028112Y020791D01*
X028210Y020693D02*
X028415Y020693D01*
X028409Y020594D02*
X028212Y020594D01*
X028212Y020496D02*
X028409Y020496D01*
X028409Y020397D02*
X028212Y020397D01*
X028201Y020299D02*
X028419Y020299D01*
X028463Y020200D02*
X028103Y020200D01*
X028004Y020102D02*
X028507Y020102D01*
X028551Y020003D02*
X013387Y020003D01*
X013451Y020020D02*
X013732Y020301D01*
X013732Y020452D01*
X013301Y020452D01*
X013301Y020548D01*
X013732Y020548D01*
X013732Y020699D01*
X013451Y020980D01*
X013301Y020980D01*
X013301Y020548D01*
X013204Y020548D01*
X013204Y020452D01*
X012772Y020452D01*
X012772Y020301D01*
X013054Y020020D01*
X013204Y020020D01*
X013204Y020452D01*
X013301Y020452D01*
X013301Y020020D01*
X013451Y020020D01*
X013533Y020102D02*
X014000Y020102D01*
X014062Y020040D02*
X014443Y020040D01*
X014712Y020309D01*
X014712Y020691D01*
X014443Y020960D01*
X014062Y020960D01*
X013792Y020691D01*
X013792Y020309D01*
X014062Y020040D01*
X013950Y019905D02*
X013580Y019905D01*
X013673Y019806D02*
X013851Y019806D01*
X013797Y019708D02*
X013730Y019708D01*
X013760Y019382D02*
X013828Y019217D01*
X013969Y019076D01*
X014153Y019000D01*
X014352Y019000D01*
X014536Y019076D01*
X014676Y019217D01*
X014752Y019401D01*
X014752Y019599D01*
X014752Y019401D01*
X014828Y019217D01*
X014969Y019076D01*
X015153Y019000D01*
X015352Y019000D01*
X015536Y019076D01*
X015676Y019217D01*
X015752Y019401D01*
X015752Y019599D01*
X015752Y019401D01*
X015828Y019217D01*
X015969Y019076D01*
X016153Y019000D01*
X016352Y019000D01*
X016536Y019076D01*
X016676Y019217D01*
X016752Y019401D01*
X016752Y019599D01*
X016752Y019401D01*
X016828Y019217D01*
X016969Y019076D01*
X017153Y019000D01*
X017352Y019000D01*
X017536Y019076D01*
X017676Y019217D01*
X017752Y019401D01*
X017752Y019599D01*
X017752Y019401D01*
X017828Y019217D01*
X017969Y019076D01*
X018153Y019000D01*
X018352Y019000D01*
X018536Y019076D01*
X018676Y019217D01*
X018752Y019401D01*
X018752Y019599D01*
X018752Y019401D01*
X018828Y019217D01*
X018969Y019076D01*
X019048Y019043D01*
X019015Y019030D01*
X018966Y018980D01*
X015989Y018980D01*
X015939Y019030D01*
X015818Y019080D01*
X015687Y019080D01*
X015565Y019030D01*
X015516Y018980D01*
X012439Y018980D01*
X012399Y019020D01*
X012536Y019076D01*
X012676Y019217D01*
X012745Y019382D01*
X012745Y019378D01*
X012770Y019300D01*
X012808Y019227D01*
X012856Y019161D01*
X012914Y019103D01*
X012980Y019055D01*
X013053Y019018D01*
X012401Y019018D01*
X012576Y019117D02*
X012900Y019117D01*
X012817Y019215D02*
X012675Y019215D01*
X012716Y019314D02*
X012766Y019314D01*
X012775Y019708D02*
X012708Y019708D01*
X012653Y019806D02*
X012832Y019806D01*
X012925Y019905D02*
X012555Y019905D01*
X012443Y020040D02*
X012712Y020309D01*
X012712Y020691D01*
X012443Y020960D01*
X012062Y020960D01*
X011792Y020691D01*
X011792Y020309D01*
X012062Y020040D01*
X012443Y020040D01*
X012504Y020102D02*
X012972Y020102D01*
X012873Y020200D02*
X012603Y020200D01*
X012701Y020299D02*
X012775Y020299D01*
X012772Y020397D02*
X012712Y020397D01*
X012712Y020496D02*
X013204Y020496D01*
X013204Y020548D02*
X012772Y020548D01*
X012772Y020699D01*
X013054Y020980D01*
X013204Y020980D01*
X013204Y020548D01*
X013204Y020594D02*
X013301Y020594D01*
X013301Y020496D02*
X013792Y020496D01*
X013792Y020594D02*
X013732Y020594D01*
X013732Y020693D02*
X013794Y020693D01*
X013893Y020791D02*
X013640Y020791D01*
X013542Y020890D02*
X013991Y020890D01*
X014513Y020890D02*
X014991Y020890D01*
X015062Y020960D02*
X014792Y020691D01*
X014792Y020309D01*
X015062Y020040D01*
X015443Y020040D01*
X015712Y020309D01*
X015712Y020691D01*
X015443Y020960D01*
X015062Y020960D01*
X014893Y020791D02*
X014612Y020791D01*
X014710Y020693D02*
X014794Y020693D01*
X014792Y020594D02*
X014712Y020594D01*
X014712Y020496D02*
X014792Y020496D01*
X014792Y020397D02*
X014712Y020397D01*
X014701Y020299D02*
X014803Y020299D01*
X014902Y020200D02*
X014603Y020200D01*
X014504Y020102D02*
X015000Y020102D01*
X014950Y019905D02*
X014555Y019905D01*
X014653Y019806D02*
X014851Y019806D01*
X014797Y019708D02*
X014708Y019708D01*
X014748Y019609D02*
X014756Y019609D01*
X014752Y019511D02*
X014752Y019511D01*
X014752Y019412D02*
X014752Y019412D01*
X014716Y019314D02*
X014788Y019314D01*
X014830Y019215D02*
X014675Y019215D01*
X014576Y019117D02*
X014929Y019117D01*
X015109Y019018D02*
X014395Y019018D01*
X014109Y019018D02*
X013452Y019018D01*
X013525Y019055D01*
X013591Y019103D01*
X013649Y019161D01*
X013697Y019227D01*
X013734Y019300D01*
X013760Y019378D01*
X013760Y019382D01*
X013739Y019314D02*
X013788Y019314D01*
X013830Y019215D02*
X013688Y019215D01*
X013604Y019117D02*
X013929Y019117D01*
X013452Y019018D02*
X013374Y018993D01*
X013302Y018981D01*
X013302Y019450D01*
X013202Y019450D01*
X013202Y018981D01*
X013131Y018993D01*
X013053Y019018D01*
X013202Y019018D02*
X013302Y019018D01*
X013302Y019117D02*
X013202Y019117D01*
X013202Y019215D02*
X013302Y019215D01*
X013302Y019314D02*
X013202Y019314D01*
X013202Y019412D02*
X013302Y019412D01*
X013302Y019609D02*
X013202Y019609D01*
X013202Y019708D02*
X013302Y019708D01*
X013302Y019806D02*
X013202Y019806D01*
X013202Y019905D02*
X013302Y019905D01*
X013302Y020003D02*
X013202Y020003D01*
X013118Y020003D02*
X004434Y020003D01*
X004505Y020102D02*
X010000Y020102D01*
X010062Y020040D02*
X009792Y020309D01*
X009792Y020691D01*
X010062Y020960D01*
X010443Y020960D01*
X010712Y020691D01*
X010712Y020309D01*
X010443Y020040D01*
X010062Y020040D01*
X009902Y020200D02*
X004551Y020200D01*
X004572Y020299D02*
X009803Y020299D01*
X009792Y020397D02*
X004593Y020397D01*
X004614Y020496D02*
X009792Y020496D01*
X009792Y020594D02*
X004594Y020594D01*
X004574Y020693D02*
X009794Y020693D01*
X009893Y020791D02*
X004553Y020791D01*
X004540Y020851D02*
X004540Y020851D01*
X004512Y020890D02*
X009991Y020890D01*
X010513Y020890D02*
X010991Y020890D01*
X011062Y020960D02*
X010792Y020691D01*
X010792Y020309D01*
X011062Y020040D01*
X011443Y020040D01*
X011712Y020309D01*
X011712Y020691D01*
X011443Y020960D01*
X011062Y020960D01*
X010893Y020791D02*
X010612Y020791D01*
X010710Y020693D02*
X010794Y020693D01*
X010792Y020594D02*
X010712Y020594D01*
X010712Y020496D02*
X010792Y020496D01*
X010792Y020397D02*
X010712Y020397D01*
X010701Y020299D02*
X010803Y020299D01*
X010902Y020200D02*
X010603Y020200D01*
X010504Y020102D02*
X011000Y020102D01*
X010950Y019905D02*
X010752Y019905D01*
X010752Y019924D02*
X010676Y020000D01*
X009829Y020000D01*
X009752Y019924D01*
X009752Y019076D01*
X009829Y019000D01*
X010676Y019000D01*
X010752Y019076D01*
X010752Y019924D01*
X010752Y019806D02*
X010851Y019806D01*
X010797Y019708D02*
X010752Y019708D01*
X010752Y019609D02*
X010756Y019609D01*
X010752Y019511D02*
X010752Y019511D01*
X010752Y019412D02*
X010752Y019412D01*
X010752Y019314D02*
X010788Y019314D01*
X010752Y019215D02*
X010830Y019215D01*
X010752Y019117D02*
X010929Y019117D01*
X011109Y019018D02*
X010694Y019018D01*
X011395Y019018D02*
X012004Y019018D01*
X011929Y019117D02*
X011576Y019117D01*
X011675Y019215D02*
X011830Y019215D01*
X011788Y019314D02*
X011716Y019314D01*
X011752Y019412D02*
X011752Y019412D01*
X011752Y019511D02*
X011752Y019511D01*
X011748Y019609D02*
X011756Y019609D01*
X011797Y019708D02*
X011708Y019708D01*
X011653Y019806D02*
X011851Y019806D01*
X011950Y019905D02*
X011555Y019905D01*
X011504Y020102D02*
X012000Y020102D01*
X011902Y020200D02*
X011603Y020200D01*
X011701Y020299D02*
X011803Y020299D01*
X011792Y020397D02*
X011712Y020397D01*
X011712Y020496D02*
X011792Y020496D01*
X011792Y020594D02*
X011712Y020594D01*
X011710Y020693D02*
X011794Y020693D01*
X011893Y020791D02*
X011612Y020791D01*
X011513Y020890D02*
X011991Y020890D01*
X012513Y020890D02*
X012963Y020890D01*
X012865Y020791D02*
X012612Y020791D01*
X012710Y020693D02*
X012772Y020693D01*
X012772Y020594D02*
X012712Y020594D01*
X013204Y020693D02*
X013301Y020693D01*
X013301Y020791D02*
X013204Y020791D01*
X013204Y020890D02*
X013301Y020890D01*
X013301Y020397D02*
X013204Y020397D01*
X013204Y020299D02*
X013301Y020299D01*
X013301Y020200D02*
X013204Y020200D01*
X013204Y020102D02*
X013301Y020102D01*
X013631Y020200D02*
X013902Y020200D01*
X013803Y020299D02*
X013730Y020299D01*
X013732Y020397D02*
X013792Y020397D01*
X015504Y020102D02*
X016000Y020102D01*
X016062Y020040D02*
X016443Y020040D01*
X016712Y020309D01*
X016712Y020691D01*
X016443Y020960D01*
X016062Y020960D01*
X015792Y020691D01*
X015792Y020309D01*
X016062Y020040D01*
X015950Y019905D02*
X015555Y019905D01*
X015653Y019806D02*
X015851Y019806D01*
X015797Y019708D02*
X015708Y019708D01*
X015748Y019609D02*
X015756Y019609D01*
X015752Y019511D02*
X015752Y019511D01*
X015752Y019412D02*
X015752Y019412D01*
X015716Y019314D02*
X015788Y019314D01*
X015830Y019215D02*
X015675Y019215D01*
X015576Y019117D02*
X015929Y019117D01*
X015951Y019018D02*
X016109Y019018D01*
X016395Y019018D02*
X017109Y019018D01*
X016929Y019117D02*
X016576Y019117D01*
X016675Y019215D02*
X016830Y019215D01*
X016788Y019314D02*
X016716Y019314D01*
X016752Y019412D02*
X016752Y019412D01*
X016752Y019511D02*
X016752Y019511D01*
X016748Y019609D02*
X016756Y019609D01*
X016797Y019708D02*
X016708Y019708D01*
X016653Y019806D02*
X016851Y019806D01*
X016950Y019905D02*
X016555Y019905D01*
X016504Y020102D02*
X017000Y020102D01*
X017062Y020040D02*
X016792Y020309D01*
X016792Y020691D01*
X017062Y020960D01*
X017443Y020960D01*
X017712Y020691D01*
X017712Y020309D01*
X017443Y020040D01*
X017062Y020040D01*
X016902Y020200D02*
X016603Y020200D01*
X016701Y020299D02*
X016803Y020299D01*
X016792Y020397D02*
X016712Y020397D01*
X016712Y020496D02*
X016792Y020496D01*
X016792Y020594D02*
X016712Y020594D01*
X016710Y020693D02*
X016794Y020693D01*
X016893Y020791D02*
X016612Y020791D01*
X016513Y020890D02*
X016991Y020890D01*
X017513Y020890D02*
X017991Y020890D01*
X018062Y020960D02*
X017792Y020691D01*
X017792Y020309D01*
X018062Y020040D01*
X018443Y020040D01*
X018712Y020309D01*
X018712Y020691D01*
X018443Y020960D01*
X018062Y020960D01*
X017893Y020791D02*
X017612Y020791D01*
X017710Y020693D02*
X017794Y020693D01*
X017792Y020594D02*
X017712Y020594D01*
X017712Y020496D02*
X017792Y020496D01*
X017792Y020397D02*
X017712Y020397D01*
X017701Y020299D02*
X017803Y020299D01*
X017902Y020200D02*
X017603Y020200D01*
X017504Y020102D02*
X018000Y020102D01*
X017950Y019905D02*
X017555Y019905D01*
X017653Y019806D02*
X017851Y019806D01*
X017797Y019708D02*
X017708Y019708D01*
X017748Y019609D02*
X017756Y019609D01*
X017752Y019511D02*
X017752Y019511D01*
X017752Y019412D02*
X017752Y019412D01*
X017716Y019314D02*
X017788Y019314D01*
X017830Y019215D02*
X017675Y019215D01*
X017576Y019117D02*
X017929Y019117D01*
X018109Y019018D02*
X017395Y019018D01*
X018395Y019018D02*
X019004Y019018D01*
X018929Y019117D02*
X018576Y019117D01*
X018675Y019215D02*
X018830Y019215D01*
X018788Y019314D02*
X018716Y019314D01*
X018752Y019412D02*
X018752Y019412D01*
X018752Y019511D02*
X018752Y019511D01*
X018748Y019609D02*
X018756Y019609D01*
X018797Y019708D02*
X018708Y019708D01*
X018653Y019806D02*
X018851Y019806D01*
X018950Y019905D02*
X018555Y019905D01*
X018504Y020102D02*
X019000Y020102D01*
X019062Y020040D02*
X019443Y020040D01*
X019712Y020309D01*
X019712Y020691D01*
X019443Y020960D01*
X019062Y020960D01*
X018792Y020691D01*
X018792Y020309D01*
X019062Y020040D01*
X018902Y020200D02*
X018603Y020200D01*
X018701Y020299D02*
X018803Y020299D01*
X018792Y020397D02*
X018712Y020397D01*
X018712Y020496D02*
X018792Y020496D01*
X018792Y020594D02*
X018712Y020594D01*
X018710Y020693D02*
X018794Y020693D01*
X018893Y020791D02*
X018612Y020791D01*
X018513Y020890D02*
X018991Y020890D01*
X019513Y020890D02*
X020491Y020890D01*
X020562Y020960D02*
X020292Y020691D01*
X020292Y020309D01*
X020562Y020040D01*
X020943Y020040D01*
X021212Y020309D01*
X021212Y020691D01*
X020943Y020960D01*
X020562Y020960D01*
X020393Y020791D02*
X019612Y020791D01*
X019710Y020693D02*
X020294Y020693D01*
X020292Y020594D02*
X019712Y020594D01*
X019712Y020496D02*
X020292Y020496D01*
X020292Y020397D02*
X019712Y020397D01*
X019701Y020299D02*
X020303Y020299D01*
X020402Y020200D02*
X019603Y020200D01*
X019504Y020102D02*
X020500Y020102D01*
X020329Y020000D02*
X020252Y019924D01*
X020252Y019076D01*
X020329Y019000D01*
X021176Y019000D01*
X021252Y019076D01*
X021252Y019924D01*
X021176Y020000D01*
X020329Y020000D01*
X020252Y019905D02*
X019555Y019905D01*
X019653Y019806D02*
X020252Y019806D01*
X020252Y019708D02*
X019708Y019708D01*
X019748Y019609D02*
X020252Y019609D01*
X020252Y019511D02*
X019752Y019511D01*
X019752Y019412D02*
X020252Y019412D01*
X020252Y019314D02*
X019716Y019314D01*
X019675Y019215D02*
X020252Y019215D01*
X020252Y019117D02*
X019576Y019117D01*
X019401Y019018D02*
X020310Y019018D01*
X021194Y019018D02*
X021609Y019018D01*
X021429Y019117D02*
X021252Y019117D01*
X021252Y019215D02*
X021330Y019215D01*
X021288Y019314D02*
X021252Y019314D01*
X021252Y019412D02*
X021252Y019412D01*
X021252Y019511D02*
X021252Y019511D01*
X021252Y019609D02*
X021256Y019609D01*
X021252Y019708D02*
X021297Y019708D01*
X021252Y019806D02*
X021351Y019806D01*
X021252Y019905D02*
X021450Y019905D01*
X021562Y020040D02*
X021943Y020040D01*
X022212Y020309D01*
X022212Y020691D01*
X021943Y020960D01*
X021562Y020960D01*
X021292Y020691D01*
X021292Y020309D01*
X021562Y020040D01*
X021500Y020102D02*
X021004Y020102D01*
X021103Y020200D02*
X021402Y020200D01*
X021303Y020299D02*
X021201Y020299D01*
X021212Y020397D02*
X021292Y020397D01*
X021292Y020496D02*
X021212Y020496D01*
X021212Y020594D02*
X021292Y020594D01*
X021294Y020693D02*
X021210Y020693D01*
X021112Y020791D02*
X021393Y020791D01*
X021491Y020890D02*
X021013Y020890D01*
X022013Y020890D02*
X022491Y020890D01*
X022562Y020960D02*
X022292Y020691D01*
X022292Y020309D01*
X022562Y020040D01*
X022943Y020040D01*
X023212Y020309D01*
X023212Y020691D01*
X022943Y020960D01*
X022562Y020960D01*
X022393Y020791D02*
X022112Y020791D01*
X022210Y020693D02*
X022294Y020693D01*
X022292Y020594D02*
X022212Y020594D01*
X022212Y020496D02*
X022292Y020496D01*
X022292Y020397D02*
X022212Y020397D01*
X022201Y020299D02*
X022303Y020299D01*
X022402Y020200D02*
X022103Y020200D01*
X022004Y020102D02*
X022500Y020102D01*
X022450Y019905D02*
X022055Y019905D01*
X022153Y019806D02*
X022351Y019806D01*
X022297Y019708D02*
X022208Y019708D01*
X022248Y019609D02*
X022256Y019609D01*
X022252Y019511D02*
X022252Y019511D01*
X022252Y019412D02*
X022252Y019412D01*
X022216Y019314D02*
X022288Y019314D01*
X022330Y019215D02*
X022175Y019215D01*
X022076Y019117D02*
X022429Y019117D01*
X022504Y019018D02*
X021895Y019018D01*
X022901Y019018D02*
X023609Y019018D01*
X023429Y019117D02*
X023076Y019117D01*
X023175Y019215D02*
X023330Y019215D01*
X023288Y019314D02*
X023216Y019314D01*
X023252Y019412D02*
X023252Y019412D01*
X023252Y019511D02*
X023252Y019511D01*
X023248Y019609D02*
X023256Y019609D01*
X023297Y019708D02*
X023208Y019708D01*
X023153Y019806D02*
X023351Y019806D01*
X023450Y019905D02*
X023055Y019905D01*
X023004Y020102D02*
X023500Y020102D01*
X023562Y020040D02*
X023943Y020040D01*
X024212Y020309D01*
X024212Y020691D01*
X023943Y020960D01*
X023562Y020960D01*
X023292Y020691D01*
X023292Y020309D01*
X023562Y020040D01*
X023402Y020200D02*
X023103Y020200D01*
X023201Y020299D02*
X023303Y020299D01*
X023292Y020397D02*
X023212Y020397D01*
X023212Y020496D02*
X023292Y020496D01*
X023292Y020594D02*
X023212Y020594D01*
X023210Y020693D02*
X023294Y020693D01*
X023393Y020791D02*
X023112Y020791D01*
X023013Y020890D02*
X023491Y020890D01*
X024013Y020890D02*
X024491Y020890D01*
X024562Y020960D02*
X024292Y020691D01*
X024292Y020309D01*
X024562Y020040D01*
X024943Y020040D01*
X025212Y020309D01*
X025212Y020691D01*
X024943Y020960D01*
X024562Y020960D01*
X024393Y020791D02*
X024112Y020791D01*
X024210Y020693D02*
X024294Y020693D01*
X024292Y020594D02*
X024212Y020594D01*
X024212Y020496D02*
X024292Y020496D01*
X024292Y020397D02*
X024212Y020397D01*
X024201Y020299D02*
X024303Y020299D01*
X024402Y020200D02*
X024103Y020200D01*
X024004Y020102D02*
X024500Y020102D01*
X024450Y019905D02*
X024055Y019905D01*
X024153Y019806D02*
X024351Y019806D01*
X024297Y019708D02*
X024208Y019708D01*
X024248Y019609D02*
X024256Y019609D01*
X024252Y019511D02*
X024252Y019511D01*
X024252Y019412D02*
X024252Y019412D01*
X024216Y019314D02*
X024288Y019314D01*
X024330Y019215D02*
X024175Y019215D01*
X024076Y019117D02*
X024429Y019117D01*
X024609Y019018D02*
X023895Y019018D01*
X024895Y019018D02*
X025609Y019018D01*
X025429Y019117D02*
X025076Y019117D01*
X025175Y019215D02*
X025330Y019215D01*
X025288Y019314D02*
X025216Y019314D01*
X025252Y019412D02*
X025252Y019412D01*
X025252Y019511D02*
X025252Y019511D01*
X025248Y019609D02*
X025256Y019609D01*
X025297Y019708D02*
X025208Y019708D01*
X025153Y019806D02*
X025351Y019806D01*
X025450Y019905D02*
X025055Y019905D01*
X025004Y020102D02*
X025500Y020102D01*
X025562Y020040D02*
X025292Y020309D01*
X025292Y020691D01*
X025562Y020960D01*
X025943Y020960D01*
X026212Y020691D01*
X026212Y020309D01*
X025943Y020040D01*
X025562Y020040D01*
X025402Y020200D02*
X025103Y020200D01*
X025201Y020299D02*
X025303Y020299D01*
X025292Y020397D02*
X025212Y020397D01*
X025212Y020496D02*
X025292Y020496D01*
X025292Y020594D02*
X025212Y020594D01*
X025210Y020693D02*
X025294Y020693D01*
X025393Y020791D02*
X025112Y020791D01*
X025013Y020890D02*
X025491Y020890D01*
X026013Y020890D02*
X026491Y020890D01*
X026393Y020791D02*
X026112Y020791D01*
X026210Y020693D02*
X026294Y020693D01*
X026292Y020594D02*
X026212Y020594D01*
X026212Y020496D02*
X026292Y020496D01*
X026292Y020397D02*
X026212Y020397D01*
X026201Y020299D02*
X026303Y020299D01*
X026402Y020200D02*
X026103Y020200D01*
X026004Y020102D02*
X026500Y020102D01*
X026450Y019905D02*
X026055Y019905D01*
X026153Y019806D02*
X026351Y019806D01*
X026297Y019708D02*
X026208Y019708D01*
X026248Y019609D02*
X026256Y019609D01*
X026252Y019511D02*
X026252Y019511D01*
X026252Y019412D02*
X026252Y019412D01*
X026216Y019314D02*
X026288Y019314D01*
X026330Y019215D02*
X026175Y019215D01*
X026076Y019117D02*
X026429Y019117D01*
X026401Y019018D02*
X026609Y019018D01*
X026004Y019018D02*
X025895Y019018D01*
X028076Y019117D02*
X030097Y019117D01*
X030097Y019215D02*
X028175Y019215D01*
X028216Y019314D02*
X030097Y019314D01*
X030097Y019412D02*
X028252Y019412D01*
X028252Y019511D02*
X030097Y019511D01*
X030097Y019609D02*
X028248Y019609D01*
X028208Y019708D02*
X028962Y019708D01*
X028763Y019806D02*
X028153Y019806D01*
X028055Y019905D02*
X028653Y019905D01*
X028555Y019993D02*
X028555Y019993D01*
X029519Y019680D02*
X029519Y019680D01*
X029566Y019708D02*
X030097Y019708D01*
X030097Y019806D02*
X029737Y019806D01*
X029829Y019859D02*
X029829Y019859D01*
X029862Y019905D02*
X030097Y019905D01*
X030097Y020003D02*
X029934Y020003D01*
X030005Y020102D02*
X030097Y020102D01*
X030097Y020200D02*
X030051Y020200D01*
X030072Y020299D02*
X030097Y020299D01*
X030093Y020397D02*
X030097Y020397D01*
X030097Y019018D02*
X030001Y019018D01*
X030089Y018920D02*
X030097Y018920D01*
X028352Y015866D02*
X026453Y015866D01*
X026540Y015768D02*
X028352Y015768D01*
X028352Y015669D02*
X026581Y015669D01*
X026582Y015571D02*
X028352Y015571D01*
X028352Y015472D02*
X026557Y015472D01*
X026493Y015374D02*
X028352Y015374D01*
X026052Y015866D02*
X022953Y015866D01*
X022552Y015866D02*
X019453Y015866D01*
X019052Y015866D02*
X015903Y015866D01*
X015502Y015866D02*
X012453Y015866D01*
X012052Y015866D02*
X008903Y015866D01*
X008502Y015866D02*
X005553Y015866D01*
X005401Y019018D02*
X008504Y019018D01*
X008901Y019018D02*
X009810Y019018D01*
X009752Y019314D02*
X002907Y019314D01*
X002907Y019412D02*
X009752Y019412D01*
X009752Y019511D02*
X002907Y019511D01*
X002907Y019609D02*
X009752Y019609D01*
X009752Y019708D02*
X004066Y019708D01*
X004019Y019680D02*
X004019Y019680D01*
X004237Y019806D02*
X009752Y019806D01*
X009752Y019905D02*
X004362Y019905D01*
X004329Y019859D02*
X004329Y019859D01*
X003462Y019708D02*
X002907Y019708D01*
X002907Y019806D02*
X003263Y019806D01*
X003153Y019905D02*
X002907Y019905D01*
X002907Y020003D02*
X003051Y020003D01*
X003055Y019993D02*
X003055Y019993D01*
X003007Y020102D02*
X002907Y020102D01*
X002907Y020200D02*
X002963Y020200D01*
X002919Y020299D02*
X002907Y020299D01*
X002907Y020397D02*
X002909Y020397D01*
X002907Y020496D02*
X002909Y020496D01*
X002907Y020594D02*
X002909Y020594D01*
X002907Y020693D02*
X002915Y020693D01*
X002907Y020791D02*
X002959Y020791D01*
X003003Y020890D02*
X002907Y020890D01*
X002907Y020988D02*
X003047Y020988D01*
X003144Y021087D02*
X002907Y021087D01*
X002907Y021185D02*
X003253Y021185D01*
X003321Y021247D02*
X003321Y021247D01*
X003435Y021284D02*
X002907Y021284D01*
X004019Y021320D02*
X004019Y021320D01*
X015395Y019018D02*
X015554Y019018D01*
X015603Y020200D02*
X015902Y020200D01*
X015803Y020299D02*
X015701Y020299D01*
X015712Y020397D02*
X015792Y020397D01*
X015792Y020496D02*
X015712Y020496D01*
X015712Y020594D02*
X015792Y020594D01*
X015794Y020693D02*
X015710Y020693D01*
X015612Y020791D02*
X015893Y020791D01*
X015991Y020890D02*
X015513Y020890D01*
X030086Y008873D02*
X030097Y008873D01*
X030097Y008774D02*
X030082Y008774D01*
X030082Y008676D02*
X030097Y008676D01*
X030097Y008577D02*
X030082Y008577D01*
X030082Y008479D02*
X030097Y008479D01*
X030097Y008380D02*
X030082Y008380D01*
X030082Y008282D02*
X030097Y008282D01*
X030097Y008183D02*
X030082Y008183D01*
X030082Y008085D02*
X030097Y008085D01*
X030097Y007986D02*
X030082Y007986D01*
X030082Y007888D02*
X030097Y007888D01*
X030097Y007789D02*
X030082Y007789D01*
X030082Y007691D02*
X030097Y007691D01*
X030097Y007592D02*
X030082Y007592D01*
X030082Y007494D02*
X030097Y007494D01*
X029599Y006115D02*
X026355Y006115D01*
X026443Y005524D02*
X029512Y005524D01*
X026062Y005524D02*
X022943Y005524D01*
D16*
X022752Y005800D03*
X019352Y005800D03*
X015802Y005800D03*
X012452Y005800D03*
X008852Y005800D03*
X005252Y005800D03*
X005302Y009050D03*
X005952Y011000D03*
X006252Y012300D03*
X005802Y013100D03*
X008702Y012300D03*
X012202Y012300D03*
X015702Y012300D03*
X019252Y012300D03*
X022802Y012300D03*
X026252Y012300D03*
X029002Y014250D03*
X029802Y015600D03*
X028902Y016550D03*
X026252Y015600D03*
X022752Y015600D03*
X019252Y015600D03*
X020152Y018350D03*
X019202Y018750D03*
X022702Y018750D03*
X026202Y018750D03*
X029802Y018750D03*
X029802Y012300D03*
X028852Y009950D03*
X029802Y009050D03*
X028802Y007750D03*
X026252Y009050D03*
X022702Y009050D03*
X019202Y009050D03*
X015702Y009050D03*
X012252Y009050D03*
X008752Y009050D03*
X008702Y015600D03*
X005902Y017500D03*
X005202Y018750D03*
X003252Y018850D03*
X005352Y015600D03*
X008702Y018750D03*
X012202Y018750D03*
X015752Y018750D03*
X015702Y015600D03*
X012252Y015600D03*
X026252Y005800D03*
X029702Y005800D03*
D17*
X028802Y007750D02*
X028552Y008000D01*
X028552Y009650D01*
X028852Y009950D01*
X029002Y014250D02*
X028552Y014700D01*
X028552Y016200D01*
X028902Y016550D01*
X020152Y017750D02*
X020152Y018350D01*
X020152Y017750D02*
X019902Y017500D01*
X005902Y017500D01*
X003252Y018850D02*
X003252Y003050D01*
X003652Y002700D01*
X005002Y002700D01*
X005702Y002000D01*
X005702Y001100D01*
X005902Y000900D01*
X015302Y000900D01*
X015752Y001500D01*
X005952Y011000D02*
X005802Y011150D01*
X005802Y013100D01*
D18*
X006252Y012300D02*
X008702Y012300D01*
X008652Y012300D01*
X008702Y012300D02*
X012202Y012300D01*
X015702Y012300D01*
X019252Y012300D01*
X022802Y012300D01*
X026252Y012300D01*
X029802Y012300D01*
X029802Y015600D01*
X029802Y018750D01*
X026202Y018750D01*
X022702Y018750D01*
X019202Y018750D01*
X015752Y018750D01*
X012202Y018750D01*
X008702Y018750D01*
X005202Y018750D01*
X005352Y015600D02*
X008702Y015600D01*
X012252Y015600D01*
X015702Y015600D01*
X019252Y015600D01*
X022752Y015600D01*
X022702Y015600D01*
X022752Y015600D02*
X026252Y015600D01*
X029802Y012300D02*
X029802Y009050D01*
X029852Y009000D01*
X029852Y006000D01*
X029702Y005850D01*
X029702Y005800D01*
X026252Y005800D01*
X022752Y005800D01*
X019352Y005800D01*
X015802Y005800D01*
X012452Y005800D01*
X008852Y005800D01*
X005252Y005800D01*
X005302Y009050D02*
X008752Y009050D01*
X012252Y009050D01*
X015702Y009050D01*
X019202Y009050D01*
X022702Y009050D01*
X026252Y009050D01*
D19*
X010052Y002500D02*
X010052Y001650D01*
X009702Y001300D01*
X006752Y001300D01*
X006563Y001489D01*
X006563Y002000D01*
M02*
