%
M48
M72
T01C0.0200
T02C0.0236
T03C0.0394
T04C0.0400
%
T01
X6052Y3800
X7652Y3700
X9502Y3800
X11152Y3700
X12952Y3800
X14652Y3700
X16452Y3800
X18152Y3700
X19952Y3800
X21652Y3700
X23452Y3800
X25202Y3700
X26952Y3800
X28652Y3700
X29552Y6150
X28352Y6700
X27802Y6200
X27152Y8700
X27802Y9400
X28552Y9900
X26202Y8925
X24302Y9400
X20802Y9400
X17302Y9400
X13802Y9400
X10302Y9400
X6802Y9400
X5852Y11150
X5602Y12200
X6802Y12700
X3652Y12850
X6802Y16000
X5902Y17500
X5902Y18650
X3252Y18850
X4202Y16600
X3652Y16150
X10302Y15950
X13802Y15950
X17302Y15950
X20802Y15950
X24302Y15950
X26202Y15450
X27202Y15250
X27102Y16750
X29652Y15550
X28352Y13200
X27802Y12700
X24302Y12700
X20802Y12700
X17302Y12700
X13802Y12700
X10302Y12700
X3652Y9450
X3652Y6250
X4702Y5700
X6802Y6200
X10302Y6200
X13802Y6200
X17302Y6200
X20802Y6200
X24302Y6200
T02
X3652Y3200
X8402Y5700
T03
X13752Y1500
X14752Y1500
X15752Y1500
X16752Y1500
X17752Y1500
X18752Y1500
X19752Y1500
X20752Y1500
X22752Y1500
X23752Y1500
X24752Y1500
X25752Y1500
X26752Y1500
X27752Y1500
X27752Y20500
X26752Y20500
X25752Y20500
X24752Y20500
X23752Y20500
X22752Y20500
X21752Y20500
X20752Y20500
X19252Y20500
X18252Y20500
X17252Y20500
X16252Y20500
X15252Y20500
X14252Y20500
X13252Y20500
X12252Y20500
X11252Y20500
X10252Y20500
T04
X10252Y19500
X11252Y19500
X12252Y19500
X13252Y19500
X14252Y19500
X15252Y19500
X16252Y19500
X17252Y19500
X18252Y19500
X19252Y19500
X20752Y19500
X21752Y19500
X22752Y19500
X23752Y19500
X24752Y19500
X25752Y19500
X26752Y19500
X27752Y19500
X29402Y3000
X27752Y2500
X26752Y2500
X25752Y2500
X24752Y2500
X23752Y2500
X22752Y2500
X20752Y2500
X19752Y2500
X18752Y2500
X17752Y2500
X16752Y2500
X15752Y2500
X14752Y2500
X13752Y2500
X12052Y2500
X11052Y2500
X10052Y2500
X7941Y2000
X6563Y2000
M30
