%
M48
M72
T01C0.0200
T02C0.0394
T03C0.0400
%
T01
X5252Y5800
X8852Y5800
X12452Y5800
X15802Y5800
X19352Y5800
X22752Y5800
X26252Y5800
X28802Y7750
X29802Y9050
X28852Y9950
X26252Y9050
X22702Y9050
X19202Y9050
X15702Y9050
X12252Y9050
X8752Y9050
X5952Y11000
X6252Y12300
X5802Y13100
X8702Y12300
X12202Y12300
X15702Y12300
X19252Y12300
X22802Y12300
X26252Y12300
X29002Y14250
X29802Y15600
X28902Y16550
X26252Y15600
X22752Y15600
X19252Y15600
X20152Y18350
X19202Y18750
X22702Y18750
X26202Y18750
X29802Y18750
X29802Y12300
X29702Y5800
X15702Y15600
X12252Y15600
X8702Y15600
X5902Y17500
X5202Y18750
X3252Y18850
X5352Y15600
X8702Y18750
X12202Y18750
X15752Y18750
X5302Y9050
T02
X13752Y1500
X14752Y1500
X15752Y1500
X16752Y1500
X17752Y1500
X18752Y1500
X19752Y1500
X20752Y1500
X22752Y1500
X23752Y1500
X24752Y1500
X25752Y1500
X26752Y1500
X27752Y1500
X27752Y20500
X26752Y20500
X25752Y20500
X24752Y20500
X23752Y20500
X22752Y20500
X21752Y20500
X20752Y20500
X19252Y20500
X18252Y20500
X17252Y20500
X16252Y20500
X15252Y20500
X14252Y20500
X13252Y20500
X12252Y20500
X11252Y20500
X10252Y20500
T03
X6563Y2000
X7941Y2000
X10052Y2500
X11052Y2500
X12052Y2500
X13752Y2500
X14752Y2500
X15752Y2500
X16752Y2500
X17752Y2500
X18752Y2500
X19752Y2500
X20752Y2500
X22752Y2500
X23752Y2500
X24752Y2500
X25752Y2500
X26752Y2500
X27752Y2500
X29402Y3000
X27752Y19500
X26752Y19500
X25752Y19500
X24752Y19500
X23752Y19500
X22752Y19500
X21752Y19500
X20752Y19500
X19252Y19500
X18252Y19500
X17252Y19500
X16252Y19500
X15252Y19500
X14252Y19500
X13252Y19500
X12252Y19500
X11252Y19500
X10252Y19500
M30
