G75*
%MOIN*%
%OFA0B0*%
%FSLAX24Y24*%
%IPPOS*%
%LPD*%
%AMOC8*
5,1,8,0,0,1.08239X$1,22.5*
%
%ADD10OC8,0.0740*%
%ADD11C,0.0513*%
%ADD12R,0.0513X0.0474*%
%ADD13C,0.0880*%
%ADD14R,0.0880X0.0880*%
%ADD15R,0.0820X0.0820*%
%ADD16C,0.0820*%
%ADD17R,0.0690X0.0592*%
D10*
X013752Y001500D03*
X014752Y001500D03*
X015752Y001500D03*
X016752Y001500D03*
X017752Y001500D03*
X018752Y001500D03*
X019752Y001500D03*
X020752Y001500D03*
X022752Y001500D03*
X023752Y001500D03*
X024752Y001500D03*
X025752Y001500D03*
X026752Y001500D03*
X027752Y001500D03*
X027752Y020500D03*
X026752Y020500D03*
X025752Y020500D03*
X024752Y020500D03*
X023752Y020500D03*
X022752Y020500D03*
X021752Y020500D03*
X020752Y020500D03*
X019252Y020500D03*
X018252Y020500D03*
X017252Y020500D03*
X016252Y020500D03*
X015252Y020500D03*
X014252Y020500D03*
X013252Y020500D03*
X012252Y020500D03*
X011252Y020500D03*
X010252Y020500D03*
D11*
X003484Y003831D02*
X003130Y003831D01*
X003484Y003831D02*
X003484Y003831D01*
X003130Y003831D01*
X003130Y003831D01*
X003130Y005169D02*
X003484Y005169D01*
X003484Y005169D01*
X003130Y005169D01*
X003130Y005169D01*
X005020Y005169D02*
X005374Y005169D01*
X005374Y005169D01*
X005020Y005169D01*
X005020Y005169D01*
X005020Y003831D02*
X005374Y003831D01*
X005374Y003831D01*
X005020Y003831D01*
X005020Y003831D01*
X006630Y003831D02*
X006984Y003831D01*
X006984Y003831D01*
X006630Y003831D01*
X006630Y003831D01*
X006630Y005169D02*
X006984Y005169D01*
X006984Y005169D01*
X006630Y005169D01*
X006630Y005169D01*
X008520Y005169D02*
X008874Y005169D01*
X008874Y005169D01*
X008520Y005169D01*
X008520Y005169D01*
X010130Y005169D02*
X010484Y005169D01*
X010484Y005169D01*
X010130Y005169D01*
X010130Y005169D01*
X010130Y003831D02*
X010484Y003831D01*
X010484Y003831D01*
X010130Y003831D01*
X010130Y003831D01*
X008874Y003831D02*
X008520Y003831D01*
X008874Y003831D02*
X008874Y003831D01*
X008520Y003831D01*
X008520Y003831D01*
X012020Y003831D02*
X012374Y003831D01*
X012374Y003831D01*
X012020Y003831D01*
X012020Y003831D01*
X012020Y005169D02*
X012374Y005169D01*
X012374Y005169D01*
X012020Y005169D01*
X012020Y005169D01*
X013630Y005169D02*
X013984Y005169D01*
X013984Y005169D01*
X013630Y005169D01*
X013630Y005169D01*
X013630Y003831D02*
X013984Y003831D01*
X013984Y003831D01*
X013630Y003831D01*
X013630Y003831D01*
X015520Y003831D02*
X015874Y003831D01*
X015874Y003831D01*
X015520Y003831D01*
X015520Y003831D01*
X017130Y003831D02*
X017484Y003831D01*
X017484Y003831D01*
X017130Y003831D01*
X017130Y003831D01*
X017130Y005169D02*
X017484Y005169D01*
X017484Y005169D01*
X017130Y005169D01*
X017130Y005169D01*
X015874Y005169D02*
X015520Y005169D01*
X015874Y005169D02*
X015874Y005169D01*
X015520Y005169D01*
X015520Y005169D01*
X015520Y007081D02*
X015874Y007081D01*
X015874Y007081D01*
X015520Y007081D01*
X015520Y007081D01*
X017130Y007081D02*
X017484Y007081D01*
X017484Y007081D01*
X017130Y007081D01*
X017130Y007081D01*
X017130Y008419D02*
X017484Y008419D01*
X017484Y008419D01*
X017130Y008419D01*
X017130Y008419D01*
X015874Y008419D02*
X015520Y008419D01*
X015874Y008419D02*
X015874Y008419D01*
X015520Y008419D01*
X015520Y008419D01*
X013984Y008419D02*
X013630Y008419D01*
X013984Y008419D02*
X013984Y008419D01*
X013630Y008419D01*
X013630Y008419D01*
X012374Y008419D02*
X012020Y008419D01*
X012374Y008419D02*
X012374Y008419D01*
X012020Y008419D01*
X012020Y008419D01*
X012020Y007081D02*
X012374Y007081D01*
X012374Y007081D01*
X012020Y007081D01*
X012020Y007081D01*
X010484Y007081D02*
X010130Y007081D01*
X010484Y007081D02*
X010484Y007081D01*
X010130Y007081D01*
X010130Y007081D01*
X008874Y007081D02*
X008520Y007081D01*
X008874Y007081D02*
X008874Y007081D01*
X008520Y007081D01*
X008520Y007081D01*
X008520Y008419D02*
X008874Y008419D01*
X008874Y008419D01*
X008520Y008419D01*
X008520Y008419D01*
X010130Y008419D02*
X010484Y008419D01*
X010484Y008419D01*
X010130Y008419D01*
X010130Y008419D01*
X010130Y010331D02*
X010484Y010331D01*
X010484Y010331D01*
X010130Y010331D01*
X010130Y010331D01*
X008874Y010331D02*
X008520Y010331D01*
X008874Y010331D02*
X008874Y010331D01*
X008520Y010331D01*
X008520Y010331D01*
X008520Y011669D02*
X008874Y011669D01*
X008874Y011669D01*
X008520Y011669D01*
X008520Y011669D01*
X010130Y011669D02*
X010484Y011669D01*
X010484Y011669D01*
X010130Y011669D01*
X010130Y011669D01*
X012020Y011669D02*
X012374Y011669D01*
X012374Y011669D01*
X012020Y011669D01*
X012020Y011669D01*
X012020Y010331D02*
X012374Y010331D01*
X012374Y010331D01*
X012020Y010331D01*
X012020Y010331D01*
X013630Y010331D02*
X013984Y010331D01*
X013984Y010331D01*
X013630Y010331D01*
X013630Y010331D01*
X013630Y011669D02*
X013984Y011669D01*
X013984Y011669D01*
X013630Y011669D01*
X013630Y011669D01*
X015520Y011669D02*
X015874Y011669D01*
X015874Y011669D01*
X015520Y011669D01*
X015520Y011669D01*
X017130Y011669D02*
X017484Y011669D01*
X017484Y011669D01*
X017130Y011669D01*
X017130Y011669D01*
X017130Y010331D02*
X017484Y010331D01*
X017484Y010331D01*
X017130Y010331D01*
X017130Y010331D01*
X015874Y010331D02*
X015520Y010331D01*
X015874Y010331D02*
X015874Y010331D01*
X015520Y010331D01*
X015520Y010331D01*
X019020Y010331D02*
X019374Y010331D01*
X019374Y010331D01*
X019020Y010331D01*
X019020Y010331D01*
X019020Y011669D02*
X019374Y011669D01*
X019374Y011669D01*
X019020Y011669D01*
X019020Y011669D01*
X020630Y011669D02*
X020984Y011669D01*
X020984Y011669D01*
X020630Y011669D01*
X020630Y011669D01*
X020630Y010331D02*
X020984Y010331D01*
X020984Y010331D01*
X020630Y010331D01*
X020630Y010331D01*
X022520Y010331D02*
X022874Y010331D01*
X022874Y010331D01*
X022520Y010331D01*
X022520Y010331D01*
X024130Y010331D02*
X024484Y010331D01*
X024484Y010331D01*
X024130Y010331D01*
X024130Y010331D01*
X024130Y011669D02*
X024484Y011669D01*
X024484Y011669D01*
X024130Y011669D01*
X024130Y011669D01*
X022874Y011669D02*
X022520Y011669D01*
X022874Y011669D02*
X022874Y011669D01*
X022520Y011669D01*
X022520Y011669D01*
X022520Y013581D02*
X022874Y013581D01*
X022874Y013581D01*
X022520Y013581D01*
X022520Y013581D01*
X024130Y013581D02*
X024484Y013581D01*
X024484Y013581D01*
X024130Y013581D01*
X024130Y013581D01*
X024130Y014919D02*
X024484Y014919D01*
X024484Y014919D01*
X024130Y014919D01*
X024130Y014919D01*
X022874Y014919D02*
X022520Y014919D01*
X022874Y014919D02*
X022874Y014919D01*
X022520Y014919D01*
X022520Y014919D01*
X020984Y014919D02*
X020630Y014919D01*
X020984Y014919D02*
X020984Y014919D01*
X020630Y014919D01*
X020630Y014919D01*
X019374Y014919D02*
X019020Y014919D01*
X019374Y014919D02*
X019374Y014919D01*
X019020Y014919D01*
X019020Y014919D01*
X019020Y013581D02*
X019374Y013581D01*
X019374Y013581D01*
X019020Y013581D01*
X019020Y013581D01*
X017484Y013581D02*
X017130Y013581D01*
X017484Y013581D02*
X017484Y013581D01*
X017130Y013581D01*
X017130Y013581D01*
X015874Y013581D02*
X015520Y013581D01*
X015874Y013581D02*
X015874Y013581D01*
X015520Y013581D01*
X015520Y013581D01*
X015520Y014919D02*
X015874Y014919D01*
X015874Y014919D01*
X015520Y014919D01*
X015520Y014919D01*
X017130Y014919D02*
X017484Y014919D01*
X017484Y014919D01*
X017130Y014919D01*
X017130Y014919D01*
X017130Y016831D02*
X017484Y016831D01*
X017484Y016831D01*
X017130Y016831D01*
X017130Y016831D01*
X015874Y016831D02*
X015520Y016831D01*
X015874Y016831D02*
X015874Y016831D01*
X015520Y016831D01*
X015520Y016831D01*
X015520Y018169D02*
X015874Y018169D01*
X015874Y018169D01*
X015520Y018169D01*
X015520Y018169D01*
X017130Y018169D02*
X017484Y018169D01*
X017484Y018169D01*
X017130Y018169D01*
X017130Y018169D01*
X019020Y018169D02*
X019374Y018169D01*
X019374Y018169D01*
X019020Y018169D01*
X019020Y018169D01*
X019020Y016831D02*
X019374Y016831D01*
X019374Y016831D01*
X019020Y016831D01*
X019020Y016831D01*
X020630Y016831D02*
X020984Y016831D01*
X020984Y016831D01*
X020630Y016831D01*
X020630Y016831D01*
X020630Y018169D02*
X020984Y018169D01*
X020984Y018169D01*
X020630Y018169D01*
X020630Y018169D01*
X022520Y018169D02*
X022874Y018169D01*
X022874Y018169D01*
X022520Y018169D01*
X022520Y018169D01*
X024130Y018169D02*
X024484Y018169D01*
X024484Y018169D01*
X024130Y018169D01*
X024130Y018169D01*
X024130Y016831D02*
X024484Y016831D01*
X024484Y016831D01*
X024130Y016831D01*
X024130Y016831D01*
X022874Y016831D02*
X022520Y016831D01*
X022874Y016831D02*
X022874Y016831D01*
X022520Y016831D01*
X022520Y016831D01*
X026020Y016831D02*
X026374Y016831D01*
X026374Y016831D01*
X026020Y016831D01*
X026020Y016831D01*
X026020Y018169D02*
X026374Y018169D01*
X026374Y018169D01*
X026020Y018169D01*
X026020Y018169D01*
X027630Y018169D02*
X027984Y018169D01*
X027984Y018169D01*
X027630Y018169D01*
X027630Y018169D01*
X027630Y016831D02*
X027984Y016831D01*
X027984Y016831D01*
X027630Y016831D01*
X027630Y016831D01*
X029520Y016831D02*
X029874Y016831D01*
X029874Y016831D01*
X029520Y016831D01*
X029520Y016831D01*
X029520Y018169D02*
X029874Y018169D01*
X029874Y018169D01*
X029520Y018169D01*
X029520Y018169D01*
X029520Y014919D02*
X029874Y014919D01*
X029874Y014919D01*
X029520Y014919D01*
X029520Y014919D01*
X029520Y013581D02*
X029874Y013581D01*
X029874Y013581D01*
X029520Y013581D01*
X029520Y013581D01*
X027984Y013581D02*
X027630Y013581D01*
X027984Y013581D02*
X027984Y013581D01*
X027630Y013581D01*
X027630Y013581D01*
X026374Y013581D02*
X026020Y013581D01*
X026374Y013581D02*
X026374Y013581D01*
X026020Y013581D01*
X026020Y013581D01*
X026020Y014919D02*
X026374Y014919D01*
X026374Y014919D01*
X026020Y014919D01*
X026020Y014919D01*
X027630Y014919D02*
X027984Y014919D01*
X027984Y014919D01*
X027630Y014919D01*
X027630Y014919D01*
X027630Y011669D02*
X027984Y011669D01*
X027984Y011669D01*
X027630Y011669D01*
X027630Y011669D01*
X026374Y011669D02*
X026020Y011669D01*
X026374Y011669D02*
X026374Y011669D01*
X026020Y011669D01*
X026020Y011669D01*
X026020Y010331D02*
X026374Y010331D01*
X026374Y010331D01*
X026020Y010331D01*
X026020Y010331D01*
X027630Y010331D02*
X027984Y010331D01*
X027984Y010331D01*
X027630Y010331D01*
X027630Y010331D01*
X029520Y010331D02*
X029874Y010331D01*
X029874Y010331D01*
X029520Y010331D01*
X029520Y010331D01*
X029520Y011669D02*
X029874Y011669D01*
X029874Y011669D01*
X029520Y011669D01*
X029520Y011669D01*
X029520Y008419D02*
X029874Y008419D01*
X029874Y008419D01*
X029520Y008419D01*
X029520Y008419D01*
X029520Y007081D02*
X029874Y007081D01*
X029874Y007081D01*
X029520Y007081D01*
X029520Y007081D01*
X027984Y007081D02*
X027630Y007081D01*
X027984Y007081D02*
X027984Y007081D01*
X027630Y007081D01*
X027630Y007081D01*
X026374Y007081D02*
X026020Y007081D01*
X026374Y007081D02*
X026374Y007081D01*
X026020Y007081D01*
X026020Y007081D01*
X026020Y008419D02*
X026374Y008419D01*
X026374Y008419D01*
X026020Y008419D01*
X026020Y008419D01*
X024484Y008419D02*
X024130Y008419D01*
X024484Y008419D02*
X024484Y008419D01*
X024130Y008419D01*
X024130Y008419D01*
X022874Y008419D02*
X022520Y008419D01*
X022874Y008419D02*
X022874Y008419D01*
X022520Y008419D01*
X022520Y008419D01*
X022520Y007081D02*
X022874Y007081D01*
X022874Y007081D01*
X022520Y007081D01*
X022520Y007081D01*
X024130Y007081D02*
X024484Y007081D01*
X024484Y007081D01*
X024130Y007081D01*
X024130Y007081D01*
X024130Y005169D02*
X024484Y005169D01*
X024484Y005169D01*
X024130Y005169D01*
X024130Y005169D01*
X022874Y005169D02*
X022520Y005169D01*
X022874Y005169D02*
X022874Y005169D01*
X022520Y005169D01*
X022520Y005169D01*
X022520Y003831D02*
X022874Y003831D01*
X022874Y003831D01*
X022520Y003831D01*
X022520Y003831D01*
X024130Y003831D02*
X024484Y003831D01*
X024484Y003831D01*
X024130Y003831D01*
X024130Y003831D01*
X026020Y003831D02*
X026374Y003831D01*
X026374Y003831D01*
X026020Y003831D01*
X026020Y003831D01*
X026020Y005169D02*
X026374Y005169D01*
X026374Y005169D01*
X026020Y005169D01*
X026020Y005169D01*
X027630Y005169D02*
X027984Y005169D01*
X027984Y005169D01*
X027630Y005169D01*
X027630Y005169D01*
X027630Y003831D02*
X027984Y003831D01*
X027984Y003831D01*
X027630Y003831D01*
X027630Y003831D01*
X029520Y003831D02*
X029874Y003831D01*
X029874Y003831D01*
X029520Y003831D01*
X029520Y003831D01*
X029520Y005169D02*
X029874Y005169D01*
X029874Y005169D01*
X029520Y005169D01*
X029520Y005169D01*
X027984Y008419D02*
X027630Y008419D01*
X027984Y008419D02*
X027984Y008419D01*
X027630Y008419D01*
X027630Y008419D01*
X020984Y008419D02*
X020630Y008419D01*
X020984Y008419D02*
X020984Y008419D01*
X020630Y008419D01*
X020630Y008419D01*
X019374Y008419D02*
X019020Y008419D01*
X019374Y008419D02*
X019374Y008419D01*
X019020Y008419D01*
X019020Y008419D01*
X019020Y007081D02*
X019374Y007081D01*
X019374Y007081D01*
X019020Y007081D01*
X019020Y007081D01*
X020630Y007081D02*
X020984Y007081D01*
X020984Y007081D01*
X020630Y007081D01*
X020630Y007081D01*
X020630Y005169D02*
X020984Y005169D01*
X020984Y005169D01*
X020630Y005169D01*
X020630Y005169D01*
X019374Y005169D02*
X019020Y005169D01*
X019374Y005169D02*
X019374Y005169D01*
X019020Y005169D01*
X019020Y005169D01*
X019020Y003831D02*
X019374Y003831D01*
X019374Y003831D01*
X019020Y003831D01*
X019020Y003831D01*
X020630Y003831D02*
X020984Y003831D01*
X020984Y003831D01*
X020630Y003831D01*
X020630Y003831D01*
X013984Y007081D02*
X013630Y007081D01*
X013984Y007081D02*
X013984Y007081D01*
X013630Y007081D01*
X013630Y007081D01*
X006984Y007081D02*
X006630Y007081D01*
X006984Y007081D02*
X006984Y007081D01*
X006630Y007081D01*
X006630Y007081D01*
X005374Y007081D02*
X005020Y007081D01*
X005374Y007081D02*
X005374Y007081D01*
X005020Y007081D01*
X005020Y007081D01*
X005020Y008419D02*
X005374Y008419D01*
X005374Y008419D01*
X005020Y008419D01*
X005020Y008419D01*
X003484Y008419D02*
X003130Y008419D01*
X003484Y008419D02*
X003484Y008419D01*
X003130Y008419D01*
X003130Y008419D01*
X003130Y007081D02*
X003484Y007081D01*
X003484Y007081D01*
X003130Y007081D01*
X003130Y007081D01*
X006630Y008419D02*
X006984Y008419D01*
X006984Y008419D01*
X006630Y008419D01*
X006630Y008419D01*
X006630Y010331D02*
X006984Y010331D01*
X006984Y010331D01*
X006630Y010331D01*
X006630Y010331D01*
X005374Y010331D02*
X005020Y010331D01*
X005374Y010331D02*
X005374Y010331D01*
X005020Y010331D01*
X005020Y010331D01*
X005020Y011669D02*
X005374Y011669D01*
X005374Y011669D01*
X005020Y011669D01*
X005020Y011669D01*
X003484Y011669D02*
X003130Y011669D01*
X003484Y011669D02*
X003484Y011669D01*
X003130Y011669D01*
X003130Y011669D01*
X003130Y010331D02*
X003484Y010331D01*
X003484Y010331D01*
X003130Y010331D01*
X003130Y010331D01*
X006630Y011669D02*
X006984Y011669D01*
X006984Y011669D01*
X006630Y011669D01*
X006630Y011669D01*
X006630Y013581D02*
X006984Y013581D01*
X006984Y013581D01*
X006630Y013581D01*
X006630Y013581D01*
X005374Y013581D02*
X005020Y013581D01*
X005374Y013581D02*
X005374Y013581D01*
X005020Y013581D01*
X005020Y013581D01*
X005020Y014919D02*
X005374Y014919D01*
X005374Y014919D01*
X005020Y014919D01*
X005020Y014919D01*
X003484Y014919D02*
X003130Y014919D01*
X003484Y014919D02*
X003484Y014919D01*
X003130Y014919D01*
X003130Y014919D01*
X003130Y013581D02*
X003484Y013581D01*
X003484Y013581D01*
X003130Y013581D01*
X003130Y013581D01*
X006630Y014919D02*
X006984Y014919D01*
X006984Y014919D01*
X006630Y014919D01*
X006630Y014919D01*
X008520Y014919D02*
X008874Y014919D01*
X008874Y014919D01*
X008520Y014919D01*
X008520Y014919D01*
X010130Y014919D02*
X010484Y014919D01*
X010484Y014919D01*
X010130Y014919D01*
X010130Y014919D01*
X010130Y013581D02*
X010484Y013581D01*
X010484Y013581D01*
X010130Y013581D01*
X010130Y013581D01*
X008874Y013581D02*
X008520Y013581D01*
X008874Y013581D02*
X008874Y013581D01*
X008520Y013581D01*
X008520Y013581D01*
X012020Y013581D02*
X012374Y013581D01*
X012374Y013581D01*
X012020Y013581D01*
X012020Y013581D01*
X012020Y014919D02*
X012374Y014919D01*
X012374Y014919D01*
X012020Y014919D01*
X012020Y014919D01*
X013630Y014919D02*
X013984Y014919D01*
X013984Y014919D01*
X013630Y014919D01*
X013630Y014919D01*
X013630Y013581D02*
X013984Y013581D01*
X013984Y013581D01*
X013630Y013581D01*
X013630Y013581D01*
X013630Y016831D02*
X013984Y016831D01*
X013984Y016831D01*
X013630Y016831D01*
X013630Y016831D01*
X012374Y016831D02*
X012020Y016831D01*
X012374Y016831D02*
X012374Y016831D01*
X012020Y016831D01*
X012020Y016831D01*
X012020Y018169D02*
X012374Y018169D01*
X012374Y018169D01*
X012020Y018169D01*
X012020Y018169D01*
X010484Y018169D02*
X010130Y018169D01*
X010484Y018169D02*
X010484Y018169D01*
X010130Y018169D01*
X010130Y018169D01*
X008874Y018169D02*
X008520Y018169D01*
X008874Y018169D02*
X008874Y018169D01*
X008520Y018169D01*
X008520Y018169D01*
X008520Y016831D02*
X008874Y016831D01*
X008874Y016831D01*
X008520Y016831D01*
X008520Y016831D01*
X010130Y016831D02*
X010484Y016831D01*
X010484Y016831D01*
X010130Y016831D01*
X010130Y016831D01*
X006984Y016831D02*
X006630Y016831D01*
X006984Y016831D02*
X006984Y016831D01*
X006630Y016831D01*
X006630Y016831D01*
X005374Y016831D02*
X005020Y016831D01*
X005374Y016831D02*
X005374Y016831D01*
X005020Y016831D01*
X005020Y016831D01*
X005020Y018169D02*
X005374Y018169D01*
X005374Y018169D01*
X005020Y018169D01*
X005020Y018169D01*
X003484Y018169D02*
X003130Y018169D01*
X003484Y018169D02*
X003484Y018169D01*
X003130Y018169D01*
X003130Y018169D01*
X003130Y016831D02*
X003484Y016831D01*
X003484Y016831D01*
X003130Y016831D01*
X003130Y016831D01*
X006630Y018169D02*
X006984Y018169D01*
X006984Y018169D01*
X006630Y018169D01*
X006630Y018169D01*
X013630Y018169D02*
X013984Y018169D01*
X013984Y018169D01*
X013630Y018169D01*
X013630Y018169D01*
X020630Y013581D02*
X020984Y013581D01*
X020984Y013581D01*
X020630Y013581D01*
X020630Y013581D01*
D12*
X021418Y012350D03*
X022087Y012350D03*
X024918Y012350D03*
X025587Y012350D03*
X028418Y012350D03*
X029087Y012350D03*
X029087Y009100D03*
X028418Y009100D03*
X025587Y009100D03*
X024918Y009100D03*
X022087Y009100D03*
X021418Y009100D03*
X018587Y009100D03*
X017918Y009100D03*
X015087Y009100D03*
X014418Y009100D03*
X011587Y009100D03*
X010918Y009100D03*
X008087Y009100D03*
X007418Y009100D03*
X004637Y009100D03*
X003968Y009100D03*
X003968Y012350D03*
X004637Y012350D03*
X007418Y012350D03*
X008087Y012350D03*
X010918Y012350D03*
X011587Y012350D03*
X014418Y012350D03*
X015087Y012350D03*
X017918Y012350D03*
X018587Y012350D03*
X018587Y015600D03*
X017918Y015600D03*
X015037Y015600D03*
X014368Y015600D03*
X011587Y015600D03*
X010918Y015600D03*
X008087Y015600D03*
X007418Y015600D03*
X004637Y015600D03*
X003968Y015600D03*
X003968Y018750D03*
X004637Y018750D03*
X007418Y018750D03*
X008087Y018750D03*
X010918Y018750D03*
X011587Y018750D03*
X014418Y018750D03*
X015087Y018750D03*
X017918Y018750D03*
X018587Y018750D03*
X021418Y018750D03*
X022087Y018750D03*
X024918Y018750D03*
X025587Y018750D03*
X028418Y018750D03*
X029087Y018750D03*
X029087Y015600D03*
X028418Y015600D03*
X025587Y015600D03*
X024918Y015600D03*
X022087Y015600D03*
X021418Y015600D03*
X021418Y005800D03*
X022087Y005800D03*
X024918Y005800D03*
X025587Y005800D03*
X028418Y005800D03*
X029087Y005800D03*
X018587Y005800D03*
X017918Y005800D03*
X015087Y005800D03*
X014418Y005800D03*
X011587Y005800D03*
X010918Y005800D03*
X008087Y005800D03*
X007418Y005800D03*
X004637Y005800D03*
X003968Y005800D03*
D13*
X007941Y002000D03*
D14*
X006563Y002000D03*
D15*
X012052Y002500D03*
X020752Y002500D03*
X027752Y002500D03*
X020752Y019500D03*
X010252Y019500D03*
D16*
X011252Y019500D03*
X012252Y019500D03*
X013252Y019500D03*
X014252Y019500D03*
X015252Y019500D03*
X016252Y019500D03*
X017252Y019500D03*
X018252Y019500D03*
X019252Y019500D03*
X021752Y019500D03*
X022752Y019500D03*
X023752Y019500D03*
X024752Y019500D03*
X025752Y019500D03*
X026752Y019500D03*
X027752Y019500D03*
X029402Y003000D03*
X026752Y002500D03*
X025752Y002500D03*
X024752Y002500D03*
X023752Y002500D03*
X022752Y002500D03*
X019752Y002500D03*
X018752Y002500D03*
X017752Y002500D03*
X016752Y002500D03*
X015752Y002500D03*
X014752Y002500D03*
X013752Y002500D03*
X011052Y002500D03*
X010052Y002500D03*
D17*
X008267Y019314D03*
X008267Y021086D03*
X005137Y021086D03*
X005137Y019314D03*
M02*
