G75*
%MOIN*%
%OFA0B0*%
%FSLAX24Y24*%
%IPPOS*%
%LPD*%
%AMOC8*
5,1,8,0,0,1.08239X$1,22.5*
%
%ADD10C,0.0433*%
%ADD11R,0.0610X0.0512*%
D10*
X003130Y003831D02*
X003484Y003831D01*
X003484Y003831D01*
X003130Y003831D01*
X003130Y003831D01*
X003130Y004500D02*
X003484Y004500D01*
X003484Y004500D01*
X003130Y004500D01*
X003130Y004500D01*
X003130Y005169D02*
X003484Y005169D01*
X003484Y005169D01*
X003130Y005169D01*
X003130Y005169D01*
X005020Y005169D02*
X005374Y005169D01*
X005374Y005169D01*
X005020Y005169D01*
X005020Y005169D01*
X005020Y004500D02*
X005374Y004500D01*
X005374Y004500D01*
X005020Y004500D01*
X005020Y004500D01*
X005020Y003831D02*
X005374Y003831D01*
X005374Y003831D01*
X005020Y003831D01*
X005020Y003831D01*
X006630Y003831D02*
X006984Y003831D01*
X006984Y003831D01*
X006630Y003831D01*
X006630Y003831D01*
X006630Y004500D02*
X006984Y004500D01*
X006984Y004500D01*
X006630Y004500D01*
X006630Y004500D01*
X006630Y005169D02*
X006984Y005169D01*
X006984Y005169D01*
X006630Y005169D01*
X006630Y005169D01*
X008520Y005169D02*
X008874Y005169D01*
X008874Y005169D01*
X008520Y005169D01*
X008520Y005169D01*
X008520Y004500D02*
X008874Y004500D01*
X008874Y004500D01*
X008520Y004500D01*
X008520Y004500D01*
X008520Y003831D02*
X008874Y003831D01*
X008874Y003831D01*
X008520Y003831D01*
X008520Y003831D01*
X010130Y003831D02*
X010484Y003831D01*
X010484Y003831D01*
X010130Y003831D01*
X010130Y003831D01*
X010130Y004500D02*
X010484Y004500D01*
X010484Y004500D01*
X010130Y004500D01*
X010130Y004500D01*
X010130Y005169D02*
X010484Y005169D01*
X010484Y005169D01*
X010130Y005169D01*
X010130Y005169D01*
X012020Y005169D02*
X012374Y005169D01*
X012374Y005169D01*
X012020Y005169D01*
X012020Y005169D01*
X012020Y004500D02*
X012374Y004500D01*
X012374Y004500D01*
X012020Y004500D01*
X012020Y004500D01*
X012020Y003831D02*
X012374Y003831D01*
X012374Y003831D01*
X012020Y003831D01*
X012020Y003831D01*
X013630Y003831D02*
X013984Y003831D01*
X013984Y003831D01*
X013630Y003831D01*
X013630Y003831D01*
X013630Y004500D02*
X013984Y004500D01*
X013984Y004500D01*
X013630Y004500D01*
X013630Y004500D01*
X013630Y005169D02*
X013984Y005169D01*
X013984Y005169D01*
X013630Y005169D01*
X013630Y005169D01*
X015520Y005169D02*
X015874Y005169D01*
X015874Y005169D01*
X015520Y005169D01*
X015520Y005169D01*
X015520Y004500D02*
X015874Y004500D01*
X015874Y004500D01*
X015520Y004500D01*
X015520Y004500D01*
X015520Y003831D02*
X015874Y003831D01*
X015874Y003831D01*
X015520Y003831D01*
X015520Y003831D01*
X017130Y003831D02*
X017484Y003831D01*
X017484Y003831D01*
X017130Y003831D01*
X017130Y003831D01*
X017130Y004500D02*
X017484Y004500D01*
X017484Y004500D01*
X017130Y004500D01*
X017130Y004500D01*
X017130Y005169D02*
X017484Y005169D01*
X017484Y005169D01*
X017130Y005169D01*
X017130Y005169D01*
X019020Y005169D02*
X019374Y005169D01*
X019374Y005169D01*
X019020Y005169D01*
X019020Y005169D01*
X019020Y004500D02*
X019374Y004500D01*
X019374Y004500D01*
X019020Y004500D01*
X019020Y004500D01*
X019020Y003831D02*
X019374Y003831D01*
X019374Y003831D01*
X019020Y003831D01*
X019020Y003831D01*
X020630Y003831D02*
X020984Y003831D01*
X020984Y003831D01*
X020630Y003831D01*
X020630Y003831D01*
X020630Y004500D02*
X020984Y004500D01*
X020984Y004500D01*
X020630Y004500D01*
X020630Y004500D01*
X020630Y005169D02*
X020984Y005169D01*
X020984Y005169D01*
X020630Y005169D01*
X020630Y005169D01*
X022520Y005169D02*
X022874Y005169D01*
X022874Y005169D01*
X022520Y005169D01*
X022520Y005169D01*
X022520Y004500D02*
X022874Y004500D01*
X022874Y004500D01*
X022520Y004500D01*
X022520Y004500D01*
X022520Y003831D02*
X022874Y003831D01*
X022874Y003831D01*
X022520Y003831D01*
X022520Y003831D01*
X024130Y003831D02*
X024484Y003831D01*
X024484Y003831D01*
X024130Y003831D01*
X024130Y003831D01*
X024130Y004500D02*
X024484Y004500D01*
X024484Y004500D01*
X024130Y004500D01*
X024130Y004500D01*
X024130Y005169D02*
X024484Y005169D01*
X024484Y005169D01*
X024130Y005169D01*
X024130Y005169D01*
X026020Y005169D02*
X026374Y005169D01*
X026374Y005169D01*
X026020Y005169D01*
X026020Y005169D01*
X026020Y004500D02*
X026374Y004500D01*
X026374Y004500D01*
X026020Y004500D01*
X026020Y004500D01*
X026020Y003831D02*
X026374Y003831D01*
X026374Y003831D01*
X026020Y003831D01*
X026020Y003831D01*
X027630Y003831D02*
X027984Y003831D01*
X027984Y003831D01*
X027630Y003831D01*
X027630Y003831D01*
X027630Y004500D02*
X027984Y004500D01*
X027984Y004500D01*
X027630Y004500D01*
X027630Y004500D01*
X027630Y005169D02*
X027984Y005169D01*
X027984Y005169D01*
X027630Y005169D01*
X027630Y005169D01*
X029520Y005169D02*
X029874Y005169D01*
X029874Y005169D01*
X029520Y005169D01*
X029520Y005169D01*
X029520Y004500D02*
X029874Y004500D01*
X029874Y004500D01*
X029520Y004500D01*
X029520Y004500D01*
X029520Y003831D02*
X029874Y003831D01*
X029874Y003831D01*
X029520Y003831D01*
X029520Y003831D01*
X029520Y007081D02*
X029874Y007081D01*
X029874Y007081D01*
X029520Y007081D01*
X029520Y007081D01*
X029520Y007750D02*
X029874Y007750D01*
X029874Y007750D01*
X029520Y007750D01*
X029520Y007750D01*
X029520Y008419D02*
X029874Y008419D01*
X029874Y008419D01*
X029520Y008419D01*
X029520Y008419D01*
X027984Y008419D02*
X027630Y008419D01*
X027984Y008419D02*
X027984Y008419D01*
X027630Y008419D01*
X027630Y008419D01*
X027630Y007750D02*
X027984Y007750D01*
X027984Y007750D01*
X027630Y007750D01*
X027630Y007750D01*
X027630Y007081D02*
X027984Y007081D01*
X027984Y007081D01*
X027630Y007081D01*
X027630Y007081D01*
X026374Y007081D02*
X026020Y007081D01*
X026374Y007081D02*
X026374Y007081D01*
X026020Y007081D01*
X026020Y007081D01*
X026020Y007750D02*
X026374Y007750D01*
X026374Y007750D01*
X026020Y007750D01*
X026020Y007750D01*
X026020Y008419D02*
X026374Y008419D01*
X026374Y008419D01*
X026020Y008419D01*
X026020Y008419D01*
X024484Y008419D02*
X024130Y008419D01*
X024484Y008419D02*
X024484Y008419D01*
X024130Y008419D01*
X024130Y008419D01*
X024130Y007750D02*
X024484Y007750D01*
X024484Y007750D01*
X024130Y007750D01*
X024130Y007750D01*
X024130Y007081D02*
X024484Y007081D01*
X024484Y007081D01*
X024130Y007081D01*
X024130Y007081D01*
X022874Y007081D02*
X022520Y007081D01*
X022874Y007081D02*
X022874Y007081D01*
X022520Y007081D01*
X022520Y007081D01*
X022520Y007750D02*
X022874Y007750D01*
X022874Y007750D01*
X022520Y007750D01*
X022520Y007750D01*
X022520Y008419D02*
X022874Y008419D01*
X022874Y008419D01*
X022520Y008419D01*
X022520Y008419D01*
X020984Y008419D02*
X020630Y008419D01*
X020984Y008419D02*
X020984Y008419D01*
X020630Y008419D01*
X020630Y008419D01*
X020630Y007750D02*
X020984Y007750D01*
X020984Y007750D01*
X020630Y007750D01*
X020630Y007750D01*
X020630Y007081D02*
X020984Y007081D01*
X020984Y007081D01*
X020630Y007081D01*
X020630Y007081D01*
X019374Y007081D02*
X019020Y007081D01*
X019374Y007081D02*
X019374Y007081D01*
X019020Y007081D01*
X019020Y007081D01*
X019020Y007750D02*
X019374Y007750D01*
X019374Y007750D01*
X019020Y007750D01*
X019020Y007750D01*
X019020Y008419D02*
X019374Y008419D01*
X019374Y008419D01*
X019020Y008419D01*
X019020Y008419D01*
X017484Y008419D02*
X017130Y008419D01*
X017484Y008419D02*
X017484Y008419D01*
X017130Y008419D01*
X017130Y008419D01*
X017130Y007750D02*
X017484Y007750D01*
X017484Y007750D01*
X017130Y007750D01*
X017130Y007750D01*
X017130Y007081D02*
X017484Y007081D01*
X017484Y007081D01*
X017130Y007081D01*
X017130Y007081D01*
X015874Y007081D02*
X015520Y007081D01*
X015874Y007081D02*
X015874Y007081D01*
X015520Y007081D01*
X015520Y007081D01*
X015520Y007750D02*
X015874Y007750D01*
X015874Y007750D01*
X015520Y007750D01*
X015520Y007750D01*
X015520Y008419D02*
X015874Y008419D01*
X015874Y008419D01*
X015520Y008419D01*
X015520Y008419D01*
X013984Y008419D02*
X013630Y008419D01*
X013984Y008419D02*
X013984Y008419D01*
X013630Y008419D01*
X013630Y008419D01*
X013630Y007750D02*
X013984Y007750D01*
X013984Y007750D01*
X013630Y007750D01*
X013630Y007750D01*
X013630Y007081D02*
X013984Y007081D01*
X013984Y007081D01*
X013630Y007081D01*
X013630Y007081D01*
X012374Y007081D02*
X012020Y007081D01*
X012374Y007081D02*
X012374Y007081D01*
X012020Y007081D01*
X012020Y007081D01*
X012020Y007750D02*
X012374Y007750D01*
X012374Y007750D01*
X012020Y007750D01*
X012020Y007750D01*
X012020Y008419D02*
X012374Y008419D01*
X012374Y008419D01*
X012020Y008419D01*
X012020Y008419D01*
X010484Y008419D02*
X010130Y008419D01*
X010484Y008419D02*
X010484Y008419D01*
X010130Y008419D01*
X010130Y008419D01*
X010130Y007750D02*
X010484Y007750D01*
X010484Y007750D01*
X010130Y007750D01*
X010130Y007750D01*
X010130Y007081D02*
X010484Y007081D01*
X010484Y007081D01*
X010130Y007081D01*
X010130Y007081D01*
X008874Y007081D02*
X008520Y007081D01*
X008874Y007081D02*
X008874Y007081D01*
X008520Y007081D01*
X008520Y007081D01*
X008520Y007750D02*
X008874Y007750D01*
X008874Y007750D01*
X008520Y007750D01*
X008520Y007750D01*
X008520Y008419D02*
X008874Y008419D01*
X008874Y008419D01*
X008520Y008419D01*
X008520Y008419D01*
X006984Y008419D02*
X006630Y008419D01*
X006984Y008419D02*
X006984Y008419D01*
X006630Y008419D01*
X006630Y008419D01*
X006630Y007750D02*
X006984Y007750D01*
X006984Y007750D01*
X006630Y007750D01*
X006630Y007750D01*
X006630Y007081D02*
X006984Y007081D01*
X006984Y007081D01*
X006630Y007081D01*
X006630Y007081D01*
X005374Y007081D02*
X005020Y007081D01*
X005374Y007081D02*
X005374Y007081D01*
X005020Y007081D01*
X005020Y007081D01*
X005020Y007750D02*
X005374Y007750D01*
X005374Y007750D01*
X005020Y007750D01*
X005020Y007750D01*
X005020Y008419D02*
X005374Y008419D01*
X005374Y008419D01*
X005020Y008419D01*
X005020Y008419D01*
X003484Y008419D02*
X003130Y008419D01*
X003484Y008419D02*
X003484Y008419D01*
X003130Y008419D01*
X003130Y008419D01*
X003130Y007750D02*
X003484Y007750D01*
X003484Y007750D01*
X003130Y007750D01*
X003130Y007750D01*
X003130Y007081D02*
X003484Y007081D01*
X003484Y007081D01*
X003130Y007081D01*
X003130Y007081D01*
X003130Y010331D02*
X003484Y010331D01*
X003484Y010331D01*
X003130Y010331D01*
X003130Y010331D01*
X003130Y011000D02*
X003484Y011000D01*
X003484Y011000D01*
X003130Y011000D01*
X003130Y011000D01*
X003130Y011669D02*
X003484Y011669D01*
X003484Y011669D01*
X003130Y011669D01*
X003130Y011669D01*
X005020Y011669D02*
X005374Y011669D01*
X005374Y011669D01*
X005020Y011669D01*
X005020Y011669D01*
X005020Y011000D02*
X005374Y011000D01*
X005374Y011000D01*
X005020Y011000D01*
X005020Y011000D01*
X005020Y010331D02*
X005374Y010331D01*
X005374Y010331D01*
X005020Y010331D01*
X005020Y010331D01*
X006630Y010331D02*
X006984Y010331D01*
X006984Y010331D01*
X006630Y010331D01*
X006630Y010331D01*
X006630Y011000D02*
X006984Y011000D01*
X006984Y011000D01*
X006630Y011000D01*
X006630Y011000D01*
X006630Y011669D02*
X006984Y011669D01*
X006984Y011669D01*
X006630Y011669D01*
X006630Y011669D01*
X008520Y011669D02*
X008874Y011669D01*
X008874Y011669D01*
X008520Y011669D01*
X008520Y011669D01*
X008520Y011000D02*
X008874Y011000D01*
X008874Y011000D01*
X008520Y011000D01*
X008520Y011000D01*
X008520Y010331D02*
X008874Y010331D01*
X008874Y010331D01*
X008520Y010331D01*
X008520Y010331D01*
X010130Y010331D02*
X010484Y010331D01*
X010484Y010331D01*
X010130Y010331D01*
X010130Y010331D01*
X010130Y011000D02*
X010484Y011000D01*
X010484Y011000D01*
X010130Y011000D01*
X010130Y011000D01*
X010130Y011669D02*
X010484Y011669D01*
X010484Y011669D01*
X010130Y011669D01*
X010130Y011669D01*
X012020Y011669D02*
X012374Y011669D01*
X012374Y011669D01*
X012020Y011669D01*
X012020Y011669D01*
X012020Y011000D02*
X012374Y011000D01*
X012374Y011000D01*
X012020Y011000D01*
X012020Y011000D01*
X012020Y010331D02*
X012374Y010331D01*
X012374Y010331D01*
X012020Y010331D01*
X012020Y010331D01*
X013630Y010331D02*
X013984Y010331D01*
X013984Y010331D01*
X013630Y010331D01*
X013630Y010331D01*
X013630Y011000D02*
X013984Y011000D01*
X013984Y011000D01*
X013630Y011000D01*
X013630Y011000D01*
X013630Y011669D02*
X013984Y011669D01*
X013984Y011669D01*
X013630Y011669D01*
X013630Y011669D01*
X015520Y011669D02*
X015874Y011669D01*
X015874Y011669D01*
X015520Y011669D01*
X015520Y011669D01*
X015520Y011000D02*
X015874Y011000D01*
X015874Y011000D01*
X015520Y011000D01*
X015520Y011000D01*
X015520Y010331D02*
X015874Y010331D01*
X015874Y010331D01*
X015520Y010331D01*
X015520Y010331D01*
X017130Y010331D02*
X017484Y010331D01*
X017484Y010331D01*
X017130Y010331D01*
X017130Y010331D01*
X017130Y011000D02*
X017484Y011000D01*
X017484Y011000D01*
X017130Y011000D01*
X017130Y011000D01*
X017130Y011669D02*
X017484Y011669D01*
X017484Y011669D01*
X017130Y011669D01*
X017130Y011669D01*
X019020Y011669D02*
X019374Y011669D01*
X019374Y011669D01*
X019020Y011669D01*
X019020Y011669D01*
X019020Y011000D02*
X019374Y011000D01*
X019374Y011000D01*
X019020Y011000D01*
X019020Y011000D01*
X019020Y010331D02*
X019374Y010331D01*
X019374Y010331D01*
X019020Y010331D01*
X019020Y010331D01*
X020630Y010331D02*
X020984Y010331D01*
X020984Y010331D01*
X020630Y010331D01*
X020630Y010331D01*
X020630Y011000D02*
X020984Y011000D01*
X020984Y011000D01*
X020630Y011000D01*
X020630Y011000D01*
X020630Y011669D02*
X020984Y011669D01*
X020984Y011669D01*
X020630Y011669D01*
X020630Y011669D01*
X022520Y011669D02*
X022874Y011669D01*
X022874Y011669D01*
X022520Y011669D01*
X022520Y011669D01*
X022520Y011000D02*
X022874Y011000D01*
X022874Y011000D01*
X022520Y011000D01*
X022520Y011000D01*
X022520Y010331D02*
X022874Y010331D01*
X022874Y010331D01*
X022520Y010331D01*
X022520Y010331D01*
X024130Y010331D02*
X024484Y010331D01*
X024484Y010331D01*
X024130Y010331D01*
X024130Y010331D01*
X024130Y011000D02*
X024484Y011000D01*
X024484Y011000D01*
X024130Y011000D01*
X024130Y011000D01*
X024130Y011669D02*
X024484Y011669D01*
X024484Y011669D01*
X024130Y011669D01*
X024130Y011669D01*
X026020Y011669D02*
X026374Y011669D01*
X026374Y011669D01*
X026020Y011669D01*
X026020Y011669D01*
X026020Y011000D02*
X026374Y011000D01*
X026374Y011000D01*
X026020Y011000D01*
X026020Y011000D01*
X026020Y010331D02*
X026374Y010331D01*
X026374Y010331D01*
X026020Y010331D01*
X026020Y010331D01*
X027630Y010331D02*
X027984Y010331D01*
X027984Y010331D01*
X027630Y010331D01*
X027630Y010331D01*
X027630Y011000D02*
X027984Y011000D01*
X027984Y011000D01*
X027630Y011000D01*
X027630Y011000D01*
X027630Y011669D02*
X027984Y011669D01*
X027984Y011669D01*
X027630Y011669D01*
X027630Y011669D01*
X029520Y011669D02*
X029874Y011669D01*
X029874Y011669D01*
X029520Y011669D01*
X029520Y011669D01*
X029520Y011000D02*
X029874Y011000D01*
X029874Y011000D01*
X029520Y011000D01*
X029520Y011000D01*
X029520Y010331D02*
X029874Y010331D01*
X029874Y010331D01*
X029520Y010331D01*
X029520Y010331D01*
X029520Y013581D02*
X029874Y013581D01*
X029874Y013581D01*
X029520Y013581D01*
X029520Y013581D01*
X029520Y014250D02*
X029874Y014250D01*
X029874Y014250D01*
X029520Y014250D01*
X029520Y014250D01*
X029520Y014919D02*
X029874Y014919D01*
X029874Y014919D01*
X029520Y014919D01*
X029520Y014919D01*
X027984Y014919D02*
X027630Y014919D01*
X027984Y014919D02*
X027984Y014919D01*
X027630Y014919D01*
X027630Y014919D01*
X027630Y014250D02*
X027984Y014250D01*
X027984Y014250D01*
X027630Y014250D01*
X027630Y014250D01*
X027630Y013581D02*
X027984Y013581D01*
X027984Y013581D01*
X027630Y013581D01*
X027630Y013581D01*
X026374Y013581D02*
X026020Y013581D01*
X026374Y013581D02*
X026374Y013581D01*
X026020Y013581D01*
X026020Y013581D01*
X026020Y014250D02*
X026374Y014250D01*
X026374Y014250D01*
X026020Y014250D01*
X026020Y014250D01*
X026020Y014919D02*
X026374Y014919D01*
X026374Y014919D01*
X026020Y014919D01*
X026020Y014919D01*
X024484Y014919D02*
X024130Y014919D01*
X024484Y014919D02*
X024484Y014919D01*
X024130Y014919D01*
X024130Y014919D01*
X024130Y014250D02*
X024484Y014250D01*
X024484Y014250D01*
X024130Y014250D01*
X024130Y014250D01*
X024130Y013581D02*
X024484Y013581D01*
X024484Y013581D01*
X024130Y013581D01*
X024130Y013581D01*
X022874Y013581D02*
X022520Y013581D01*
X022874Y013581D02*
X022874Y013581D01*
X022520Y013581D01*
X022520Y013581D01*
X022520Y014250D02*
X022874Y014250D01*
X022874Y014250D01*
X022520Y014250D01*
X022520Y014250D01*
X022520Y014919D02*
X022874Y014919D01*
X022874Y014919D01*
X022520Y014919D01*
X022520Y014919D01*
X020984Y014919D02*
X020630Y014919D01*
X020984Y014919D02*
X020984Y014919D01*
X020630Y014919D01*
X020630Y014919D01*
X020630Y014250D02*
X020984Y014250D01*
X020984Y014250D01*
X020630Y014250D01*
X020630Y014250D01*
X020630Y013581D02*
X020984Y013581D01*
X020984Y013581D01*
X020630Y013581D01*
X020630Y013581D01*
X019374Y013581D02*
X019020Y013581D01*
X019374Y013581D02*
X019374Y013581D01*
X019020Y013581D01*
X019020Y013581D01*
X019020Y014250D02*
X019374Y014250D01*
X019374Y014250D01*
X019020Y014250D01*
X019020Y014250D01*
X019020Y014919D02*
X019374Y014919D01*
X019374Y014919D01*
X019020Y014919D01*
X019020Y014919D01*
X017484Y014919D02*
X017130Y014919D01*
X017484Y014919D02*
X017484Y014919D01*
X017130Y014919D01*
X017130Y014919D01*
X017130Y014250D02*
X017484Y014250D01*
X017484Y014250D01*
X017130Y014250D01*
X017130Y014250D01*
X017130Y013581D02*
X017484Y013581D01*
X017484Y013581D01*
X017130Y013581D01*
X017130Y013581D01*
X015874Y013581D02*
X015520Y013581D01*
X015874Y013581D02*
X015874Y013581D01*
X015520Y013581D01*
X015520Y013581D01*
X015520Y014250D02*
X015874Y014250D01*
X015874Y014250D01*
X015520Y014250D01*
X015520Y014250D01*
X015520Y014919D02*
X015874Y014919D01*
X015874Y014919D01*
X015520Y014919D01*
X015520Y014919D01*
X013984Y014919D02*
X013630Y014919D01*
X013984Y014919D02*
X013984Y014919D01*
X013630Y014919D01*
X013630Y014919D01*
X013630Y014250D02*
X013984Y014250D01*
X013984Y014250D01*
X013630Y014250D01*
X013630Y014250D01*
X013630Y013581D02*
X013984Y013581D01*
X013984Y013581D01*
X013630Y013581D01*
X013630Y013581D01*
X012374Y013581D02*
X012020Y013581D01*
X012374Y013581D02*
X012374Y013581D01*
X012020Y013581D01*
X012020Y013581D01*
X012020Y014250D02*
X012374Y014250D01*
X012374Y014250D01*
X012020Y014250D01*
X012020Y014250D01*
X012020Y014919D02*
X012374Y014919D01*
X012374Y014919D01*
X012020Y014919D01*
X012020Y014919D01*
X010484Y014919D02*
X010130Y014919D01*
X010484Y014919D02*
X010484Y014919D01*
X010130Y014919D01*
X010130Y014919D01*
X010130Y014250D02*
X010484Y014250D01*
X010484Y014250D01*
X010130Y014250D01*
X010130Y014250D01*
X010130Y013581D02*
X010484Y013581D01*
X010484Y013581D01*
X010130Y013581D01*
X010130Y013581D01*
X008874Y013581D02*
X008520Y013581D01*
X008874Y013581D02*
X008874Y013581D01*
X008520Y013581D01*
X008520Y013581D01*
X008520Y014250D02*
X008874Y014250D01*
X008874Y014250D01*
X008520Y014250D01*
X008520Y014250D01*
X008520Y014919D02*
X008874Y014919D01*
X008874Y014919D01*
X008520Y014919D01*
X008520Y014919D01*
X006984Y014919D02*
X006630Y014919D01*
X006984Y014919D02*
X006984Y014919D01*
X006630Y014919D01*
X006630Y014919D01*
X006630Y014250D02*
X006984Y014250D01*
X006984Y014250D01*
X006630Y014250D01*
X006630Y014250D01*
X006630Y013581D02*
X006984Y013581D01*
X006984Y013581D01*
X006630Y013581D01*
X006630Y013581D01*
X005374Y013581D02*
X005020Y013581D01*
X005374Y013581D02*
X005374Y013581D01*
X005020Y013581D01*
X005020Y013581D01*
X005020Y014250D02*
X005374Y014250D01*
X005374Y014250D01*
X005020Y014250D01*
X005020Y014250D01*
X005020Y014919D02*
X005374Y014919D01*
X005374Y014919D01*
X005020Y014919D01*
X005020Y014919D01*
X003484Y014919D02*
X003130Y014919D01*
X003484Y014919D02*
X003484Y014919D01*
X003130Y014919D01*
X003130Y014919D01*
X003130Y014250D02*
X003484Y014250D01*
X003484Y014250D01*
X003130Y014250D01*
X003130Y014250D01*
X003130Y013581D02*
X003484Y013581D01*
X003484Y013581D01*
X003130Y013581D01*
X003130Y013581D01*
X003130Y016831D02*
X003484Y016831D01*
X003484Y016831D01*
X003130Y016831D01*
X003130Y016831D01*
X003130Y017500D02*
X003484Y017500D01*
X003484Y017500D01*
X003130Y017500D01*
X003130Y017500D01*
X003130Y018169D02*
X003484Y018169D01*
X003484Y018169D01*
X003130Y018169D01*
X003130Y018169D01*
X005020Y018169D02*
X005374Y018169D01*
X005374Y018169D01*
X005020Y018169D01*
X005020Y018169D01*
X005020Y017500D02*
X005374Y017500D01*
X005374Y017500D01*
X005020Y017500D01*
X005020Y017500D01*
X005020Y016831D02*
X005374Y016831D01*
X005374Y016831D01*
X005020Y016831D01*
X005020Y016831D01*
X006630Y016831D02*
X006984Y016831D01*
X006984Y016831D01*
X006630Y016831D01*
X006630Y016831D01*
X006630Y017500D02*
X006984Y017500D01*
X006984Y017500D01*
X006630Y017500D01*
X006630Y017500D01*
X006630Y018169D02*
X006984Y018169D01*
X006984Y018169D01*
X006630Y018169D01*
X006630Y018169D01*
X008520Y018169D02*
X008874Y018169D01*
X008874Y018169D01*
X008520Y018169D01*
X008520Y018169D01*
X008520Y017500D02*
X008874Y017500D01*
X008874Y017500D01*
X008520Y017500D01*
X008520Y017500D01*
X008520Y016831D02*
X008874Y016831D01*
X008874Y016831D01*
X008520Y016831D01*
X008520Y016831D01*
X010130Y016831D02*
X010484Y016831D01*
X010484Y016831D01*
X010130Y016831D01*
X010130Y016831D01*
X010130Y017500D02*
X010484Y017500D01*
X010484Y017500D01*
X010130Y017500D01*
X010130Y017500D01*
X010130Y018169D02*
X010484Y018169D01*
X010484Y018169D01*
X010130Y018169D01*
X010130Y018169D01*
X012020Y018169D02*
X012374Y018169D01*
X012374Y018169D01*
X012020Y018169D01*
X012020Y018169D01*
X012020Y017500D02*
X012374Y017500D01*
X012374Y017500D01*
X012020Y017500D01*
X012020Y017500D01*
X012020Y016831D02*
X012374Y016831D01*
X012374Y016831D01*
X012020Y016831D01*
X012020Y016831D01*
X013630Y016831D02*
X013984Y016831D01*
X013984Y016831D01*
X013630Y016831D01*
X013630Y016831D01*
X013630Y017500D02*
X013984Y017500D01*
X013984Y017500D01*
X013630Y017500D01*
X013630Y017500D01*
X013630Y018169D02*
X013984Y018169D01*
X013984Y018169D01*
X013630Y018169D01*
X013630Y018169D01*
X015520Y018169D02*
X015874Y018169D01*
X015874Y018169D01*
X015520Y018169D01*
X015520Y018169D01*
X015520Y017500D02*
X015874Y017500D01*
X015874Y017500D01*
X015520Y017500D01*
X015520Y017500D01*
X015520Y016831D02*
X015874Y016831D01*
X015874Y016831D01*
X015520Y016831D01*
X015520Y016831D01*
X017130Y016831D02*
X017484Y016831D01*
X017484Y016831D01*
X017130Y016831D01*
X017130Y016831D01*
X017130Y017500D02*
X017484Y017500D01*
X017484Y017500D01*
X017130Y017500D01*
X017130Y017500D01*
X017130Y018169D02*
X017484Y018169D01*
X017484Y018169D01*
X017130Y018169D01*
X017130Y018169D01*
X019020Y018169D02*
X019374Y018169D01*
X019374Y018169D01*
X019020Y018169D01*
X019020Y018169D01*
X019020Y017500D02*
X019374Y017500D01*
X019374Y017500D01*
X019020Y017500D01*
X019020Y017500D01*
X019020Y016831D02*
X019374Y016831D01*
X019374Y016831D01*
X019020Y016831D01*
X019020Y016831D01*
X020630Y016831D02*
X020984Y016831D01*
X020984Y016831D01*
X020630Y016831D01*
X020630Y016831D01*
X020630Y017500D02*
X020984Y017500D01*
X020984Y017500D01*
X020630Y017500D01*
X020630Y017500D01*
X020630Y018169D02*
X020984Y018169D01*
X020984Y018169D01*
X020630Y018169D01*
X020630Y018169D01*
X022520Y018169D02*
X022874Y018169D01*
X022874Y018169D01*
X022520Y018169D01*
X022520Y018169D01*
X022520Y017500D02*
X022874Y017500D01*
X022874Y017500D01*
X022520Y017500D01*
X022520Y017500D01*
X022520Y016831D02*
X022874Y016831D01*
X022874Y016831D01*
X022520Y016831D01*
X022520Y016831D01*
X024130Y016831D02*
X024484Y016831D01*
X024484Y016831D01*
X024130Y016831D01*
X024130Y016831D01*
X024130Y017500D02*
X024484Y017500D01*
X024484Y017500D01*
X024130Y017500D01*
X024130Y017500D01*
X024130Y018169D02*
X024484Y018169D01*
X024484Y018169D01*
X024130Y018169D01*
X024130Y018169D01*
X026020Y018169D02*
X026374Y018169D01*
X026374Y018169D01*
X026020Y018169D01*
X026020Y018169D01*
X026020Y017500D02*
X026374Y017500D01*
X026374Y017500D01*
X026020Y017500D01*
X026020Y017500D01*
X026020Y016831D02*
X026374Y016831D01*
X026374Y016831D01*
X026020Y016831D01*
X026020Y016831D01*
X027630Y016831D02*
X027984Y016831D01*
X027984Y016831D01*
X027630Y016831D01*
X027630Y016831D01*
X027630Y017500D02*
X027984Y017500D01*
X027984Y017500D01*
X027630Y017500D01*
X027630Y017500D01*
X027630Y018169D02*
X027984Y018169D01*
X027984Y018169D01*
X027630Y018169D01*
X027630Y018169D01*
X029520Y018169D02*
X029874Y018169D01*
X029874Y018169D01*
X029520Y018169D01*
X029520Y018169D01*
X029520Y017500D02*
X029874Y017500D01*
X029874Y017500D01*
X029520Y017500D01*
X029520Y017500D01*
X029520Y016831D02*
X029874Y016831D01*
X029874Y016831D01*
X029520Y016831D01*
X029520Y016831D01*
D11*
X008367Y019014D03*
X008367Y020786D03*
X005237Y020786D03*
X005237Y019014D03*
M02*
