%
M48
M72
T01C0.0200
T02C0.0394
T03C0.0400
%
T01
X4252Y5050
X3452Y5750
X4252Y8300
X7752Y8300
X11252Y8300
X14752Y8300
X18252Y8300
X21752Y8300
X25252Y8300
X28752Y8300
X28752Y5050
X25252Y5050
X21752Y5050
X18252Y5050
X14752Y5050
X11252Y5050
X7752Y5050
X7752Y11550
X4252Y11550
X3452Y12300
X4252Y14800
X7752Y14800
X11252Y14800
X14752Y14800
X18252Y14800
X21752Y14800
X25252Y14800
X28752Y14800
X28752Y11550
X25252Y11550
X21752Y11550
X18252Y11550
X14752Y11550
X11252Y11550
X11202Y18050
X7752Y18050
X6402Y18750
X7352Y19300
X4252Y18050
X3452Y18700
X3102Y19050
X14652Y18050
X18152Y18050
X21752Y18050
X25152Y18050
X28752Y18050
T02
X27752Y20500
X26752Y20500
X25752Y20500
X24752Y20500
X23752Y20500
X22752Y20500
X21752Y20500
X20752Y20500
X19252Y20500
X18252Y20500
X17252Y20500
X16252Y20500
X15252Y20500
X14252Y20500
X13252Y20500
X12252Y20500
X11252Y20500
X10252Y20500
X13752Y1500
X14752Y1500
X15752Y1500
X16752Y1500
X17752Y1500
X18752Y1500
X19752Y1500
X20752Y1500
X22752Y1500
X23752Y1500
X24752Y1500
X25752Y1500
X26752Y1500
X27752Y1500
T03
X6563Y2000
X7941Y2000
X10052Y2500
X11052Y2500
X12052Y2500
X13752Y2500
X14752Y2500
X15752Y2500
X16752Y2500
X17752Y2500
X18752Y2500
X19752Y2500
X20752Y2500
X22752Y2500
X23752Y2500
X24752Y2500
X25752Y2500
X26752Y2500
X27752Y2500
X29402Y3000
X27752Y19500
X26752Y19500
X25752Y19500
X24752Y19500
X23752Y19500
X22752Y19500
X21752Y19500
X20752Y19500
X19252Y19500
X18252Y19500
X17252Y19500
X16252Y19500
X15252Y19500
X14252Y19500
X13252Y19500
X12252Y19500
X11252Y19500
X10252Y19500
M30
