G75*
%MOIN*%
%OFA0B0*%
%FSLAX24Y24*%
%IPPOS*%
%LPD*%
%AMOC8*
5,1,8,0,0,1.08239X$1,22.5*
%
%ADD10OC8,0.0660*%
%ADD11C,0.0800*%
%ADD12R,0.0800X0.0800*%
%ADD13R,0.0740X0.0740*%
%ADD14C,0.0740*%
%ADD15C,0.0100*%
%ADD16C,0.0400*%
%ADD17C,0.0200*%
%ADD18C,0.0140*%
D10*
X013752Y001500D03*
X014752Y001500D03*
X015752Y001500D03*
X016752Y001500D03*
X017752Y001500D03*
X018752Y001500D03*
X019752Y001500D03*
X020752Y001500D03*
X022752Y001500D03*
X023752Y001500D03*
X024752Y001500D03*
X025752Y001500D03*
X026752Y001500D03*
X027752Y001500D03*
X027752Y020500D03*
X026752Y020500D03*
X025752Y020500D03*
X024752Y020500D03*
X023752Y020500D03*
X022752Y020500D03*
X021752Y020500D03*
X020752Y020500D03*
X019252Y020500D03*
X018252Y020500D03*
X017252Y020500D03*
X016252Y020500D03*
X015252Y020500D03*
X014252Y020500D03*
X013252Y020500D03*
X012252Y020500D03*
X011252Y020500D03*
X010252Y020500D03*
D11*
X007941Y002000D03*
D12*
X006563Y002000D03*
D13*
X012052Y002500D03*
X020752Y002500D03*
X027752Y002500D03*
X020752Y019500D03*
X010252Y019500D03*
D14*
X011252Y019500D03*
X012252Y019500D03*
X013252Y019500D03*
X014252Y019500D03*
X015252Y019500D03*
X016252Y019500D03*
X017252Y019500D03*
X018252Y019500D03*
X019252Y019500D03*
X021752Y019500D03*
X022752Y019500D03*
X023752Y019500D03*
X024752Y019500D03*
X025752Y019500D03*
X026752Y019500D03*
X027752Y019500D03*
X029402Y003000D03*
X026752Y002500D03*
X025752Y002500D03*
X024752Y002500D03*
X023752Y002500D03*
X022752Y002500D03*
X019752Y002500D03*
X018752Y002500D03*
X017752Y002500D03*
X016752Y002500D03*
X015752Y002500D03*
X014752Y002500D03*
X013752Y002500D03*
X011052Y002500D03*
X010052Y002500D03*
D15*
X010524Y002667D02*
X010580Y002667D01*
X010552Y002599D02*
X010552Y002401D01*
X010476Y002217D01*
X010336Y002076D01*
X010152Y002000D01*
X009953Y002000D01*
X009769Y002076D01*
X009628Y002217D01*
X009552Y002401D01*
X009552Y002599D01*
X009628Y002783D01*
X009769Y002924D01*
X009953Y003000D01*
X010152Y003000D01*
X010336Y002924D01*
X010476Y002783D01*
X010552Y002599D01*
X010552Y002401D01*
X010628Y002217D01*
X010769Y002076D01*
X010953Y002000D01*
X011152Y002000D01*
X011336Y002076D01*
X011476Y002217D01*
X011552Y002401D01*
X011552Y002599D01*
X011476Y002783D01*
X011336Y002924D01*
X011332Y002925D01*
X011332Y004726D01*
X011439Y004770D01*
X011489Y004820D01*
X014516Y004820D01*
X014565Y004770D01*
X014687Y004720D01*
X014818Y004720D01*
X014939Y004770D01*
X014989Y004820D01*
X018016Y004820D01*
X018065Y004770D01*
X018187Y004720D01*
X018318Y004720D01*
X018439Y004770D01*
X018489Y004820D01*
X021516Y004820D01*
X021565Y004770D01*
X021687Y004720D01*
X021818Y004720D01*
X021939Y004770D01*
X021989Y004820D01*
X025016Y004820D01*
X025065Y004770D01*
X025187Y004720D01*
X025318Y004720D01*
X025439Y004770D01*
X025489Y004820D01*
X028516Y004820D01*
X028565Y004770D01*
X028687Y004720D01*
X028818Y004720D01*
X028939Y004770D01*
X029032Y004863D01*
X029082Y004984D01*
X029082Y005116D01*
X029032Y005237D01*
X028982Y005287D01*
X028982Y008063D01*
X029032Y008113D01*
X029082Y008234D01*
X029082Y008366D01*
X029032Y008487D01*
X028982Y008537D01*
X028982Y011313D01*
X029032Y011363D01*
X029082Y011484D01*
X029082Y011616D01*
X029032Y011737D01*
X028982Y011787D01*
X028982Y014563D01*
X029032Y014613D01*
X029082Y014734D01*
X029082Y014866D01*
X029032Y014987D01*
X028982Y015037D01*
X028982Y017813D01*
X029032Y017863D01*
X029082Y017984D01*
X029082Y018116D01*
X029032Y018237D01*
X028939Y018330D01*
X028818Y018380D01*
X028687Y018380D01*
X028565Y018330D01*
X028516Y018280D01*
X025389Y018280D01*
X025339Y018330D01*
X025218Y018380D01*
X025087Y018380D01*
X024965Y018330D01*
X024916Y018280D01*
X021989Y018280D01*
X021939Y018330D01*
X021818Y018380D01*
X021687Y018380D01*
X021565Y018330D01*
X021516Y018280D01*
X018389Y018280D01*
X018339Y018330D01*
X018218Y018380D01*
X018087Y018380D01*
X017965Y018330D01*
X017916Y018280D01*
X014889Y018280D01*
X014839Y018330D01*
X014718Y018380D01*
X014587Y018380D01*
X014465Y018330D01*
X014416Y018280D01*
X011439Y018280D01*
X011389Y018330D01*
X011268Y018380D01*
X011137Y018380D01*
X011015Y018330D01*
X010966Y018280D01*
X007989Y018280D01*
X007939Y018330D01*
X007818Y018380D01*
X007687Y018380D01*
X007565Y018330D01*
X007516Y018280D01*
X004489Y018280D01*
X004439Y018330D01*
X004318Y018380D01*
X004187Y018380D01*
X004065Y018330D01*
X003973Y018237D01*
X003922Y018116D01*
X003922Y017984D01*
X003973Y017863D01*
X004065Y017770D01*
X004187Y017720D01*
X004318Y017720D01*
X004439Y017770D01*
X004489Y017820D01*
X007516Y017820D01*
X007565Y017770D01*
X007687Y017720D01*
X007818Y017720D01*
X007939Y017770D01*
X007989Y017820D01*
X010966Y017820D01*
X011015Y017770D01*
X011137Y017720D01*
X011268Y017720D01*
X011389Y017770D01*
X011439Y017820D01*
X014416Y017820D01*
X014465Y017770D01*
X014587Y017720D01*
X014718Y017720D01*
X014839Y017770D01*
X014889Y017820D01*
X017916Y017820D01*
X017965Y017770D01*
X018087Y017720D01*
X018218Y017720D01*
X018339Y017770D01*
X018389Y017820D01*
X021516Y017820D01*
X021565Y017770D01*
X021687Y017720D01*
X021818Y017720D01*
X021939Y017770D01*
X021989Y017820D01*
X024916Y017820D01*
X024965Y017770D01*
X025087Y017720D01*
X025218Y017720D01*
X025339Y017770D01*
X025389Y017820D01*
X028516Y017820D01*
X028522Y017813D01*
X028522Y015037D01*
X028516Y015030D01*
X025489Y015030D01*
X025439Y015080D01*
X025318Y015130D01*
X025187Y015130D01*
X025065Y015080D01*
X025016Y015030D01*
X021989Y015030D01*
X021939Y015080D01*
X021818Y015130D01*
X021687Y015130D01*
X021565Y015080D01*
X021516Y015030D01*
X018489Y015030D01*
X018439Y015080D01*
X018318Y015130D01*
X018187Y015130D01*
X018065Y015080D01*
X018016Y015030D01*
X014989Y015030D01*
X014939Y015080D01*
X014818Y015130D01*
X014687Y015130D01*
X014565Y015080D01*
X014516Y015030D01*
X011489Y015030D01*
X011439Y015080D01*
X011318Y015130D01*
X011187Y015130D01*
X011065Y015080D01*
X011016Y015030D01*
X007989Y015030D01*
X007939Y015080D01*
X007818Y015130D01*
X007687Y015130D01*
X007565Y015080D01*
X007516Y015030D01*
X004489Y015030D01*
X004439Y015080D01*
X004318Y015130D01*
X004187Y015130D01*
X004065Y015080D01*
X003973Y014987D01*
X003922Y014866D01*
X003922Y014734D01*
X003973Y014613D01*
X004065Y014520D01*
X004187Y014470D01*
X004318Y014470D01*
X004439Y014520D01*
X004489Y014570D01*
X007516Y014570D01*
X007565Y014520D01*
X007687Y014470D01*
X007818Y014470D01*
X007939Y014520D01*
X007989Y014570D01*
X011016Y014570D01*
X011065Y014520D01*
X011187Y014470D01*
X011318Y014470D01*
X011439Y014520D01*
X011489Y014570D01*
X014516Y014570D01*
X014565Y014520D01*
X014687Y014470D01*
X014818Y014470D01*
X014939Y014520D01*
X014989Y014570D01*
X018016Y014570D01*
X018065Y014520D01*
X018187Y014470D01*
X018318Y014470D01*
X018439Y014520D01*
X018489Y014570D01*
X021516Y014570D01*
X021565Y014520D01*
X021687Y014470D01*
X021818Y014470D01*
X021939Y014520D01*
X021989Y014570D01*
X025016Y014570D01*
X025065Y014520D01*
X025187Y014470D01*
X025318Y014470D01*
X025439Y014520D01*
X025489Y014570D01*
X028516Y014570D01*
X028522Y014563D01*
X028522Y011787D01*
X028516Y011780D01*
X025489Y011780D01*
X025439Y011830D01*
X025318Y011880D01*
X025187Y011880D01*
X025065Y011830D01*
X025016Y011780D01*
X021989Y011780D01*
X021939Y011830D01*
X021818Y011880D01*
X021687Y011880D01*
X021565Y011830D01*
X021516Y011780D01*
X018489Y011780D01*
X018439Y011830D01*
X018318Y011880D01*
X018187Y011880D01*
X018065Y011830D01*
X018016Y011780D01*
X014989Y011780D01*
X014939Y011830D01*
X014818Y011880D01*
X014687Y011880D01*
X014565Y011830D01*
X014516Y011780D01*
X011489Y011780D01*
X011439Y011830D01*
X011318Y011880D01*
X011187Y011880D01*
X011065Y011830D01*
X011016Y011780D01*
X007989Y011780D01*
X007939Y011830D01*
X007818Y011880D01*
X007687Y011880D01*
X007565Y011830D01*
X007516Y011780D01*
X004489Y011780D01*
X004439Y011830D01*
X004318Y011880D01*
X004187Y011880D01*
X004065Y011830D01*
X003973Y011737D01*
X003922Y011616D01*
X003922Y011484D01*
X003973Y011363D01*
X004065Y011270D01*
X004187Y011220D01*
X004318Y011220D01*
X004439Y011270D01*
X004489Y011320D01*
X007516Y011320D01*
X007565Y011270D01*
X007687Y011220D01*
X007818Y011220D01*
X007939Y011270D01*
X007989Y011320D01*
X011016Y011320D01*
X011065Y011270D01*
X011187Y011220D01*
X011318Y011220D01*
X011439Y011270D01*
X011489Y011320D01*
X014516Y011320D01*
X014565Y011270D01*
X014687Y011220D01*
X014818Y011220D01*
X014939Y011270D01*
X014989Y011320D01*
X018016Y011320D01*
X018065Y011270D01*
X018187Y011220D01*
X018318Y011220D01*
X018439Y011270D01*
X018489Y011320D01*
X021516Y011320D01*
X021565Y011270D01*
X021687Y011220D01*
X021818Y011220D01*
X021939Y011270D01*
X021989Y011320D01*
X025016Y011320D01*
X025065Y011270D01*
X025187Y011220D01*
X025318Y011220D01*
X025439Y011270D01*
X025489Y011320D01*
X028516Y011320D01*
X028522Y011313D01*
X028522Y008537D01*
X028516Y008530D01*
X025489Y008530D01*
X025439Y008580D01*
X025318Y008630D01*
X025187Y008630D01*
X025065Y008580D01*
X025016Y008530D01*
X021989Y008530D01*
X021939Y008580D01*
X021818Y008630D01*
X021687Y008630D01*
X021565Y008580D01*
X021516Y008530D01*
X018489Y008530D01*
X018439Y008580D01*
X018318Y008630D01*
X018187Y008630D01*
X018065Y008580D01*
X018016Y008530D01*
X014989Y008530D01*
X014939Y008580D01*
X014818Y008630D01*
X014687Y008630D01*
X014565Y008580D01*
X014516Y008530D01*
X011489Y008530D01*
X011439Y008580D01*
X011318Y008630D01*
X011187Y008630D01*
X011065Y008580D01*
X011016Y008530D01*
X007989Y008530D01*
X007939Y008580D01*
X007818Y008630D01*
X007687Y008630D01*
X007565Y008580D01*
X007516Y008530D01*
X004489Y008530D01*
X004439Y008580D01*
X004318Y008630D01*
X004187Y008630D01*
X004065Y008580D01*
X003973Y008487D01*
X003922Y008366D01*
X003922Y008234D01*
X003973Y008113D01*
X004065Y008020D01*
X004187Y007970D01*
X004318Y007970D01*
X004439Y008020D01*
X004489Y008070D01*
X007516Y008070D01*
X007565Y008020D01*
X007687Y007970D01*
X007818Y007970D01*
X007939Y008020D01*
X007989Y008070D01*
X011016Y008070D01*
X011065Y008020D01*
X011187Y007970D01*
X011318Y007970D01*
X011439Y008020D01*
X011489Y008070D01*
X014516Y008070D01*
X014565Y008020D01*
X014687Y007970D01*
X014818Y007970D01*
X014939Y008020D01*
X014989Y008070D01*
X018016Y008070D01*
X018065Y008020D01*
X018187Y007970D01*
X018318Y007970D01*
X018439Y008020D01*
X018489Y008070D01*
X021516Y008070D01*
X021565Y008020D01*
X021687Y007970D01*
X021818Y007970D01*
X021939Y008020D01*
X021989Y008070D01*
X025016Y008070D01*
X025065Y008020D01*
X025187Y007970D01*
X025318Y007970D01*
X025439Y008020D01*
X025489Y008070D01*
X028516Y008070D01*
X028522Y008063D01*
X028522Y005287D01*
X028516Y005280D01*
X025489Y005280D01*
X025439Y005330D01*
X025318Y005380D01*
X025187Y005380D01*
X025065Y005330D01*
X025016Y005280D01*
X021989Y005280D01*
X021939Y005330D01*
X021818Y005380D01*
X021687Y005380D01*
X021565Y005330D01*
X021516Y005280D01*
X018489Y005280D01*
X018439Y005330D01*
X018318Y005380D01*
X018187Y005380D01*
X018065Y005330D01*
X018016Y005280D01*
X014989Y005280D01*
X014939Y005330D01*
X014818Y005380D01*
X014687Y005380D01*
X014565Y005330D01*
X014516Y005280D01*
X011489Y005280D01*
X011439Y005330D01*
X011318Y005380D01*
X011187Y005380D01*
X011065Y005330D01*
X011016Y005280D01*
X007989Y005280D01*
X007939Y005330D01*
X007818Y005380D01*
X007687Y005380D01*
X007565Y005330D01*
X007516Y005280D01*
X004489Y005280D01*
X004439Y005330D01*
X004318Y005380D01*
X004187Y005380D01*
X004065Y005330D01*
X003973Y005237D01*
X003922Y005116D01*
X003922Y004984D01*
X003973Y004863D01*
X004065Y004770D01*
X004187Y004720D01*
X004318Y004720D01*
X004439Y004770D01*
X004489Y004820D01*
X007516Y004820D01*
X007565Y004770D01*
X007687Y004720D01*
X007818Y004720D01*
X007939Y004770D01*
X007989Y004820D01*
X010872Y004820D01*
X010872Y002967D01*
X010769Y002924D01*
X010628Y002783D01*
X010552Y002599D01*
X010552Y002569D02*
X010552Y002569D01*
X010552Y002470D02*
X010552Y002470D01*
X010540Y002372D02*
X010564Y002372D01*
X010605Y002273D02*
X010500Y002273D01*
X010434Y002175D02*
X010671Y002175D01*
X010769Y002076D02*
X010335Y002076D01*
X009769Y002076D02*
X008486Y002076D01*
X008490Y002050D02*
X008478Y002129D01*
X008451Y002211D01*
X008412Y002288D01*
X008361Y002358D01*
X008300Y002420D01*
X008230Y002470D01*
X009552Y002470D01*
X009552Y002569D02*
X004767Y002569D01*
X004835Y002500D02*
X004635Y002700D01*
X003335Y002700D01*
X003302Y002733D01*
X003302Y018783D01*
X003382Y018863D01*
X003432Y018984D01*
X003432Y019100D01*
X007086Y019100D01*
X007165Y019020D01*
X007287Y018970D01*
X007418Y018970D01*
X007539Y019020D01*
X007632Y019113D01*
X007682Y019234D01*
X007682Y019366D01*
X007632Y019487D01*
X007539Y019580D01*
X007418Y019630D01*
X007287Y019630D01*
X007165Y019580D01*
X007086Y019500D01*
X003373Y019500D01*
X003363Y019508D01*
X003291Y019500D01*
X003220Y019500D01*
X003211Y019491D01*
X003198Y019490D01*
X003153Y019434D01*
X003102Y019383D01*
X003102Y019380D01*
X003037Y019380D01*
X002915Y019330D01*
X002907Y019322D01*
X002907Y021036D01*
X003217Y021345D01*
X003624Y021345D01*
X003321Y021247D01*
X003055Y021007D01*
X003055Y021007D01*
X002909Y020679D01*
X002909Y020321D01*
X003055Y019993D01*
X003321Y019753D01*
X003321Y019753D01*
X003662Y019643D01*
X003662Y019643D01*
X004019Y019680D01*
X004329Y019859D01*
X004329Y019859D01*
X004540Y020149D01*
X004540Y020149D01*
X004614Y020500D01*
X004540Y020851D01*
X004329Y021141D01*
X004019Y021320D01*
X003780Y021345D01*
X029124Y021345D01*
X028821Y021247D01*
X028555Y021007D01*
X028555Y021007D01*
X028409Y020679D01*
X028409Y020321D01*
X028555Y019993D01*
X028821Y019753D01*
X028821Y019753D01*
X029162Y019643D01*
X029162Y019643D01*
X029519Y019680D01*
X029829Y019859D01*
X029829Y019859D01*
X030040Y020149D01*
X030040Y020149D01*
X030097Y020420D01*
X030097Y001580D01*
X030040Y001851D01*
X029829Y002141D01*
X029519Y002320D01*
X029162Y002357D01*
X028821Y002247D01*
X028555Y002007D01*
X028555Y002007D01*
X028409Y001679D01*
X028409Y001321D01*
X028555Y000993D01*
X028821Y000753D01*
X028821Y000753D01*
X029124Y000655D01*
X015190Y000655D01*
X015575Y001040D01*
X015943Y001040D01*
X016212Y001309D01*
X016212Y001691D01*
X015952Y001951D01*
X015952Y002042D01*
X016036Y002076D01*
X016176Y002217D01*
X016252Y002401D01*
X016252Y002599D01*
X016176Y002783D01*
X016036Y002924D01*
X015852Y003000D01*
X015653Y003000D01*
X015469Y002924D01*
X015328Y002783D01*
X015252Y002599D01*
X015176Y002783D01*
X015036Y002924D01*
X014852Y003000D01*
X014653Y003000D01*
X014469Y002924D01*
X014328Y002783D01*
X014252Y002599D01*
X014176Y002783D01*
X014036Y002924D01*
X013852Y003000D01*
X013653Y003000D01*
X013469Y002924D01*
X013328Y002783D01*
X013252Y002599D01*
X013252Y002401D01*
X013328Y002217D01*
X013469Y002076D01*
X013653Y002000D01*
X013852Y002000D01*
X014036Y002076D01*
X014176Y002217D01*
X014252Y002401D01*
X014252Y002599D01*
X014252Y002401D01*
X014328Y002217D01*
X014469Y002076D01*
X014653Y002000D01*
X014852Y002000D01*
X015036Y002076D01*
X015176Y002217D01*
X015252Y002401D01*
X015252Y002599D01*
X015252Y002401D01*
X015328Y002217D01*
X015469Y002076D01*
X015552Y002042D01*
X015552Y001951D01*
X015292Y001691D01*
X015292Y001323D01*
X015020Y001050D01*
X014953Y001050D01*
X015212Y001309D01*
X015212Y001691D01*
X014943Y001960D01*
X014562Y001960D01*
X014292Y001691D01*
X014292Y001309D01*
X014552Y001050D01*
X013953Y001050D01*
X014212Y001309D01*
X014212Y001691D01*
X013943Y001960D01*
X013562Y001960D01*
X013292Y001691D01*
X013292Y001309D01*
X013552Y001050D01*
X005035Y001050D01*
X004952Y001133D01*
X004952Y002383D01*
X004835Y002500D01*
X004865Y002470D02*
X006050Y002470D01*
X006033Y002454D02*
X006033Y001546D01*
X006110Y001470D01*
X007017Y001470D01*
X007093Y001546D01*
X007093Y002454D01*
X007017Y002530D01*
X006110Y002530D01*
X006033Y002454D01*
X006033Y002372D02*
X004952Y002372D01*
X004952Y002273D02*
X006033Y002273D01*
X006033Y002175D02*
X004952Y002175D01*
X004952Y002076D02*
X006033Y002076D01*
X006033Y001978D02*
X004952Y001978D01*
X004952Y001879D02*
X006033Y001879D01*
X006033Y001781D02*
X004952Y001781D01*
X004952Y001682D02*
X006033Y001682D01*
X006033Y001584D02*
X004952Y001584D01*
X004952Y001485D02*
X006095Y001485D01*
X007032Y001485D02*
X007747Y001485D01*
X007730Y001490D02*
X007813Y001464D01*
X007891Y001451D01*
X007891Y001950D01*
X007392Y001950D01*
X007405Y001871D01*
X007432Y001789D01*
X007471Y001712D01*
X007522Y001642D01*
X007583Y001580D01*
X007653Y001530D01*
X007730Y001490D01*
X007891Y001485D02*
X007991Y001485D01*
X007991Y001451D02*
X008070Y001464D01*
X008152Y001490D01*
X008230Y001530D01*
X008300Y001580D01*
X008361Y001642D01*
X008412Y001712D01*
X008451Y001789D01*
X008478Y001871D01*
X008490Y001950D01*
X007991Y001950D01*
X007991Y001451D01*
X007991Y001584D02*
X007891Y001584D01*
X007891Y001682D02*
X007991Y001682D01*
X007991Y001781D02*
X007891Y001781D01*
X007891Y001879D02*
X007991Y001879D01*
X007991Y001950D02*
X007891Y001950D01*
X007891Y002050D01*
X007392Y002050D01*
X007405Y002129D01*
X007432Y002211D01*
X007471Y002288D01*
X007522Y002358D01*
X007583Y002420D01*
X007653Y002470D01*
X007730Y002510D01*
X007813Y002536D01*
X007891Y002549D01*
X007891Y002050D01*
X007991Y002050D01*
X007991Y002549D01*
X008070Y002536D01*
X008152Y002510D01*
X008230Y002470D01*
X008348Y002372D02*
X009564Y002372D01*
X009605Y002273D02*
X008420Y002273D01*
X008463Y002175D02*
X009671Y002175D01*
X009580Y002667D02*
X004668Y002667D01*
X003302Y002766D02*
X009621Y002766D01*
X009709Y002864D02*
X003302Y002864D01*
X003302Y002963D02*
X009862Y002963D01*
X010242Y002963D02*
X010862Y002963D01*
X010872Y003061D02*
X003302Y003061D01*
X003302Y003160D02*
X010872Y003160D01*
X010872Y003258D02*
X003302Y003258D01*
X003302Y003357D02*
X010872Y003357D01*
X010872Y003455D02*
X003302Y003455D01*
X003302Y003554D02*
X010872Y003554D01*
X010872Y003652D02*
X003302Y003652D01*
X003302Y003751D02*
X010872Y003751D01*
X010872Y003849D02*
X003302Y003849D01*
X003302Y003948D02*
X010872Y003948D01*
X010872Y004046D02*
X003302Y004046D01*
X003302Y004145D02*
X010872Y004145D01*
X010872Y004243D02*
X003302Y004243D01*
X003302Y004342D02*
X010872Y004342D01*
X010872Y004440D02*
X003302Y004440D01*
X003302Y004539D02*
X010872Y004539D01*
X010872Y004637D02*
X003302Y004637D01*
X003302Y004736D02*
X004149Y004736D01*
X004002Y004834D02*
X003302Y004834D01*
X003302Y004933D02*
X003944Y004933D01*
X003922Y005031D02*
X003302Y005031D01*
X003302Y005130D02*
X003928Y005130D01*
X003969Y005228D02*
X003302Y005228D01*
X003302Y005327D02*
X004062Y005327D01*
X004443Y005327D02*
X007562Y005327D01*
X007943Y005327D02*
X011062Y005327D01*
X011443Y005327D02*
X014562Y005327D01*
X014943Y005327D02*
X018062Y005327D01*
X018443Y005327D02*
X021562Y005327D01*
X021943Y005327D02*
X025062Y005327D01*
X025443Y005327D02*
X028522Y005327D01*
X028522Y005425D02*
X003302Y005425D01*
X003302Y005524D02*
X028522Y005524D01*
X028522Y005622D02*
X003302Y005622D01*
X003302Y005721D02*
X028522Y005721D01*
X028522Y005819D02*
X003302Y005819D01*
X003302Y005918D02*
X028522Y005918D01*
X028522Y006016D02*
X003302Y006016D01*
X003302Y006115D02*
X028522Y006115D01*
X028522Y006213D02*
X003302Y006213D01*
X003302Y006312D02*
X028522Y006312D01*
X028522Y006410D02*
X003302Y006410D01*
X003302Y006509D02*
X028522Y006509D01*
X028522Y006607D02*
X003302Y006607D01*
X003302Y006706D02*
X028522Y006706D01*
X028522Y006804D02*
X003302Y006804D01*
X003302Y006903D02*
X028522Y006903D01*
X028522Y007001D02*
X003302Y007001D01*
X003302Y007100D02*
X028522Y007100D01*
X028522Y007198D02*
X003302Y007198D01*
X003302Y007297D02*
X028522Y007297D01*
X028522Y007395D02*
X003302Y007395D01*
X003302Y007494D02*
X028522Y007494D01*
X028522Y007592D02*
X003302Y007592D01*
X003302Y007691D02*
X028522Y007691D01*
X028522Y007789D02*
X003302Y007789D01*
X003302Y007888D02*
X028522Y007888D01*
X028522Y007986D02*
X025357Y007986D01*
X025148Y007986D02*
X021857Y007986D01*
X021648Y007986D02*
X018357Y007986D01*
X018148Y007986D02*
X014857Y007986D01*
X014648Y007986D02*
X011357Y007986D01*
X011148Y007986D02*
X007857Y007986D01*
X007648Y007986D02*
X004357Y007986D01*
X004148Y007986D02*
X003302Y007986D01*
X003302Y008085D02*
X004001Y008085D01*
X003944Y008183D02*
X003302Y008183D01*
X003302Y008282D02*
X003922Y008282D01*
X003928Y008380D02*
X003302Y008380D01*
X003302Y008479D02*
X003969Y008479D01*
X004063Y008577D02*
X003302Y008577D01*
X003302Y008676D02*
X028522Y008676D01*
X028522Y008774D02*
X003302Y008774D01*
X003302Y008873D02*
X028522Y008873D01*
X028522Y008971D02*
X003302Y008971D01*
X003302Y009070D02*
X028522Y009070D01*
X028522Y009168D02*
X003302Y009168D01*
X003302Y009267D02*
X028522Y009267D01*
X028522Y009365D02*
X003302Y009365D01*
X003302Y009464D02*
X028522Y009464D01*
X028522Y009562D02*
X003302Y009562D01*
X003302Y009661D02*
X028522Y009661D01*
X028522Y009759D02*
X003302Y009759D01*
X003302Y009858D02*
X028522Y009858D01*
X028522Y009956D02*
X003302Y009956D01*
X003302Y010055D02*
X028522Y010055D01*
X028522Y010153D02*
X003302Y010153D01*
X003302Y010252D02*
X028522Y010252D01*
X028522Y010350D02*
X003302Y010350D01*
X003302Y010449D02*
X028522Y010449D01*
X028522Y010547D02*
X003302Y010547D01*
X003302Y010646D02*
X028522Y010646D01*
X028522Y010744D02*
X003302Y010744D01*
X003302Y010843D02*
X028522Y010843D01*
X028522Y010941D02*
X003302Y010941D01*
X003302Y011040D02*
X028522Y011040D01*
X028522Y011138D02*
X003302Y011138D01*
X003302Y011237D02*
X004147Y011237D01*
X004001Y011335D02*
X003302Y011335D01*
X003302Y011434D02*
X003943Y011434D01*
X003922Y011532D02*
X003302Y011532D01*
X003302Y011631D02*
X003929Y011631D01*
X003969Y011729D02*
X003302Y011729D01*
X003302Y011828D02*
X004063Y011828D01*
X004442Y011828D02*
X007563Y011828D01*
X007942Y011828D02*
X011063Y011828D01*
X011442Y011828D02*
X014563Y011828D01*
X014942Y011828D02*
X018063Y011828D01*
X018442Y011828D02*
X021563Y011828D01*
X021942Y011828D02*
X025063Y011828D01*
X025442Y011828D02*
X028522Y011828D01*
X028522Y011926D02*
X003302Y011926D01*
X003302Y012025D02*
X028522Y012025D01*
X028522Y012123D02*
X003302Y012123D01*
X003302Y012222D02*
X028522Y012222D01*
X028522Y012320D02*
X003302Y012320D01*
X003302Y012419D02*
X028522Y012419D01*
X028522Y012517D02*
X003302Y012517D01*
X003302Y012616D02*
X028522Y012616D01*
X028522Y012714D02*
X003302Y012714D01*
X003302Y012813D02*
X028522Y012813D01*
X028522Y012911D02*
X003302Y012911D01*
X003302Y013010D02*
X028522Y013010D01*
X028522Y013108D02*
X003302Y013108D01*
X003302Y013207D02*
X028522Y013207D01*
X028522Y013305D02*
X003302Y013305D01*
X003302Y013404D02*
X028522Y013404D01*
X028522Y013502D02*
X003302Y013502D01*
X003302Y013601D02*
X028522Y013601D01*
X028522Y013699D02*
X003302Y013699D01*
X003302Y013798D02*
X028522Y013798D01*
X028522Y013896D02*
X003302Y013896D01*
X003302Y013995D02*
X028522Y013995D01*
X028522Y014093D02*
X003302Y014093D01*
X003302Y014192D02*
X028522Y014192D01*
X028522Y014290D02*
X003302Y014290D01*
X003302Y014389D02*
X028522Y014389D01*
X028522Y014487D02*
X025359Y014487D01*
X025146Y014487D02*
X021859Y014487D01*
X021646Y014487D02*
X018359Y014487D01*
X018146Y014487D02*
X014859Y014487D01*
X014646Y014487D02*
X011359Y014487D01*
X011146Y014487D02*
X007859Y014487D01*
X007646Y014487D02*
X004359Y014487D01*
X004146Y014487D02*
X003302Y014487D01*
X003302Y014586D02*
X004000Y014586D01*
X003943Y014684D02*
X003302Y014684D01*
X003302Y014783D02*
X003922Y014783D01*
X003929Y014881D02*
X003302Y014881D01*
X003302Y014980D02*
X003970Y014980D01*
X004064Y015078D02*
X003302Y015078D01*
X003302Y015177D02*
X028522Y015177D01*
X028522Y015275D02*
X003302Y015275D01*
X003302Y015374D02*
X028522Y015374D01*
X028522Y015472D02*
X003302Y015472D01*
X003302Y015571D02*
X028522Y015571D01*
X028522Y015669D02*
X003302Y015669D01*
X003302Y015768D02*
X028522Y015768D01*
X028522Y015866D02*
X003302Y015866D01*
X003302Y015965D02*
X028522Y015965D01*
X028522Y016063D02*
X003302Y016063D01*
X003302Y016162D02*
X028522Y016162D01*
X028522Y016260D02*
X003302Y016260D01*
X003302Y016359D02*
X028522Y016359D01*
X028522Y016457D02*
X003302Y016457D01*
X003302Y016556D02*
X028522Y016556D01*
X028522Y016654D02*
X003302Y016654D01*
X003302Y016753D02*
X028522Y016753D01*
X028522Y016851D02*
X003302Y016851D01*
X003302Y016950D02*
X028522Y016950D01*
X028522Y017048D02*
X003302Y017048D01*
X003302Y017147D02*
X028522Y017147D01*
X028522Y017245D02*
X003302Y017245D01*
X003302Y017344D02*
X028522Y017344D01*
X028522Y017442D02*
X003302Y017442D01*
X003302Y017541D02*
X028522Y017541D01*
X028522Y017639D02*
X003302Y017639D01*
X003302Y017738D02*
X004144Y017738D01*
X004000Y017836D02*
X003302Y017836D01*
X003302Y017935D02*
X003943Y017935D01*
X003922Y018033D02*
X003302Y018033D01*
X003302Y018132D02*
X003929Y018132D01*
X003970Y018230D02*
X003302Y018230D01*
X003302Y018329D02*
X004064Y018329D01*
X004441Y018329D02*
X007564Y018329D01*
X007941Y018329D02*
X011014Y018329D01*
X011391Y018329D02*
X014464Y018329D01*
X014841Y018329D02*
X017964Y018329D01*
X018341Y018329D02*
X021564Y018329D01*
X021941Y018329D02*
X024964Y018329D01*
X025341Y018329D02*
X028564Y018329D01*
X028941Y018329D02*
X030097Y018329D01*
X030097Y018427D02*
X006485Y018427D01*
X006468Y018420D02*
X006589Y018470D01*
X006669Y018550D01*
X019185Y018550D01*
X019335Y018700D01*
X019452Y018817D01*
X019452Y019042D01*
X019536Y019076D01*
X019676Y019217D01*
X019752Y019401D01*
X019752Y019599D01*
X019676Y019783D01*
X019536Y019924D01*
X019352Y020000D01*
X019153Y020000D01*
X018969Y019924D01*
X018828Y019783D01*
X018752Y019599D01*
X018676Y019783D01*
X018536Y019924D01*
X018352Y020000D01*
X018153Y020000D01*
X017969Y019924D01*
X017828Y019783D01*
X017752Y019599D01*
X017676Y019783D01*
X017536Y019924D01*
X017352Y020000D01*
X017153Y020000D01*
X016969Y019924D01*
X016828Y019783D01*
X016752Y019599D01*
X016676Y019783D01*
X016536Y019924D01*
X016352Y020000D01*
X016153Y020000D01*
X015969Y019924D01*
X015828Y019783D01*
X015752Y019599D01*
X015676Y019783D01*
X015536Y019924D01*
X015352Y020000D01*
X015153Y020000D01*
X014969Y019924D01*
X014828Y019783D01*
X014752Y019599D01*
X014676Y019783D01*
X014536Y019924D01*
X014352Y020000D01*
X014153Y020000D01*
X013969Y019924D01*
X013828Y019783D01*
X013760Y019618D01*
X013760Y019622D01*
X013734Y019700D01*
X013697Y019773D01*
X013649Y019839D01*
X013591Y019897D01*
X013525Y019945D01*
X013452Y019982D01*
X013374Y020007D01*
X013302Y020019D01*
X013302Y019550D01*
X013202Y019550D01*
X013202Y020019D01*
X013131Y020007D01*
X013053Y019982D01*
X012980Y019945D01*
X012914Y019897D01*
X012856Y019839D01*
X012808Y019773D01*
X012770Y019700D01*
X012745Y019622D01*
X012745Y019618D01*
X012676Y019783D01*
X012536Y019924D01*
X012352Y020000D01*
X012153Y020000D01*
X011969Y019924D01*
X011828Y019783D01*
X011752Y019599D01*
X011676Y019783D01*
X011536Y019924D01*
X011352Y020000D01*
X011153Y020000D01*
X010969Y019924D01*
X010828Y019783D01*
X010752Y019599D01*
X010752Y019401D01*
X010828Y019217D01*
X010969Y019076D01*
X011153Y019000D01*
X011352Y019000D01*
X011536Y019076D01*
X011676Y019217D01*
X011752Y019401D01*
X011752Y019599D01*
X011752Y019401D01*
X011828Y019217D01*
X011969Y019076D01*
X012153Y019000D01*
X012352Y019000D01*
X012536Y019076D01*
X012676Y019217D01*
X012745Y019382D01*
X012745Y019378D01*
X012770Y019300D01*
X012808Y019227D01*
X012856Y019161D01*
X012914Y019103D01*
X012980Y019055D01*
X013053Y019018D01*
X012395Y019018D01*
X012576Y019117D02*
X012900Y019117D01*
X012817Y019215D02*
X012675Y019215D01*
X012716Y019314D02*
X012766Y019314D01*
X012775Y019708D02*
X012708Y019708D01*
X012653Y019806D02*
X012832Y019806D01*
X012925Y019905D02*
X012555Y019905D01*
X012443Y020040D02*
X012712Y020309D01*
X012712Y020691D01*
X012443Y020960D01*
X012062Y020960D01*
X011792Y020691D01*
X011792Y020309D01*
X012062Y020040D01*
X012443Y020040D01*
X012504Y020102D02*
X012972Y020102D01*
X013054Y020020D02*
X013204Y020020D01*
X013204Y020452D01*
X012772Y020452D01*
X012772Y020301D01*
X013054Y020020D01*
X013118Y020003D02*
X004434Y020003D01*
X004505Y020102D02*
X010000Y020102D01*
X010062Y020040D02*
X009792Y020309D01*
X009792Y020691D01*
X010062Y020960D01*
X010443Y020960D01*
X010712Y020691D01*
X010712Y020309D01*
X010443Y020040D01*
X010062Y020040D01*
X009902Y020200D02*
X004551Y020200D01*
X004572Y020299D02*
X009803Y020299D01*
X009792Y020397D02*
X004593Y020397D01*
X004614Y020496D02*
X009792Y020496D01*
X009792Y020594D02*
X004594Y020594D01*
X004574Y020693D02*
X009794Y020693D01*
X009893Y020791D02*
X004553Y020791D01*
X004540Y020851D02*
X004540Y020851D01*
X004512Y020890D02*
X009991Y020890D01*
X010513Y020890D02*
X010991Y020890D01*
X011062Y020960D02*
X010792Y020691D01*
X010792Y020309D01*
X011062Y020040D01*
X011443Y020040D01*
X011712Y020309D01*
X011712Y020691D01*
X011443Y020960D01*
X011062Y020960D01*
X010893Y020791D02*
X010612Y020791D01*
X010710Y020693D02*
X010794Y020693D01*
X010792Y020594D02*
X010712Y020594D01*
X010712Y020496D02*
X010792Y020496D01*
X010792Y020397D02*
X010712Y020397D01*
X010701Y020299D02*
X010803Y020299D01*
X010902Y020200D02*
X010603Y020200D01*
X010504Y020102D02*
X011000Y020102D01*
X010950Y019905D02*
X010752Y019905D01*
X010752Y019924D02*
X010676Y020000D01*
X009829Y020000D01*
X009752Y019924D01*
X009752Y019076D01*
X009829Y019000D01*
X010676Y019000D01*
X010752Y019076D01*
X010752Y019924D01*
X010752Y019806D02*
X010851Y019806D01*
X010797Y019708D02*
X010752Y019708D01*
X010752Y019609D02*
X010756Y019609D01*
X010752Y019511D02*
X010752Y019511D01*
X010752Y019412D02*
X010752Y019412D01*
X010752Y019314D02*
X010788Y019314D01*
X010752Y019215D02*
X010830Y019215D01*
X010752Y019117D02*
X010929Y019117D01*
X011109Y019018D02*
X010694Y019018D01*
X011395Y019018D02*
X012109Y019018D01*
X011929Y019117D02*
X011576Y019117D01*
X011675Y019215D02*
X011830Y019215D01*
X011788Y019314D02*
X011716Y019314D01*
X011752Y019412D02*
X011752Y019412D01*
X011752Y019511D02*
X011752Y019511D01*
X011748Y019609D02*
X011756Y019609D01*
X011797Y019708D02*
X011708Y019708D01*
X011653Y019806D02*
X011851Y019806D01*
X011950Y019905D02*
X011555Y019905D01*
X011504Y020102D02*
X012000Y020102D01*
X011902Y020200D02*
X011603Y020200D01*
X011701Y020299D02*
X011803Y020299D01*
X011792Y020397D02*
X011712Y020397D01*
X011712Y020496D02*
X011792Y020496D01*
X011792Y020594D02*
X011712Y020594D01*
X011710Y020693D02*
X011794Y020693D01*
X011893Y020791D02*
X011612Y020791D01*
X011513Y020890D02*
X011991Y020890D01*
X012513Y020890D02*
X012963Y020890D01*
X013054Y020980D02*
X012772Y020699D01*
X012772Y020548D01*
X013204Y020548D01*
X013204Y020452D01*
X013301Y020452D01*
X013301Y020548D01*
X013732Y020548D01*
X013732Y020699D01*
X013451Y020980D01*
X013301Y020980D01*
X013301Y020548D01*
X013204Y020548D01*
X013204Y020980D01*
X013054Y020980D01*
X013204Y020890D02*
X013301Y020890D01*
X013301Y020791D02*
X013204Y020791D01*
X013204Y020693D02*
X013301Y020693D01*
X013301Y020594D02*
X013204Y020594D01*
X013204Y020496D02*
X012712Y020496D01*
X012712Y020594D02*
X012772Y020594D01*
X012772Y020693D02*
X012710Y020693D01*
X012612Y020791D02*
X012865Y020791D01*
X012772Y020397D02*
X012712Y020397D01*
X012701Y020299D02*
X012775Y020299D01*
X012873Y020200D02*
X012603Y020200D01*
X013204Y020200D02*
X013301Y020200D01*
X013301Y020102D02*
X013204Y020102D01*
X013202Y020003D02*
X013302Y020003D01*
X013301Y020020D02*
X013451Y020020D01*
X013732Y020301D01*
X013732Y020452D01*
X013301Y020452D01*
X013301Y020020D01*
X013387Y020003D02*
X028551Y020003D01*
X028555Y019993D02*
X028555Y019993D01*
X028507Y020102D02*
X028004Y020102D01*
X027943Y020040D02*
X028212Y020309D01*
X028212Y020691D01*
X027943Y020960D01*
X027562Y020960D01*
X027292Y020691D01*
X027292Y020309D01*
X027562Y020040D01*
X027943Y020040D01*
X027852Y020000D02*
X027653Y020000D01*
X027469Y019924D01*
X027328Y019783D01*
X027252Y019599D01*
X027176Y019783D01*
X027036Y019924D01*
X026852Y020000D01*
X026653Y020000D01*
X026469Y019924D01*
X026328Y019783D01*
X026252Y019599D01*
X026176Y019783D01*
X026036Y019924D01*
X025852Y020000D01*
X025653Y020000D01*
X025469Y019924D01*
X025328Y019783D01*
X025252Y019599D01*
X025176Y019783D01*
X025036Y019924D01*
X024852Y020000D01*
X024653Y020000D01*
X024469Y019924D01*
X024328Y019783D01*
X024252Y019599D01*
X024176Y019783D01*
X024036Y019924D01*
X023852Y020000D01*
X023653Y020000D01*
X023469Y019924D01*
X023328Y019783D01*
X023252Y019599D01*
X023176Y019783D01*
X023036Y019924D01*
X022852Y020000D01*
X022653Y020000D01*
X022469Y019924D01*
X022328Y019783D01*
X022252Y019599D01*
X022176Y019783D01*
X022036Y019924D01*
X021852Y020000D01*
X021653Y020000D01*
X021469Y019924D01*
X021328Y019783D01*
X021252Y019599D01*
X021252Y019401D01*
X021328Y019217D01*
X021469Y019076D01*
X021653Y019000D01*
X021852Y019000D01*
X022036Y019076D01*
X022176Y019217D01*
X022252Y019401D01*
X022252Y019599D01*
X022252Y019401D01*
X022328Y019217D01*
X022469Y019076D01*
X022653Y019000D01*
X022852Y019000D01*
X023036Y019076D01*
X023176Y019217D01*
X023252Y019401D01*
X023252Y019599D01*
X023252Y019401D01*
X023328Y019217D01*
X023469Y019076D01*
X023653Y019000D01*
X023852Y019000D01*
X024036Y019076D01*
X024176Y019217D01*
X024252Y019401D01*
X024252Y019599D01*
X024252Y019401D01*
X024328Y019217D01*
X024469Y019076D01*
X024653Y019000D01*
X024852Y019000D01*
X025036Y019076D01*
X025176Y019217D01*
X025252Y019401D01*
X025252Y019599D01*
X025252Y019401D01*
X025328Y019217D01*
X025469Y019076D01*
X025653Y019000D01*
X025852Y019000D01*
X026036Y019076D01*
X026176Y019217D01*
X026252Y019401D01*
X026252Y019599D01*
X026252Y019401D01*
X026328Y019217D01*
X026469Y019076D01*
X026653Y019000D01*
X026852Y019000D01*
X027036Y019076D01*
X027176Y019217D01*
X027252Y019401D01*
X027252Y019599D01*
X027252Y019401D01*
X027328Y019217D01*
X027469Y019076D01*
X027653Y019000D01*
X027852Y019000D01*
X028036Y019076D01*
X028176Y019217D01*
X028252Y019401D01*
X028252Y019599D01*
X028176Y019783D01*
X028036Y019924D01*
X027852Y020000D01*
X028055Y019905D02*
X028653Y019905D01*
X028763Y019806D02*
X028153Y019806D01*
X028208Y019708D02*
X028962Y019708D01*
X029519Y019680D02*
X029519Y019680D01*
X029566Y019708D02*
X030097Y019708D01*
X030097Y019806D02*
X029737Y019806D01*
X029829Y019859D02*
X029829Y019859D01*
X029862Y019905D02*
X030097Y019905D01*
X030097Y020003D02*
X029934Y020003D01*
X030005Y020102D02*
X030097Y020102D01*
X030097Y020200D02*
X030051Y020200D01*
X030072Y020299D02*
X030097Y020299D01*
X030093Y020397D02*
X030097Y020397D01*
X030097Y019609D02*
X028248Y019609D01*
X028252Y019511D02*
X030097Y019511D01*
X030097Y019412D02*
X028252Y019412D01*
X028216Y019314D02*
X030097Y019314D01*
X030097Y019215D02*
X028175Y019215D01*
X028076Y019117D02*
X030097Y019117D01*
X030097Y019018D02*
X027895Y019018D01*
X027609Y019018D02*
X026895Y019018D01*
X027076Y019117D02*
X027429Y019117D01*
X027330Y019215D02*
X027175Y019215D01*
X027216Y019314D02*
X027288Y019314D01*
X027252Y019412D02*
X027252Y019412D01*
X027252Y019511D02*
X027252Y019511D01*
X027248Y019609D02*
X027256Y019609D01*
X027297Y019708D02*
X027208Y019708D01*
X027153Y019806D02*
X027351Y019806D01*
X027450Y019905D02*
X027055Y019905D01*
X026943Y020040D02*
X026562Y020040D01*
X026292Y020309D01*
X026292Y020691D01*
X026562Y020960D01*
X026943Y020960D01*
X027212Y020691D01*
X027212Y020309D01*
X026943Y020040D01*
X027004Y020102D02*
X027500Y020102D01*
X027402Y020200D02*
X027103Y020200D01*
X027201Y020299D02*
X027303Y020299D01*
X027292Y020397D02*
X027212Y020397D01*
X027212Y020496D02*
X027292Y020496D01*
X027292Y020594D02*
X027212Y020594D01*
X027210Y020693D02*
X027294Y020693D01*
X027393Y020791D02*
X027112Y020791D01*
X027013Y020890D02*
X027491Y020890D01*
X028013Y020890D02*
X028503Y020890D01*
X028547Y020988D02*
X004440Y020988D01*
X004369Y021087D02*
X028644Y021087D01*
X028753Y021185D02*
X004252Y021185D01*
X004329Y021141D02*
X004329Y021141D01*
X004329Y021141D01*
X004082Y021284D02*
X028935Y021284D01*
X028821Y021247D02*
X028821Y021247D01*
X028459Y020791D02*
X028112Y020791D01*
X028210Y020693D02*
X028415Y020693D01*
X028409Y020594D02*
X028212Y020594D01*
X028212Y020496D02*
X028409Y020496D01*
X028409Y020397D02*
X028212Y020397D01*
X028201Y020299D02*
X028419Y020299D01*
X028463Y020200D02*
X028103Y020200D01*
X026500Y020102D02*
X026004Y020102D01*
X025943Y020040D02*
X026212Y020309D01*
X026212Y020691D01*
X025943Y020960D01*
X025562Y020960D01*
X025292Y020691D01*
X025292Y020309D01*
X025562Y020040D01*
X025943Y020040D01*
X026055Y019905D02*
X026450Y019905D01*
X026351Y019806D02*
X026153Y019806D01*
X026208Y019708D02*
X026297Y019708D01*
X026256Y019609D02*
X026248Y019609D01*
X026252Y019511D02*
X026252Y019511D01*
X026252Y019412D02*
X026252Y019412D01*
X026216Y019314D02*
X026288Y019314D01*
X026330Y019215D02*
X026175Y019215D01*
X026076Y019117D02*
X026429Y019117D01*
X026609Y019018D02*
X025895Y019018D01*
X025609Y019018D02*
X024895Y019018D01*
X025076Y019117D02*
X025429Y019117D01*
X025330Y019215D02*
X025175Y019215D01*
X025216Y019314D02*
X025288Y019314D01*
X025252Y019412D02*
X025252Y019412D01*
X025252Y019511D02*
X025252Y019511D01*
X025248Y019609D02*
X025256Y019609D01*
X025297Y019708D02*
X025208Y019708D01*
X025153Y019806D02*
X025351Y019806D01*
X025450Y019905D02*
X025055Y019905D01*
X024943Y020040D02*
X025212Y020309D01*
X025212Y020691D01*
X024943Y020960D01*
X024562Y020960D01*
X024292Y020691D01*
X024292Y020309D01*
X024562Y020040D01*
X024943Y020040D01*
X025004Y020102D02*
X025500Y020102D01*
X025402Y020200D02*
X025103Y020200D01*
X025201Y020299D02*
X025303Y020299D01*
X025292Y020397D02*
X025212Y020397D01*
X025212Y020496D02*
X025292Y020496D01*
X025292Y020594D02*
X025212Y020594D01*
X025210Y020693D02*
X025294Y020693D01*
X025393Y020791D02*
X025112Y020791D01*
X025013Y020890D02*
X025491Y020890D01*
X026013Y020890D02*
X026491Y020890D01*
X026393Y020791D02*
X026112Y020791D01*
X026210Y020693D02*
X026294Y020693D01*
X026292Y020594D02*
X026212Y020594D01*
X026212Y020496D02*
X026292Y020496D01*
X026292Y020397D02*
X026212Y020397D01*
X026201Y020299D02*
X026303Y020299D01*
X026402Y020200D02*
X026103Y020200D01*
X024500Y020102D02*
X024004Y020102D01*
X023943Y020040D02*
X024212Y020309D01*
X024212Y020691D01*
X023943Y020960D01*
X023562Y020960D01*
X023292Y020691D01*
X023292Y020309D01*
X023562Y020040D01*
X023943Y020040D01*
X024055Y019905D02*
X024450Y019905D01*
X024351Y019806D02*
X024153Y019806D01*
X024208Y019708D02*
X024297Y019708D01*
X024256Y019609D02*
X024248Y019609D01*
X024252Y019511D02*
X024252Y019511D01*
X024252Y019412D02*
X024252Y019412D01*
X024216Y019314D02*
X024288Y019314D01*
X024330Y019215D02*
X024175Y019215D01*
X024076Y019117D02*
X024429Y019117D01*
X024609Y019018D02*
X023895Y019018D01*
X023609Y019018D02*
X022895Y019018D01*
X023076Y019117D02*
X023429Y019117D01*
X023330Y019215D02*
X023175Y019215D01*
X023216Y019314D02*
X023288Y019314D01*
X023252Y019412D02*
X023252Y019412D01*
X023252Y019511D02*
X023252Y019511D01*
X023248Y019609D02*
X023256Y019609D01*
X023297Y019708D02*
X023208Y019708D01*
X023153Y019806D02*
X023351Y019806D01*
X023450Y019905D02*
X023055Y019905D01*
X022943Y020040D02*
X022562Y020040D01*
X022292Y020309D01*
X022292Y020691D01*
X022562Y020960D01*
X022943Y020960D01*
X023212Y020691D01*
X023212Y020309D01*
X022943Y020040D01*
X023004Y020102D02*
X023500Y020102D01*
X023402Y020200D02*
X023103Y020200D01*
X023201Y020299D02*
X023303Y020299D01*
X023292Y020397D02*
X023212Y020397D01*
X023212Y020496D02*
X023292Y020496D01*
X023292Y020594D02*
X023212Y020594D01*
X023210Y020693D02*
X023294Y020693D01*
X023393Y020791D02*
X023112Y020791D01*
X023013Y020890D02*
X023491Y020890D01*
X024013Y020890D02*
X024491Y020890D01*
X024393Y020791D02*
X024112Y020791D01*
X024210Y020693D02*
X024294Y020693D01*
X024292Y020594D02*
X024212Y020594D01*
X024212Y020496D02*
X024292Y020496D01*
X024292Y020397D02*
X024212Y020397D01*
X024201Y020299D02*
X024303Y020299D01*
X024402Y020200D02*
X024103Y020200D01*
X022500Y020102D02*
X022004Y020102D01*
X021943Y020040D02*
X022212Y020309D01*
X022212Y020691D01*
X021943Y020960D01*
X021562Y020960D01*
X021292Y020691D01*
X021292Y020309D01*
X021562Y020040D01*
X021943Y020040D01*
X022055Y019905D02*
X022450Y019905D01*
X022351Y019806D02*
X022153Y019806D01*
X022208Y019708D02*
X022297Y019708D01*
X022256Y019609D02*
X022248Y019609D01*
X022252Y019511D02*
X022252Y019511D01*
X022252Y019412D02*
X022252Y019412D01*
X022216Y019314D02*
X022288Y019314D01*
X022330Y019215D02*
X022175Y019215D01*
X022076Y019117D02*
X022429Y019117D01*
X022609Y019018D02*
X021895Y019018D01*
X021609Y019018D02*
X021194Y019018D01*
X021176Y019000D02*
X021252Y019076D01*
X021252Y019924D01*
X021176Y020000D01*
X020329Y020000D01*
X020252Y019924D01*
X020252Y019076D01*
X020329Y019000D01*
X021176Y019000D01*
X021252Y019117D02*
X021429Y019117D01*
X021330Y019215D02*
X021252Y019215D01*
X021252Y019314D02*
X021288Y019314D01*
X021252Y019412D02*
X021252Y019412D01*
X021252Y019511D02*
X021252Y019511D01*
X021252Y019609D02*
X021256Y019609D01*
X021252Y019708D02*
X021297Y019708D01*
X021252Y019806D02*
X021351Y019806D01*
X021252Y019905D02*
X021450Y019905D01*
X021500Y020102D02*
X021004Y020102D01*
X020943Y020040D02*
X021212Y020309D01*
X021212Y020691D01*
X020943Y020960D01*
X020562Y020960D01*
X020292Y020691D01*
X020292Y020309D01*
X020562Y020040D01*
X020943Y020040D01*
X021103Y020200D02*
X021402Y020200D01*
X021303Y020299D02*
X021201Y020299D01*
X021212Y020397D02*
X021292Y020397D01*
X021292Y020496D02*
X021212Y020496D01*
X021212Y020594D02*
X021292Y020594D01*
X021294Y020693D02*
X021210Y020693D01*
X021112Y020791D02*
X021393Y020791D01*
X021491Y020890D02*
X021013Y020890D01*
X020491Y020890D02*
X019513Y020890D01*
X019443Y020960D02*
X019712Y020691D01*
X019712Y020309D01*
X019443Y020040D01*
X019062Y020040D01*
X018792Y020309D01*
X018792Y020691D01*
X019062Y020960D01*
X019443Y020960D01*
X019612Y020791D02*
X020393Y020791D01*
X020294Y020693D02*
X019710Y020693D01*
X019712Y020594D02*
X020292Y020594D01*
X020292Y020496D02*
X019712Y020496D01*
X019712Y020397D02*
X020292Y020397D01*
X020303Y020299D02*
X019701Y020299D01*
X019603Y020200D02*
X020402Y020200D01*
X020500Y020102D02*
X019504Y020102D01*
X019555Y019905D02*
X020252Y019905D01*
X020252Y019806D02*
X019653Y019806D01*
X019708Y019708D02*
X020252Y019708D01*
X020252Y019609D02*
X019748Y019609D01*
X019752Y019511D02*
X020252Y019511D01*
X020252Y019412D02*
X019752Y019412D01*
X019716Y019314D02*
X020252Y019314D01*
X020252Y019215D02*
X019675Y019215D01*
X019576Y019117D02*
X020252Y019117D01*
X020310Y019018D02*
X019452Y019018D01*
X019452Y018920D02*
X030097Y018920D01*
X030097Y018821D02*
X019452Y018821D01*
X019358Y018723D02*
X030097Y018723D01*
X030097Y018624D02*
X019259Y018624D01*
X019020Y018950D02*
X006669Y018950D01*
X006589Y019030D01*
X006468Y019080D01*
X006337Y019080D01*
X006215Y019030D01*
X006123Y018937D01*
X006072Y018816D01*
X006072Y018684D01*
X006123Y018563D01*
X006215Y018470D01*
X006337Y018420D01*
X006468Y018420D01*
X006320Y018427D02*
X003302Y018427D01*
X003302Y018526D02*
X006160Y018526D01*
X006097Y018624D02*
X003302Y018624D01*
X003302Y018723D02*
X006072Y018723D01*
X006075Y018821D02*
X003340Y018821D01*
X003406Y018920D02*
X006115Y018920D01*
X006204Y019018D02*
X003432Y019018D01*
X003132Y019412D02*
X002907Y019412D01*
X002907Y019511D02*
X007096Y019511D01*
X007236Y019609D02*
X002907Y019609D01*
X002907Y019708D02*
X003462Y019708D01*
X003263Y019806D02*
X002907Y019806D01*
X002907Y019905D02*
X003153Y019905D01*
X003055Y019993D02*
X003055Y019993D01*
X003051Y020003D02*
X002907Y020003D01*
X002907Y020102D02*
X003007Y020102D01*
X002963Y020200D02*
X002907Y020200D01*
X002907Y020299D02*
X002919Y020299D01*
X002907Y020397D02*
X002909Y020397D01*
X002907Y020496D02*
X002909Y020496D01*
X002907Y020594D02*
X002909Y020594D01*
X002907Y020693D02*
X002915Y020693D01*
X002907Y020791D02*
X002959Y020791D01*
X003003Y020890D02*
X002907Y020890D01*
X002907Y020988D02*
X003047Y020988D01*
X002958Y021087D02*
X003144Y021087D01*
X003057Y021185D02*
X003253Y021185D01*
X003321Y021247D02*
X003321Y021247D01*
X003435Y021284D02*
X003155Y021284D01*
X004019Y021320D02*
X004019Y021320D01*
X004362Y019905D02*
X009752Y019905D01*
X009752Y019806D02*
X004237Y019806D01*
X004329Y019859D02*
X004329Y019859D01*
X004066Y019708D02*
X009752Y019708D01*
X009752Y019609D02*
X007469Y019609D01*
X007609Y019511D02*
X009752Y019511D01*
X009752Y019412D02*
X007663Y019412D01*
X007682Y019314D02*
X009752Y019314D01*
X009752Y019215D02*
X007674Y019215D01*
X007634Y019117D02*
X009752Y019117D01*
X009810Y019018D02*
X007534Y019018D01*
X007171Y019018D02*
X006601Y019018D01*
X006645Y018526D02*
X030097Y018526D01*
X030097Y018230D02*
X029035Y018230D01*
X029076Y018132D02*
X030097Y018132D01*
X030097Y018033D02*
X029082Y018033D01*
X029062Y017935D02*
X030097Y017935D01*
X030097Y017836D02*
X029005Y017836D01*
X028982Y017738D02*
X030097Y017738D01*
X030097Y017639D02*
X028982Y017639D01*
X028982Y017541D02*
X030097Y017541D01*
X030097Y017442D02*
X028982Y017442D01*
X028982Y017344D02*
X030097Y017344D01*
X030097Y017245D02*
X028982Y017245D01*
X028982Y017147D02*
X030097Y017147D01*
X030097Y017048D02*
X028982Y017048D01*
X028982Y016950D02*
X030097Y016950D01*
X030097Y016851D02*
X028982Y016851D01*
X028982Y016753D02*
X030097Y016753D01*
X030097Y016654D02*
X028982Y016654D01*
X028982Y016556D02*
X030097Y016556D01*
X030097Y016457D02*
X028982Y016457D01*
X028982Y016359D02*
X030097Y016359D01*
X030097Y016260D02*
X028982Y016260D01*
X028982Y016162D02*
X030097Y016162D01*
X030097Y016063D02*
X028982Y016063D01*
X028982Y015965D02*
X030097Y015965D01*
X030097Y015866D02*
X028982Y015866D01*
X028982Y015768D02*
X030097Y015768D01*
X030097Y015669D02*
X028982Y015669D01*
X028982Y015571D02*
X030097Y015571D01*
X030097Y015472D02*
X028982Y015472D01*
X028982Y015374D02*
X030097Y015374D01*
X030097Y015275D02*
X028982Y015275D01*
X028982Y015177D02*
X030097Y015177D01*
X030097Y015078D02*
X028982Y015078D01*
X029035Y014980D02*
X030097Y014980D01*
X030097Y014881D02*
X029076Y014881D01*
X029082Y014783D02*
X030097Y014783D01*
X030097Y014684D02*
X029062Y014684D01*
X029005Y014586D02*
X030097Y014586D01*
X030097Y014487D02*
X028982Y014487D01*
X028982Y014389D02*
X030097Y014389D01*
X030097Y014290D02*
X028982Y014290D01*
X028982Y014192D02*
X030097Y014192D01*
X030097Y014093D02*
X028982Y014093D01*
X028982Y013995D02*
X030097Y013995D01*
X030097Y013896D02*
X028982Y013896D01*
X028982Y013798D02*
X030097Y013798D01*
X030097Y013699D02*
X028982Y013699D01*
X028982Y013601D02*
X030097Y013601D01*
X030097Y013502D02*
X028982Y013502D01*
X028982Y013404D02*
X030097Y013404D01*
X030097Y013305D02*
X028982Y013305D01*
X028982Y013207D02*
X030097Y013207D01*
X030097Y013108D02*
X028982Y013108D01*
X028982Y013010D02*
X030097Y013010D01*
X030097Y012911D02*
X028982Y012911D01*
X028982Y012813D02*
X030097Y012813D01*
X030097Y012714D02*
X028982Y012714D01*
X028982Y012616D02*
X030097Y012616D01*
X030097Y012517D02*
X028982Y012517D01*
X028982Y012419D02*
X030097Y012419D01*
X030097Y012320D02*
X028982Y012320D01*
X028982Y012222D02*
X030097Y012222D01*
X030097Y012123D02*
X028982Y012123D01*
X028982Y012025D02*
X030097Y012025D01*
X030097Y011926D02*
X028982Y011926D01*
X028982Y011828D02*
X030097Y011828D01*
X030097Y011729D02*
X029035Y011729D01*
X029076Y011631D02*
X030097Y011631D01*
X030097Y011532D02*
X029082Y011532D01*
X029061Y011434D02*
X030097Y011434D01*
X030097Y011335D02*
X029004Y011335D01*
X028982Y011237D02*
X030097Y011237D01*
X030097Y011138D02*
X028982Y011138D01*
X028982Y011040D02*
X030097Y011040D01*
X030097Y010941D02*
X028982Y010941D01*
X028982Y010843D02*
X030097Y010843D01*
X030097Y010744D02*
X028982Y010744D01*
X028982Y010646D02*
X030097Y010646D01*
X030097Y010547D02*
X028982Y010547D01*
X028982Y010449D02*
X030097Y010449D01*
X030097Y010350D02*
X028982Y010350D01*
X028982Y010252D02*
X030097Y010252D01*
X030097Y010153D02*
X028982Y010153D01*
X028982Y010055D02*
X030097Y010055D01*
X030097Y009956D02*
X028982Y009956D01*
X028982Y009858D02*
X030097Y009858D01*
X030097Y009759D02*
X028982Y009759D01*
X028982Y009661D02*
X030097Y009661D01*
X030097Y009562D02*
X028982Y009562D01*
X028982Y009464D02*
X030097Y009464D01*
X030097Y009365D02*
X028982Y009365D01*
X028982Y009267D02*
X030097Y009267D01*
X030097Y009168D02*
X028982Y009168D01*
X028982Y009070D02*
X030097Y009070D01*
X030097Y008971D02*
X028982Y008971D01*
X028982Y008873D02*
X030097Y008873D01*
X030097Y008774D02*
X028982Y008774D01*
X028982Y008676D02*
X030097Y008676D01*
X030097Y008577D02*
X028982Y008577D01*
X029036Y008479D02*
X030097Y008479D01*
X030097Y008380D02*
X029076Y008380D01*
X029082Y008282D02*
X030097Y008282D01*
X030097Y008183D02*
X029061Y008183D01*
X029004Y008085D02*
X030097Y008085D01*
X030097Y007986D02*
X028982Y007986D01*
X028982Y007888D02*
X030097Y007888D01*
X030097Y007789D02*
X028982Y007789D01*
X028982Y007691D02*
X030097Y007691D01*
X030097Y007592D02*
X028982Y007592D01*
X028982Y007494D02*
X030097Y007494D01*
X030097Y007395D02*
X028982Y007395D01*
X028982Y007297D02*
X030097Y007297D01*
X030097Y007198D02*
X028982Y007198D01*
X028982Y007100D02*
X030097Y007100D01*
X030097Y007001D02*
X028982Y007001D01*
X028982Y006903D02*
X030097Y006903D01*
X030097Y006804D02*
X028982Y006804D01*
X028982Y006706D02*
X030097Y006706D01*
X030097Y006607D02*
X028982Y006607D01*
X028982Y006509D02*
X030097Y006509D01*
X030097Y006410D02*
X028982Y006410D01*
X028982Y006312D02*
X030097Y006312D01*
X030097Y006213D02*
X028982Y006213D01*
X028982Y006115D02*
X030097Y006115D01*
X030097Y006016D02*
X028982Y006016D01*
X028982Y005918D02*
X030097Y005918D01*
X030097Y005819D02*
X028982Y005819D01*
X028982Y005721D02*
X030097Y005721D01*
X030097Y005622D02*
X028982Y005622D01*
X028982Y005524D02*
X030097Y005524D01*
X030097Y005425D02*
X028982Y005425D01*
X028982Y005327D02*
X030097Y005327D01*
X030097Y005228D02*
X029036Y005228D01*
X029077Y005130D02*
X030097Y005130D01*
X030097Y005031D02*
X029082Y005031D01*
X029061Y004933D02*
X030097Y004933D01*
X030097Y004834D02*
X029003Y004834D01*
X028855Y004736D02*
X030097Y004736D01*
X030097Y004637D02*
X011332Y004637D01*
X011332Y004539D02*
X030097Y004539D01*
X030097Y004440D02*
X011332Y004440D01*
X011332Y004342D02*
X030097Y004342D01*
X030097Y004243D02*
X011332Y004243D01*
X011332Y004145D02*
X030097Y004145D01*
X030097Y004046D02*
X011332Y004046D01*
X011332Y003948D02*
X030097Y003948D01*
X030097Y003849D02*
X011332Y003849D01*
X011332Y003751D02*
X030097Y003751D01*
X030097Y003652D02*
X011332Y003652D01*
X011332Y003554D02*
X030097Y003554D01*
X030097Y003455D02*
X029610Y003455D01*
X029686Y003424D02*
X029502Y003500D01*
X029303Y003500D01*
X029119Y003424D01*
X028978Y003283D01*
X028902Y003099D01*
X028902Y002901D01*
X028978Y002717D01*
X029119Y002576D01*
X029303Y002500D01*
X029502Y002500D01*
X029686Y002576D01*
X029826Y002717D01*
X029902Y002901D01*
X029902Y003099D01*
X029826Y003283D01*
X029686Y003424D01*
X029753Y003357D02*
X030097Y003357D01*
X030097Y003258D02*
X029837Y003258D01*
X029877Y003160D02*
X030097Y003160D01*
X030097Y003061D02*
X029902Y003061D01*
X029902Y002963D02*
X030097Y002963D01*
X030097Y002864D02*
X029887Y002864D01*
X029846Y002766D02*
X030097Y002766D01*
X030097Y002667D02*
X029776Y002667D01*
X029667Y002569D02*
X030097Y002569D01*
X030097Y002470D02*
X028252Y002470D01*
X028252Y002372D02*
X030097Y002372D01*
X030097Y002273D02*
X029600Y002273D01*
X029519Y002320D02*
X029519Y002320D01*
X029771Y002175D02*
X030097Y002175D01*
X030097Y002076D02*
X029876Y002076D01*
X029829Y002141D02*
X029829Y002141D01*
X029948Y001978D02*
X030097Y001978D01*
X030097Y001879D02*
X030019Y001879D01*
X030055Y001781D02*
X030097Y001781D01*
X030097Y001682D02*
X030076Y001682D01*
X030097Y001584D02*
X030097Y001584D01*
X029162Y002357D02*
X029162Y002357D01*
X029138Y002569D02*
X028252Y002569D01*
X028252Y002667D02*
X029028Y002667D01*
X028958Y002766D02*
X028252Y002766D01*
X028252Y002864D02*
X028917Y002864D01*
X028902Y002963D02*
X028214Y002963D01*
X028176Y003000D02*
X027329Y003000D01*
X027252Y002924D01*
X027252Y002076D01*
X027329Y002000D01*
X028176Y002000D01*
X028252Y002076D01*
X028632Y002076D01*
X028542Y001978D02*
X019954Y001978D01*
X019951Y001980D02*
X019801Y001980D01*
X019801Y001548D01*
X020232Y001548D01*
X020232Y001699D01*
X019951Y001980D01*
X019952Y002018D02*
X020025Y002055D01*
X020091Y002103D01*
X020149Y002161D01*
X020197Y002227D01*
X020234Y002300D01*
X020252Y002356D01*
X020252Y002076D01*
X020329Y002000D01*
X021176Y002000D01*
X021252Y002076D01*
X022469Y002076D01*
X022653Y002000D01*
X022852Y002000D01*
X023036Y002076D01*
X023176Y002217D01*
X023252Y002401D01*
X023252Y002599D01*
X023176Y002783D01*
X023036Y002924D01*
X022852Y003000D01*
X022653Y003000D01*
X022469Y002924D01*
X022328Y002783D01*
X022252Y002599D01*
X022252Y002401D01*
X022328Y002217D01*
X022469Y002076D01*
X022371Y002175D02*
X021252Y002175D01*
X021252Y002273D02*
X022305Y002273D01*
X022264Y002372D02*
X021252Y002372D01*
X021252Y002470D02*
X022252Y002470D01*
X022252Y002569D02*
X021252Y002569D01*
X021252Y002667D02*
X022280Y002667D01*
X022321Y002766D02*
X021252Y002766D01*
X021252Y002864D02*
X022409Y002864D01*
X022562Y002963D02*
X021214Y002963D01*
X021176Y003000D02*
X020329Y003000D01*
X020252Y002924D01*
X020252Y002644D01*
X020234Y002700D01*
X020197Y002773D01*
X020149Y002839D01*
X020091Y002897D01*
X020025Y002945D01*
X019952Y002982D01*
X019874Y003007D01*
X019802Y003019D01*
X019802Y002550D01*
X019702Y002550D01*
X019702Y002450D01*
X018802Y002450D01*
X018802Y001981D01*
X018874Y001993D01*
X018952Y002018D01*
X019025Y002055D01*
X019091Y002103D01*
X019149Y002161D01*
X019197Y002227D01*
X019234Y002300D01*
X019252Y002356D01*
X019270Y002300D01*
X019308Y002227D01*
X019356Y002161D01*
X019414Y002103D01*
X019480Y002055D01*
X019553Y002018D01*
X019631Y001993D01*
X019702Y001981D01*
X019702Y002450D01*
X019802Y002450D01*
X019802Y001981D01*
X019874Y001993D01*
X019952Y002018D01*
X020053Y002076D02*
X020253Y002076D01*
X020252Y002175D02*
X020159Y002175D01*
X020220Y002273D02*
X020252Y002273D01*
X020562Y001960D02*
X020292Y001691D01*
X020292Y001309D01*
X020562Y001040D01*
X020943Y001040D01*
X021212Y001309D01*
X021212Y001691D01*
X020943Y001960D01*
X020562Y001960D01*
X020481Y001879D02*
X020052Y001879D01*
X020151Y001781D02*
X020382Y001781D01*
X020292Y001682D02*
X020232Y001682D01*
X020232Y001584D02*
X020292Y001584D01*
X020292Y001485D02*
X019801Y001485D01*
X019801Y001452D02*
X019801Y001548D01*
X019704Y001548D01*
X019704Y001452D01*
X019272Y001452D01*
X019272Y001301D01*
X019554Y001020D01*
X019704Y001020D01*
X019704Y001452D01*
X019801Y001452D01*
X020232Y001452D01*
X020232Y001301D01*
X019951Y001020D01*
X019801Y001020D01*
X019801Y001452D01*
X019801Y001387D02*
X019704Y001387D01*
X019704Y001485D02*
X018801Y001485D01*
X018801Y001452D02*
X018801Y001548D01*
X019232Y001548D01*
X019232Y001699D01*
X018951Y001980D01*
X018801Y001980D01*
X018801Y001548D01*
X018704Y001548D01*
X018704Y001452D01*
X018272Y001452D01*
X018272Y001301D01*
X018554Y001020D01*
X018704Y001020D01*
X018704Y001452D01*
X018801Y001452D01*
X019232Y001452D01*
X019232Y001301D01*
X018951Y001020D01*
X018801Y001020D01*
X018801Y001452D01*
X018801Y001387D02*
X018704Y001387D01*
X018704Y001485D02*
X018212Y001485D01*
X018272Y001548D02*
X018704Y001548D01*
X018704Y001980D01*
X018554Y001980D01*
X018272Y001699D01*
X018272Y001548D01*
X018272Y001584D02*
X018212Y001584D01*
X018212Y001682D02*
X018272Y001682D01*
X018212Y001691D02*
X018212Y001309D01*
X017943Y001040D01*
X017562Y001040D01*
X017292Y001309D01*
X017292Y001691D01*
X017562Y001960D01*
X017943Y001960D01*
X018212Y001691D01*
X018122Y001781D02*
X018354Y001781D01*
X018453Y001879D02*
X018024Y001879D01*
X018035Y002076D02*
X018451Y002076D01*
X018480Y002055D02*
X018553Y002018D01*
X018631Y001993D01*
X018702Y001981D01*
X018702Y002450D01*
X018802Y002450D01*
X018802Y002550D01*
X018702Y002550D01*
X018702Y003019D01*
X018631Y003007D01*
X018553Y002982D01*
X018480Y002945D01*
X018414Y002897D01*
X018356Y002839D01*
X018308Y002773D01*
X018270Y002700D01*
X018245Y002622D01*
X018245Y002618D01*
X018176Y002783D01*
X018036Y002924D01*
X017852Y003000D01*
X017653Y003000D01*
X017469Y002924D01*
X017328Y002783D01*
X017252Y002599D01*
X017176Y002783D01*
X017036Y002924D01*
X016852Y003000D01*
X016653Y003000D01*
X016469Y002924D01*
X016328Y002783D01*
X016252Y002599D01*
X016252Y002401D01*
X016328Y002217D01*
X016469Y002076D01*
X016653Y002000D01*
X016852Y002000D01*
X017036Y002076D01*
X017176Y002217D01*
X017252Y002401D01*
X017252Y002599D01*
X017252Y002401D01*
X017328Y002217D01*
X017469Y002076D01*
X017653Y002000D01*
X017852Y002000D01*
X018036Y002076D01*
X018176Y002217D01*
X018245Y002382D01*
X018245Y002378D01*
X018270Y002300D01*
X018308Y002227D01*
X018356Y002161D01*
X018414Y002103D01*
X018480Y002055D01*
X018551Y001978D02*
X015952Y001978D01*
X016024Y001879D02*
X016481Y001879D01*
X016562Y001960D02*
X016292Y001691D01*
X016292Y001309D01*
X016562Y001040D01*
X016943Y001040D01*
X017212Y001309D01*
X017212Y001691D01*
X016943Y001960D01*
X016562Y001960D01*
X016469Y002076D02*
X016035Y002076D01*
X016134Y002175D02*
X016371Y002175D01*
X016305Y002273D02*
X016200Y002273D01*
X016240Y002372D02*
X016264Y002372D01*
X016252Y002470D02*
X016252Y002470D01*
X016252Y002569D02*
X016252Y002569D01*
X016224Y002667D02*
X016280Y002667D01*
X016321Y002766D02*
X016184Y002766D01*
X016095Y002864D02*
X016409Y002864D01*
X016562Y002963D02*
X015942Y002963D01*
X015562Y002963D02*
X014942Y002963D01*
X015095Y002864D02*
X015409Y002864D01*
X015321Y002766D02*
X015184Y002766D01*
X015224Y002667D02*
X015280Y002667D01*
X015252Y002569D02*
X015252Y002569D01*
X015252Y002470D02*
X015252Y002470D01*
X015240Y002372D02*
X015264Y002372D01*
X015305Y002273D02*
X015200Y002273D01*
X015134Y002175D02*
X015371Y002175D01*
X015469Y002076D02*
X015035Y002076D01*
X015024Y001879D02*
X015481Y001879D01*
X015552Y001978D02*
X007991Y001978D01*
X007991Y001950D02*
X007991Y002050D01*
X008490Y002050D01*
X008479Y001879D02*
X013481Y001879D01*
X013382Y001781D02*
X008447Y001781D01*
X008390Y001682D02*
X013292Y001682D01*
X013292Y001584D02*
X008303Y001584D01*
X008136Y001485D02*
X013292Y001485D01*
X013292Y001387D02*
X004952Y001387D01*
X004952Y001288D02*
X013314Y001288D01*
X013412Y001190D02*
X004952Y001190D01*
X004994Y001091D02*
X013511Y001091D01*
X013994Y001091D02*
X014511Y001091D01*
X014412Y001190D02*
X014092Y001190D01*
X014191Y001288D02*
X014314Y001288D01*
X014292Y001387D02*
X014212Y001387D01*
X014212Y001485D02*
X014292Y001485D01*
X014292Y001584D02*
X014212Y001584D01*
X014212Y001682D02*
X014292Y001682D01*
X014382Y001781D02*
X014122Y001781D01*
X014024Y001879D02*
X014481Y001879D01*
X014469Y002076D02*
X014035Y002076D01*
X014134Y002175D02*
X014371Y002175D01*
X014305Y002273D02*
X014200Y002273D01*
X014240Y002372D02*
X014264Y002372D01*
X014252Y002470D02*
X014252Y002470D01*
X014252Y002569D02*
X014252Y002569D01*
X014224Y002667D02*
X014280Y002667D01*
X014321Y002766D02*
X014184Y002766D01*
X014095Y002864D02*
X014409Y002864D01*
X014562Y002963D02*
X013942Y002963D01*
X013562Y002963D02*
X012514Y002963D01*
X012476Y003000D02*
X011629Y003000D01*
X011552Y002924D01*
X011552Y002076D01*
X011629Y002000D01*
X012476Y002000D01*
X012552Y002076D01*
X013469Y002076D01*
X013371Y002175D02*
X012552Y002175D01*
X012552Y002273D02*
X013305Y002273D01*
X013264Y002372D02*
X012552Y002372D01*
X012552Y002470D02*
X013252Y002470D01*
X013252Y002569D02*
X012552Y002569D01*
X012552Y002667D02*
X013280Y002667D01*
X013321Y002766D02*
X012552Y002766D01*
X012552Y002864D02*
X013409Y002864D01*
X012552Y002924D02*
X012476Y003000D01*
X012552Y002924D02*
X012552Y002076D01*
X011553Y002076D02*
X011335Y002076D01*
X011434Y002175D02*
X011552Y002175D01*
X011552Y002273D02*
X011500Y002273D01*
X011540Y002372D02*
X011552Y002372D01*
X011552Y002470D02*
X011552Y002470D01*
X011552Y002569D02*
X011552Y002569D01*
X011552Y002667D02*
X011524Y002667D01*
X011552Y002766D02*
X011484Y002766D01*
X011552Y002864D02*
X011395Y002864D01*
X011332Y002963D02*
X011591Y002963D01*
X011332Y003061D02*
X028902Y003061D01*
X028927Y003160D02*
X011332Y003160D01*
X011332Y003258D02*
X028968Y003258D01*
X029052Y003357D02*
X011332Y003357D01*
X011332Y003455D02*
X029194Y003455D01*
X028252Y002924D02*
X028176Y003000D01*
X028252Y002924D02*
X028252Y002076D01*
X028252Y002175D02*
X028741Y002175D01*
X028821Y002247D02*
X028821Y002247D01*
X028903Y002273D02*
X028252Y002273D01*
X027943Y001960D02*
X027562Y001960D01*
X027292Y001691D01*
X027292Y001309D01*
X027562Y001040D01*
X027943Y001040D01*
X028212Y001309D01*
X028212Y001691D01*
X027943Y001960D01*
X028024Y001879D02*
X028498Y001879D01*
X028454Y001781D02*
X028122Y001781D01*
X028212Y001682D02*
X028410Y001682D01*
X028409Y001584D02*
X028212Y001584D01*
X028212Y001485D02*
X028409Y001485D01*
X028409Y001387D02*
X028212Y001387D01*
X028191Y001288D02*
X028424Y001288D01*
X028468Y001190D02*
X028092Y001190D01*
X027994Y001091D02*
X028511Y001091D01*
X028555Y000993D02*
X028555Y000993D01*
X028556Y000993D02*
X015528Y000993D01*
X015429Y000894D02*
X028665Y000894D01*
X028775Y000796D02*
X015331Y000796D01*
X015232Y000697D02*
X028995Y000697D01*
X027511Y001091D02*
X026994Y001091D01*
X026943Y001040D02*
X026562Y001040D01*
X026292Y001309D01*
X026292Y001691D01*
X026562Y001960D01*
X026943Y001960D01*
X027212Y001691D01*
X027212Y001309D01*
X026943Y001040D01*
X027092Y001190D02*
X027412Y001190D01*
X027314Y001288D02*
X027191Y001288D01*
X027212Y001387D02*
X027292Y001387D01*
X027292Y001485D02*
X027212Y001485D01*
X027212Y001584D02*
X027292Y001584D01*
X027292Y001682D02*
X027212Y001682D01*
X027122Y001781D02*
X027382Y001781D01*
X027481Y001879D02*
X027024Y001879D01*
X027035Y002076D02*
X027253Y002076D01*
X027252Y002175D02*
X027134Y002175D01*
X027176Y002217D02*
X027252Y002401D01*
X027252Y002599D01*
X027176Y002783D01*
X027036Y002924D01*
X026852Y003000D01*
X026653Y003000D01*
X026469Y002924D01*
X026328Y002783D01*
X026252Y002599D01*
X026176Y002783D01*
X026036Y002924D01*
X025852Y003000D01*
X025653Y003000D01*
X025469Y002924D01*
X025328Y002783D01*
X025252Y002599D01*
X025176Y002783D01*
X025036Y002924D01*
X024852Y003000D01*
X024653Y003000D01*
X024469Y002924D01*
X024328Y002783D01*
X024252Y002599D01*
X024176Y002783D01*
X024036Y002924D01*
X023852Y003000D01*
X023653Y003000D01*
X023469Y002924D01*
X023328Y002783D01*
X023252Y002599D01*
X023252Y002401D01*
X023328Y002217D01*
X023469Y002076D01*
X023653Y002000D01*
X023852Y002000D01*
X024036Y002076D01*
X024176Y002217D01*
X024252Y002401D01*
X024252Y002599D01*
X024252Y002401D01*
X024328Y002217D01*
X024469Y002076D01*
X024653Y002000D01*
X024852Y002000D01*
X025036Y002076D01*
X025176Y002217D01*
X025252Y002401D01*
X025252Y002599D01*
X025252Y002401D01*
X025328Y002217D01*
X025469Y002076D01*
X025653Y002000D01*
X025852Y002000D01*
X026036Y002076D01*
X026176Y002217D01*
X026252Y002401D01*
X026252Y002599D01*
X026252Y002401D01*
X026328Y002217D01*
X026469Y002076D01*
X026653Y002000D01*
X026852Y002000D01*
X027036Y002076D01*
X027176Y002217D01*
X027200Y002273D02*
X027252Y002273D01*
X027240Y002372D02*
X027252Y002372D01*
X027252Y002470D02*
X027252Y002470D01*
X027252Y002569D02*
X027252Y002569D01*
X027252Y002667D02*
X027224Y002667D01*
X027252Y002766D02*
X027184Y002766D01*
X027252Y002864D02*
X027095Y002864D01*
X026942Y002963D02*
X027291Y002963D01*
X026562Y002963D02*
X025942Y002963D01*
X026095Y002864D02*
X026409Y002864D01*
X026321Y002766D02*
X026184Y002766D01*
X026224Y002667D02*
X026280Y002667D01*
X026252Y002569D02*
X026252Y002569D01*
X026252Y002470D02*
X026252Y002470D01*
X026240Y002372D02*
X026264Y002372D01*
X026305Y002273D02*
X026200Y002273D01*
X026134Y002175D02*
X026371Y002175D01*
X026469Y002076D02*
X026035Y002076D01*
X025943Y001960D02*
X025562Y001960D01*
X025292Y001691D01*
X025292Y001309D01*
X025562Y001040D01*
X025943Y001040D01*
X026212Y001309D01*
X026212Y001691D01*
X025943Y001960D01*
X026024Y001879D02*
X026481Y001879D01*
X026382Y001781D02*
X026122Y001781D01*
X026212Y001682D02*
X026292Y001682D01*
X026292Y001584D02*
X026212Y001584D01*
X026212Y001485D02*
X026292Y001485D01*
X026292Y001387D02*
X026212Y001387D01*
X026191Y001288D02*
X026314Y001288D01*
X026412Y001190D02*
X026092Y001190D01*
X025994Y001091D02*
X026511Y001091D01*
X025511Y001091D02*
X024994Y001091D01*
X024943Y001040D02*
X025212Y001309D01*
X025212Y001691D01*
X024943Y001960D01*
X024562Y001960D01*
X024292Y001691D01*
X024292Y001309D01*
X024562Y001040D01*
X024943Y001040D01*
X025092Y001190D02*
X025412Y001190D01*
X025314Y001288D02*
X025191Y001288D01*
X025212Y001387D02*
X025292Y001387D01*
X025292Y001485D02*
X025212Y001485D01*
X025212Y001584D02*
X025292Y001584D01*
X025292Y001682D02*
X025212Y001682D01*
X025122Y001781D02*
X025382Y001781D01*
X025481Y001879D02*
X025024Y001879D01*
X025035Y002076D02*
X025469Y002076D01*
X025371Y002175D02*
X025134Y002175D01*
X025200Y002273D02*
X025305Y002273D01*
X025264Y002372D02*
X025240Y002372D01*
X025252Y002470D02*
X025252Y002470D01*
X025252Y002569D02*
X025252Y002569D01*
X025224Y002667D02*
X025280Y002667D01*
X025321Y002766D02*
X025184Y002766D01*
X025095Y002864D02*
X025409Y002864D01*
X025562Y002963D02*
X024942Y002963D01*
X024562Y002963D02*
X023942Y002963D01*
X024095Y002864D02*
X024409Y002864D01*
X024321Y002766D02*
X024184Y002766D01*
X024224Y002667D02*
X024280Y002667D01*
X024252Y002569D02*
X024252Y002569D01*
X024252Y002470D02*
X024252Y002470D01*
X024240Y002372D02*
X024264Y002372D01*
X024305Y002273D02*
X024200Y002273D01*
X024134Y002175D02*
X024371Y002175D01*
X024469Y002076D02*
X024035Y002076D01*
X023943Y001960D02*
X023562Y001960D01*
X023292Y001691D01*
X023292Y001309D01*
X023562Y001040D01*
X023943Y001040D01*
X024212Y001309D01*
X024212Y001691D01*
X023943Y001960D01*
X024024Y001879D02*
X024481Y001879D01*
X024382Y001781D02*
X024122Y001781D01*
X024212Y001682D02*
X024292Y001682D01*
X024292Y001584D02*
X024212Y001584D01*
X024212Y001485D02*
X024292Y001485D01*
X024292Y001387D02*
X024212Y001387D01*
X024191Y001288D02*
X024314Y001288D01*
X024412Y001190D02*
X024092Y001190D01*
X023994Y001091D02*
X024511Y001091D01*
X023511Y001091D02*
X022994Y001091D01*
X022943Y001040D02*
X022562Y001040D01*
X022292Y001309D01*
X022292Y001691D01*
X022562Y001960D01*
X022943Y001960D01*
X023212Y001691D01*
X023212Y001309D01*
X022943Y001040D01*
X023092Y001190D02*
X023412Y001190D01*
X023314Y001288D02*
X023191Y001288D01*
X023212Y001387D02*
X023292Y001387D01*
X023292Y001485D02*
X023212Y001485D01*
X023212Y001584D02*
X023292Y001584D01*
X023292Y001682D02*
X023212Y001682D01*
X023122Y001781D02*
X023382Y001781D01*
X023481Y001879D02*
X023024Y001879D01*
X023035Y002076D02*
X023469Y002076D01*
X023371Y002175D02*
X023134Y002175D01*
X023200Y002273D02*
X023305Y002273D01*
X023264Y002372D02*
X023240Y002372D01*
X023252Y002470D02*
X023252Y002470D01*
X023252Y002569D02*
X023252Y002569D01*
X023224Y002667D02*
X023280Y002667D01*
X023321Y002766D02*
X023184Y002766D01*
X023095Y002864D02*
X023409Y002864D01*
X023562Y002963D02*
X022942Y002963D01*
X022481Y001879D02*
X021024Y001879D01*
X021122Y001781D02*
X022382Y001781D01*
X022292Y001682D02*
X021212Y001682D01*
X021212Y001584D02*
X022292Y001584D01*
X022292Y001485D02*
X021212Y001485D01*
X021212Y001387D02*
X022292Y001387D01*
X022314Y001288D02*
X021191Y001288D01*
X021092Y001190D02*
X022412Y001190D01*
X022511Y001091D02*
X020994Y001091D01*
X020511Y001091D02*
X020022Y001091D01*
X020121Y001190D02*
X020412Y001190D01*
X020314Y001288D02*
X020219Y001288D01*
X020232Y001387D02*
X020292Y001387D01*
X019801Y001288D02*
X019704Y001288D01*
X019704Y001190D02*
X019801Y001190D01*
X019801Y001091D02*
X019704Y001091D01*
X019483Y001091D02*
X019022Y001091D01*
X019121Y001190D02*
X019384Y001190D01*
X019286Y001288D02*
X019219Y001288D01*
X019232Y001387D02*
X019272Y001387D01*
X019272Y001548D02*
X019704Y001548D01*
X019704Y001980D01*
X019554Y001980D01*
X019272Y001699D01*
X019272Y001548D01*
X019272Y001584D02*
X019232Y001584D01*
X019232Y001682D02*
X019272Y001682D01*
X019354Y001781D02*
X019151Y001781D01*
X019052Y001879D02*
X019453Y001879D01*
X019551Y001978D02*
X018954Y001978D01*
X019053Y002076D02*
X019451Y002076D01*
X019346Y002175D02*
X019159Y002175D01*
X019220Y002273D02*
X019284Y002273D01*
X019271Y002550D02*
X018802Y002550D01*
X018802Y003019D01*
X018874Y003007D01*
X018952Y002982D01*
X019025Y002945D01*
X019091Y002897D01*
X019149Y002839D01*
X019197Y002773D01*
X019234Y002700D01*
X019252Y002644D01*
X019270Y002700D01*
X019308Y002773D01*
X019356Y002839D01*
X019414Y002897D01*
X019480Y002945D01*
X019553Y002982D01*
X019631Y003007D01*
X019702Y003019D01*
X019702Y002550D01*
X019271Y002550D01*
X019260Y002667D02*
X019245Y002667D01*
X019201Y002766D02*
X019304Y002766D01*
X019381Y002864D02*
X019124Y002864D01*
X018990Y002963D02*
X019515Y002963D01*
X019702Y002963D02*
X019802Y002963D01*
X019802Y002864D02*
X019702Y002864D01*
X019702Y002766D02*
X019802Y002766D01*
X019802Y002667D02*
X019702Y002667D01*
X019702Y002569D02*
X019802Y002569D01*
X019702Y002470D02*
X018802Y002470D01*
X018802Y002372D02*
X018702Y002372D01*
X018702Y002273D02*
X018802Y002273D01*
X018802Y002175D02*
X018702Y002175D01*
X018702Y002076D02*
X018802Y002076D01*
X018801Y001978D02*
X018704Y001978D01*
X018704Y001879D02*
X018801Y001879D01*
X018801Y001781D02*
X018704Y001781D01*
X018704Y001682D02*
X018801Y001682D01*
X018801Y001584D02*
X018704Y001584D01*
X018272Y001387D02*
X018212Y001387D01*
X018191Y001288D02*
X018286Y001288D01*
X018384Y001190D02*
X018092Y001190D01*
X017994Y001091D02*
X018483Y001091D01*
X018704Y001091D02*
X018801Y001091D01*
X018801Y001190D02*
X018704Y001190D01*
X018704Y001288D02*
X018801Y001288D01*
X019704Y001584D02*
X019801Y001584D01*
X019801Y001682D02*
X019704Y001682D01*
X019704Y001781D02*
X019801Y001781D01*
X019801Y001879D02*
X019704Y001879D01*
X019704Y001978D02*
X019801Y001978D01*
X019802Y002076D02*
X019702Y002076D01*
X019702Y002175D02*
X019802Y002175D01*
X019802Y002273D02*
X019702Y002273D01*
X019702Y002372D02*
X019802Y002372D01*
X020245Y002667D02*
X020252Y002667D01*
X020252Y002766D02*
X020201Y002766D01*
X020252Y002864D02*
X020124Y002864D01*
X019990Y002963D02*
X020291Y002963D01*
X021176Y003000D02*
X021252Y002924D01*
X021252Y002076D01*
X018802Y002569D02*
X018702Y002569D01*
X018702Y002667D02*
X018802Y002667D01*
X018802Y002766D02*
X018702Y002766D01*
X018702Y002864D02*
X018802Y002864D01*
X018802Y002963D02*
X018702Y002963D01*
X018515Y002963D02*
X017942Y002963D01*
X018095Y002864D02*
X018381Y002864D01*
X018304Y002766D02*
X018184Y002766D01*
X018224Y002667D02*
X018260Y002667D01*
X018240Y002372D02*
X018247Y002372D01*
X018284Y002273D02*
X018200Y002273D01*
X018134Y002175D02*
X018346Y002175D01*
X017469Y002076D02*
X017035Y002076D01*
X017134Y002175D02*
X017371Y002175D01*
X017305Y002273D02*
X017200Y002273D01*
X017240Y002372D02*
X017264Y002372D01*
X017252Y002470D02*
X017252Y002470D01*
X017252Y002569D02*
X017252Y002569D01*
X017224Y002667D02*
X017280Y002667D01*
X017321Y002766D02*
X017184Y002766D01*
X017095Y002864D02*
X017409Y002864D01*
X017562Y002963D02*
X016942Y002963D01*
X017024Y001879D02*
X017481Y001879D01*
X017382Y001781D02*
X017122Y001781D01*
X017212Y001682D02*
X017292Y001682D01*
X017292Y001584D02*
X017212Y001584D01*
X017212Y001485D02*
X017292Y001485D01*
X017292Y001387D02*
X017212Y001387D01*
X017191Y001288D02*
X017314Y001288D01*
X017412Y001190D02*
X017092Y001190D01*
X016994Y001091D02*
X017511Y001091D01*
X016511Y001091D02*
X015994Y001091D01*
X016092Y001190D02*
X016412Y001190D01*
X016314Y001288D02*
X016191Y001288D01*
X016212Y001387D02*
X016292Y001387D01*
X016292Y001485D02*
X016212Y001485D01*
X016212Y001584D02*
X016292Y001584D01*
X016292Y001682D02*
X016212Y001682D01*
X016122Y001781D02*
X016382Y001781D01*
X015382Y001781D02*
X015122Y001781D01*
X015212Y001682D02*
X015292Y001682D01*
X015292Y001584D02*
X015212Y001584D01*
X015212Y001485D02*
X015292Y001485D01*
X015292Y001387D02*
X015212Y001387D01*
X015191Y001288D02*
X015258Y001288D01*
X015159Y001190D02*
X015092Y001190D01*
X015061Y001091D02*
X014994Y001091D01*
X010709Y002864D02*
X010395Y002864D01*
X010484Y002766D02*
X010621Y002766D01*
X007991Y002470D02*
X007891Y002470D01*
X007891Y002372D02*
X007991Y002372D01*
X007991Y002273D02*
X007891Y002273D01*
X007891Y002175D02*
X007991Y002175D01*
X007991Y002076D02*
X007891Y002076D01*
X007891Y001978D02*
X007093Y001978D01*
X007093Y002076D02*
X007397Y002076D01*
X007420Y002175D02*
X007093Y002175D01*
X007093Y002273D02*
X007463Y002273D01*
X007535Y002372D02*
X007093Y002372D01*
X007077Y002470D02*
X007653Y002470D01*
X007404Y001879D02*
X007093Y001879D01*
X007093Y001781D02*
X007436Y001781D01*
X007493Y001682D02*
X007093Y001682D01*
X007093Y001584D02*
X007580Y001584D01*
X007649Y004736D02*
X004355Y004736D01*
X007855Y004736D02*
X010872Y004736D01*
X011355Y004736D02*
X014649Y004736D01*
X014855Y004736D02*
X018149Y004736D01*
X018355Y004736D02*
X021649Y004736D01*
X021855Y004736D02*
X025149Y004736D01*
X025355Y004736D02*
X028649Y004736D01*
X028522Y008577D02*
X025442Y008577D01*
X025063Y008577D02*
X021942Y008577D01*
X021563Y008577D02*
X018442Y008577D01*
X018063Y008577D02*
X014942Y008577D01*
X014563Y008577D02*
X011442Y008577D01*
X011063Y008577D02*
X007942Y008577D01*
X007563Y008577D02*
X004442Y008577D01*
X004358Y011237D02*
X007647Y011237D01*
X007858Y011237D02*
X011147Y011237D01*
X011358Y011237D02*
X014647Y011237D01*
X014858Y011237D02*
X018147Y011237D01*
X018358Y011237D02*
X021647Y011237D01*
X021858Y011237D02*
X025147Y011237D01*
X025358Y011237D02*
X028522Y011237D01*
X028522Y015078D02*
X025441Y015078D01*
X025064Y015078D02*
X021941Y015078D01*
X021564Y015078D02*
X018441Y015078D01*
X018064Y015078D02*
X014941Y015078D01*
X014564Y015078D02*
X011441Y015078D01*
X011064Y015078D02*
X007941Y015078D01*
X007564Y015078D02*
X004441Y015078D01*
X004360Y017738D02*
X007644Y017738D01*
X007860Y017738D02*
X011094Y017738D01*
X011310Y017738D02*
X014544Y017738D01*
X014760Y017738D02*
X018044Y017738D01*
X018260Y017738D02*
X021644Y017738D01*
X021860Y017738D02*
X025044Y017738D01*
X025260Y017738D02*
X028522Y017738D01*
X022402Y020200D02*
X022103Y020200D01*
X022201Y020299D02*
X022303Y020299D01*
X022292Y020397D02*
X022212Y020397D01*
X022212Y020496D02*
X022292Y020496D01*
X022292Y020594D02*
X022212Y020594D01*
X022210Y020693D02*
X022294Y020693D01*
X022393Y020791D02*
X022112Y020791D01*
X022013Y020890D02*
X022491Y020890D01*
X018991Y020890D02*
X018513Y020890D01*
X018443Y020960D02*
X018062Y020960D01*
X017792Y020691D01*
X017792Y020309D01*
X018062Y020040D01*
X018443Y020040D01*
X018712Y020309D01*
X018712Y020691D01*
X018443Y020960D01*
X018612Y020791D02*
X018893Y020791D01*
X018794Y020693D02*
X018710Y020693D01*
X018712Y020594D02*
X018792Y020594D01*
X018792Y020496D02*
X018712Y020496D01*
X018712Y020397D02*
X018792Y020397D01*
X018803Y020299D02*
X018701Y020299D01*
X018603Y020200D02*
X018902Y020200D01*
X019000Y020102D02*
X018504Y020102D01*
X018555Y019905D02*
X018950Y019905D01*
X018851Y019806D02*
X018653Y019806D01*
X018708Y019708D02*
X018797Y019708D01*
X018756Y019609D02*
X018748Y019609D01*
X018752Y019599D02*
X018752Y019401D01*
X018676Y019217D01*
X018536Y019076D01*
X018352Y019000D01*
X018153Y019000D01*
X017969Y019076D01*
X017828Y019217D01*
X017752Y019401D01*
X017676Y019217D01*
X017536Y019076D01*
X017352Y019000D01*
X017153Y019000D01*
X016969Y019076D01*
X016828Y019217D01*
X016752Y019401D01*
X016676Y019217D01*
X016536Y019076D01*
X016352Y019000D01*
X016153Y019000D01*
X015969Y019076D01*
X015828Y019217D01*
X015752Y019401D01*
X015676Y019217D01*
X015536Y019076D01*
X015352Y019000D01*
X015153Y019000D01*
X014969Y019076D01*
X014828Y019217D01*
X014752Y019401D01*
X014752Y019599D01*
X014752Y019401D01*
X014676Y019217D01*
X014536Y019076D01*
X014352Y019000D01*
X014153Y019000D01*
X013969Y019076D01*
X013828Y019217D01*
X013760Y019382D01*
X013760Y019378D01*
X013734Y019300D01*
X013697Y019227D01*
X013649Y019161D01*
X013591Y019103D01*
X013525Y019055D01*
X013452Y019018D01*
X013374Y018993D01*
X013302Y018981D01*
X013302Y019450D01*
X013202Y019450D01*
X013202Y018981D01*
X013131Y018993D01*
X013053Y019018D01*
X013202Y019018D02*
X013302Y019018D01*
X013302Y019117D02*
X013202Y019117D01*
X013202Y019215D02*
X013302Y019215D01*
X013302Y019314D02*
X013202Y019314D01*
X013202Y019412D02*
X013302Y019412D01*
X013302Y019609D02*
X013202Y019609D01*
X013202Y019708D02*
X013302Y019708D01*
X013302Y019806D02*
X013202Y019806D01*
X013202Y019905D02*
X013302Y019905D01*
X013580Y019905D02*
X013950Y019905D01*
X013851Y019806D02*
X013673Y019806D01*
X013730Y019708D02*
X013797Y019708D01*
X014062Y020040D02*
X014443Y020040D01*
X014712Y020309D01*
X014712Y020691D01*
X014443Y020960D01*
X014062Y020960D01*
X013792Y020691D01*
X013792Y020309D01*
X014062Y020040D01*
X014000Y020102D02*
X013533Y020102D01*
X013631Y020200D02*
X013902Y020200D01*
X013803Y020299D02*
X013730Y020299D01*
X013732Y020397D02*
X013792Y020397D01*
X013792Y020496D02*
X013301Y020496D01*
X013301Y020397D02*
X013204Y020397D01*
X013204Y020299D02*
X013301Y020299D01*
X013732Y020594D02*
X013792Y020594D01*
X013794Y020693D02*
X013732Y020693D01*
X013640Y020791D02*
X013893Y020791D01*
X013991Y020890D02*
X013542Y020890D01*
X014513Y020890D02*
X014991Y020890D01*
X015062Y020960D02*
X014792Y020691D01*
X014792Y020309D01*
X015062Y020040D01*
X015443Y020040D01*
X015712Y020309D01*
X015712Y020691D01*
X015443Y020960D01*
X015062Y020960D01*
X014893Y020791D02*
X014612Y020791D01*
X014710Y020693D02*
X014794Y020693D01*
X014792Y020594D02*
X014712Y020594D01*
X014712Y020496D02*
X014792Y020496D01*
X014792Y020397D02*
X014712Y020397D01*
X014701Y020299D02*
X014803Y020299D01*
X014902Y020200D02*
X014603Y020200D01*
X014504Y020102D02*
X015000Y020102D01*
X014950Y019905D02*
X014555Y019905D01*
X014653Y019806D02*
X014851Y019806D01*
X014797Y019708D02*
X014708Y019708D01*
X014748Y019609D02*
X014756Y019609D01*
X014752Y019511D02*
X014752Y019511D01*
X014752Y019412D02*
X014752Y019412D01*
X014716Y019314D02*
X014788Y019314D01*
X014830Y019215D02*
X014675Y019215D01*
X014576Y019117D02*
X014929Y019117D01*
X015109Y019018D02*
X014395Y019018D01*
X014109Y019018D02*
X013452Y019018D01*
X013604Y019117D02*
X013929Y019117D01*
X013830Y019215D02*
X013688Y019215D01*
X013739Y019314D02*
X013788Y019314D01*
X015395Y019018D02*
X016109Y019018D01*
X015929Y019117D02*
X015576Y019117D01*
X015675Y019215D02*
X015830Y019215D01*
X015788Y019314D02*
X015716Y019314D01*
X015752Y019401D02*
X015752Y019599D01*
X015752Y019401D01*
X015752Y019412D02*
X015752Y019412D01*
X015752Y019511D02*
X015752Y019511D01*
X015748Y019609D02*
X015756Y019609D01*
X015797Y019708D02*
X015708Y019708D01*
X015653Y019806D02*
X015851Y019806D01*
X015950Y019905D02*
X015555Y019905D01*
X015504Y020102D02*
X016000Y020102D01*
X016062Y020040D02*
X016443Y020040D01*
X016712Y020309D01*
X016712Y020691D01*
X016443Y020960D01*
X016062Y020960D01*
X015792Y020691D01*
X015792Y020309D01*
X016062Y020040D01*
X015902Y020200D02*
X015603Y020200D01*
X015701Y020299D02*
X015803Y020299D01*
X015792Y020397D02*
X015712Y020397D01*
X015712Y020496D02*
X015792Y020496D01*
X015792Y020594D02*
X015712Y020594D01*
X015710Y020693D02*
X015794Y020693D01*
X015893Y020791D02*
X015612Y020791D01*
X015513Y020890D02*
X015991Y020890D01*
X016513Y020890D02*
X016991Y020890D01*
X017062Y020960D02*
X016792Y020691D01*
X016792Y020309D01*
X017062Y020040D01*
X017443Y020040D01*
X017712Y020309D01*
X017712Y020691D01*
X017443Y020960D01*
X017062Y020960D01*
X016893Y020791D02*
X016612Y020791D01*
X016710Y020693D02*
X016794Y020693D01*
X016792Y020594D02*
X016712Y020594D01*
X016712Y020496D02*
X016792Y020496D01*
X016792Y020397D02*
X016712Y020397D01*
X016701Y020299D02*
X016803Y020299D01*
X016902Y020200D02*
X016603Y020200D01*
X016504Y020102D02*
X017000Y020102D01*
X016950Y019905D02*
X016555Y019905D01*
X016653Y019806D02*
X016851Y019806D01*
X016797Y019708D02*
X016708Y019708D01*
X016748Y019609D02*
X016756Y019609D01*
X016752Y019599D02*
X016752Y019401D01*
X016752Y019599D01*
X016752Y019511D02*
X016752Y019511D01*
X016752Y019412D02*
X016752Y019412D01*
X016716Y019314D02*
X016788Y019314D01*
X016830Y019215D02*
X016675Y019215D01*
X016576Y019117D02*
X016929Y019117D01*
X017109Y019018D02*
X016395Y019018D01*
X017395Y019018D02*
X018109Y019018D01*
X017929Y019117D02*
X017576Y019117D01*
X017675Y019215D02*
X017830Y019215D01*
X017788Y019314D02*
X017716Y019314D01*
X017752Y019401D02*
X017752Y019599D01*
X017752Y019401D01*
X017752Y019412D02*
X017752Y019412D01*
X017752Y019511D02*
X017752Y019511D01*
X017748Y019609D02*
X017756Y019609D01*
X017797Y019708D02*
X017708Y019708D01*
X017653Y019806D02*
X017851Y019806D01*
X017950Y019905D02*
X017555Y019905D01*
X017504Y020102D02*
X018000Y020102D01*
X017902Y020200D02*
X017603Y020200D01*
X017701Y020299D02*
X017803Y020299D01*
X017792Y020397D02*
X017712Y020397D01*
X017712Y020496D02*
X017792Y020496D01*
X017792Y020594D02*
X017712Y020594D01*
X017710Y020693D02*
X017794Y020693D01*
X017893Y020791D02*
X017612Y020791D01*
X017513Y020890D02*
X017991Y020890D01*
X018752Y019599D02*
X018752Y019401D01*
X018828Y019217D01*
X018969Y019076D01*
X019052Y019042D01*
X019052Y018983D01*
X019020Y018950D01*
X019052Y019018D02*
X018395Y019018D01*
X018576Y019117D02*
X018929Y019117D01*
X018830Y019215D02*
X018675Y019215D01*
X018716Y019314D02*
X018788Y019314D01*
X018752Y019412D02*
X018752Y019412D01*
X018752Y019511D02*
X018752Y019511D01*
X004019Y019680D02*
X004019Y019680D01*
D16*
X003102Y019050D03*
X003452Y018700D03*
X004252Y018050D03*
X006402Y018750D03*
X007352Y019300D03*
X007752Y018050D03*
X011202Y018050D03*
X014652Y018050D03*
X018152Y018050D03*
X021752Y018050D03*
X025152Y018050D03*
X028752Y018050D03*
X028752Y014800D03*
X025252Y014800D03*
X021752Y014800D03*
X018252Y014800D03*
X014752Y014800D03*
X011252Y014800D03*
X007752Y014800D03*
X004252Y014800D03*
X003452Y012300D03*
X004252Y011550D03*
X007752Y011550D03*
X011252Y011550D03*
X014752Y011550D03*
X018252Y011550D03*
X021752Y011550D03*
X025252Y011550D03*
X028752Y011550D03*
X028752Y008300D03*
X025252Y008300D03*
X021752Y008300D03*
X018252Y008300D03*
X014752Y008300D03*
X011252Y008300D03*
X007752Y008300D03*
X004252Y008300D03*
X003452Y005750D03*
X004252Y005050D03*
X007752Y005050D03*
X011252Y005050D03*
X014752Y005050D03*
X018252Y005050D03*
X021752Y005050D03*
X025252Y005050D03*
X028752Y005050D03*
D17*
X025252Y005050D01*
X021752Y005050D01*
X018252Y005050D01*
X014752Y005050D01*
X011252Y005050D01*
X007752Y005050D01*
X004252Y005050D01*
X004252Y008300D02*
X007752Y008300D01*
X011252Y008300D01*
X014752Y008300D01*
X018252Y008300D01*
X021752Y008300D01*
X025252Y008300D01*
X028752Y008300D01*
X028752Y011550D01*
X025252Y011550D01*
X021752Y011550D01*
X018252Y011550D01*
X014752Y011550D01*
X011252Y011550D01*
X007752Y011550D01*
X004252Y011550D01*
X004252Y014800D02*
X007752Y014800D01*
X011252Y014800D01*
X014752Y014800D01*
X018252Y014800D01*
X021752Y014800D01*
X025252Y014800D01*
X028752Y014800D01*
X028752Y018050D01*
X025152Y018050D01*
X021752Y018050D01*
X018152Y018050D01*
X014652Y018050D01*
X011202Y018050D01*
X007752Y018050D01*
X004252Y018050D01*
X011252Y005050D02*
X011102Y004900D01*
X011102Y002550D01*
X011052Y002500D01*
X028752Y005050D02*
X028752Y008300D01*
X028752Y011550D02*
X028752Y014800D01*
D18*
X003252Y002500D02*
X003102Y002650D01*
X003102Y019050D01*
X003302Y019300D01*
X007352Y019300D01*
X006402Y018750D02*
X019102Y018750D01*
X019252Y018900D01*
X019252Y019500D01*
X015752Y002500D02*
X015752Y001500D01*
X015102Y000850D01*
X004952Y000850D01*
X004752Y001050D01*
X004752Y002300D01*
X004552Y002500D01*
X003252Y002500D01*
M02*
